<?xml version="1.0" encoding="utf-8"?>
<!-- Generator: Adobe Illustrator 27.5.0, SVG Export Plug-In . SVG Version: 6.00 Build 0)  -->
<svg version="1.1" xmlns="http://www.w3.org/2000/svg" xmlns:xlink="http://www.w3.org/1999/xlink" x="0px" y="0px"
	 viewBox="0 0 1250.7 1250.7" style="enable-background:new 0 0 1250.7 1250.7;" xml:space="preserve">
<style type="text/css">
	.st0{fill:#FDD761;stroke:#484157;stroke-width:7;stroke-miterlimit:10;}
	.st1{fill:#FDD761;stroke:#484157;stroke-width:5.7961;stroke-miterlimit:10;}
	.st2{fill:#FDFDB9;}
</style>
<g id="Layer_2">
	<circle class="st0" cx="625.6" cy="622.9" r="202.9"/>
	<path class="st0" d="M626.8,401.1h-1.3c-6.6,0-12-5.4-12-12V181.2c0-6.6,5.4-12,12-12h1.3c6.6,0,12,5.4,12,12v207.8
		C638.8,395.7,633.4,401.1,626.8,401.1z"/>
	<path class="st0" d="M626.8,1083.1h-1.3c-6.6,0-12-5.4-12-12V863.3c0-6.6,5.4-12,12-12h1.3c6.6,0,12,5.4,12,12v207.8
		C638.8,1077.7,633.4,1083.1,626.8,1083.1z"/>
	<path class="st0" d="M869.4,623.6v-1.3c0-6.6,5.4-12,12-12h207.8c6.6,0,12,5.4,12,12v1.3c0,6.6-5.4,12-12,12H881.4
		C874.8,635.6,869.4,630.2,869.4,623.6z"/>
	<path class="st1" d="M805.3,485.3l-3.4-3.3c-4.1-3.9-4.3-10.4-0.4-14.5l95.1-100.6c3.9-4.1,10.4-4.3,14.5-0.4l3.4,3.3
		c4.1,3.9,4.3,10.4,0.4,14.5l-95.1,100.6C816,489,809.4,489.2,805.3,485.3z"/>
	<path class="st1" d="M344.8,885.3l-3.4-3.3c-4.1-3.9-4.3-10.4-0.4-14.5L436,766.9c3.9-4.1,10.4-4.3,14.5-0.4l3.4,3.3
		c4.1,3.9,4.3,10.4,0.4,14.5l-95.1,100.5C355.5,889,348.9,889.1,344.8,885.3z"/>
	<path class="st1" d="M338.3,374.3l3.3-3.4c3.9-4.1,10.4-4.3,14.5-0.4l100.6,95.1c4.1,3.9,4.3,10.4,0.4,14.5l-3.3,3.4
		c-3.9,4.1-10.4,4.3-14.5,0.4l-100.6-95.1C334.6,384.9,334.4,378.4,338.3,374.3z"/>
	<path class="st1" d="M798.8,773l3.3-3.4c3.9-4.1,10.4-4.3,14.5-0.4l100.6,95.1c4.1,3.9,4.3,10.4,0.4,14.5l-3.3,3.4
		c-3.9,4.1-10.4,4.3-14.5,0.4l-100.6-95.1C795.1,783.7,794.9,777.1,798.8,773z"/>
	<path class="st0" d="M147.8,623.9v-1.3c0-6.6,5.4-12,12-12h207.8c6.6,0,12,5.4,12,12v1.3c0,6.6-5.4,12-12,12H159.8
		C153.2,635.9,147.8,630.5,147.8,623.9z"/>
</g>
<g id="Layer_3">
	<circle class="st2" cx="465.1" cy="710.3" r="11.7"/>
	<path class="st2" d="M616.2,187"/>
	<g>
		<line class="st2" x1="622.8" y1="222.9" x2="622.8" y2="331.2"/>
		<path class="st2" d="M623.3,222.9c2.9,27,3.3,54.1,2.3,81.2c-0.4,9-1,18-2.3,27.1c0,0-1,0-1,0c-3.4-27-3.1-54.1-2.1-81.2
			c0.5-9,1-18,2.1-27.1C622.3,222.9,623.3,222.9,623.3,222.9L623.3,222.9z"/>
	</g>
	<g>
		<line class="st2" x1="269.4" y1="620.1" x2="161.1" y2="620.1"/>
		<path class="st2" d="M269.4,620.6c-27,2.9-54.1,3.3-81.2,2.3c-9-0.4-18-1-27.1-2.3v-1c27-3.4,54.1-3.1,81.2-2.1
			c9,0.5,18,1,27.1,2.1C269.4,619.6,269.4,620.6,269.4,620.6L269.4,620.6z"/>
	</g>
	<g>
		<line class="st2" x1="991" y1="620.1" x2="882.7" y2="620.1"/>
		<path class="st2" d="M991,620.6c-27,2.9-54.1,3.3-81.2,2.3c-9-0.4-18-1-27.1-2.3v-1c27-3.4,54.1-3.1,81.2-2.1c9,0.5,18,1,27.1,2.1
			C991,619.6,991,620.6,991,620.6L991,620.6z"/>
	</g>
	<g>
		<line class="st2" x1="622.8" y1="914.7" x2="622.8" y2="1023"/>
		<path class="st2" d="M623.3,914.7c2.9,27,3.3,54.1,2.3,81.2c-0.4,9-1,18-2.3,27.1c0,0-1,0-1,0c-3.4-27-3.1-54.1-2.1-81.2
			c0.5-9,1-18,2.1-27.1C622.3,914.7,623.3,914.7,623.3,914.7L623.3,914.7z"/>
	</g>
	<path class="st2" d="M448.1,675.6c-4.4-2.6-8-8.1-9.5-29.3c-2.2-32.8,3.7-59.4,7.1-72.8c5.5-21.3,8.2-31.9,15.8-45.1
		c9.7-16.9,20.4-26.2,40.4-43.5c20-17.4,32-27.6,51.4-34c7.8-2.6,33.8-11.1,42.7,0c4.4,5.4,3.7,14.4,0.8,20.6
		c-5.7,12.3-18.9,10.8-38.8,22.2c-18.1,10.3-28.8,23.9-38,35.6c-13.4,17.1-20.2,32.5-22.2,37.2c-4.7,11.3-10.2,24.3-11.1,41.9
		c-0.7,14.7,2.5,19,0,34.8c-1.7,10.9-3.2,19.5-10.3,26.1C469.3,676.1,456.4,680.5,448.1,675.6z"/>
</g>
</svg>
