<?xml version="1.0" encoding="utf-8"?>
<!-- Generator: Adobe Illustrator 27.5.0, SVG Export Plug-In . SVG Version: 6.00 Build 0)  -->
<svg version="1.1" id="Layer_1" xmlns="http://www.w3.org/2000/svg" xmlns:xlink="http://www.w3.org/1999/xlink" x="0px" y="0px"
	 viewBox="0 0 1250.7 1250.7" style="enable-background:new 0 0 1250.7 1250.7;" xml:space="preserve">
<style type="text/css">
	.st0{fill:#FDD761;stroke:#484157;stroke-width:17;stroke-miterlimit:10;}
	.st1{fill:#FDD761;stroke:#484157;stroke-width:7.4895;stroke-miterlimit:10;}
	.st2{fill:#FDD761;stroke:#484157;stroke-width:7;stroke-miterlimit:10;}
	.st3{fill:#FEFEB9;}
</style>
<g id="Layer_2_00000037654541275600617780000006710740229272373895_">
	<path class="st0" d="M946.1,768.8c9.5-4.9,19.6,5.4,14.4,14.7C903,888.1,781.7,960.1,641.4,960.1c-196,0-354.9-140.6-354.9-314
		c0-135.1,96.5-250.3,231.8-294.6c8.8-2.9,17,6,13.3,14.5c-16.7,38.4-25.9,80.9-25.9,125.5c0,171.3,136.1,310.1,304,310.1
		C858.7,801.7,905.1,789.8,946.1,768.8z"/>
</g>
<path class="st1" d="M801.9,416.7c0.1,4.2,21.4,1.3,40.4,12.9c3.6,2.2,21.6,13.3,26.1,32.4c3.4,14.3-3,32.6,4.2,36.8
	c0.8,0.5,5,1.5,6.5-0.1c2.8-3.2,3.4-7,3.3-11.6c0,0-1.3-17.2,6.3-33.3c6.9-14.5,20.1-21.7,26.1-25.1c5.1-2.8,17-9.4,31.1-10.5
	c1.8-0.1,6.5-0.5,6.6-1.3c0.1-1.1-7.5-2.4-10.3-2.9c-4.7-0.9-25.8-4.9-40.1-17.4c-2.6-2.3-12.8-17-17-35.7
	c-0.5-2.1-1.1-12.4-4.1-23.1c-0.7-2.4-1.6-5.1-3.2-5.3c-2.3-0.3-4.2,4.8-4.6,8.5c-0.8,7.4-1.2,10.5-0.9,14.4
	c0.5,6.1,0.5,21-6.6,30.3c-2.4,3.1-6.5,5.3-14.8,9.8c-8.9,4.8-17.1,7.6-21.1,9c-6.5,2.1-11.4,3.2-19.5,6.9
	C804.7,414,801.9,415.3,801.9,416.7z"/>
<path class="st2" d="M675.4,294.2c0.1,2.4,12.2,0.7,23,7.4c2.1,1.3,12.3,7.6,14.9,18.5c1.9,8.2-1.7,18.6,2.4,21
	c0.5,0.3,2.9,0.9,3.7,0c1.6-1.8,2-4,1.9-6.6c0,0-0.8-9.8,3.6-19c3.9-8.3,11.5-12.4,14.9-14.3c2.9-1.6,9.7-5.3,17.8-6
	c1-0.1,3.7-0.3,3.8-0.8c0-0.6-4.3-1.3-5.9-1.7c-2.7-0.5-14.7-2.8-22.9-9.9c-1.5-1.3-7.3-9.7-9.7-20.4c-0.3-1.2-0.6-7.1-2.3-13.2
	c-0.4-1.4-0.9-2.9-1.8-3c-1.3-0.2-2.4,2.7-2.6,4.9c-0.5,4.2-0.7,6-0.5,8.2c0.3,3.5,0.3,12-3.8,17.3c-1.3,1.8-3.7,3-8.4,5.6
	c-5.1,2.7-9.7,4.4-12,5.1c-3.7,1.2-6.5,1.8-11.1,3.9C676.9,292.6,675.3,293.3,675.4,294.2z"/>
<path class="st3" d="M490.3,386c-19.8,7.3-30.7,29.4-34.9,38.6c-19.2,41.9-22.1,80.7-22.6,88c-1.2,18.7-3.1,51,9.2,90.7
	c4.3,14,12.8,41.9,34.4,68.3c6.5,7.9,18.6,22.5,26.9,19.5c7.2-2.6,7.9-17.2,8-18.5c0.6-15.5-8.8-23.9-16.6-38.1
	c-6.7-12.3-8.6-26.2-12.5-54.1c-0.8-6.1-4-30.5-2.6-64c2.1-49.4,3.3-76.5,16.4-104.4c3.1-6.7,10.9-21.8,6.1-26.4
	C499.3,382.8,493,385,490.3,386z"/>
<circle class="st3" cx="545.5" cy="722.6" r="13.2"/>
</svg>
