<?xml version="1.0" encoding="utf-8"?>
<!-- Generator: Adobe Illustrator 27.5.0, SVG Export Plug-In . SVG Version: 6.00 Build 0)  -->
<svg version="1.1" xmlns="http://www.w3.org/2000/svg" xmlns:xlink="http://www.w3.org/1999/xlink" x="0px" y="0px"
	 viewBox="0 0 1250.7 1250.7" style="enable-background:new 0 0 1250.7 1250.7;" xml:space="preserve">
<style type="text/css">
	.st0{fill:#FDD761;stroke:#484157;stroke-width:7;stroke-miterlimit:10;}
	.st1{fill:#FDFDB9;}
	.st2{fill:#8A9195;stroke:#484157;stroke-width:7;stroke-miterlimit:10;}
	.st3{fill:#FBFDF5;}
</style>
<g id="Layer_3">
	<circle class="st0" cx="370.7" cy="593.4" r="151.2"/>
	<path class="st0" d="M371.5,428h-1c-4.9,0-8.9-4-8.9-8.9V264.2c0-4.9,4-8.9,8.9-8.9h1c4.9,0,8.9,4,8.9,8.9v154.9
		C380.5,424,376.5,428,371.5,428z"/>
	<path class="st0" d="M161.5,788.8l-2.6-2.4c-3.1-2.9-3.2-7.8-0.3-10.8l70.8-74.9c2.9-3.1,7.8-3.2,10.8-0.3l2.6,2.4
		c3.1,2.9,3.2,7.8,0.3,10.8l-70.8,74.9C169.4,791.6,164.5,791.7,161.5,788.8z"/>
	<path class="st0" d="M156.6,408.1l2.4-2.6c2.9-3.1,7.8-3.2,10.8-0.3l74.9,70.8c3.1,2.9,3.2,7.8,0.3,10.8l-2.4,2.6
		c-2.9,3.1-7.8,3.2-10.8,0.3l-74.9-70.8C153.8,416,153.7,411.1,156.6,408.1z"/>
	<path class="st0" d="M14.7,594.1v-1c0-4.9,4-8.9,8.9-8.9h154.9c4.9,0,8.9,4,8.9,8.9v1c0,4.9-4,8.9-8.9,8.9H23.6
		C18.7,603,14.7,599,14.7,594.1z"/>
	<circle class="st1" cx="251.1" cy="658.5" r="8.7"/>
	<path class="st1" d="M363.7,268.6"/>
	<g>
		<line class="st1" x1="368.6" y1="295.3" x2="368.6" y2="376"/>
		<path class="st1" d="M369,295.3c2.2,20.1,2.4,40.3,1.7,60.5c-0.3,6.7-0.8,13.4-1.7,20.2h-0.7c-2.1-16.7-2.3-33.6-1.9-50.4
			c0.3-10.1,0.7-20.2,1.9-30.3C368.2,295.3,369,295.3,369,295.3L369,295.3z"/>
	</g>
	<g>
		<line class="st1" x1="105.3" y1="591.2" x2="24.6" y2="591.2"/>
		<path class="st1" d="M105.3,591.6c-20.1,2.2-40.3,2.4-60.5,1.7c-6.7-0.3-13.4-0.8-20.2-1.7c0,0,0-0.7,0-0.7
			c16.7-2.1,33.6-2.3,50.4-1.9c10.1,0.3,20.2,0.7,30.3,1.9C105.3,590.9,105.3,591.6,105.3,591.6L105.3,591.6z"/>
	</g>
	<path class="st1" d="M238.4,632.6c-3.3-1.9-6-6-7.1-21.8c-1.7-24.4,2.7-44.3,5.3-54.2c4.1-15.8,6.1-23.8,11.8-33.6
		c7.2-12.6,15.2-19.5,30.1-32.4c14.9-13,23.9-20.6,38.3-25.4c5.8-1.9,25.2-8.3,31.8,0c3.2,4.1,2.7,10.7,0.6,15.3
		c-4.3,9.2-14.1,8.1-28.9,16.5c-13.5,7.7-21.5,17.8-28.3,26.5c-10,12.8-15,24.2-16.5,27.7c-3.5,8.4-7.6,18.1-8.3,31.2
		c-0.5,11,1.8,14.2,0,25.9c-1.3,8.1-2.4,14.5-7.7,19.5C254.2,633,244.6,636.3,238.4,632.6z"/>
</g>
<g id="Layer_2">
	<path class="st2" d="M302.4,960.6c60.5,25.9,368,26.1,784.9,0c9.7-2.2,23.4-5.9,39-12.7c19.4-8.4,63.2-27.2,90.2-72.8
		c15.7-26.5,19.2-51.9,21.1-66.5c0.8-5.9,3.3-27.2-0.5-55.9c-3.6-26.9-10-74.5-47.5-111.8c-11.3-11.3-30.4-30.2-59.6-35.9
		c-54.9-10.6-105.6,33.5-112.4,23.7c-2.1-3,2.3-8,7.4-17.9c10.6-20.6,18.8-51.6,12.1-76c-9.6-35.3-49.1-51.1-58.5-54.9
		c-5.2-2.1-46.6-17.9-86.5,0.5c-32.3,15-44,43.3-55.9,38.5c-8-3.2-6.6-17.6-10.5-35.3c-7.5-33.6-28.9-55.1-47.5-73.8
		c-61.3-61.8-161.5-54-184.6-52.2c-26,2-73.8,6.3-122.9,39c-60.4,40.3-83.1,97.3-90.7,117.1c-7.4,19.2-23.5,61.4-16.4,113.4
		c6.3,46,28.6,82.8,18.5,89.7c-4.2,2.8-9.6-2.2-22.7-7.1c-35.8-13.4-70.1-3.4-79.1-0.8c-12.1,3.5-38,11-57,34.8
		c-23.7,29.7-21.1,65.3-19.8,83.1c3.9,52.6,34.8,87.3,47.5,99.7C250.9,926.6,272.5,947.9,302.4,960.6z"/>
	<g id="Layer_4">
		<path class="st3" d="M406.8,609.4c1.4-41.5,5.5-53,5.5-53c10.5-56.7,29.2-82,41.9-97.3c20.2-24.3,36.9-42.5,79.4-58
			c18.9-6.9,33.3-12.6,44-6.1c5.5,3.3,10.2,10.2,9.5,16.6c-1.1,9.6-13.8,14.2-26.9,21.4c-13.6,7.5-24.1,16.8-45.1,35.6
			c-6,5.4-34.3,31.1-58.5,72c-14.2,23.9-21.3,35.9-23.7,47.5c-2.6,12.3-3.2,27.4-12.7,31.6c-0.3,0.1-6.4,2.8-10.3,0
			C406.6,617.2,406.7,611.8,406.8,609.4z"/>
		<path class="st3" d="M219.5,824.2c0.6-18.9,2.5-24.1,2.5-24.1c4.8-25.8,13.3-37.3,19.1-44.2c9.2-11.1,16.8-19.3,36.1-26.4
			c8.6-3.2,15.2-5.7,20-2.8c2.5,1.5,4.7,4.6,4.3,7.6c-0.5,4.3-6.3,6.5-12.2,9.7c-6.2,3.4-11,7.7-20.5,16.2
			c-2.7,2.5-15.6,14.2-26.6,32.7c-6.5,10.9-9.7,16.3-10.8,21.6c-1.2,5.6-1.5,12.4-5.8,14.4c-0.1,0.1-2.9,1.3-4.7,0
			C219.4,827.7,219.4,825.3,219.5,824.2z"/>
		<path class="st3" d="M869.7,536.1c4.7-13.1,7.5-16.3,7.5-16.3c9.8-16.9,19.5-22.7,25.9-26.1c10.2-5.4,18.4-9.1,36.2-9
			c7.9,0.1,14,0,17.5,3.4c1.8,1.7,2.9,4.5,2,6.5c-1.4,2.9-6.7,2.9-12.4,3.6c-6,0.7-10.9,2.5-20.8,6c-2.9,1-16.3,5.8-29.7,16
			c-7.8,5.9-11.8,8.9-13.9,12.3c-2.2,3.6-4,8.4-8,8.6c-0.1,0-2.7,0.1-3.9-1.2C868.8,538.6,869.4,536.9,869.7,536.1z"/>
		<path class="st3" d="M1045.4,646.9c3.8-9.8,6.5-12.1,6.5-12.1c9-12.2,19.3-15.7,26.1-17.7c10.8-3.1,19.7-5.1,39.7-2.9
			c8.9,1,15.8,1.6,20,4.7c2.2,1.6,3.8,3.9,3,5.4c-1.2,2.2-7.2,1.5-13.6,1.4c-6.6-0.1-12,0.7-22.8,2.3c-3.1,0.5-17.6,2.7-31.5,9.2
			c-8.1,3.8-12.2,5.7-14.2,8.2c-2.1,2.6-3.5,6.2-8,5.9c-0.1,0-3.1-0.2-4.6-1.4C1044.7,648.8,1045.2,647.5,1045.4,646.9z"/>
		<circle class="st3" cx="410.8" cy="658.5" r="14.3"/>
	</g>
</g>
</svg>
