<?xml version="1.0" encoding="utf-8"?>
<!-- Generator: Adobe Illustrator 27.5.0, SVG Export Plug-In . SVG Version: 6.00 Build 0)  -->
<svg version="1.1" xmlns="http://www.w3.org/2000/svg" xmlns:xlink="http://www.w3.org/1999/xlink" x="0px" y="0px"
	 viewBox="0 0 1056 1056" style="enable-background:new 0 0 1056 1056;" xml:space="preserve">
<style type="text/css">
	.st0{fill:#8A9195;stroke:#484157;stroke-width:7;stroke-miterlimit:10;}
	.st1{fill:#FBFDF5;}
	.st2{fill:#ADB6BB;stroke:#484157;stroke-width:7;stroke-miterlimit:10;}
</style>
<g id="Layer_1">
	<path class="st0" d="M109.5,858.6c59.6,25.5,358.3,26.1,765.1,1.2c20.1-1.2,39.8-5.8,58.3-13.7c0.2-0.1,0.3-0.1,0.5-0.2
		c19.4-8.4,63.2-27.2,90.2-72.8c15.7-26.5,19.2-51.9,21.1-66.5c0.8-5.9,3.3-27.2-0.5-55.9c-3.6-26.9-10-74.5-47.5-111.8
		c-11.3-11.3-30.4-30.2-59.6-35.9c-54.9-10.6-105.6,33.5-112.4,23.7c-2.1-3,2.3-8,7.4-17.9c10.6-20.6,18.8-51.6,12.1-76
		c-9.6-35.3-49.1-51.1-58.5-54.9c-5.2-2.1-46.6-17.9-86.5,0.5c-32.3,15-44,43.3-55.9,38.5c-8-3.2-6.6-17.6-10.5-35.3
		c-7.5-33.6-28.9-55.1-47.5-73.8c-61.3-61.8-161.5-54-184.6-52.2c-26,2-73.8,6.3-122.9,39C217.4,335,194.6,392,187,411.8
		c-7.4,19.2-23.5,61.4-16.4,113.4c6.3,46,28.6,82.8,18.5,89.7c-4.2,2.8-9.6-2.2-22.7-7.1c-35.8-13.4-70.1-3.4-79.1-0.8
		c-12.1,3.5-38,11-57,34.8c-23.7,29.7-21.1,65.3-19.8,83.1c3.9,52.6,34.8,87.3,47.5,99.7C58,824.5,79.6,845.8,109.5,858.6z"/>
	<path class="st1" d="M213.9,507.3c1.4-41.5,5.5-53,5.5-53c10.5-56.7,29.2-82,41.9-97.3c20.2-24.3,36.9-42.5,79.4-58
		c18.9-6.9,33.3-12.6,44-6.1c5.5,3.3,10.2,10.2,9.5,16.6c-1.1,9.6-13.8,14.2-26.9,21.4c-13.6,7.5-24.1,16.8-45.1,35.6
		c-6,5.4-34.3,31.1-58.5,72c-14.2,23.9-21.3,35.9-23.7,47.5c-2.6,12.3-3.2,27.4-12.7,31.6c-0.3,0.1-6.4,2.8-10.3,0
		C213.7,515.1,213.8,509.7,213.9,507.3z"/>
	<path class="st1" d="M26.6,722.1c0.6-18.9,2.5-24.1,2.5-24.1c4.8-25.8,13.3-37.3,19.1-44.2c9.2-11.1,16.8-19.3,36.1-26.4
		c8.6-3.2,15.2-5.7,20-2.8c2.5,1.5,4.7,4.6,4.3,7.6c-0.5,4.3-6.3,6.5-12.2,9.7c-6.2,3.4-11,7.7-20.5,16.2
		c-2.7,2.5-15.6,14.2-26.6,32.7c-6.5,10.9-9.7,16.3-10.8,21.6c-1.2,5.6-1.5,12.4-5.8,14.4c-0.1,0.1-2.9,1.3-4.7,0
		C26.5,725.7,26.5,723.2,26.6,722.1z"/>
	<path class="st1" d="M676.8,434c4.7-13.1,7.5-16.3,7.5-16.3c9.8-16.9,19.5-22.7,25.9-26.1c10.2-5.4,18.4-9.1,36.2-9
		c7.9,0.1,14,0,17.5,3.4c1.8,1.7,2.9,4.5,2,6.5c-1.4,2.9-6.7,2.9-12.4,3.6c-6,0.7-10.9,2.5-20.8,6c-2.9,1-16.3,5.8-29.7,16
		c-7.8,5.9-11.8,8.9-13.9,12.3c-2.2,3.6-4,8.4-8,8.6c-0.1,0-2.7,0.1-3.9-1.2C675.9,436.5,676.5,434.8,676.8,434z"/>
	<path class="st1" d="M852.5,544.8c3.8-9.8,6.5-12.1,6.5-12.1c9-12.2,19.3-15.7,26.1-17.7c10.8-3.1,19.7-5.1,39.7-2.9
		c8.9,1,15.8,1.6,20,4.7c2.2,1.6,3.8,3.9,3,5.4c-1.2,2.2-7.2,1.5-13.6,1.4c-6.6-0.1-12,0.7-22.8,2.3c-3.1,0.5-17.6,2.7-31.5,9.2
		c-8.1,3.8-12.2,5.7-14.2,8.2c-2.1,2.6-3.5,6.2-8,5.9c-0.1,0-3.1-0.2-4.6-1.4C851.8,546.7,852.3,545.4,852.5,544.8z"/>
	<circle class="st1" cx="217.9" cy="556.4" r="14.3"/>
</g>
<g id="Layer_2">
	<path class="st2" d="M494.8,905.9c26.9,11.5,161.6,11.8,345.1,0.6c9.1-0.6,18-2.6,26.3-6.2c0.1,0,0.1-0.1,0.2-0.1
		c8.8-3.8,28.5-12.3,40.7-32.8c7.1-12,8.7-23.4,9.5-30c0.3-2.6,1.5-12.3-0.2-25.2c-1.6-12.2-4.5-33.6-21.4-50.4
		c-5.1-5.1-13.7-13.6-26.9-16.2c-24.8-4.8-47.6,15.1-50.7,10.7c-0.9-1.4,1-3.6,3.3-8.1c4.8-9.3,8.5-23.3,5.5-34.3
		c-4.3-15.9-22.2-23-26.4-24.7c-2.3-0.9-21-8.1-39,0.2c-14.6,6.7-19.8,19.6-25.2,17.4c-3.6-1.5-3-7.9-4.8-15.9
		c-3.4-15.1-13-24.9-21.4-33.3c-27.6-27.9-72.9-24.4-83.3-23.6c-11.7,0.9-33.3,2.8-55.4,17.6c-27.2,18.2-37.5,43.9-40.9,52.8
		c-3.3,8.7-10.6,27.7-7.4,51.2c2.9,20.8,12.9,37.4,8.3,40.4c-1.9,1.3-4.3-1-10.2-3.2c-16.1-6-31.6-1.5-35.7-0.4
		c-5.5,1.6-17.1,5-25.7,15.7c-10.7,13.4-9.5,29.5-8.9,37.5c1.7,23.7,15.7,39.4,21.4,45C471.6,890.6,481.4,900.2,494.8,905.9z"/>
	<path class="st1" d="M548.3,755.1c0.6-18.7,2.5-23.9,2.5-23.9c4.8-25.6,13.2-37,18.9-43.9c9.1-11,16.7-19.2,35.8-26.2
		c8.5-3.1,15-5.7,19.9-2.7c2.5,1.5,4.6,4.6,4.3,7.5c-0.5,4.3-6.2,6.4-12.1,9.6c-6.1,3.4-10.9,7.6-20.3,16.1
		c-2.7,2.4-15.5,14-26.4,32.5c-6.4,10.8-9.6,16.2-10.7,21.4c-1.2,5.6-1.5,12.4-5.7,14.3c-0.1,0.1-2.9,1.3-4.6,0
		C548.2,758.7,548.2,756.2,548.3,755.1z"/>
	<path class="st1" d="M463.8,852c0.3-8.5,1.1-10.9,1.1-10.9c2.2-11.6,6-16.8,8.6-20c4.1-5,7.6-8.7,16.3-11.9c3.9-1.4,6.8-2.6,9-1.2
		c1.1,0.7,2.1,2.1,1.9,3.4c-0.2,2-2.8,2.9-5.5,4.4c-2.8,1.5-4.9,3.5-9.2,7.3c-1.2,1.1-7,6.4-12,14.8c-2.9,4.9-4.4,7.4-4.9,9.7
		c-0.5,2.5-0.7,5.6-2.6,6.5c-0.1,0-1.3,0.6-2.1,0C463.7,853.6,463.7,852.5,463.8,852z"/>
	<path class="st1" d="M757.1,722.1c2.1-5.9,3.4-7.4,3.4-7.4c4.4-7.6,8.8-10.3,11.7-11.8c4.6-2.4,8.3-4.1,16.3-4.1
		c3.6,0,6.3,0,7.9,1.5c0.8,0.8,1.3,2,0.9,2.9c-0.6,1.3-3,1.3-5.6,1.6c-2.7,0.3-4.9,1.1-9.4,2.7c-1.3,0.5-7.3,2.6-13.4,7.2
		c-3.5,2.7-5.3,4-6.3,5.6c-1,1.6-1.8,3.8-3.6,3.9c-0.1,0-1.2,0.1-1.8-0.6C756.7,723.2,756.9,722.4,757.1,722.1z"/>
	<path class="st1" d="M836.3,772.1c1.7-4.4,2.9-5.4,2.9-5.4c4.1-5.5,8.7-7.1,11.8-8c4.9-1.4,8.9-2.3,17.9-1.3c4,0.4,7.1,0.7,9,2.1
		c1,0.7,1.7,1.8,1.3,2.4c-0.6,1-3.3,0.7-6.1,0.6c-3,0-5.4,0.3-10.3,1c-1.4,0.2-8,1.2-14.2,4.2c-3.7,1.7-5.5,2.6-6.4,3.7
		c-0.9,1.2-1.6,2.8-3.6,2.7c-0.1,0-1.4-0.1-2.1-0.7C836,772.9,836.2,772.3,836.3,772.1z"/>
	<circle class="st1" cx="550.1" cy="777.3" r="6.4"/>
</g>
</svg>
