<?xml version="1.0" encoding="utf-8"?>
<!-- Generator: Adobe Illustrator 27.5.0, SVG Export Plug-In . SVG Version: 6.00 Build 0)  -->
<svg version="1.1" xmlns="http://www.w3.org/2000/svg" xmlns:xlink="http://www.w3.org/1999/xlink" x="0px" y="0px"
	 viewBox="0 0 1056 1056" style="enable-background:new 0 0 1056 1056;" xml:space="preserve">
<style type="text/css">
	.st0{fill:#8A9195;stroke:#484157;stroke-width:7;stroke-miterlimit:10;}
	.st1{fill:#FBFDF5;}
	.st2{fill:#71B4D3;stroke:#484157;stroke-width:7;stroke-miterlimit:10;}
	.st3{fill:#CCFFFF;}
</style>
<g id="Layer_2">
	<path class="st0" d="M109.5,850.2c59.6,25.5,358.3,26.1,765.1,1.2c20.1-1.2,39.8-5.8,58.3-13.7c0.2-0.1,0.3-0.1,0.5-0.2
		c19.4-8.4,63.2-27.2,90.2-72.8c15.7-26.5,19.2-51.9,21.1-66.5c0.8-5.9,3.3-27.2-0.5-55.9c-3.6-26.9-10-74.5-47.5-111.8
		c-11.3-11.3-30.4-30.2-59.6-35.9c-54.9-10.6-105.6,33.5-112.4,23.7c-2.1-3,2.3-8,7.4-17.9c10.6-20.6,18.8-51.6,12.1-76
		c-9.6-35.3-49.1-51.1-58.5-54.9c-5.2-2.1-46.6-17.9-86.5,0.5c-32.3,15-44,43.3-55.9,38.5c-8-3.2-6.6-17.6-10.5-35.3
		c-7.5-33.6-28.9-55.1-47.5-73.8c-61.3-61.8-161.5-54-184.6-52.2c-26,2-73.8,6.3-122.9,39c-60.4,40.3-83.1,97.3-90.7,117.1
		c-7.4,19.2-23.5,61.4-16.4,113.4c6.3,46,28.6,82.8,18.5,89.7c-4.2,2.8-9.6-2.2-22.7-7.1c-35.8-13.4-70.1-3.4-79.1-0.8
		c-12.1,3.5-38,11-57,34.8c-23.7,29.7-21.1,65.3-19.8,83.1c3.9,52.6,34.8,87.3,47.5,99.7C58,816.2,79.6,837.5,109.5,850.2z"/>
	<path class="st1" d="M213.9,499c1.4-41.5,5.5-53,5.5-53c10.5-56.7,29.2-82,41.9-97.3c20.2-24.3,36.9-42.5,79.4-58
		c18.9-6.9,33.3-12.6,44-6.1c5.5,3.3,10.2,10.2,9.5,16.6c-1.1,9.6-13.8,14.2-26.9,21.4c-13.6,7.5-24.1,16.8-45.1,35.6
		c-6,5.4-34.3,31.1-58.5,72C249.6,454,242.5,466,240,477.6c-2.6,12.3-3.2,27.4-12.7,31.6c-0.3,0.1-6.4,2.8-10.3,0
		C213.7,506.8,213.8,501.4,213.9,499z"/>
	<path class="st1" d="M26.6,713.8c0.6-18.9,2.5-24.1,2.5-24.1c4.8-25.8,13.3-37.3,19.1-44.2c9.2-11.1,16.8-19.3,36.1-26.4
		c8.6-3.2,15.2-5.7,20-2.8c2.5,1.5,4.7,4.6,4.3,7.6c-0.5,4.3-6.3,6.5-12.2,9.7c-6.2,3.4-11,7.7-20.5,16.2
		c-2.7,2.5-15.6,14.2-26.6,32.7c-6.5,10.9-9.7,16.3-10.8,21.6c-1.2,5.6-1.5,12.4-5.8,14.4c-0.1,0.1-2.9,1.3-4.7,0
		C26.5,717.3,26.5,714.9,26.6,713.8z"/>
	<path class="st1" d="M676.8,425.7c4.7-13.1,7.5-16.3,7.5-16.3c9.8-16.9,19.5-22.7,25.9-26.1c10.2-5.4,18.4-9.1,36.2-9
		c7.9,0.1,14,0,17.5,3.4c1.8,1.7,2.9,4.5,2,6.5c-1.4,2.9-6.7,2.9-12.4,3.6c-6,0.7-10.9,2.5-20.8,6c-2.9,1-16.3,5.8-29.7,16
		c-7.8,5.9-11.8,8.9-13.9,12.3c-2.2,3.6-4,8.4-8,8.6c-0.1,0-2.7,0.1-3.9-1.2C675.9,428.2,676.5,426.5,676.8,425.7z"/>
	<path class="st1" d="M852.5,536.5c3.8-9.8,6.5-12.1,6.5-12.1c9-12.2,19.3-15.7,26.1-17.7c10.8-3.1,19.7-5.1,39.7-2.9
		c8.9,1,15.8,1.6,20,4.7c2.2,1.6,3.8,3.9,3,5.4c-1.2,2.2-7.2,1.5-13.6,1.4c-6.6-0.1-12,0.7-22.8,2.3c-3.1,0.5-17.6,2.7-31.5,9.2
		c-8.1,3.8-12.2,5.7-14.2,8.2c-2.1,2.6-3.5,6.2-8,5.9c-0.1,0-3.1-0.2-4.6-1.4C851.8,538.4,852.3,537.1,852.5,536.5z"/>
	<circle class="st1" cx="217.9" cy="548.1" r="14.3"/>
</g>
<g id="Layer_3">
	<path class="st2" d="M304.3,824.1c-4.9,9.4-11.4,21.9-12.7,39.6c-0.5,7-1.5,23.3,7.1,41.1c4,8.3,11.3,23.3,28.5,30.9
		c1.8,0.8,24.6,10.4,44.3-1.6c11.1-6.7,15.4-16.8,21.4-30.9c2.5-5.8,10.8-26.7,9.5-55.4c-0.8-18.7-4-33.6-7.1-47.5l-16.6-50.6
		c-18.6,12.3-32.4,24.6-41.9,34C323.6,796.7,313.2,807.1,304.3,824.1z"/>
	<path class="st2" d="M589.5,824.1c-4.9,9.4-11.4,21.9-12.7,39.6c-0.5,7-1.5,23.3,7.1,41.1c4,8.3,11.3,23.3,28.5,30.9
		c1.8,0.8,24.6,10.4,44.3-1.6c11.1-6.7,15.4-16.8,21.4-30.9c2.5-5.8,10.8-26.7,9.5-55.4c-0.8-18.7-4-33.6-7.1-47.5l-16.6-50.6
		c-18.6,12.3-32.4,24.6-41.9,34C608.8,796.7,598.5,807.1,589.5,824.1z"/>
	<g id="Layer_4">
		<path class="st3" d="M356.5,779.4c-1.8-1.5-16.1,13.2-26.1,25.3C317,820.9,313,830.4,311,837.1c-1.1,3.6-5.7,18.7-0.8,21.8
			c3.1,2,9.3-1.4,13.1-5.1c6.7-6.8,3.6-13,7.9-26.5c2-6.3,2.8-5.2,16.6-30.1C356.8,781,356.9,779.7,356.5,779.4z"/>
		<circle class="st3" cx="310.6" cy="880.6" r="5.4"/>
		<path class="st3" d="M641.7,779.4c-1.8-1.5-16.1,13.2-26.1,25.3c-13.4,16.2-17.3,25.7-19.4,32.4c-1.1,3.6-5.7,18.7-0.8,21.8
			c3.1,2,9.3-1.4,13.1-5.1c6.7-6.8,3.6-13,7.9-26.5c2-6.3,2.8-5.2,16.6-30.1C642,781,642.1,779.7,641.7,779.4z"/>
		<circle class="st3" cx="595.8" cy="880.6" r="5.4"/>
	</g>
</g>
</svg>
