<?xml version="1.0" encoding="utf-8"?>
<!-- Generator: Adobe Illustrator 27.5.0, SVG Export Plug-In . SVG Version: 6.00 Build 0)  -->
<svg version="1.1" xmlns="http://www.w3.org/2000/svg" xmlns:xlink="http://www.w3.org/1999/xlink" x="0px" y="0px"
	 viewBox="0 0 1252.4 1252.4" style="enable-background:new 0 0 1252.4 1252.4;" xml:space="preserve">
<style type="text/css">
	.st0{fill:#FDD761;stroke:#484157;stroke-width:7;stroke-miterlimit:10;}
	.st1{fill:#FDD761;stroke:#484157;stroke-width:5.2051;stroke-miterlimit:10;}
	.st2{fill:#FDD761;stroke:#484157;stroke-width:4.3099;stroke-miterlimit:10;}
	.st3{fill:#FDFDB9;}
	.st4{fill:#8A9195;stroke:#484157;stroke-width:7;stroke-miterlimit:10;}
	.st5{fill:#FBFDF5;}
	.st6{fill:#71B4D3;stroke:#484157;stroke-width:7;stroke-miterlimit:10;}
	.st7{fill:#CCFFFF;}
</style>
<g id="Layer_3">
	<circle class="st0" cx="367.8" cy="585.7" r="150.9"/>
	<path class="st0" d="M368.7,420.7h-1c-4.9,0-8.9-4-8.9-8.9V257.2c0-4.9,4-8.9,8.9-8.9h1c4.9,0,8.9,4,8.9,8.9v154.5
		C377.6,416.7,373.6,420.7,368.7,420.7z"/>
	<path class="st1" d="M368.7,927.8h-1c-4.9,0-8.9-4-8.9-8.9V764.4c0-4.9,4-8.9,8.9-8.9h1c4.9,0,8.9,4,8.9,8.9v154.5
		C377.6,923.8,373.6,927.8,368.7,927.8z"/>
	<path class="st1" d="M549.1,586.1v-1c0-4.9,4-8.9,8.9-8.9h154.5c4.9,0,8.9,4,8.9,8.9v1c0,4.9-4,8.9-8.9,8.9H558
		C553.1,595.1,549.1,591.1,549.1,586.1z"/>
	<path class="st2" d="M501.5,483.3l-2.6-2.4c-3.1-2.9-3.2-7.8-0.3-10.8l70.7-74.8c2.9-3.1,7.8-3.2,10.8-0.3l2.6,2.4
		c3.1,2.9,3.2,7.8,0.3,10.8L512.3,483C509.4,486.1,504.5,486.2,501.5,483.3z"/>
	<path class="st0" d="M159.1,780.7l-2.6-2.4c-3.1-2.9-3.2-7.8-0.3-10.8l70.7-74.8c2.9-3.1,7.8-3.2,10.8-0.3l2.6,2.4
		c3.1,2.9,3.2,7.8,0.3,10.8l-70.7,74.8C167,783.5,162.1,783.6,159.1,780.7z"/>
	<path class="st0" d="M154.2,400.8l2.4-2.6c2.9-3.1,7.8-3.2,10.8-0.3l74.8,70.7c3.1,2.9,3.2,7.8,0.3,10.8l-2.4,2.6
		c-2.9,3.1-7.8,3.2-10.8,0.3l-74.8-70.7C151.5,408.7,151.3,403.8,154.2,400.8z"/>
	<path class="st2" d="M496.6,697.3l2.4-2.6c2.9-3.1,7.8-3.2,10.8-0.3l74.8,70.7c3.1,2.9,3.2,7.8,0.3,10.8l-2.4,2.6
		c-2.9,3.1-7.8,3.2-10.8,0.3l-74.8-70.7C493.9,705.2,493.7,700.3,496.6,697.3z"/>
	<path class="st0" d="M12.6,586.4v-1c0-4.9,4-8.9,8.9-8.9H176c4.9,0,8.9,4,8.9,8.9v1c0,4.9-4,8.9-8.9,8.9H21.5
		C16.6,595.3,12.6,591.3,12.6,586.4z"/>
	<circle class="st3" cx="248.5" cy="650.6" r="8.7"/>
	<path class="st3" d="M360.9,261.5"/>
	<g>
		<line class="st3" x1="365.8" y1="288.2" x2="365.8" y2="368.7"/>
		<path class="st3" d="M366.1,288.2c2.2,20.1,2.4,40.2,1.7,60.4c-0.3,6.7-0.8,13.4-1.7,20.1h-0.7c-2.1-16.7-2.3-33.5-1.9-50.3
			c0.3-10.1,0.7-20.1,1.9-30.2C365.4,288.2,366.1,288.2,366.1,288.2L366.1,288.2z"/>
	</g>
	<g>
		<line class="st3" x1="103" y1="583.5" x2="22.5" y2="583.5"/>
		<path class="st3" d="M103,583.9c-20.1,2.2-40.2,2.4-60.4,1.7c-6.7-0.3-13.4-0.8-20.1-1.7c0,0,0-0.7,0-0.7
			c16.7-2.1,33.5-2.3,50.3-1.9c10.1,0.3,20.1,0.7,30.2,1.9C103,583.2,103,583.9,103,583.9L103,583.9z"/>
	</g>
	<g>
		<line class="st3" x1="639.5" y1="583.5" x2="559" y2="583.5"/>
		<path class="st3" d="M639.5,583.9c-20.1,2.2-40.2,2.4-60.4,1.7c-6.7-0.3-13.4-0.8-20.1-1.7c0,0,0-0.7,0-0.7
			c16.7-2.1,33.5-2.3,50.3-1.9c10.1,0.3,20.1,0.7,30.2,1.9C639.5,583.2,639.5,583.9,639.5,583.9L639.5,583.9z"/>
	</g>
	<g>
		<line class="st3" x1="365.8" y1="802.6" x2="365.8" y2="883.1"/>
		<path class="st3" d="M366.1,802.6c2.2,20.1,2.4,40.2,1.7,60.4c-0.3,6.7-0.8,13.4-1.7,20.1h-0.7c-2.1-16.7-2.3-33.5-1.9-50.3
			c0.3-10.1,0.7-20.1,1.9-30.2C365.4,802.6,366.1,802.6,366.1,802.6L366.1,802.6z"/>
	</g>
	<path class="st3" d="M235.8,624.8c-3.3-1.9-6-6-7.1-21.8c-1.7-24.4,2.7-44.2,5.3-54.1c4.1-15.8,6.1-23.7,11.8-33.5
		c7.2-12.5,15.2-19.5,30-32.4c14.9-13,23.8-20.6,38.2-25.3c5.8-1.9,25.1-8.3,31.8,0c3.2,4,2.7,10.7,0.6,15.3
		c-4.3,9.2-14,8-28.8,16.5c-13.5,7.7-21.4,17.8-28.2,26.5c-10,12.7-15,24.1-16.5,27.7c-3.5,8.4-7.6,18.1-8.2,31.2
		c-0.5,11,1.8,14.1,0,25.9c-1.3,8.1-2.4,14.5-7.6,19.4C251.6,625.2,242.1,628.5,235.8,624.8z"/>
</g>
<g id="Layer_1">
	<path class="st4" d="M301.8,965.6c59.6,25.5,358.3,26.1,765.1,1.2c20.1-1.2,39.8-5.8,58.3-13.7c0.2-0.1,0.3-0.1,0.5-0.2
		c19.4-8.4,63.2-27.2,90.2-72.8c15.7-26.5,19.2-51.9,21.1-66.5c0.8-5.9,3.3-27.2-0.5-55.9c-3.6-26.9-10-74.5-47.5-111.8
		c-11.3-11.3-30.4-30.2-59.6-35.9c-54.9-10.6-105.6,33.5-112.4,23.7c-2.1-3,2.3-8,7.4-17.9c10.6-20.6,18.8-51.6,12.1-76
		c-9.6-35.3-49.1-51.1-58.5-54.9c-5.2-2.1-46.6-17.9-86.5,0.5c-32.3,15-44,43.3-55.9,38.5c-8-3.2-6.6-17.6-10.5-35.3
		c-7.5-33.6-28.9-55.1-47.5-73.8c-61.3-61.8-161.5-54-184.6-52.2c-26,2-73.8,6.3-122.9,39c-60.4,40.3-83.1,97.3-90.7,117.1
		C372,538,355.8,580.2,363,632.2c6.3,46,28.6,82.8,18.5,89.7c-4.2,2.8-9.6-2.2-22.7-7.1c-35.8-13.4-70.1-3.4-79.1-0.8
		c-12.1,3.5-38,11-57,34.8c-23.7,29.7-21.1,65.3-19.8,83.1c3.9,52.6,34.8,87.3,47.5,99.7C250.4,931.6,272,952.8,301.8,965.6z"/>
	<path class="st5" d="M406.2,614.3c1.4-41.5,5.5-53,5.5-53c10.5-56.7,29.2-82,41.9-97.3c20.2-24.3,36.9-42.5,79.4-58
		c18.9-6.9,33.3-12.6,44-6.1c5.5,3.3,10.2,10.2,9.5,16.6c-1.1,9.6-13.8,14.2-26.9,21.4c-13.6,7.5-24.1,16.8-45.1,35.6
		c-6,5.4-34.3,31.1-58.5,72c-14.2,23.9-21.3,35.9-23.7,47.5c-2.6,12.3-3.2,27.4-12.7,31.6c-0.3,0.1-6.4,2.8-10.3,0
		C406,622.1,406.2,616.7,406.2,614.3z"/>
	<path class="st5" d="M218.9,829.1c0.6-18.9,2.5-24.1,2.5-24.1c4.8-25.8,13.3-37.3,19.1-44.2c9.2-11.1,16.8-19.3,36.1-26.4
		c8.6-3.2,15.2-5.7,20-2.8c2.5,1.5,4.7,4.6,4.3,7.6c-0.5,4.3-6.3,6.5-12.2,9.7c-6.2,3.4-11,7.7-20.5,16.2
		c-2.7,2.5-15.6,14.2-26.6,32.7c-6.5,10.9-9.7,16.3-10.8,21.6c-1.2,5.6-1.5,12.4-5.8,14.4c-0.1,0.1-2.9,1.3-4.7,0
		C218.8,832.7,218.9,830.2,218.9,829.1z"/>
	<path class="st5" d="M869.1,541c4.7-13.1,7.5-16.3,7.5-16.3c9.8-16.9,19.5-22.7,25.9-26.1c10.2-5.4,18.4-9.1,36.2-9
		c7.9,0.1,14,0,17.5,3.4c1.8,1.7,2.9,4.5,2,6.5c-1.4,2.9-6.7,2.9-12.4,3.6c-6,0.7-10.9,2.5-20.8,6c-2.9,1-16.3,5.8-29.7,16
		c-7.8,5.9-11.8,8.9-13.9,12.3c-2.2,3.6-4,8.4-8,8.6c-0.1,0-2.7,0.1-3.9-1.2C868.2,543.5,868.8,541.8,869.1,541z"/>
	<path class="st5" d="M1044.9,651.9c3.8-9.8,6.5-12.1,6.5-12.1c9-12.2,19.3-15.7,26.1-17.7c10.8-3.1,19.7-5.1,39.7-2.9
		c8.9,1,15.8,1.6,20,4.7c2.2,1.6,3.8,3.9,3,5.4c-1.2,2.2-7.2,1.5-13.6,1.4c-6.6-0.1-12,0.7-22.8,2.3c-3.1,0.5-17.6,2.7-31.5,9.2
		c-8.1,3.8-12.2,5.7-14.2,8.2c-2.1,2.6-3.5,6.2-8,5.9c-0.1,0-3.1-0.2-4.6-1.4C1044.2,653.7,1044.6,652.4,1044.9,651.9z"/>
	<circle class="st5" cx="410.2" cy="663.4" r="14.3"/>
	<path class="st6" d="M496.6,939.4c-4.9,9.4-11.4,21.9-12.7,39.6c-0.5,7-1.5,23.3,7.1,41.1c4,8.3,11.3,23.3,28.5,30.9
		c1.8,0.8,24.6,10.4,44.3-1.6c11.1-6.7,15.4-16.8,21.4-30.9c2.5-5.8,10.8-26.7,9.5-55.4c-0.8-18.7-4-33.6-7.1-47.5L571,865.1
		c-18.6,12.3-32.4,24.6-41.9,34C515.9,912,505.6,922.4,496.6,939.4z"/>
	<path class="st6" d="M781.8,939.4c-4.9,9.4-11.4,21.9-12.7,39.6c-0.5,7-1.5,23.3,7.1,41.1c4,8.3,11.3,23.3,28.5,30.9
		c1.8,0.8,24.6,10.4,44.3-1.6c11.1-6.7,15.4-16.8,21.4-30.9c2.5-5.8,10.8-26.7,9.5-55.4c-0.8-18.7-4-33.6-7.1-47.5l-16.6-50.6
		c-18.6,12.3-32.4,24.6-41.9,34C801.2,912,790.8,922.4,781.8,939.4z"/>
	<path class="st7" d="M548.8,894.7c-1.8-1.5-16.1,13.2-26.1,25.3c-13.4,16.2-17.3,25.7-19.4,32.4c-1.1,3.6-5.7,18.7-0.8,21.8
		c3.1,2,9.3-1.4,13.1-5.1c6.7-6.8,3.6-13,7.9-26.5c2-6.3,2.8-5.2,16.6-30.1C549.1,896.4,549.2,895.1,548.8,894.7z"/>
	<circle class="st7" cx="502.9" cy="996" r="5.4"/>
	<path class="st7" d="M834,894.7c-1.8-1.5-16.1,13.2-26.1,25.3c-13.4,16.2-17.3,25.7-19.4,32.4c-1.1,3.6-5.7,18.7-0.8,21.8
		c3.1,2,9.3-1.4,13.1-5.1c6.7-6.8,3.6-13,7.9-26.5c2-6.3,2.8-5.2,16.6-30.1C834.3,896.4,834.5,895.1,834,894.7z"/>
	<circle class="st7" cx="788.1" cy="996" r="5.4"/>
</g>
</svg>
