<?xml version="1.0" encoding="utf-8"?>
<!-- Generator: Adobe Illustrator 27.5.0, SVG Export Plug-In . SVG Version: 6.00 Build 0)  -->
<svg version="1.1" id="Layer_2" xmlns="http://www.w3.org/2000/svg" xmlns:xlink="http://www.w3.org/1999/xlink" x="0px" y="0px"
	 viewBox="0 0 1093.1 1080" style="enable-background:new 0 0 1093.1 1080;" xml:space="preserve">
<style type="text/css">
	.st0{fill:#FDD761;stroke:#484157;stroke-width:7;stroke-miterlimit:10;}
	.st1{fill:#FEFEB9;}
	.st2{fill:#8A9195;stroke:#484157;stroke-width:7;stroke-miterlimit:10;}
	.st3{fill:#FBFDF5;}
	.st4{fill:#71B4D3;stroke:#484157;stroke-width:7;stroke-miterlimit:10;}
	.st5{fill:#CCFFFF;}
</style>
<path class="st0" d="M1055.8,403.9c5.4-2.8,11.2,3.1,8.2,8.4c-32.8,59.6-101.9,100.6-181.8,100.6c-111.6,0-202.1-80.1-202.1-178.8
	c0-77,55-142.6,132-167.8c5-1.6,9.7,3.4,7.6,8.2c-9.5,21.9-14.8,46.1-14.8,71.5c0,97.5,77.5,176.6,173.1,176.6
	C1006,422.6,1032.4,415.9,1055.8,403.9z"/>
<path class="st0" d="M928.6,228.4c0.1,2.4,12.2,0.7,23,7.4c2,1.3,12.3,7.6,14.9,18.5c1.9,8.2-1.7,18.6,2.4,21c0.5,0.3,2.9,0.9,3.7,0
	c1.6-1.8,2-4,1.9-6.6c0,0-0.8-9.8,3.6-19c3.9-8.2,11.4-12.4,14.9-14.3c2.9-1.6,9.7-5.3,17.7-6c1-0.1,3.7-0.3,3.8-0.8
	c0-0.6-4.2-1.3-5.9-1.7c-2.7-0.5-14.7-2.8-22.8-9.9c-1.5-1.3-7.3-9.7-9.7-20.3c-0.3-1.2-0.6-7.1-2.3-13.2c-0.4-1.4-0.9-2.9-1.8-3
	c-1.3-0.2-2.4,2.7-2.6,4.9c-0.5,4.2-0.7,6-0.5,8.2c0.3,3.5,0.3,11.9-3.8,17.3c-1.3,1.8-3.7,3-8.4,5.6c-5.1,2.7-9.7,4.4-12,5.1
	c-3.7,1.2-6.5,1.8-11.1,3.9C930.2,226.9,928.6,227.6,928.6,228.4z"/>
<path class="st0" d="M856.5,158.6c0,1.4,6.9,0.4,13.1,4.2c1.2,0.7,7,4.3,8.5,10.5c1.1,4.7-1,10.6,1.4,12c0.3,0.2,1.6,0.5,2.1,0
	c0.9-1,1.1-2.3,1.1-3.8c0,0-0.4-5.6,2.1-10.8c2.2-4.7,6.5-7.1,8.5-8.1c1.7-0.9,5.5-3,10.1-3.4c0.6,0,2.1-0.1,2.1-0.4
	c0-0.4-2.4-0.8-3.3-0.9c-1.5-0.3-8.4-1.6-13-5.7c-0.9-0.7-4.2-5.5-5.5-11.6c-0.2-0.7-0.4-4-1.3-7.5c-0.2-0.8-0.5-1.7-1-1.7
	c-0.7-0.1-1.4,1.5-1.5,2.8c-0.3,2.4-0.4,3.4-0.3,4.7c0.2,2,0.1,6.8-2.1,9.9c-0.8,1-2.1,1.7-4.8,3.2c-2.9,1.5-5.5,2.5-6.9,2.9
	c-2.1,0.7-3.7,1-6.3,2.2C857.5,157.7,856.5,158.2,856.5,158.6z"/>
<path class="st1" d="M804.7,178.5c-11.3,4.1-17.5,16.8-19.9,22c-10.9,23.9-12.6,45.9-12.9,50.1c-0.7,10.6-1.7,29.1,5.2,51.7
	c2.5,8,7.3,23.8,19.6,38.9c3.7,4.5,10.6,12.8,15.3,11.1c4.1-1.5,4.5-9.8,4.5-10.6c0.3-8.8-5-13.6-9.4-21.7c-3.8-7-4.9-14.9-7.1-30.8
	c-0.5-3.5-2.3-17.3-1.5-36.5c1.2-28.2,1.9-43.5,9.3-59.5c1.8-3.8,6.2-12.4,3.5-15C809.8,176.6,806.2,177.9,804.7,178.5z"/>
<circle class="st1" cx="836.1" cy="370.2" r="7.5"/>
<path class="st2" d="M128,850.9c59.6,25.5,358.3,26.1,765.1,1.2c20.1-1.2,39.8-5.8,58.3-13.7c0.2-0.1,0.3-0.1,0.5-0.2
	c19.4-8.4,63.2-27.2,90.2-72.8c15.7-26.5,19.2-51.9,21.1-66.5c0.8-5.9,3.3-27.2-0.5-55.9c-3.6-26.9-10-74.5-47.5-111.8
	c-11.3-11.3-30.4-30.2-59.6-35.9c-54.9-10.6-105.6,33.5-112.4,23.7c-2.1-3,2.3-8,7.4-17.9c10.6-20.6,18.8-51.6,12.1-76
	c-9.6-35.3-49.1-51.1-58.5-54.9c-5.2-2.1-46.6-17.9-86.5,0.5c-32.3,15-44,43.3-55.9,38.5c-8-3.2-6.6-17.6-10.5-35.3
	c-7.5-33.6-28.9-55.1-47.5-73.8c-61.3-61.8-161.5-54-184.6-52.2c-26,2-73.8,6.3-122.9,39c-60.4,40.3-83.1,97.3-90.7,117.1
	c-7.4,19.2-23.5,61.4-16.4,113.4c6.3,46,28.6,82.8,18.5,89.7c-4.2,2.8-9.6-2.2-22.7-7.1c-35.8-13.4-70.1-3.4-79.1-0.8
	c-12.1,3.5-38,11-57,34.8c-23.7,29.7-21.1,65.3-19.8,83.1c3.9,52.6,34.8,87.3,47.5,99.7C76.6,816.9,98.2,838.1,128,850.9z"/>
<path class="st3" d="M232.5,499.6c1.4-41.5,5.5-53,5.5-53c10.5-56.7,29.2-82,41.9-97.3c20.2-24.3,36.9-42.5,79.4-58
	c18.9-6.9,33.3-12.6,44-6.1c5.5,3.3,10.2,10.2,9.5,16.6c-1.1,9.6-13.8,14.2-26.9,21.4c-13.6,7.5-24.1,16.8-45.1,35.6
	c-6,5.4-34.3,31.1-58.5,72c-14.2,23.9-21.3,35.9-23.7,47.5c-2.6,12.3-3.2,27.4-12.7,31.6c-0.3,0.1-6.4,2.8-10.3,0
	C232.3,507.4,232.4,502,232.5,499.6z"/>
<path class="st3" d="M45.1,714.4c0.6-18.9,2.5-24.1,2.5-24.1c4.8-25.8,13.3-37.3,19.1-44.2c9.2-11.1,16.8-19.3,36.1-26.4
	c8.6-3.2,15.2-5.7,20-2.8c2.5,1.5,4.7,4.6,4.3,7.6c-0.5,4.3-6.3,6.5-12.2,9.7c-6.2,3.4-11,7.7-20.5,16.2
	c-2.7,2.5-15.6,14.2-26.6,32.7c-6.5,10.9-9.7,16.3-10.8,21.6c-1.2,5.6-1.5,12.4-5.8,14.4c-0.1,0.1-2.9,1.3-4.7,0
	C45,718,45.1,715.5,45.1,714.4z"/>
<path class="st3" d="M695.3,426.4c4.7-13.1,7.5-16.3,7.5-16.3c9.8-16.9,19.5-22.7,25.9-26.1c10.2-5.4,18.4-9.1,36.2-9
	c7.9,0.1,14,0,17.5,3.4c1.8,1.7,2.9,4.5,2,6.5c-1.4,2.9-6.7,2.9-12.4,3.6c-6,0.7-10.9,2.5-20.8,6c-2.9,1-16.3,5.8-29.7,16
	c-7.8,5.9-11.8,8.9-13.9,12.3c-2.2,3.6-4,8.4-8,8.6c-0.1,0-2.7,0.1-3.9-1.2C694.5,428.8,695,427.1,695.3,426.4z"/>
<path class="st3" d="M871.1,537.2c3.8-9.8,6.5-12.1,6.5-12.1c9-12.2,19.3-15.7,26.1-17.7c10.8-3.1,19.7-5.1,39.7-2.9
	c8.9,1,15.8,1.6,20,4.7c2.2,1.6,3.8,3.9,3,5.4c-1.2,2.2-7.2,1.5-13.6,1.4c-6.6-0.1-12,0.7-22.8,2.3c-3.1,0.5-17.6,2.7-31.5,9.2
	c-8.1,3.8-12.2,5.7-14.2,8.2c-2.1,2.6-3.5,6.2-8,5.9c-0.1,0-3.1-0.2-4.6-1.4C870.4,539,870.8,537.7,871.1,537.2z"/>
<circle class="st3" cx="236.4" cy="548.7" r="14.3"/>
<path class="st4" d="M382.7,838c-4.9,9.4-11.4,21.9-12.7,39.6c-0.5,7-1.5,23.3,7.1,41.1c4,8.3,11.3,23.3,28.5,30.9
	c1.8,0.8,24.6,10.4,44.3-1.6c11.1-6.7,15.4-16.8,21.4-30.9c2.5-5.8,10.8-26.7,9.5-55.4c-0.8-18.7-4-33.6-7.1-47.5l-16.6-50.6
	c-18.6,12.3-32.4,24.6-41.9,34C402,810.5,391.7,820.9,382.7,838z"/>
<path class="st5" d="M434.9,793.3c-1.8-1.5-16.1,13.2-26.1,25.3c-13.4,16.2-17.3,25.7-19.4,32.4c-1.1,3.6-5.7,18.7-0.8,21.8
	c3.1,2,9.3-1.4,13.1-5.1c6.7-6.8,3.6-13,7.9-26.5c2-6.3,2.8-5.2,16.6-30.1C435.2,794.9,435.4,793.6,434.9,793.3z"/>
<circle class="st5" cx="389" cy="894.5" r="5.4"/>
<path class="st4" d="M628,849.6c-4.9,9.4-11.4,21.9-12.7,39.6c-0.5,7-1.5,23.3,7.1,41.1c4,8.3,11.3,23.3,28.5,30.9
	c1.8,0.8,24.6,10.4,44.3-1.6c11.1-6.7,15.4-16.8,21.4-30.9c2.5-5.8,10.8-26.7,9.5-55.4c-0.8-18.7-4-33.6-7.1-47.5l-16.6-50.6
	c-18.6,12.3-32.4,24.6-41.9,34C647.3,822.2,636.9,832.6,628,849.6z"/>
<path class="st5" d="M680.2,804.9c-1.8-1.5-16.1,13.2-26.1,25.3c-13.4,16.2-17.3,25.7-19.4,32.4c-1.1,3.6-5.7,18.7-0.8,21.8
	c3.1,2,9.3-1.4,13.1-5.1c6.7-6.8,3.6-13,7.9-26.5c2-6.3,2.8-5.2,16.6-30.1C680.5,806.6,680.6,805.3,680.2,804.9z"/>
<circle class="st5" cx="634.3" cy="906.2" r="5.4"/>
</svg>
