<?xml version="1.0" encoding="utf-8"?>
<!-- Generator: Adobe Illustrator 27.5.0, SVG Export Plug-In . SVG Version: 6.00 Build 0)  -->
<svg version="1.1" xmlns="http://www.w3.org/2000/svg" xmlns:xlink="http://www.w3.org/1999/xlink" x="0px" y="0px"
	 viewBox="0 0 1252.4 1252.4" style="enable-background:new 0 0 1252.4 1252.4;" xml:space="preserve">
<style type="text/css">
	.st0{fill:#FDD761;stroke:#484157;stroke-width:7;stroke-miterlimit:10;}
	.st1{fill:#FDD761;stroke:#484157;stroke-width:5.2051;stroke-miterlimit:10;}
	.st2{fill:#FDD761;stroke:#484157;stroke-width:4.3099;stroke-miterlimit:10;}
	.st3{fill:#FDFDB9;}
	.st4{fill:#8A9195;stroke:#484157;stroke-width:7;stroke-miterlimit:10;}
	.st5{fill:#FBFDF5;}
	.st6{fill:#71B4D3;stroke:#484157;stroke-width:7;stroke-miterlimit:10;}
	.st7{fill:#CCFFFF;}
</style>
<g id="Layer_1">
	<circle class="st0" cx="368.5" cy="595.7" r="150.9"/>
	<path class="st0" d="M369.3,430.7h-1c-4.9,0-8.9-4-8.9-8.9V267.2c0-4.9,4-8.9,8.9-8.9h1c4.9,0,8.9,4,8.9,8.9v154.5
		C378.2,426.7,374.2,430.7,369.3,430.7z"/>
	<path class="st1" d="M369.3,937.8h-1c-4.9,0-8.9-4-8.9-8.9V774.4c0-4.9,4-8.9,8.9-8.9h1c4.9,0,8.9,4,8.9,8.9v154.5
		C378.2,933.8,374.2,937.8,369.3,937.8z"/>
	<path class="st1" d="M549.7,596.2v-1c0-4.9,4-8.9,8.9-8.9h154.5c4.9,0,8.9,4,8.9,8.9v1c0,4.9-4,8.9-8.9,8.9H558.7
		C553.8,605.1,549.7,601.1,549.7,596.2z"/>
	<path class="st2" d="M502.1,493.3l-2.6-2.4c-3.1-2.9-3.2-7.8-0.3-10.8l70.7-74.8c2.9-3.1,7.8-3.2,10.8-0.3l2.6,2.4
		c3.1,2.9,3.2,7.8,0.3,10.8L512.9,493C510,496.1,505.1,496.2,502.1,493.3z"/>
	<path class="st0" d="M159.7,790.8l-2.6-2.4c-3.1-2.9-3.2-7.8-0.3-10.8l70.7-74.8c2.9-3.1,7.8-3.2,10.8-0.3l2.6,2.4
		c3.1,2.9,3.2,7.8,0.3,10.8l-70.7,74.8C167.6,793.5,162.7,793.6,159.7,790.8z"/>
	<path class="st0" d="M154.8,410.8l2.4-2.6c2.9-3.1,7.8-3.2,10.8-0.3l74.8,70.7c3.1,2.9,3.2,7.8,0.3,10.8l-2.4,2.6
		c-2.9,3.1-7.8,3.2-10.8,0.3l-74.8-70.7C152.1,418.7,151.9,413.8,154.8,410.8z"/>
	<path class="st2" d="M497.2,707.3l2.4-2.6c2.9-3.1,7.8-3.2,10.8-0.3l74.8,70.7c3.1,2.9,3.2,7.8,0.3,10.8l-2.4,2.6
		c-2.9,3.1-7.8,3.2-10.8,0.3l-74.8-70.7C494.5,715.2,494.4,710.3,497.2,707.3z"/>
	<path class="st0" d="M13.2,596.4v-1c0-4.9,4-8.9,8.9-8.9h154.5c4.9,0,8.9,4,8.9,8.9v1c0,4.9-4,8.9-8.9,8.9H22.1
		C17.2,605.3,13.2,601.3,13.2,596.4z"/>
	<circle class="st3" cx="249.1" cy="660.6" r="8.7"/>
	<path class="st3" d="M361.5,271.6"/>
	<g>
		<line class="st3" x1="366.4" y1="298.2" x2="366.4" y2="378.7"/>
		<path class="st3" d="M366.7,298.2c2.2,20.1,2.4,40.2,1.7,60.4c-0.3,6.7-0.8,13.4-1.7,20.1H366c-2.1-16.7-2.3-33.5-1.9-50.3
			c0.3-10.1,0.7-20.1,1.9-30.2C366,298.2,366.7,298.2,366.7,298.2L366.7,298.2z"/>
	</g>
	<g>
		<line class="st3" x1="103.6" y1="593.6" x2="23.1" y2="593.6"/>
		<path class="st3" d="M103.6,593.9c-20.1,2.2-40.2,2.4-60.4,1.7c-6.7-0.3-13.4-0.8-20.1-1.7v-0.7c16.7-2.1,33.5-2.3,50.3-1.9
			c10.1,0.3,20.1,0.7,30.2,1.9C103.6,593.2,103.6,593.9,103.6,593.9L103.6,593.9z"/>
	</g>
	<g>
		<line class="st3" x1="640.2" y1="593.6" x2="559.7" y2="593.6"/>
		<path class="st3" d="M640.2,593.9c-20.1,2.2-40.2,2.4-60.4,1.7c-6.7-0.3-13.4-0.8-20.1-1.7v-0.7c16.7-2.1,33.5-2.3,50.3-1.9
			c10.1,0.3,20.1,0.7,30.2,1.9C640.2,593.2,640.2,593.9,640.2,593.9L640.2,593.9z"/>
	</g>
	<g>
		<line class="st3" x1="366.4" y1="812.6" x2="366.4" y2="893.2"/>
		<path class="st3" d="M366.7,812.6c2.2,20.1,2.4,40.2,1.7,60.4c-0.3,6.7-0.8,13.4-1.7,20.1H366c-2.1-16.7-2.3-33.5-1.9-50.3
			c0.3-10.1,0.7-20.1,1.9-30.2C366,812.6,366.7,812.6,366.7,812.6L366.7,812.6z"/>
	</g>
	<path class="st3" d="M236.5,634.9c-3.3-1.9-6-6-7.1-21.8c-1.7-24.4,2.7-44.2,5.3-54.1c4.1-15.8,6.1-23.7,11.8-33.5
		c7.2-12.5,15.2-19.5,30-32.4c14.9-13,23.8-20.6,38.2-25.3c5.8-1.9,25.1-8.3,31.8,0c3.2,4,2.7,10.7,0.6,15.3
		c-4.3,9.2-14,8-28.8,16.5c-13.5,7.7-21.4,17.8-28.2,26.5c-10,12.7-15,24.1-16.5,27.7c-3.5,8.4-7.6,18.1-8.2,31.2
		c-0.5,11,1.8,14.1,0,25.9c-1.3,8.1-2.4,14.5-7.6,19.4C252.2,635.2,242.7,638.5,236.5,634.9z"/>
	<path class="st4" d="M302.4,975.6c59.6,25.5,358.3,26.1,765.1,1.2c20.1-1.2,39.8-5.8,58.3-13.7c0.2-0.1,0.3-0.1,0.5-0.2
		c19.4-8.4,63.2-27.2,90.2-72.8c15.7-26.5,19.2-51.9,21.1-66.5c0.8-5.9,3.3-27.2-0.5-55.9c-3.6-26.9-10-74.5-47.5-111.8
		c-11.3-11.3-30.4-30.2-59.6-35.9c-54.9-10.6-105.6,33.5-112.4,23.7c-2.1-3,2.3-8,7.4-17.9c10.6-20.6,18.8-51.6,12.1-76
		c-9.6-35.3-49.1-51.1-58.5-54.9c-5.2-2.1-46.6-17.9-86.5,0.5c-32.3,15-44,43.3-55.9,38.5c-8-3.2-6.6-17.6-10.5-35.3
		c-7.5-33.6-28.9-55.1-47.5-73.8c-61.3-61.8-161.5-54-184.6-52.2c-26,2-73.8,6.3-122.9,39c-60.4,40.3-83.1,97.3-90.7,117.1
		c-7.4,19.2-23.5,61.4-16.4,113.4c6.3,46,28.6,82.8,18.5,89.7c-4.2,2.8-9.6-2.2-22.7-7.1c-35.8-13.4-70.1-3.4-79.1-0.8
		c-12.1,3.5-38,11-57,34.8c-23.7,29.7-21.1,65.3-19.8,83.1c3.9,52.6,34.8,87.3,47.5,99.7C251,941.6,272.6,962.8,302.4,975.6z"/>
	<path class="st5" d="M406.9,624.3c1.4-41.5,5.5-53,5.5-53c10.5-56.7,29.2-82,41.9-97.3c20.2-24.3,36.9-42.5,79.4-58
		c18.9-6.9,33.3-12.6,44-6.1c5.5,3.3,10.2,10.2,9.5,16.6c-1.1,9.6-13.8,14.2-26.9,21.4c-13.6,7.5-24.1,16.8-45.1,35.6
		c-6,5.4-34.3,31.1-58.5,72c-14.2,23.9-21.3,35.9-23.7,47.5c-2.6,12.3-3.2,27.4-12.7,31.6c-0.3,0.1-6.4,2.8-10.3,0
		C406.7,632.2,406.8,626.8,406.9,624.3z"/>
	<path class="st5" d="M219.5,839.2c0.6-18.9,2.5-24.1,2.5-24.1c4.8-25.8,13.3-37.3,19.1-44.2c9.2-11.1,16.8-19.3,36.1-26.4
		c8.6-3.2,15.2-5.7,20-2.8c2.5,1.5,4.7,4.6,4.3,7.6c-0.5,4.3-6.3,6.5-12.2,9.7c-6.2,3.4-11,7.7-20.5,16.2
		c-2.7,2.5-15.6,14.2-26.6,32.7c-6.5,10.9-9.7,16.3-10.8,21.6c-1.2,5.6-1.5,12.4-5.8,14.4c-0.1,0.1-2.9,1.3-4.7,0
		C219.4,842.7,219.5,840.3,219.5,839.2z"/>
	<path class="st5" d="M869.7,551.1c4.7-13.1,7.5-16.3,7.5-16.3c9.8-16.9,19.5-22.7,25.9-26.1c10.2-5.4,18.4-9.1,36.2-9
		c7.9,0.1,14,0,17.5,3.4c1.8,1.7,2.9,4.5,2,6.5c-1.4,2.9-6.7,2.9-12.4,3.6c-6,0.7-10.9,2.5-20.8,6c-2.9,1-16.3,5.8-29.7,16
		c-7.8,5.9-11.8,8.9-13.9,12.3c-2.2,3.6-4,8.4-8,8.6c-0.1,0-2.7,0.1-3.9-1.2C868.9,553.6,869.4,551.8,869.7,551.1z"/>
	<path class="st5" d="M1045.5,661.9c3.8-9.8,6.5-12.1,6.5-12.1c9-12.2,19.3-15.7,26.1-17.7c10.8-3.1,19.7-5.1,39.7-2.9
		c8.9,1,15.8,1.6,20,4.7c2.2,1.6,3.8,3.9,3,5.4c-1.2,2.2-7.2,1.5-13.6,1.4c-6.6-0.1-12,0.7-22.8,2.3c-3.1,0.5-17.6,2.7-31.5,9.2
		c-8.1,3.8-12.2,5.7-14.2,8.2c-2.1,2.6-3.5,6.2-8,5.9c-0.1,0-3.1-0.2-4.6-1.4C1044.8,663.8,1045.2,662.5,1045.5,661.9z"/>
	<circle class="st5" cx="410.8" cy="673.4" r="14.3"/>
	<path class="st6" d="M454.5,949.5c-4.9,9.4-11.4,21.9-12.7,39.6c-0.5,7-1.5,23.3,7.1,41.1c4,8.3,11.3,23.3,28.5,30.9
		c1.8,0.8,24.6,10.4,44.3-1.6c11.1-6.7,15.4-16.8,21.4-30.9c2.5-5.8,10.8-26.7,9.5-55.4c-0.8-18.7-4-33.6-7.1-47.5l-16.6-50.6
		c-18.6,12.3-32.4,24.6-41.9,34C473.8,922,463.4,932.4,454.5,949.5z"/>
	<path class="st6" d="M847.8,952.4c-4.9,9.4-11.4,21.9-12.7,39.6c-0.5,7-1.5,23.3,7.1,41.1c4,8.3,11.3,23.3,28.5,30.9
		c1.8,0.8,24.6,10.4,44.3-1.6c11.1-6.7,15.4-16.8,21.4-30.9c2.5-5.8,10.8-26.7,9.5-55.4c-0.8-18.7-4-33.6-7.1-47.5L922.2,878
		c-18.6,12.3-32.4,24.6-41.9,34C867.1,925,856.7,935.4,847.8,952.4z"/>
	<path class="st7" d="M506.7,904.8c-1.8-1.5-16.1,13.2-26.1,25.3c-13.4,16.2-17.3,25.7-19.4,32.4c-1.1,3.6-5.7,18.7-0.8,21.8
		c3.1,2,9.3-1.4,13.1-5.1c6.7-6.8,3.6-13,7.9-26.5c2-6.3,2.8-5.2,16.6-30.1C507,906.4,507.1,905.1,506.7,904.8z"/>
	<circle class="st7" cx="460.8" cy="1006" r="5.4"/>
	<path class="st7" d="M900,907.7c-1.8-1.5-16.1,13.2-26.1,25.3c-13.4,16.2-17.3,25.7-19.4,32.4c-1.1,3.6-5.7,18.7-0.8,21.8
		c3.1,2,9.3-1.4,13.1-5.1c6.7-6.8,3.6-13,7.9-26.5c2-6.3,2.8-5.2,16.6-30.1C900.3,909.4,900.4,908,900,907.7z"/>
	<circle class="st7" cx="854.1" cy="1008.9" r="5.4"/>
</g>
<g id="Layer_3">
	<path class="st0" d="M722.2,718l103.3,10.4c0.3,0,0.5,0.3,0.4,0.6l-45.6,200.3c-0.1,0.3-0.4,0.5-0.7,0.3l-76.7-36.3
		c-0.3-0.2-0.7,0.1-0.7,0.5l4.1,143.6c0,0.6-0.8,0.7-1,0.1l-60.3-223.2c-0.1-0.4,0.3-0.8,0.7-0.6l81.1,37.2c0.3,0.2,0.7-0.1,0.7-0.5
		l-5.7-132C721.7,718.2,721.9,718,722.2,718z"/>
</g>
<g id="Layer_4">
	<g>
		<path class="st3" d="M662.7,832.2c1.9,0.7,2.9,1.7,3.3,3.3c0,0,1,3.9,1,3.9l2,7.9c6.5,25.6,13.2,53.1,19.1,78.9
			c2.4,10.6,4.8,21.1,6.9,31.7c0.1,0.6-0.3,1.2-0.8,1.3c-0.5,0.1-1.1-0.2-1.2-0.7c-3.4-10.3-6.5-20.7-9.7-31
			c-6.1-20.2-12.4-42.2-18.1-62.4c-1.4-5.1-5.1-18.5-6.5-23.5c0,0-1.1-3.9-1.1-3.9c-0.2-0.6-0.2-1.3-0.1-2.1
			C657.8,833.6,660.2,831.2,662.7,832.2L662.7,832.2z"/>
	</g>
	<g>
		<path class="st3" d="M811.1,744.1c-12.8,0.1-25.6-0.4-38.3-1.2c-6.4-0.4-12.7-0.9-19.1-1.4c-6.4-0.5-12.7-0.9-18.7-4.2
			c0,0,4.5-4.1,4.5-4.1c1.5,2.8,1.9,5.7,2,8.6c0.1,14.3-0.1,28.9-0.6,43.2c-0.2,5.8-0.5,11.5-1,17.3c-0.1,1.1-1,1.8-2.1,1.8
			c-0.9-0.1-1.6-0.8-1.7-1.6c-0.9-5.7-1.6-11.5-2.2-17.2c-1.6-14.2-2.8-28.7-3.7-43c-0.2-4.4,0.6-11.4,5.8-12.8
			c6.6-1.8,12.9-0.7,19.2,0.3c12.6,1.9,25.2,4,37.7,6.5c6.3,1.2,12.5,2.6,18.7,4.1C813.6,740.9,813.3,744.1,811.1,744.1L811.1,744.1
			z"/>
	</g>
	<ellipse class="st3" cx="738.1" cy="813.6" rx="2.6" ry="3.3"/>
</g>
</svg>
