<?xml version="1.0" encoding="utf-8"?>
<!-- Generator: Adobe Illustrator 27.5.0, SVG Export Plug-In . SVG Version: 6.00 Build 0)  -->
<svg version="1.1" xmlns="http://www.w3.org/2000/svg" xmlns:xlink="http://www.w3.org/1999/xlink" x="0px" y="0px"
	 viewBox="0 0 1099.1 1099.6" style="enable-background:new 0 0 1099.1 1099.6;" xml:space="preserve">
<style type="text/css">
	.st0{fill:#FDD761;stroke:#484157;stroke-width:7;stroke-miterlimit:10;}
	.st1{fill:#FEFEB9;}
	.st2{fill:#8A9195;stroke:#484157;stroke-width:7;stroke-miterlimit:10;}
	.st3{fill:#FBFDF5;}
	.st4{fill:#71B4D3;stroke:#484157;stroke-width:7;stroke-miterlimit:10;}
	.st5{fill:#CCFFFF;}
	.st6{fill:#FDFDB9;}
</style>
<g id="Layer_2">
	<path class="st0" d="M1065.4,423.4c5.4-2.8,11.2,3.1,8.2,8.4c-32.8,59.6-101.9,100.6-181.8,100.6c-111.6,0-202.1-80.1-202.1-178.8
		c0-77,55-142.6,132-167.8c5-1.6,9.7,3.4,7.6,8.2c-9.5,21.9-14.8,46.1-14.8,71.5c0,97.5,77.5,176.6,173.1,176.6
		C1015.6,442.2,1042,435.4,1065.4,423.4z"/>
	<path class="st0" d="M938.3,247.9c0.1,2.4,12.2,0.7,23,7.4c2,1.3,12.3,7.6,14.9,18.5c1.9,8.2-1.7,18.6,2.4,21
		c0.5,0.3,2.9,0.9,3.7,0c1.6-1.8,2-4,1.9-6.6c0,0-0.8-9.8,3.6-19c3.9-8.2,11.4-12.4,14.9-14.3c2.9-1.6,9.7-5.3,17.7-6
		c1-0.1,3.7-0.3,3.8-0.8c0-0.6-4.2-1.3-5.9-1.7c-2.7-0.5-14.7-2.8-22.8-9.9c-1.5-1.3-7.3-9.7-9.7-20.3c-0.3-1.2-0.6-7.1-2.3-13.2
		c-0.4-1.4-0.9-2.9-1.8-3c-1.3-0.2-2.4,2.7-2.6,4.9c-0.5,4.2-0.7,6-0.5,8.2c0.3,3.5,0.3,11.9-3.8,17.3c-1.3,1.8-3.7,3-8.4,5.6
		c-5.1,2.7-9.7,4.4-12,5.1c-3.7,1.2-6.5,1.8-11.1,3.9C939.9,246.4,938.3,247.1,938.3,247.9z"/>
	<path class="st0" d="M866.2,178.1c0,1.4,6.9,0.4,13.1,4.2c1.2,0.7,7,4.3,8.5,10.5c1.1,4.7-1,10.6,1.4,12c0.3,0.2,1.6,0.5,2.1,0
		c0.9-1,1.1-2.3,1.1-3.8c0,0-0.4-5.6,2.1-10.8c2.2-4.7,6.5-7.1,8.5-8.1c1.7-0.9,5.5-3,10.1-3.4c0.6,0,2.1-0.1,2.1-0.4
		c0-0.4-2.4-0.8-3.3-0.9c-1.5-0.3-8.4-1.6-13-5.7c-0.9-0.7-4.2-5.5-5.5-11.6c-0.2-0.7-0.4-4-1.3-7.5c-0.2-0.8-0.5-1.7-1-1.7
		c-0.7-0.1-1.4,1.5-1.5,2.8c-0.3,2.4-0.4,3.4-0.3,4.7c0.2,2,0.1,6.8-2.1,9.9c-0.8,1-2.1,1.7-4.8,3.2c-2.9,1.5-5.5,2.5-6.9,2.9
		c-2.1,0.7-3.7,1-6.3,2.2C867.1,177.3,866.2,177.7,866.2,178.1z"/>
	<path class="st1" d="M814.3,198c-11.3,4.1-17.5,16.8-19.9,22c-10.9,23.9-12.6,45.9-12.9,50.1c-0.7,10.6-1.7,29.1,5.2,51.7
		c2.5,8,7.3,23.8,19.6,38.9c3.7,4.5,10.6,12.8,15.3,11.1c4.1-1.5,4.5-9.8,4.5-10.6c0.3-8.8-5-13.6-9.4-21.7
		c-3.8-7-4.9-14.9-7.1-30.8c-0.5-3.5-2.3-17.3-1.5-36.5c1.2-28.2,1.9-43.5,9.3-59.5c1.8-3.8,6.2-12.4,3.5-15
		C819.5,196.2,815.9,197.4,814.3,198z"/>
	<circle class="st1" cx="845.8" cy="389.7" r="7.5"/>
</g>
<g id="Layer_1">
	<path class="st2" d="M122.9,841.7c59.6,25.5,358.3,26.1,765.1,1.2c20.1-1.2,39.8-5.8,58.4-13.7c0.2-0.1,0.3-0.1,0.5-0.2
		c19.4-8.4,63.2-27.2,90.2-72.8c15.7-26.5,19.2-51.9,21.1-66.5c0.8-5.9,3.3-27.2-0.5-55.9c-3.6-26.9-10-74.5-47.5-111.8
		c-11.3-11.3-30.4-30.2-59.6-35.9c-54.9-10.6-105.6,33.5-112.4,23.7c-2.1-3,2.3-8,7.4-17.9c10.6-20.6,18.8-51.6,12.1-76
		c-9.6-35.3-49.1-51.1-58.5-54.9c-5.2-2.1-46.6-17.9-86.5,0.5c-32.3,15-44,43.3-55.9,38.5c-8-3.2-6.6-17.6-10.5-35.3
		c-7.5-33.6-28.9-55.1-47.5-73.8c-61.3-61.8-161.5-54-184.6-52.2c-26,2-73.8,6.3-122.9,39c-60.4,40.3-83.1,97.3-90.7,117.1
		c-7.4,19.2-23.5,61.4-16.4,113.4c6.3,46,28.6,82.8,18.5,89.7c-4.2,2.8-9.6-2.2-22.7-7.1c-35.8-13.4-70.1-3.4-79.1-0.8
		c-12.1,3.5-38,11-57,34.8C20,654.7,22.7,690.2,24,708c3.9,52.6,34.8,87.3,47.5,99.7C71.4,807.7,93,828.9,122.9,841.7z"/>
	<path class="st3" d="M227.3,490.4c1.4-41.5,5.5-53,5.5-53c10.5-56.7,29.2-82,41.9-97.3c20.2-24.3,36.9-42.5,79.4-58
		c18.9-6.9,33.3-12.6,44-6.1c5.5,3.3,10.2,10.2,9.5,16.6c-1.1,9.6-13.8,14.2-26.9,21.4c-13.6,7.5-24.1,16.8-45.1,35.6
		c-6,5.4-34.3,31.1-58.5,72c-14.2,23.9-21.3,35.9-23.7,47.5c-2.6,12.3-3.2,27.4-12.7,31.6c-0.3,0.1-6.4,2.8-10.3,0
		C227.1,498.3,227.2,492.9,227.3,490.4z"/>
	<path class="st3" d="M40,705.3c0.6-18.9,2.5-24.1,2.5-24.1c4.8-25.8,13.3-37.3,19.1-44.2c9.2-11.1,16.8-19.3,36.1-26.4
		c8.6-3.2,15.2-5.7,20-2.8c2.5,1.5,4.7,4.6,4.3,7.6c-0.5,4.3-6.3,6.5-12.2,9.7c-6.2,3.4-11,7.7-20.5,16.2
		c-2.7,2.5-15.6,14.2-26.6,32.7c-6.5,10.9-9.7,16.3-10.8,21.6c-1.2,5.6-1.5,12.4-5.8,14.4c-0.1,0.1-2.9,1.3-4.7,0
		C39.9,708.8,39.9,706.4,40,705.3z"/>
	<path class="st3" d="M690.2,417.2c4.7-13.1,7.5-16.3,7.5-16.3c9.8-16.9,19.5-22.7,25.9-26.1c10.2-5.4,18.4-9.1,36.2-9
		c7.9,0.1,14,0,17.5,3.4c1.8,1.7,2.9,4.5,2,6.5c-1.4,2.9-6.7,2.9-12.4,3.6c-6,0.7-10.9,2.5-20.8,6c-2.9,1-16.3,5.8-29.7,16
		c-7.8,5.9-11.8,8.9-13.9,12.3c-2.2,3.6-4,8.4-8,8.6c-0.1,0-2.7,0.1-3.9-1.2C689.3,419.7,689.9,418,690.2,417.2z"/>
	<path class="st3" d="M865.9,528c3.8-9.8,6.5-12.1,6.5-12.1c9-12.2,19.3-15.7,26.1-17.7c10.8-3.1,19.7-5.1,39.7-2.9
		c8.9,1,15.8,1.6,20,4.7c2.2,1.6,3.8,3.9,3,5.4c-1.2,2.2-7.2,1.5-13.6,1.4c-6.6-0.1-12,0.7-22.8,2.3c-3.1,0.5-17.6,2.7-31.5,9.2
		c-8.1,3.8-12.2,5.7-14.2,8.2c-2.1,2.6-3.5,6.2-8,5.9c-0.1,0-3.1-0.2-4.6-1.4C865.2,529.9,865.7,528.6,865.9,528z"/>
	<circle class="st3" cx="231.3" cy="539.5" r="14.3"/>
	<path class="st4" d="M274.9,815.6c-4.9,9.4-11.4,21.9-12.7,39.6c-0.5,7-1.5,23.3,7.1,41.1c4,8.3,11.3,23.3,28.5,30.9
		c1.8,0.8,24.6,10.4,44.3-1.6c11.1-6.7,15.4-16.8,21.4-30.9c2.5-5.8,10.8-26.7,9.5-55.4c-0.8-18.7-4-33.6-7.1-47.5l-16.6-50.6
		c-18.6,12.3-32.4,24.6-41.9,34C294.2,788.2,283.9,798.5,274.9,815.6z"/>
	<path class="st4" d="M668.2,818.5c-4.9,9.4-11.4,21.9-12.7,39.6c-0.5,7-1.5,23.3,7.1,41.1c4,8.3,11.3,23.3,28.5,30.9
		c1.8,0.8,24.6,10.4,44.3-1.6c11.1-6.7,15.4-16.8,21.4-30.9c2.5-5.8,10.8-26.7,9.5-55.4c-0.8-18.7-4-33.6-7.1-47.5l-16.6-50.6
		c-18.6,12.3-32.4,24.6-41.9,34C687.6,791.1,677.2,801.5,668.2,818.5z"/>
	<path class="st5" d="M327.1,770.9c-1.8-1.5-16.1,13.2-26.1,25.3c-13.4,16.2-17.3,25.7-19.4,32.4c-1.1,3.6-5.7,18.7-0.8,21.8
		c3.1,2,9.3-1.4,13.1-5.1c6.7-6.8,3.6-13,7.9-26.5c2-6.3,2.8-5.2,16.6-30.1C327.4,772.5,327.6,771.2,327.1,770.9z"/>
	<circle class="st5" cx="281.2" cy="872.1" r="5.4"/>
	<path class="st5" d="M720.4,773.8c-1.8-1.5-16.1,13.2-26.1,25.3c-13.4,16.2-17.3,25.7-19.4,32.4c-1.1,3.6-5.7,18.7-0.8,21.8
		c3.1,2,9.3-1.4,13.1-5.1c6.7-6.8,3.6-13,7.9-26.5c2-6.3,2.8-5.2,16.6-30.1C720.7,775.5,720.9,774.2,720.4,773.8z"/>
	<circle class="st5" cx="674.5" cy="875.1" r="5.4"/>
	<path class="st0" d="M542.7,584.1L646,594.6c0.3,0,0.5,0.3,0.4,0.6l-45.6,200.3c-0.1,0.3-0.4,0.5-0.7,0.3l-76.7-36.3
		c-0.3-0.2-0.7,0.1-0.7,0.5l4.1,143.6c0,0.6-0.8,0.7-1,0.1l-60.3-223.2c-0.1-0.4,0.3-0.8,0.7-0.6l81.1,37.2c0.3,0.2,0.7-0.1,0.7-0.5
		l-5.7-132C542.1,584.3,542.4,584.1,542.7,584.1z"/>
	<g>
		<path class="st6" d="M483.1,698.3c1.9,0.7,2.9,1.7,3.3,3.3c0,0,1,3.9,1,3.9l2,7.9c6.5,25.6,13.2,53.1,19.1,78.9
			c2.4,10.6,4.8,21.1,6.9,31.7c0.1,0.6-0.3,1.2-0.8,1.3c-0.5,0.1-1.1-0.2-1.2-0.7c-3.4-10.3-6.5-20.7-9.7-31
			c-6.1-20.2-12.4-42.2-18.1-62.4c-1.4-5.1-5.1-18.5-6.5-23.5c0,0-1.1-3.9-1.1-3.9c-0.2-0.6-0.2-1.3-0.1-2.1
			C478.3,699.7,480.7,697.3,483.1,698.3L483.1,698.3z"/>
	</g>
	<g>
		<path class="st6" d="M631.5,610.2c-12.8,0.1-25.6-0.4-38.3-1.2c-6.4-0.4-12.7-0.9-19.1-1.4c-6.4-0.5-12.7-0.9-18.7-4.2l4.5-4.1
			c1.5,2.8,1.9,5.7,2,8.6c0.1,14.3-0.1,28.9-0.6,43.2c-0.2,5.8-0.5,11.5-1,17.3c-0.1,1.1-1,1.8-2.1,1.8c-0.9-0.1-1.6-0.8-1.7-1.6
			c-0.9-5.7-1.6-11.5-2.2-17.2c-1.6-14.2-2.8-28.7-3.7-43c-0.2-4.4,0.6-11.4,5.8-12.8c6.6-1.8,12.9-0.7,19.2,0.3
			c12.6,1.9,25.2,4,37.7,6.5c6.3,1.3,12.5,2.6,18.7,4.1C634.1,607,633.8,610.2,631.5,610.2L631.5,610.2z"/>
	</g>
	<ellipse class="st6" cx="558.5" cy="679.7" rx="2.6" ry="3.3"/>
</g>
</svg>
