<?xml version="1.0" encoding="utf-8"?>
<!-- Generator: Adobe Illustrator 27.5.0, SVG Export Plug-In . SVG Version: 6.00 Build 0)  -->
<svg version="1.1" xmlns="http://www.w3.org/2000/svg" xmlns:xlink="http://www.w3.org/1999/xlink" x="0px" y="0px"
	 viewBox="0 0 1090.9 1090.9" style="enable-background:new 0 0 1090.9 1090.9;" xml:space="preserve">
<style type="text/css">
	.st0{fill:#FDD761;stroke:#484157;stroke-width:7;stroke-miterlimit:10;}
	.st1{fill:#FEFEB9;}
	.st2{fill:#8A9195;stroke:#484157;stroke-width:7;stroke-miterlimit:10;}
	.st3{fill:#FBFDF5;}
	.st4{fill:#71B4D3;stroke:#484157;stroke-width:7;stroke-miterlimit:10;}
	.st5{fill:#CAF5F4;}
	.st6{fill:#484157;}
</style>
<g id="Layer_2">
	<path class="st0" d="M1054.7,427.7c5.4-2.8,11.2,3.1,8.2,8.4c-32.8,59.6-101.9,100.6-181.8,100.6c-111.6,0-202.1-80.1-202.1-178.8
		c0-77,55-142.6,132-167.8c5-1.6,9.7,3.4,7.6,8.2c-9.5,21.9-14.8,46.1-14.8,71.5c0,97.5,77.5,176.6,173.1,176.6
		C1004.9,446.5,1031.3,439.7,1054.7,427.7z"/>
	<path class="st0" d="M927.6,252.2c0.1,2.4,12.2,0.7,23,7.4c2,1.3,12.3,7.6,14.9,18.5c1.9,8.2-1.7,18.6,2.4,21
		c0.5,0.3,2.9,0.9,3.7,0c1.6-1.8,2-4,1.9-6.6c0,0-0.8-9.8,3.6-19c3.9-8.2,11.4-12.4,14.9-14.3c2.9-1.6,9.7-5.3,17.7-6
		c1-0.1,3.7-0.3,3.8-0.8c0-0.6-4.2-1.3-5.9-1.7c-2.7-0.5-14.7-2.8-22.8-9.9c-1.5-1.3-7.3-9.7-9.7-20.3c-0.3-1.2-0.6-7.1-2.3-13.2
		c-0.4-1.4-0.9-2.9-1.8-3c-1.3-0.2-2.4,2.7-2.6,4.9c-0.5,4.2-0.7,6-0.5,8.2c0.3,3.5,0.3,11.9-3.8,17.3c-1.3,1.8-3.7,3-8.4,5.6
		c-5.1,2.7-9.7,4.4-12,5.1c-3.7,1.2-6.5,1.8-11.1,3.9C929.1,250.7,927.5,251.4,927.6,252.2z"/>
	<path class="st0" d="M855.5,182.4c0,1.4,6.9,0.4,13.1,4.2c1.2,0.7,7,4.3,8.5,10.5c1.1,4.7-1,10.6,1.4,12c0.3,0.2,1.6,0.5,2.1,0
		c0.9-1,1.1-2.3,1.1-3.8c0,0-0.4-5.6,2.1-10.8c2.2-4.7,6.5-7.1,8.5-8.1c1.7-0.9,5.5-3,10.1-3.4c0.6,0,2.1-0.1,2.1-0.4
		c0-0.4-2.4-0.8-3.3-0.9c-1.5-0.3-8.4-1.6-13-5.7c-0.9-0.7-4.2-5.5-5.5-11.6c-0.2-0.7-0.4-4-1.3-7.5c-0.2-0.8-0.5-1.7-1-1.7
		c-0.7-0.1-1.4,1.5-1.5,2.8c-0.3,2.4-0.4,3.4-0.3,4.7c0.2,2,0.1,6.8-2.1,9.9c-0.8,1-2.1,1.7-4.8,3.2c-2.9,1.5-5.5,2.5-6.9,2.9
		c-2.1,0.7-3.7,1-6.3,2.2C856.4,181.6,855.4,182,855.5,182.4z"/>
	<path class="st1" d="M803.6,202.3c-11.3,4.1-17.5,16.8-19.9,22c-10.9,23.9-12.6,45.9-12.9,50.1c-0.7,10.6-1.7,29.1,5.2,51.7
		c2.5,8,7.3,23.8,19.6,38.9c3.7,4.5,10.6,12.8,15.3,11.1c4.1-1.5,4.5-9.8,4.5-10.6c0.3-8.8-5-13.6-9.4-21.7
		c-3.8-7-4.9-14.9-7.1-30.8c-0.5-3.5-2.3-17.3-1.5-36.5c1.2-28.2,1.9-43.5,9.3-59.5c1.8-3.8,6.2-12.4,3.5-15
		C808.7,200.5,805.2,201.7,803.6,202.3z"/>
	<circle class="st1" cx="835" cy="394" r="7.5"/>
	<path class="st2" d="M126.9,874.7c59.6,25.5,358.3,26.1,765.1,1.2c20.1-1.2,39.8-5.8,58.4-13.7c0.2-0.1,0.3-0.1,0.5-0.2
		c19.4-8.4,63.2-27.2,90.2-72.8c15.7-26.5,19.2-51.9,21.1-66.5c0.8-5.9,3.3-27.2-0.5-55.9c-3.6-26.9-10-74.5-47.5-111.8
		c-11.3-11.3-30.4-30.2-59.6-35.9C899.6,508.6,849,552.8,842.2,543c-2.1-3,2.3-8,7.4-17.9c10.6-20.6,18.8-51.6,12.1-76
		c-9.6-35.3-49.1-51.1-58.5-54.9c-5.2-2.1-46.6-17.9-86.5,0.5c-32.3,15-44,43.3-55.9,38.5c-8-3.2-6.6-17.6-10.5-35.3
		c-7.5-33.6-28.9-55.1-47.5-73.8c-61.3-61.8-161.5-54-184.6-52.2c-26,2-73.8,6.3-122.9,39c-60.4,40.3-83.1,97.3-90.7,117.1
		c-7.4,19.2-23.5,61.4-16.4,113.4c6.3,46,28.6,82.8,18.5,89.7c-4.2,2.8-9.6-2.2-22.7-7.1c-35.8-13.4-70.1-3.4-79.1-0.8
		c-12.1,3.5-38,11-57,34.8C24.1,687.7,26.7,723.2,28,741c3.9,52.6,34.8,87.3,47.5,99.7C75.5,840.7,97.1,861.9,126.9,874.7z"/>
	<path class="st3" d="M231.4,523.4c1.4-41.5,5.5-53,5.5-53c10.5-56.7,29.2-82,41.9-97.3c20.2-24.3,36.9-42.5,79.4-58
		c18.9-6.9,33.3-12.6,44-6.1c5.5,3.3,10.2,10.2,9.5,16.6c-1.1,9.6-13.8,14.2-26.9,21.4c-13.6,7.5-24.1,16.8-45.1,35.6
		c-6,5.4-34.3,31.1-58.5,72c-14.2,23.9-21.3,35.9-23.7,47.5c-2.6,12.3-3.2,27.4-12.7,31.6c-0.3,0.1-6.4,2.8-10.3,0
		C231.2,531.3,231.3,525.9,231.4,523.4z"/>
	<path class="st3" d="M44,738.3c0.6-18.9,2.5-24.1,2.5-24.1c4.8-25.8,13.3-37.3,19.1-44.2c9.2-11.1,16.8-19.3,36.1-26.4
		c8.6-3.2,15.2-5.7,20-2.8c2.5,1.5,4.7,4.6,4.3,7.6c-0.5,4.3-6.3,6.5-12.2,9.7c-6.2,3.4-11,7.7-20.5,16.2
		c-2.7,2.5-15.6,14.2-26.6,32.7c-6.5,10.9-9.7,16.3-10.8,21.6c-1.2,5.6-1.5,12.4-5.8,14.4c-0.1,0.1-2.9,1.3-4.7,0
		C43.9,741.8,44,739.4,44,738.3z"/>
	<path class="st3" d="M694.2,450.2c4.7-13.1,7.5-16.3,7.5-16.3c9.8-16.9,19.5-22.7,25.9-26.1c10.2-5.4,18.4-9.1,36.2-9
		c7.9,0.1,14,0,17.5,3.4c1.8,1.7,2.9,4.5,2,6.5c-1.4,2.9-6.7,2.9-12.4,3.6c-6,0.7-10.9,2.5-20.8,6c-2.9,1-16.3,5.8-29.7,16
		c-7.8,5.9-11.8,8.9-13.9,12.3c-2.2,3.6-4,8.4-8,8.6c-0.1,0-2.7,0.1-3.9-1.2C693.4,452.7,694,451,694.2,450.2z"/>
	<path class="st3" d="M870,561c3.8-9.8,6.5-12.1,6.5-12.1c9-12.2,19.3-15.7,26.1-17.7c10.8-3.1,19.7-5.1,39.7-2.9
		c8.9,1,15.8,1.6,20,4.7c2.2,1.6,3.8,3.9,3,5.4c-1.2,2.2-7.2,1.5-13.6,1.4c-6.6-0.1-12,0.7-22.8,2.3c-3.1,0.5-17.6,2.7-31.5,9.2
		c-8.1,3.8-12.2,5.7-14.2,8.2c-2.1,2.6-3.5,6.2-8,5.9c-0.1,0-3.1-0.2-4.6-1.4C869.3,562.9,869.8,561.6,870,561z"/>
	<circle class="st3" cx="235.3" cy="572.5" r="14.3"/>
</g>
<g id="Layer_3">
	<path class="st4" d="M465.9,885.7c0,4.7-1.9,8.9-5,12c-3.1,3.1-7.3,5-12,5h-45.8l30.8,30.8c6.6,6.6,6.6,17.4,0,24.1
		c-3.3,3.3-7.7,5-12,5c-4.4,0-8.7-1.6-12-5l-32.4-32.4v47.3c0,9.3-7.6,17-17,17c-9.4,0-17-7.7-17-17v-44.2l-30.8,30.8
		c-6.6,6.6-17.4,6.6-24.1,0c-6.6-6.6-6.6-17.4,0-24.1l32.4-32.4h-45.8c-9.4,0-17-7.6-17-17c0-9.3,7.7-17,17-17h45.8L287,834.7
		c-6.6-6.6-6.6-17.5,0-24.1c6.6-6.6,17.4-6.6,24.1,0l32.4,32.4v-44.2c0-9.4,7.7-17,17-17c4.7,0,8.9,1.9,12,5c3.1,3.1,5,7.3,5,12
		v47.3l33.9-34c6.6-6.6,17.4-6.6,24.1,0c3.3,3.3,5,7.7,5,12s-1.6,8.7-5,12l-32.4,32.4h45.8C458.2,868.7,465.9,876.3,465.9,885.7z"/>
	<path class="st5" d="M360.1,786.6c-0.5-0.6-6.9,2.1-9.8,9.5c-2.1,5.2-1.7,13.6-1,13.7c1.5,0.2,0.1-2.3,3.7-11.6
		C357.2,787.4,360.9,787.6,360.1,786.6z"/>
	<path class="st5" d="M302.1,809.9c-0.6-0.5-8.8,1.6-12.5,7.2c-2.6,3.9-2.2,10.4-1.3,10.4c1.9,0.1,0.1-1.8,4.7-8.8
		C298.4,810.5,303.1,810.6,302.1,809.9z"/>
	<path class="st5" d="M277.6,873.5c-0.7-0.4-9.1,2.4-12.5,7.8c-2.4,3.8-1.3,9.5-0.4,9.5c2-0.1,0-1.6,4.2-8.4
		C273.6,874.4,278.6,874.1,277.6,873.5z"/>
	<circle class="st5" cx="267.1" cy="894.1" r="1"/>
	<circle class="st6" cx="360.2" cy="888" r="5.1"/>
	<path class="st4" d="M846.8,883.4c0,4.7-1.9,8.9-5,12c-3.1,3.1-7.3,5-12,5H784l30.8,30.8c6.6,6.6,6.6,17.4,0,24.1
		c-3.3,3.3-7.7,5-12,5c-4.4,0-8.7-1.6-12-5l-32.4-32.4v47.3c0,9.3-7.6,17-17,17c-9.4,0-17-7.7-17-17v-44.2l-30.8,30.8
		c-6.6,6.6-17.4,6.6-24.1,0c-6.6-6.6-6.6-17.4,0-24.1l32.4-32.4h-45.8c-9.4,0-17-7.6-17-17c0-9.3,7.7-17,17-17h45.8L668,832.5
		c-6.6-6.6-6.6-17.5,0-24.1c6.6-6.6,17.4-6.6,24.1,0l32.4,32.4v-44.2c0-9.4,7.7-17,17-17c4.7,0,8.9,1.9,12,5c3.1,3.1,5,7.3,5,12
		v47.3l33.9-34c6.6-6.6,17.4-6.6,24.1,0c3.3,3.3,5,7.7,5,12s-1.6,8.7-5,12L784,866.4h45.8C839.2,866.4,846.8,874.1,846.8,883.4z"/>
	<path class="st5" d="M741.1,784.3c-0.5-0.6-6.9,2.1-9.8,9.5c-2.1,5.2-1.7,13.6-1,13.7c1.5,0.2,0.1-2.3,3.7-11.6
		C738.1,785.1,741.8,785.3,741.1,784.3z"/>
	<path class="st5" d="M683.1,807.6c-0.6-0.5-8.8,1.6-12.5,7.2c-2.6,3.9-2.2,10.4-1.3,10.4c1.9,0.1,0.1-1.8,4.7-8.8
		C679.3,808.2,684.1,808.4,683.1,807.6z"/>
	<path class="st5" d="M658.5,871.2c-0.7-0.4-9.1,2.4-12.5,7.8c-2.4,3.8-1.3,9.5-0.4,9.5c2-0.1,0-1.6,4.2-8.4
		C654.6,872.1,659.6,871.8,658.5,871.2z"/>
	<circle class="st5" cx="648.1" cy="891.8" r="1"/>
	<circle class="st6" cx="741.2" cy="885.7" r="5.1"/>
</g>
</svg>
