<?xml version="1.0" encoding="utf-8"?>
<!-- Generator: Adobe Illustrator 27.5.0, SVG Export Plug-In . SVG Version: 6.00 Build 0)  -->
<svg version="1.1" xmlns="http://www.w3.org/2000/svg" xmlns:xlink="http://www.w3.org/1999/xlink" x="0px" y="0px"
	 viewBox="0 0 1239.3 1239.3" style="enable-background:new 0 0 1239.3 1239.3;" xml:space="preserve">
<style type="text/css">
	.st0{fill:#8A9195;stroke:#484157;stroke-width:7;stroke-miterlimit:10;}
	.st1{fill:#FBFDF5;}
	.st2{fill:#D6D7DC;}
</style>
<g id="Layer_1">
	<path class="st0" d="M260.2,948.2c59.6,25.5,358.3,26.1,765.1,1.2c20.1-1.2,39.8-5.8,58.4-13.7c0.2-0.1,0.3-0.1,0.5-0.2
		c19.4-8.4,63.2-27.2,90.2-72.8c15.7-26.5,19.2-51.9,21.1-66.5c0.8-5.9,3.3-27.2-0.5-55.9c-3.6-26.9-10-74.5-47.5-111.8
		c-11.3-11.3-30.4-30.2-59.6-35.9c-54.9-10.6-105.6,33.5-112.4,23.7c-2.1-3,2.3-8,7.4-17.9c10.6-20.6,18.8-51.6,12.1-76
		c-9.6-35.3-49.1-51.1-58.5-54.9c-5.2-2.1-46.6-17.9-86.5,0.5c-32.3,15-44,43.3-55.9,38.5c-8-3.2-6.6-17.6-10.5-35.3
		c-7.5-33.6-28.9-55.1-47.5-73.8c-61.3-61.8-161.5-54-184.6-52.2c-26,2-73.8,6.3-122.9,39c-60.4,40.3-83.1,97.3-90.7,117.1
		c-7.4,19.2-23.5,61.4-16.4,113.4c6.3,46,28.6,82.8,18.5,89.7c-4.2,2.8-9.6-2.2-22.7-7.1c-35.8-13.4-70.1-3.4-79.1-0.8
		c-12.1,3.5-38,11-57,34.8c-23.7,29.7-21.1,65.3-19.8,83.1c3.9,52.6,34.8,87.3,47.5,99.7C208.8,914.2,230.4,935.4,260.2,948.2z"/>
	<path class="st1" d="M364.6,596.9c1.4-41.5,5.5-53,5.5-53c10.5-56.7,29.2-82,41.9-97.3c20.2-24.3,36.9-42.5,79.4-58
		c18.9-6.9,33.3-12.6,44-6.1c5.5,3.3,10.2,10.2,9.5,16.6c-1.1,9.6-13.8,14.2-26.9,21.4c-13.6,7.5-24.1,16.8-45.1,35.6
		c-6,5.4-34.3,31.1-58.5,72c-14.2,23.9-21.3,35.9-23.7,47.5c-2.6,12.3-3.2,27.4-12.7,31.6c-0.3,0.1-6.4,2.8-10.3,0
		C364.4,604.7,364.6,599.3,364.6,596.9z"/>
	<path class="st1" d="M177.3,811.7c0.6-18.9,2.5-24.1,2.5-24.1c4.8-25.8,13.3-37.3,19.1-44.2c9.2-11.1,16.8-19.3,36.1-26.4
		c8.6-3.2,15.2-5.7,20-2.8c2.5,1.5,4.7,4.6,4.3,7.6c-0.5,4.3-6.3,6.5-12.2,9.7c-6.2,3.4-11,7.7-20.5,16.2
		c-2.7,2.5-15.6,14.2-26.6,32.7c-6.5,10.9-9.7,16.3-10.8,21.6c-1.2,5.6-1.5,12.4-5.8,14.4c-0.1,0.1-2.9,1.3-4.7,0
		C177.2,815.3,177.3,812.8,177.3,811.7z"/>
	<path class="st1" d="M827.5,523.6c4.7-13.1,7.5-16.3,7.5-16.3c9.8-16.9,19.5-22.7,25.9-26.1c10.2-5.4,18.4-9.1,36.2-9
		c7.9,0.1,14,0,17.5,3.4c1.8,1.7,2.9,4.5,2,6.5c-1.4,2.9-6.7,2.9-12.4,3.6c-6,0.7-10.9,2.5-20.8,6c-2.9,1-16.3,5.8-29.7,16
		c-7.8,5.9-11.8,8.9-13.9,12.3c-2.2,3.6-4,8.4-8,8.6c-0.1,0-2.7,0.1-3.9-1.2C826.6,526.1,827.2,524.4,827.5,523.6z"/>
	<path class="st1" d="M1003.2,634.4c3.8-9.8,6.5-12.1,6.5-12.1c9-12.2,19.3-15.7,26.1-17.7c10.8-3.1,19.7-5.1,39.7-2.9
		c8.9,1,15.8,1.6,20,4.7c2.2,1.6,3.8,3.9,3,5.4c-1.2,2.2-7.2,1.5-13.6,1.4c-6.6-0.1-12,0.7-22.8,2.3c-3.1,0.5-17.6,2.7-31.5,9.2
		c-8.1,3.8-12.2,5.7-14.2,8.2c-2.1,2.6-3.5,6.2-8,5.9c-0.1,0-3.1-0.2-4.6-1.4C1002.6,636.3,1003,635,1003.2,634.4z"/>
	<circle class="st1" cx="368.6" cy="646" r="14.3"/>
</g>
<g id="Layer_3">
	<path class="st2" d="M478,619.6H156.7c-6.6,0-12-5.4-12-12v-2.4c0-6.6,5.4-12,12-12H478c6.6,0,12,5.4,12,12v2.4
		C490,614.2,484.6,619.6,478,619.6z"/>
	<path class="st2" d="M439.3,928.2h-295c-6.3,0-11.5-5.2-11.5-11.5v-3.3c0-6.3,5.2-11.5,11.5-11.5h295c6.3,0,11.5,5.2,11.5,11.5v3.3
		C450.9,923,445.7,928.2,439.3,928.2z"/>
	<path class="st2" d="M687.9,1013.7H428.5c-6,0-10.8-4.9-10.8-10.8v-4.7c0-6,4.9-10.8,10.8-10.8h259.5c6,0,10.8,4.9,10.8,10.8v4.7
		C698.8,1008.8,693.9,1013.7,687.9,1013.7z"/>
	<path class="st2" d="M1139.7,965H840.3c-6.4,0-11.6-5.2-11.6-11.6v-3.2c0-6.4,5.2-11.6,11.6-11.6h299.5c6.4,0,11.6,5.2,11.6,11.6
		v3.2C1151.3,959.8,1146.1,965,1139.7,965z"/>
	<path class="st2" d="M1074.6,690.8H582.7c-7.2,0-13.2-5.9-13.2-13.2v0c0-7.2,5.9-13.2,13.2-13.2h491.9c7.2,0,13.2,5.9,13.2,13.2v0
		C1087.8,684.9,1081.8,690.8,1074.6,690.8z"/>
	<path class="st2" d="M567.9,791.7H293.1c-6.1,0-11.1-5-11.1-11.1v-4.1c0-6.1,5-11.1,11.1-11.1h274.8c6.1,0,11.1,5,11.1,11.1v4.1
		C579,786.7,574,791.7,567.9,791.7z"/>
	<path class="st2" d="M1082.2,579H903.5c-5,0-9.1-4.1-9.1-9.1v-8.2c0-5,4.1-9.1,9.1-9.1h178.6c5,0,9.1,4.1,9.1,9.1v8.2
		C1091.2,575,1087.1,579,1082.2,579z"/>
	<path class="st2" d="M987.8,1040H871.3c-4.1,0-7.4-3.3-7.4-7.4v-11.6c0-4.1,3.3-7.4,7.4-7.4h116.5c4.1,0,7.4,3.3,7.4,7.4v11.6
		C995.2,1036.7,991.9,1040,987.8,1040z"/>
	<path class="st2" d="M108.6,856.1H24c-3.5,0-6.4-2.9-6.4-6.4v-13.6c0-3.5,2.9-6.4,6.4-6.4h84.6c3.5,0,6.4,2.9,6.4,6.4v13.6
		C115,853.2,112.1,856.1,108.6,856.1z"/>
	<path class="st2" d="M843,865.4H553.6c-6.3,0-11.4-5.1-11.4-11.4v-3.5c0-6.3,5.1-11.4,11.4-11.4H843c6.3,0,11.4,5.1,11.4,11.4v3.5
		C854.4,860.3,849.2,865.4,843,865.4z"/>
	<path class="st2" d="M1209.3,827.9h-195.6c-5.2,0-9.5-4.3-9.5-9.5V811c0-5.2,4.3-9.5,9.5-9.5h195.6c5.2,0,9.5,4.3,9.5,9.5v7.4
		C1218.7,823.7,1214.5,827.9,1209.3,827.9z"/>
</g>
</svg>
