<?xml version="1.0" encoding="utf-8"?>
<!-- Generator: Adobe Illustrator 27.5.0, SVG Export Plug-In . SVG Version: 6.00 Build 0)  -->
<svg version="1.1" id="Layer_1" xmlns="http://www.w3.org/2000/svg" xmlns:xlink="http://www.w3.org/1999/xlink" x="0px" y="0px"
	 viewBox="0 0 100 100" style="enable-background:new 0 0 100 100;" xml:space="preserve">
<style type="text/css">
	.st0{fill:#07BDB7;}
	.st1{fill:#484157;}
</style>
<g>
	<g>
		<path class="st0" d="M20.5,92.9c-8.2,0-14.9-6.7-14.9-14.9V22c0-8.2,6.7-14.9,14.9-14.9h59.1c8.2,0,14.9,6.7,14.9,14.9v56
			c0,8.2-6.7,14.9-14.9,14.9H20.5z"/>
		<path class="st1" d="M79.6,8.1c7.7,0,13.9,6.2,13.9,13.9v56c0,7.7-6.2,13.9-13.9,13.9H20.5c-7.7,0-13.9-6.2-13.9-13.9V22
			c0-7.7,6.2-13.9,13.9-13.9H79.6 M79.6,6.1H20.5C11.7,6.1,4.6,13.2,4.6,22v56c0,8.8,7.1,15.9,15.9,15.9h59.1
			c8.8,0,15.9-7.1,15.9-15.9V22C95.5,13.2,88.4,6.1,79.6,6.1L79.6,6.1z"/>
	</g>
</g>
<path class="st1" d="M50.3,60.6H36.7l-3.5,10.1c0,0.3-0.3,0.5-0.6,0.5h-6.4c-0.4,0-0.6-0.2-0.4-0.6l12.3-36.5
	c0.3-1.1,0.5-2.3,0.5-3.4c0-0.2,0.1-0.4,0.3-0.4H39h8.9c0.3,0,0.4,0.1,0.4,0.3l13.7,40c0.1,0.4,0,0.6-0.3,0.6h-7.1
	c-0.3,0-0.5-0.1-0.6-0.4L50.3,60.6z M38.3,53.8h10.6c-0.3-0.6-5-15.9-5.3-17.2h-0.1L38.3,53.8z M69.7,37.9c-1.2,0.1-2.4-0.4-3.3-1.2
	c-0.9-0.9-1.3-2.1-1.2-3.3c-0.1-1.2,0.4-2.4,1.3-3.3c0.9-0.8,2.1-1.3,3.3-1.2c1.2-0.1,2.4,0.4,3.3,1.2c0.8,0.9,1.3,2.1,1.2,3.3
	c0.1,1.2-0.4,2.4-1.2,3.3C72.1,37.5,70.9,37.9,69.7,37.9z M65.9,70.6V41.4c0-0.2,0.1-0.5,0.4-0.5h0.1H73c0.2,0,0.5,0.1,0.5,0.4v0.1
	v29.3c0,0.2-0.1,0.5-0.4,0.5H73h-6.5c-0.3,0-0.5-0.2-0.6-0.4C65.9,70.7,65.9,70.7,65.9,70.6z"/>
</svg>
