<?xml version="1.0" encoding="utf-8"?>
<!-- Generator: Adobe Illustrator 27.5.0, SVG Export Plug-In . SVG Version: 6.00 Build 0)  -->
<svg version="1.1" id="Layer_1" xmlns="http://www.w3.org/2000/svg" xmlns:xlink="http://www.w3.org/1999/xlink" x="0px" y="0px"
	 viewBox="0 0 100 100" style="enable-background:new 0 0 100 100;" xml:space="preserve">
<style type="text/css">
	.st0{fill:#484157;}
	.st1{fill:#E2D4FF;}
</style>
<g>
	<path class="st0" d="M20.5,6.1h59.1c8.8,0,15.9,7.1,15.9,15.9v56c0,8.8-7.1,15.9-15.9,15.9H20.5c-8.8,0-15.9-7.1-15.9-15.9V22
		C4.6,13.2,11.7,6.1,20.5,6.1z"/>
</g>
<path class="st1" d="M50.3,60.6H36.7l-3.5,10.1c0,0.3-0.3,0.5-0.6,0.5h-6.4c-0.4,0-0.6-0.2-0.4-0.6l12.3-36.5
	c0.3-1.1,0.5-2.3,0.5-3.4c0-0.2,0.1-0.4,0.3-0.4c0,0,0.1,0,0.1,0h8.9c0.3,0,0.4,0.1,0.4,0.3l13.7,40c0.1,0.4,0,0.6-0.3,0.6h-7.1
	c-0.3,0-0.5-0.1-0.6-0.4L50.3,60.6z M38.3,53.8h10.6c-0.3-0.6-5-15.9-5.3-17.2h-0.1L38.3,53.8z M69.7,37.9c-1.2,0.1-2.4-0.4-3.3-1.2
	c-0.9-0.9-1.3-2.1-1.2-3.3c-0.1-1.2,0.4-2.4,1.3-3.3c0.9-0.8,2.1-1.3,3.3-1.2c1.2-0.1,2.4,0.4,3.3,1.2c0.8,0.9,1.3,2.1,1.2,3.3
	c0.1,1.2-0.4,2.4-1.2,3.3C72.1,37.5,70.9,37.9,69.7,37.9z M65.9,70.6V41.4c0-0.2,0.1-0.5,0.4-0.5c0,0,0.1,0,0.1,0H73
	c0.2,0,0.5,0.1,0.5,0.4c0,0,0,0.1,0,0.1v29.3c0,0.2-0.1,0.5-0.4,0.5c0,0-0.1,0-0.1,0h-6.5c-0.3,0-0.5-0.2-0.6-0.4
	C65.9,70.7,65.9,70.7,65.9,70.6z"/>
</svg>
