<?xml version="1.0" encoding="utf-8"?>
<!-- Generator: Adobe Illustrator 27.5.0, SVG Export Plug-In . SVG Version: 6.00 Build 0)  -->
<svg version="1.1" id="Layer_1" xmlns="http://www.w3.org/2000/svg" xmlns:xlink="http://www.w3.org/1999/xlink" x="0px" y="0px"
	 viewBox="0 0 100 100" style="enable-background:new 0 0 100 100;" xml:space="preserve">
<style type="text/css">
	.st0{fill:#D1D3D4;}
	.st1{fill:#30A7FF;}
	.st2{fill:#404242;}
</style>
<g id="Layer_1_00000011720428824941972670000011716775703051655846_">
	<g>
		<g>
			<path class="st0" d="M20.3,93.2c-8.3,0-15-6.7-15-15V21.8c0-8.3,6.7-15,15-15h59.4c8.3,0,15,6.7,15,15v56.4c0,8.3-6.7,15-15,15
				H20.3z"/>
			<path class="st0" d="M79.7,7.8c7.7,0,14,6.3,14,14v56.4c0,7.7-6.3,14-14,14H20.3c-7.7,0-14-6.3-14-14V21.8c0-7.7,6.3-14,14-14
				L79.7,7.8 M79.7,5.8H20.3c-8.9,0-16,7.2-16,16v56.4c0,8.8,7.2,16,16,16h59.4c8.8,0,16-7.2,16-16V21.8C95.7,13,88.5,5.8,79.7,5.8
				L79.7,5.8z"/>
		</g>
	</g>
</g>
<path class="st1" d="M5.1,77.7C5.2,77.6,5.2,77.7,5.1,77.7c0.1,0.2,0.1,0.3,0,0.2C5.1,77.8,5.1,77.8,5.1,77.7z"/>
<path class="st2" d="M24,49.5c0-6.7,0-13.4,0-20.1c0-0.7,0-0.7,0.7-0.7c1,0,2-0.1,3-0.1c2.1,0,4.2-0.2,6.3-0.3c0.8,0,1.6,0,2.4,0.1
	c0.9,0.1,1.8,0.2,2.7,0.2c1.5,0,2.9,0.4,4.3,0.8c1.5,0.4,2.9,1.1,4.2,2.2c1,0.8,1.8,1.7,2.4,2.7c0.5,0.7,0.9,1.6,1.2,2.5
	c0.2,0.7,0.4,1.3,0.6,2c0.1,0.4,0.1,0.8,0.1,1.2c0.1,0.8,0.1,1.7,0,2.6c-0.1,0.5-0.1,0.9-0.1,1.4c0,0.8-0.4,1.5-0.6,2.2
	c-0.5,1.6-1.4,3-2.6,4.1c-0.9,0.9-2,1.6-3.2,2.2c-1.3,0.8-2.7,1.2-4.2,1.6c-1.3,0.3-2.7,0.6-4.2,0.7c-1.7,0-3.4,0.2-5.1,0.1
	c-0.4,0-0.5,0.1-0.5,0.5c0,4.8,0,9.6,0,14.4c0,0.9-0.1,1-1,1c-1.8,0-3.7,0-5.5,0c-0.9,0-1-0.2-1-1C24,62.9,24,56.2,24,49.5z
	 M31.5,41.7c0,2.3,0,4.5,0,6.8c0,0.5,0.2,0.6,0.6,0.6c1.4-0.1,2.8,0,4.2-0.1c1.9-0.1,3.6-0.6,5.2-1.6c1.5-0.9,2.3-2.2,2.6-3.8
	c0.3-1.5,0.4-3,0-4.5c-0.2-0.9-0.6-1.8-1.2-2.5c-1.4-1.6-3.2-2.3-5.3-2.6c-0.8,0-1.7,0-2.6,0s-1.9,0.1-2.8,0c-0.6,0-0.7,0-0.6,0.7
	c0,0.1,0,0.2,0,0.3C31.5,37.2,31.5,39.5,31.5,41.7z"/>
<path class="st2" d="M74.7,44.3c0,0.9,0,1.7,0,2.6c0,0.4-0.2,0.5-0.6,0.3c-0.9-0.5-1.9-1-2.8-1.4c-0.7-0.3-1.5-0.3-2.3-0.5
	c-1.2-0.2-2.5-0.2-3.8,0c-0.8,0.2-1.6,0.7-2,1.5s-0.3,1.6,0.2,2.4c0.7,1.1,1.8,1.5,2.9,2.1c1.4,0.6,2.9,1.2,4.2,1.9
	c0.7,0.3,1.2,0.8,1.9,1.1c0.2,0.1,0.4,0.3,0.6,0.5c1.5,1.2,2.7,2.5,3.4,4.3c0.4,1.1,0.4,2.1,0.3,3.2c-0.1,0.8-0.3,1.5-0.6,2.3
	c-0.5,1.2-1.1,2.2-2.1,3.1c-0.7,0.6-1.5,1.1-2.3,1.6c-1,0.6-2.1,0.9-3.2,1.2c-0.9,0.2-1.8,0.3-2.8,0.3c-0.6,0-1.3,0.1-1.9,0.1
	c-1.3-0.1-2.5-0.2-3.8-0.4c-0.3,0-0.6-0.2-0.9-0.3c-1-0.2-2-0.6-2.9-1.1c-0.4-0.2-0.6-0.5-0.6-1c0-1.7,0-3.4,0-5.1
	c0-0.2-0.1-0.5,0.1-0.6c0.3-0.1,0.5,0,0.7,0.2c1.2,1,2.6,1.5,4,2c1.7,0.6,3.5,0.7,5.3,0.5c1-0.1,2-0.4,2.6-1.4
	c0.5-0.8,0.5-2.3-0.4-3.2c-0.7-0.8-1.7-1.2-2.6-1.7c-1.1-0.6-2.3-1-3.4-1.5c-1.6-0.7-3-1.7-4.2-2.9c-1-0.9-1.6-2-2-3.3
	c-0.3-1-0.3-2-0.2-3c0.1-0.8,0.3-1.5,0.6-2.3c0.5-1.5,1.4-2.6,2.5-3.6c0.7-0.6,1.4-1.2,2.4-1.4c0.7-0.1,1.3-0.5,2-0.6
	c0.9-0.2,1.7-0.3,2.6-0.3s1.7,0,2.6,0c1.9,0.1,3.7,0.3,5.4,1c0.6,0.2,0.9,0.6,0.9,1.3C74.6,42.8,74.7,43.6,74.7,44.3z"/>
<rect x="179" class="st2" width="100" height="47"/>
<rect x="179" y="53" class="st0" width="100" height="47"/>
</svg>
