<?xml version="1.0" encoding="utf-8"?>
<!-- Generator: Adobe Illustrator 27.5.0, SVG Export Plug-In . SVG Version: 6.00 Build 0)  -->
<svg version="1.1" id="Layer_1" xmlns="http://www.w3.org/2000/svg" xmlns:xlink="http://www.w3.org/1999/xlink" x="0px" y="0px"
	 viewBox="0 0 100 100" style="enable-background:new 0 0 100 100;" xml:space="preserve">
<style type="text/css">
	.st0{fill:#404242;}
	.st1{fill:#D1D3D4;}
</style>
<path class="st0" d="M46.1,56.2c-0.5,0.5-1.1,1-1.8,1.3c-0.7,0.3-1.4,0.4-2.2,0.4c-0.6,0-1.3-0.1-1.8-0.3c-0.6-0.2-1.1-0.6-1.6-1
	c-0.8-0.8-1.3-2.1-1.3-3.5c0-2.9,1.9-4.9,4.7-4.9c0.8,0,1.5,0.1,2.2,0.5c0.7,0.3,1.3,0.8,1.8,1.3l2.4-2.2c-1.6-1.9-4.2-2.9-6.6-2.9
	c-4.8,0-8.2,3.3-8.2,8.2c0,2.4,0.8,4.4,2.3,5.9c1.4,1.4,3.5,2.3,5.8,2.3c3,0,5.5-1.2,6.8-2.8L46.1,56.2z"/>
<path class="st0" d="M50.8,38.7h3.6v22.2h-3.6V38.7z"/>
<path class="st0" d="M72,54.3c0.1-0.5,0.1-1,0.1-1.5c0-4.6-3-7.9-7.7-7.9c-1,0-2,0.2-3,0.6c-1,0.4-1.8,1-2.5,1.7
	c-1.4,1.4-2.2,3.5-2.2,5.9c0,4.9,3.5,8.2,8.1,8.2c3.1,0,5.3-1.2,6.6-2.9L69,56.2l-0.1-0.1c-0.5,0.6-1.1,1.1-1.8,1.4
	c-0.7,0.3-1.4,0.5-2.2,0.5c-2.3,0-4-1.4-4.5-3.6H72z M60.5,51.4c0.2-0.7,0.5-1.4,1-1.9c0.4-0.4,0.9-0.8,1.4-1
	c0.5-0.2,1.1-0.3,1.7-0.3c2.1,0,3.4,1.3,3.8,3.2H60.5z"/>
<path class="st0" d="M83.3,44.9v4c-0.4,0-0.8-0.1-1.1-0.1c-2.7,0-4.3,2-4.3,4.6v7.5h-3.6V45.1h3.6v2.4h0c1.2-1.7,3-2.6,4.9-2.6
	L83.3,44.9z"/>
<path class="st0" d="M91.7,54.3l-2.6,2.9v3.7h-3.6V38.7h3.6v13.6l6.5-7.2h4.3l-5.7,6.4l5.8,9.4h-4.1L91.7,54.3L91.7,54.3z"/>
<path class="st0" d="M25.1,38.4l-3.8,3.8c-0.1,0.1-0.3,0.2-0.4,0.2c-0.2,0-0.3,0-0.5-0.1c-1.5-0.9-3.2-1.3-4.9-1.3
	c-1.7,0.1-3.4,0.6-4.8,1.6C9.7,43.2,9,44,8.4,44.9c-1,1.4-1.5,3.1-1.6,4.8c-0.1,1.7,0.4,3.5,1.3,4.9c0.1,0.1,0.1,0.3,0.1,0.5
	c0,0.2-0.1,0.3-0.2,0.4l-3.8,3.8c-0.1,0.1-0.2,0.1-0.3,0.2c-0.1,0-0.2,0.1-0.3,0c-0.1,0-0.2,0-0.3-0.1c-0.1-0.1-0.2-0.1-0.2-0.2
	c-2-2.8-3.1-6.2-3-9.7c0.1-3.5,1.3-6.8,3.5-9.5c0.7-0.8,1.4-1.6,2.2-2.2c2.7-2.2,6-3.4,9.5-3.5c3.5-0.1,6.9,1,9.7,3
	c0.1,0.1,0.2,0.1,0.2,0.2c0.1,0.1,0.1,0.2,0.1,0.3c0,0.1,0,0.2,0,0.3C25.2,38.2,25.2,38.3,25.1,38.4z"/>
<path class="st0" d="M25.1,61.6l-3.8-3.8c-0.1-0.1-0.3-0.2-0.4-0.2c-0.2,0-0.3,0-0.5,0.1c-1.4,0.8-3,1.3-4.6,1.3
	c-1.6,0-3.2-0.4-4.6-1.3c-0.1-0.1-0.3-0.1-0.5-0.1c-0.2,0-0.3,0.1-0.4,0.2l-3.8,3.8c-0.1,0.1-0.1,0.2-0.2,0.3c0,0.1-0.1,0.2,0,0.3
	c0,0.1,0,0.2,0.1,0.3c0.1,0.1,0.1,0.2,0.2,0.2c2.7,2,5.9,3,9.3,3c3.3,0,6.6-1.1,9.3-3c0.1-0.1,0.2-0.1,0.2-0.2
	c0.1-0.1,0.1-0.2,0.1-0.3c0-0.1,0-0.2,0-0.3C25.2,61.8,25.2,61.7,25.1,61.6L25.1,61.6z"/>
<path class="st0" d="M15.7,54.5c2.5,0,4.5-2,4.5-4.5c0-2.5-2-4.5-4.5-4.5c-2.5,0-4.5,2-4.5,4.5C11.2,52.5,13.3,54.5,15.7,54.5z"/>
<rect x="-113.5" y="-1.8" class="st0" width="100" height="47"/>
<rect x="-113.5" y="51.2" class="st1" width="100" height="47"/>
</svg>
