<?xml version="1.0" encoding="utf-8"?>
<!-- Generator: Adobe Illustrator 27.5.0, SVG Export Plug-In . SVG Version: 6.00 Build 0)  -->
<svg version="1.1" id="Layer_1" xmlns="http://www.w3.org/2000/svg" xmlns:xlink="http://www.w3.org/1999/xlink" x="0px" y="0px"
	 viewBox="0 0 100 100" style="enable-background:new 0 0 100 100;" xml:space="preserve">
<style type="text/css">
	.st0{fill-rule:evenodd;clip-rule:evenodd;fill:#404242;}
	.st1{fill:#404242;}
	.st2{fill:#D1D3D4;}
</style>
<g>
	<path class="st0" d="M18.4,85.8L11.6,8.7h76.7l-6.8,77.1l-31.5,9L18.4,85.8z M30.6,72.3l19.3,6.3l19.3-6.3L70.8,45l1.3-19.7H27.5
		l0.8,11.3h31.9l-0.6,7.3H38.2l0.6,11.3h20.3l-0.6,8.7L50,66.8l-8.5-2.9l-0.2-6.1H30L30.6,72.3z"/>
	<path class="st1" d="M87.2,9.7l-6.7,75.4L50,93.8L19.4,85L12.7,9.7H87.2 M27.5,37.6h1.8h29.9l-0.4,5.3H39.3h-2.1l0.1,2.1l0.5,9.3
		l0.1,1.9h1.9h18.3l-0.5,6.9L50,65.7l-7.6-2.5l-0.2-4.4l-0.1-1.9h-1.9H31h-2.1L29,59l0.6,12.8l0.1,1.4l1.3,0.4l18.3,6l0.6,0.2
		l0.6-0.2l18.3-6l1.3-0.4l0.1-1.4L71.8,45L73,26.4l0.1-2.1H71H28.6h-2.1l0.2,2.1l0.7,9.3L27.5,37.6 M89.4,7.7H10.5l7,78.9L50,95.9
		l32.4-9.3L89.4,7.7L89.4,7.7z M71,26.3l-1.2,18.6l-1.6,26.7l-18.3,6l-18.3-6L31,58.8h9.3l0.2,5.8l9.5,3.2l9.5-3.2l0.7-10.4H39.8
		l-0.5-9.3h21.3l0.7-9.3h-32l-0.7-9.3H71L71,26.3z"/>
</g>
<rect x="113" class="st1" width="100" height="47"/>
<rect x="113" y="53" class="st2" width="100" height="47"/>
</svg>
