<?xml version="1.0" encoding="utf-8"?>
<!-- Generator: Adobe Illustrator 27.5.0, SVG Export Plug-In . SVG Version: 6.00 Build 0)  -->
<svg version="1.1" xmlns="http://www.w3.org/2000/svg" xmlns:xlink="http://www.w3.org/1999/xlink" x="0px" y="0px"
	 viewBox="0 0 824.2 879.6" style="enable-background:new 0 0 824.2 879.6;" xml:space="preserve">
<style type="text/css">
	.st0{fill:#FFC0B1;}
	.st1{fill:#EBA99B;}
	.st2{fill:#AD85FF;}
	.st3{fill:#2A2633;}
	.st4{fill:#FFFFFF;}
	.st5{fill:#76443C;}
	.st6{fill:#EB869B;stroke:#331E1A;stroke-width:0.25;stroke-miterlimit:10;}
	.st7{fill:#EB8B9B;}
	.st8{fill:#5C4242;}
	.st9{fill:#331E1A;}
</style>
<g id="Skin-base">
	<path class="st0" d="M292.4,420.1c-2.4,16.8-3.6,25.2-3.2,34.8c0.4,7.9,1.3,27,12.7,45.4c8.8,14.2,14.3,12.5,28,30.6
		c8.3,11,12.6,19.9,19,33.2c13,27.1,18.2,49.2,19.5,54.9c3.7,16.1,5.6,24.5,5.3,36.9c-0.3,14-3.2,19.7-1.6,32.2
		c1.6,12.4,6.3,21.1,10,28c10.7,19.8,20.7,39.9,31.6,59.6c19,34.3,32.3,62.3,38.5,75.4c5,10.6,9,19.4,11.6,25.3l1.3,3.2h74.4
		c0-2.4,0-4.7,0-7.1c0-12.1,0.2-23.6,0.3-26.4c0.7-22.4,13.6-46.4,16.4-51.4c5.8-10.6,8.1-11.7,16.9-28c5.6-10.4,8.4-15.5,10.8-22.1
		c5-13.7,5.6-24.5,6.6-42.8c0.8-15,1.2-22.7-1.7-28.5c-5-10.1-12-9.5-20.5-19.5c-8.6-10.1-4.8-14.6-13.2-36.4
		c-7.6-19.7-12.7-21.1-21.1-44.3c-6.2-17-6-23.3-4.2-28.5c3.2-9.4,10.2-11.1,18.5-19c11.9-11.4,8.2-18.6,22.2-56.4
		c10-27.1,13.7-28.6,17.2-46.3c2.5-12.9,2.8-24.1,3.1-34.9c0.5-17.6,0.7-26.4-1.8-38.1c-3.8-17.3-8.8-17.9-10.5-32.7
		c-0.5-4.5-0.7-10.3,2.6-30.5c3.4-21.1,6-29.2,7.4-37.5c5.4-31.6-7.3-59.5-15.1-76.7c-11.7-25.8-26.9-42.2-32.1-47.6
		C528,111.4,507.9,90.7,476,85.2c-19.5-3.4-35.2,0.4-49.1,3.7c-17.3,4.1-30.5,7.3-40.1,19c-3.4,4.2-10.7,14.7-13,28.7
		c-1.3,8-0.3,12.9-3.9,20.3c-3.1,6.2-7.1,9.4-12.5,14c-7.9,6.8-21.3,18.2-28.7,26.7c-10.8,12.5-14.7,25.8-16.5,32
		c-3.3,11.2-3.1,18.8-0.9,53.9c2.8,46.1,3.2,45.1,2.6,49.6c-2.5,19.4-7.6,19.9-15.8,55.9C296.4,397.1,294.2,407.6,292.4,420.1z"/>
	<path class="st1" d="M327.6,312.4c0,5.8-0.3,11.7,0.1,17.4c0.3,3.9,0.5,7.7,0.8,11.6c0.6,6.4,1.7,12.7,2.8,19
		c0.7,4.1,2,8.1,3.1,12.1c1.2,4.4,2.7,8.6,4.4,12.8c0.8,2,1.8,3.7,3.2,5.3c1.8,2,3.2,4.4,4.6,6.7c2.2,3.6,4.3,7.4,6.8,10.8
		c0.3,0.4,0.6,1,0.7,1.5c0.5,1.9-0.5,3.1-2.5,2.6c-1.9-0.4-3.8-1.1-5.7-1.7c-6.8-2.4-13.4-5.4-19.1-10.1c-0.4-0.3-0.8-0.8-1.4-0.5
		c-0.8,0.3-0.6,1.1-0.5,1.7c0.6,2.8,1.1,5.7,1.9,8.5c1.1,4.3,1.5,8.7,1.9,13.1c0.4,3.8,1,7.5,1.7,11.2c1.2,6.8,2.7,13.6,4.7,20.3
		c2,7,4.6,13.7,7.1,20.5c1.5,4,2.9,8,4.1,12.1c0.8,2.8,2.4,5.1,4.3,7.1c5.3,5.5,10.7,10.8,16.8,15.4c1.7,1.3,3.3,2.8,4.9,4.3
		c1.7,1.6,3.7,2.6,5.7,3.6c3.1,1.6,6.2,3.3,9.3,5.2c1.3,0.8,2.1,2.3,3.8,2.6c0.7,0.1,0.9,0.9,0.8,1.6c-0.7,5.2,2.2,9.2,4.6,13.3
		c2.5,4.1,5.6,7.8,9,11.2c4,3.9,8.4,7.5,13.3,10.2c1.4,0.8,2.9,1.1,4.4,1.1c2.9,0.1,5.8,0,8.7,0.4c2,0.3,4.1,0.4,6.2-0.3
		c0.8-0.3,1.8-0.1,2.7-0.2c5.9-0.1,11.7-0.6,17.4-2.2c6.1-1.8,11.8-4.2,16.7-8.6c5.9-5.2,10-11.6,12.8-18.8c0.4-1.1,0.7-2.2,0.6-3.5
		c0-0.5,0-0.9,0-1.4c0.1-0.7,0.2-1.6,0.9-1.8c0.9-0.3,1.2,0.6,1.6,1.1c2.1,3,3.6,6.3,3.4,10.1c0,0.8-0.3,1.6,0.5,2.5
		c2.7-1.6,5.1-3.6,7.5-5.5c3.8-3,7.4-6.1,11-9.2c4.7-4,9-8.4,13.2-12.9c4.3-4.6,8.4-9.4,12-14.7c4.1-6,8-12.1,11-18.7
		c3.6-7.8,6.2-16,9-24.2c3-8.9,5.9-17.9,9.5-26.6c0.3-0.7,0.8-1.4,0.5-2.3c-0.9-0.2-1.4,0.3-2,0.7c-5.1,3.3-10.7,4.4-16.6,3.9
		c-1.7-0.1-3.2-1.2-5-1.2c-0.9,0-0.6-1.1-0.1-1.7c1.3-1.5,2.5-3.1,3.9-4.5c3.4-3.4,6.8-6.8,10.4-10c4.4-3.8,7.3-8.7,10.4-13.5
		c4.7-7.5,8.4-15.7,11.9-23.8c0.6-1.4,0.9-2.9,1.2-4.4c0.3,0.1,0.6,0.2,0.9,0.3c0.6,6.7-0.9,13.2-2.2,19.7
		c-1.8,9.4-3.3,18.9-5.4,28.3c-2.5,10.7-5.5,21.2-8.4,31.7c-1.8,6.6-3.6,13.3-5.5,19.9c-6.2,21.6-17,40.6-31.7,57.7
		c-9,10.5-19.7,18.7-31.5,25.7c-11.9,7.1-24,13.9-36,20.9c-1.3,0.8-2.5,1.2-3.9,1.6c-1.4,0.9-11,2.3-12.8,1.3c-2,0-3.9,0-5.9,0
		c-3.3,0.1-5.8,0.1-8.2-0.6c-14.6-3.4-28.2-10-41.8-16c-13.7-6.1-27.2-12.4-40.9-18.6c-1.6-0.7-2.9-1.7-3.9-3.2
		c-4.1-6.2-9.1-11.6-14.3-16.8c-6.2-6.3-12.5-12.4-18.1-19.2c-7-8.4-12.3-17.8-15.5-28.2c-1.3-4.5-2-9.2-2.4-13.9
		c-0.8-10.4,0-20.7,1.3-31c1.2-9.4,3-18.6,4.6-27.9c0.2-1.1,0.5-2.1,1-3.1c1.3-2.8,2.5-5.5,3.8-8.3c0.7-1.6,0.9-3.6,1.7-5.1
		c0.9-1.6,1.4-3.3,1.7-5c0.3-1.3,1.1-2.2,1.5-3.4c0.6-2,0.8-4,1.4-6c1.3-4.5,2.3-9,2.8-13.7c0.6-5.2,1.2-10.5,1.4-15.7
		c0.4-9.5,0.5-19.1,0.4-28.6c0-0.8,0.1-1.6,0.1-2.4c0.4,0.2,0.8,0,1.1-0.2c0.7-0.1,1.5-0.1,2.2-0.2c1.3,0,2.5,0,3.8,0
		C325.4,311.6,326.6,311.5,327.6,312.4z"/>
	<path class="st1" d="M504.7,558.4c1.1,2.8-0.2,5.1-1.7,7.3c-2.3,3.4-5.3,6.2-8.4,8.9c-3.8,3.3-7.6,6.6-11.7,9.7
		c-7.1,5.3-14.5,10.1-22,14.9c-6.2,3.9-12.5,7.7-18.9,11.2c-5.6,3.1-11.4,5.9-17.3,8.6c-5.1,2.3-10.1,4.8-15.2,7.2
		c-4.5,2.1-9,4.3-13.6,6.2c-1.5,0.6-2.1,1.4-1.8,2.8c1.1,5.1,0.8,10.2,1.5,15.3c0.3,2.3,0.1,4.7,0.1,7.1c0,4.6,0.3,9.3-0.1,13.9
		c-0.4,5.3-0.6,10.7-0.4,16c0.1,5.7,0.9,11.3,2.5,16.8c1.6,5.6,3.9,10.9,6.4,16.1c3.5,7.1,7,14.1,10.9,21
		c6,10.7,11.6,21.5,17.4,32.3c5.4,10.1,10.1,20.5,15.1,30.7c3.7,7.6,7.2,15.3,10.7,22.9c4.6,10.1,9.5,20.2,14.2,30.3
		c2.4,5.1,5.4,9.9,7,15.3c0.6,2.2,1.3,4.3,1.9,6.5c-2.4,0-4.7,0-7.1,0c0.3-1.1-0.4-1.9-0.7-2.9c-6.2-17-13.2-33.6-21.5-49.7
		c-9.2-17.6-17.4-35.6-26.3-53.3c-10.1-20-20.6-39.8-32.2-59.1c-3.1-5.1-6.4-10.2-10.1-14.9c-0.7-0.9-1.4-1.6-2.1-2.5
		c-1.1-1.4-3.2-2.2-3.4-4c-0.3-1.7,0.3-3.6,0.6-5.4c1.3-8.9,2-17.9,2.1-26.9c0.2-17.8-2.2-35.1-7.1-52.2
		c-5.1-17.8-11.3-35.3-18.6-52.3c-1.2-2.9-2.7-5.7-4.3-8.5c0.9-0.3,1.3,0.3,1.8,0.5c22.3,12.7,45.5,23.3,69.9,31.3
		c5.2,1.7,10.4,3.1,15.9,3.6c4.8-0.2,7.8-0.1,13.1,0c7.3-0.9,14.2-2.7,20.3-7c0.7-0.5,1.6-0.9,2.4-1.3c8.9-4.4,17.9-8.8,26.4-14.1
		C501.8,560.3,503.2,559.3,504.7,558.4z"/>
	<path class="st1" d="M527,879.6c0-0.6-0.1-1.3-0.4-1.8c-1-2-1.1-4.1-1.3-6.3c-0.3-4.1-0.4-8.3-0.9-12.4c-0.3-2.2-0.4-4.5-0.6-6.7
		c-0.2-4.4-1.1-8.6-1.9-12.8c-0.2-1-0.3-2-0.3-3c0-3.7,0-7.4,0-11.2c0-3.8,0.7-7.5,1-11.3c0.4-4.6,1.2-9.1,2.3-13.6
		c2.3-10,6.3-19.2,11.3-28.1c3-5.4,6-10.7,9-16.1c3-5.5,5.8-11.1,8.3-16.8c2.7-6.3,4.8-12.9,6.2-19.6c0.8-4,2.1-7.8,3.2-11.8
		c0.3-1,0.3-2,0.8-2.9c1.7-2.9,0.6-5.6-0.7-8.2c-2.6-5.4-5.2-10.8-7.8-16.2c-2.3-4.5-4.7-9-7-13.5c-1.1-2.2-2.2-4.4-2.1-6.9
		c0-0.7-0.3-1.4-0.5-2.1c0.8-1.5,2.4-2.4,2.8-4.1c0.7,0.1,0.9,0.3,1,0.7c2,6.6,5.8,12.1,9.9,17.4c0.8,1.1,1.7,2.1,2.5,3.2
		c0.5,0.7,1.1,1.3,0.7,2.4c-0.3,1.1,0.6,1.8,1.2,2.6c2.1,2.6,4.3,5.1,6.5,7.7c2.1,2.4,3.8,5.1,5.2,8c0.4,0.9,0.8,1.8,0.6,2.9
		c-1.4,9.9-2.1,19.8-4.1,29.7c-2.3,11.4-7.1,21.6-14.1,30.9c-4.3,5.7-8.9,11.2-12.8,17.2c-6,9.2-9.9,19.3-12.1,30.2
		c-1.8,9-2.7,18.1-3.1,27.2c-0.6,14.7-0.4,29.4,0.3,44.1c0,0.4,0.1,0.9,0.2,1.3C529.2,879.6,528.1,879.6,527,879.6z"/>
	<path class="st1" d="M524.3,597.7c0-0.9-0.7-1.2-1.4-1.5c-2.3-1.3-3.8-3.3-4.6-5.8c-2.4-7.1-5.5-14-8.5-20.8
		c-1.4-3.2-3.4-6.2-3.5-9.9c0-0.9-0.7-1.2-1.5-1.3c2-1.5,4-3,6.1-4.6c0.8,0.3,0.9,1.1,1.2,1.7c3.6,7.3,7.4,14.5,10.8,22
		c1.1,2.4,2.1,4.8,2.6,7.4c0.4,2.1,1.1,4,2.5,5.6c0.7,0.8,0.7,1.5,0,2.4C526.7,594.5,525.5,596.1,524.3,597.7z"/>
	<path class="st1" d="M501.4,879.6c-0.5-4.8-1-9.7-1.7-14.5c-1.1-7.4-2.3-14.8-3.9-22.1c-1.6-7.5-3.7-14.9-6-22.2
		c-1.5-4.6-3.4-9.2-5.1-13.7c-0.3-0.8-0.6-1.5-0.7-2.3c-0.2-1.5,0.7-2.2,2.1-1.7c0.8,0.3,1.4,0.9,2,1.4c5.8,5.3,9.8,11.8,13,18.9
		c3.6,8,5.8,16.3,7.2,24.9c0.8,5,1.2,10,1.3,15.1c0.1,5.4-0.5,10.8-0.6,16.3C506.5,879.6,503.9,879.6,501.4,879.6z"/>
	<path class="st1" d="M578.2,256.9c1.5-3.2,2.6-6.4,1.6-10.1c-2.1-8-3.9-16.2-5.7-24.3c-1.3-5.8-2-11.7-3.5-17.5
		c-1.9-6.9-4.3-13.6-7.3-20.1c-4.6-9.8-10.2-19-16.8-27.5c-5.4-6.9-11.5-13.2-18.2-19c-8.7-7.6-17.9-14.4-27.2-21.1
		c-7.1-5.1-14.5-9.9-22.5-13.6c-4.3-2-8.7-3.5-13.5-3.9c-0.4,0-0.9-0.2-1.3-0.3c-2-0.4-3.7-0.2-5.6,1.1c-5.7,3.8-11.4,7.6-17.5,10.9
		c-5.9,3.1-11.4,7-16.5,11.3c-3.1,2.7-6.1,5.5-8.8,8.5c-4.8,5.2-8.9,10.9-12.5,17c-5.9,10.2-9.8,21.2-14.2,32
		c-3.1,7.5-6.3,14.9-11.1,21.4c-3.8,5.2-8.3,9.9-13.3,13.9c-6.2,5-12.6,9.7-18.9,14.6c-2.7,2.1-5.7,3.5-8.6,5.2
		c-0.8,0.5-2,0.6-2.1,1.9c-0.9,0.7-2,0.8-3,1.1c-4.4,1.3-8.7,2.9-12.6,5.4c-1.2,0.7-1.7,2.1-3.1,2.6c-0.7-0.4-0.4-1.1-0.3-1.7
		c0.3-3.5-0.4-7.1,0.3-10.6c0.7-3.5,1.1-7.1,3.4-10.1c0.4-0.5,0.5-1.2,0.7-1.8c2.4-6.6,6.3-12.2,10.8-17.6c2.1-2.5,4.1-5.1,6.6-7.2
		c2.6-2.1,5.1-4.5,7.7-6.7c9.8-8.6,19.7-17.2,26.3-28.7c4.4-7.7,7-16.1,9.2-24.6c2.1-8.4,4-17,8.5-24.6c1.2-1.9,2.6-3.4,4.5-4.6
		c13.7-8.3,28.5-13.4,44.4-15.5c4-0.5,8-1.5,12-2.4c1-0.2,1.8-0.4,2.4,0.5c1.3,1.7,3,1.7,4.9,1.3c0.4,0.1,0.7,0.1,1.1-0.1
		c0.4,0,0.8-0.1,1.2-0.1c0.5,0.3,1,0.4,1.5,0.3c3.6,1.4,7.4,2,11.2,2.9c14.1,3.2,26.9,9.2,39,17.1c15.8,10.4,28.5,23.7,38.5,39.8
		c7.3,11.7,14.1,23.7,20.9,35.7c3.4,6.1,6.7,12.4,9.2,18.9c4.7,12.1,5.4,24.7,3.6,37.5c-0.7,5.1-1.6,10.2-2.9,15.4
		C579.3,258.8,578.7,257.8,578.2,256.9z"/>
</g>
<g id="Blouse">
	<path class="st2" d="M0,650.5c1.7-0.3,2.1-1.9,2.8-3.1c3.2-5.5,6.7-10.8,10.1-16.2c3.9-6.1,8.3-11.9,12.4-17.9
		c3.9-5.7,8.3-11.1,12.6-16.5c5.7-7.1,12-13.8,18.8-19.9c8.6-7.8,17.8-14.7,27.3-21.2c6-4.1,11.9-8.4,17.8-12.7
		c0.2-0.1,0.5-0.2,0.9-0.4c0.5,1,0.3,2,0.2,2.9c-1.2,10.6-3.3,21-6.1,31.2C92.4,593,86.1,608.6,80,624.2
		c-4.6,11.8-8.1,23.9-10.6,36.2c-2.8,13.6-7.3,26.7-12.8,39.4c-4.5,10.3-8.4,20.9-10.9,31.9c-3.3,14.6-3.4,29.2-1.2,43.9
		c1.1,7.7,2.7,15.4,4.4,23c1.2,5.7,3,11.4,4.3,17c0.6,2.3,0.9,4.6,0.9,7c0.4,13.7-0.7,27.2-3.4,40.6c-0.3,1.6-0.8,3.2-1.2,4.7
		c-2.1,3.5-2.5,7.6-3.2,11.5c-15.4,0-30.9,0-46.3,0C0,803.2,0,726.9,0,650.5z"/>
	<path class="st2" d="M386.4,879.6c0.4-1,0.2-2,0.2-3c0.5-25.5-3.4-50.3-12.1-74.3c-2.4-6.7-3.2-13.6-4-20.5
		c-0.8-7.5-1.7-15-2.4-22.5c-0.4-4.3-0.7-8.7-0.8-13.1c-0.1-3.2,0.7-6.3,1.3-9.4c2.1-10.2,4.3-20.4,6.5-30.6c0.4-1.9,0.8-3.9,1.3-6
		c1.2,0.3,1.5,1.4,2,2.1c6,9.7,11.7,19.7,17.2,29.7c9.4,17,18.9,34,27.3,51.5c14.6,30.5,29.6,60.7,43.2,91.7
		c0.6,1.4,1.6,2.6,1.4,4.3C440.5,879.6,413.5,879.6,386.4,879.6z"/>
	<path class="st2" d="M535.7,879.6c-0.5-0.9-0.3-1.8-0.2-2.7c0.1-12.5,0.5-25.1,1.4-37.6c0.8-10.1,1.9-20.2,3.9-30.2
		c2.7-13.3,8.2-25.3,16.2-36.2c4.1-5.5,8.2-11.1,11.9-16.9c7.1-11.5,10.6-24,10.9-37.5c0-1.7,0-3.5,0.1-5.2c1.2,4.6,1.5,9.2,2,13.9
		c1.3,13.4,2.6,26.7,5.3,39.9c2.1,10.1,5.3,19.9,9.1,29.5c4.3,10.7,9.5,21,14.7,31.3c8.1,16.1,16.2,32.1,23.9,48.4
		c0.5,1,1.3,2,1,3.3C602.6,879.6,569.2,879.6,535.7,879.6z"/>
	<path class="st2" d="M824,596.9c0.1,0.3,0.2,0.6,0.3,0.9c0,1.3-0.1,2.5-0.1,3.8c0,74.8,0,149.7,0,224.5c0,1.2-0.2,6.5-0.2,7.6
		c-0.4-0.6-4.8-1.9-5.1-2.6c-3.9-8.1-5.2-16-8.4-24.4c-0.3-0.7-0.8-4.6-1.7-5c-2.1-8.7-1.1-18.3-2-27.3c-0.8-8.5-1.7-17-3.1-25.4
		c-2-12.5-4.7-24.9-9-36.9c-1.8-5.2-3.6-10.4-6-15.4c-2.4-4.8-4.5-9.8-7.3-14.5c-1.6-2.7-2.9-5.6-4.7-8.2c-3-4.3-5.3-9.1-8.9-12.9
		c-2.4-2.5-4.1-5.8-7.5-7.3c-0.9-0.4-0.7-1.4-0.7-2.2c0.1-2.8,0.2-5.6,0.3-8.4c0.3-9-0.2-18-2-26.9c-1.7-8.6-4.3-17-7.7-25.1
		c-1.3-3.1-2.3-6.3-4.3-9c-0.7-1-0.6-2.3-1.2-3.3c-1.3-2.4-2.2-5-3.9-7.1c-0.8-1-1.4-2.3-1.8-3.6c-0.2-0.6-0.4-1.2-0.7-1.7
		c-1.9-3.2-3.7-6.5-5.6-9.7c-1.8-3.1-3.8-6.1-5.6-9.2c-1.1-1.9-2.4-3.6-3-5.7c-0.3-1.1-1.5-1.7-2-2.8c-1.6-3.3-3.3-6.5-5.1-9.7
		c-2.8-4.9-5.2-9.9-7.6-14.9c-0.1-0.2-0.1-0.3-0.1-0.5c0.3-0.5,0.8-0.3,1.2-0.2c12.6,3.3,25.4,6.3,37.8,10.5
		c20.6,6.9,37.2,19.4,50.7,36.2c8.6,10.7,16.2,22.1,23.2,33.9C822.7,595.2,823,596.3,824,596.9z"/>
</g>
<g id="Face">
	<path class="st3" d="M340.1,242.9c2.1-0.8,3.7-1.7,5.1-2.8c1.4-1.1,3.1-0.7,4.7-1.1c2.2-0.6,4.4-0.8,6.7-1.1c0.9-0.1,1.8,0,2.7,0.3
		c9,2.5,18,4.9,26.6,8.5c3.7,1.6,7,3.8,10,6.5c3.8,3.4,6.9,7.4,10.2,11.3c0.2,0.3,0.4,0.6,0.6,0.9c0.5,0.9,0.1,1.3-0.9,1.4
		c-1.9,0.2-3.8-0.4-5.6-0.7c-8.5-1.2-16.5-4-24.6-6.5c-5.3-1.6-10.3-4.1-14.8-7.3c-5.8-4.1-12-7.1-18.9-8.7
		C341.4,243.4,341,243.2,340.1,242.9z"/>
	<path class="st3" d="M498.1,265.6c-0.1-0.5,0.2-1,2.9-3.6c3.1-3,5.1-4.7,5.1-4.7c2.8-2.5,4.3-3.7,4.4-3.8c3.5-2.6,6.7-3.8,10.5-5.1
		c1.4-0.5,3.3-1.1,7.2-2.4c2.1-0.7,3.2-1,3.5-1.1c3.6-0.9,6.5-0.8,10.1-0.7c1.7,0.1,3.6,0.1,6.2,0.5c4.6,0.6,8.2,1.2,9.5,3.7
		c0,0.1,0.8,1.6,0.2,2.4c-0.5,0.6-1.6,0.3-3.6,0.3c-1.1,0-2.1,0.2-4.1,0.5c-1.8,0.3-3.1,0.8-6.4,2.2c-4.7,2-7,3-8.6,3.9
		c-3.9,2.2-3.7,2.9-7.5,4.9c-1.5,0.8-4,2.1-7.5,3.2c-3.4,1-6.1,1.2-9.9,1.4c-0.5,0-3.1,0.2-6.6-0.1
		C498.5,266.6,498.2,265.9,498.1,265.6z"/>
	<path class="st4" d="M385.1,304.3c2.8,1,4.9,3.1,7.3,4.6c0.2,0.1,0.4,0.4,0.5,0.6c1.2,2.9-0.4,7.6-3.3,9
		c-5.6,2.8-11.4,5.2-17.7,6.4c-0.3,0-0.5,0-0.8,0c-0.9-0.1-1.9-0.3-2.7,0.4c-0.7,0.1-1.5,0.1-2.2,0.2c-2.7,0-5.4,0-8.1,0
		c-9.5-1.9-18.2-5-23.1-14.4c-1.6-3-0.7-7.3,2.5-8.8c2.4-1.2,4.8-2.5,7.2-3.6c0.7-0.3,1.5-0.8,2.3-0.3c-0.4,0.6-0.4,1.3-0.4,2
		c-0.2,0.1-0.3,0.3-0.1,0.5c-0.9,2.7-0.3,5.4,0.8,7.9c2.2,5.5,6.5,9,11.6,11.6c1.2,0.6,2.6,0.6,3.9,0.8c1.6,0.6,3.2,0.6,4.8,0
		c4.4-0.6,8.2-2.4,11.7-5.2C382.9,313,385.2,309.3,385.1,304.3C385.1,304.3,385.1,304.3,385.1,304.3z"/>
	<path class="st4" d="M494.3,322.9c-0.1-1.3,0.2-2.6-0.2-3.9c0.1-0.3,0-0.5-0.3-0.7c-0.2-1.6-1.3-2.7-2.2-4c1.7-1.5,3.7-2.4,5.5-3.7
		c0.4,0,0.7,0.1,1.1,0.1c-0.1,5.9,2.7,9.9,7.8,12.6c2.5,1.4,5.2,2.5,8.1,2.8c0.6,0.5,1.2,0.5,1.9,0.4c6.4,0.8,11.2-1.5,14.7-6.9
		c1.1-1.7,2-3.4,2.7-5.3c1.2-3.2,1.5-6.5,0.3-9.9c-0.3-0.8-0.7-1.7-0.6-2.7c1.8-0.1,3.3,0.6,5,1c1.5,0.4,2.8,1.5,4.5,1.6
		c0.4,0,0.7,0.3,0.8,0.6c1.4,2.8,3,5.5,3.4,8.7c0.6,5.2-2.8,10.7-8.6,12.5c-3.7,1.2-7.4,2.2-11.2,2.6c-1.1-0.1-2.2-0.3-3.2,0.4
		c-3.5,0.2-7,0.5-10.4-0.4c-2.4-0.7-4.8-1.7-7.2-2.6c-3.5-1.3-7-2.6-10.7-2.8C495.1,323.2,494.7,323.1,494.3,322.9z"/>
	<path class="st1" d="M394.5,306.1c0.3-1.2-0.4-2.1-1.2-2.8c-1.7-1.5-3.1-3.2-4.2-5.3c-1.1-2.1-2.9-3.7-4.9-5
		c-3.4-2.2-6.7-4.6-10.1-6.9c-7.1-4.8-15-7.9-23.2-10.2c-1.8-0.5-3.7-0.7-5.1-2.1c0.2-0.2,0.3-0.5,0.4-0.5
		c7.3-0.4,14.6-0.2,21.8,1.3c11.6,2.4,20.4,8.9,27.2,18.3c2.6,3.6,4.7,7.5,6.3,11.6c1.1,2.8,1.4,5.6,1.1,8.5
		C400.5,310.1,397.3,308.4,394.5,306.1z"/>
	<path class="st1" d="M324.7,250.7c0.6,5.5,1.1,10.9,2.1,16.4c0.4,1.9,0.5,3.8,0.5,5.6c0.1,4.5,1,9,0.7,13.6
		c-0.1,0.8-0.1,1.6-0.4,2.4c-0.4,1-0.3,2,0.3,2.9c-0.3,0.2-0.6,0.4-0.2,0.8c1,1.1,2.2,2.1,3.5,2.8c-0.1,0.3-0.3,0.4-0.6,0.5
		c-2.4-0.9-4.5-2.3-6.6-3.7c-0.4-0.3-0.8-0.6-1.2-0.2c-0.6,0.6,0,1,0.3,1.3c1.9,2.1,4,4.2,6.7,6.2c-2.6,0.2-4.3-0.7-6.1-1.3
		c-2-0.6-2.6-2.8-4.2-3.8c0.9,2.9,2.6,5,5.2,6.4c-0.5,1-1.4,0.4-2.2,0.5c-1.4-0.6-2.7-1.4-4-2.4c-0.7,0.8,0.4,1.1,0.4,1.8
		c-1.3-0.6-2.3-1-2.4-2.8c-0.2-9.1-1.1-18.1-1.1-27.2c0-0.9,0-1.8,0.1-2.7c0.5-0.1,0.9-0.2,1-0.8c0.3-2.4,1.3-4.7,1.8-7
		c0.5-2.6,0.7-5.6,3.6-7c0.1,0,0.1-0.3,0.1-0.5C323.1,252,324.1,251.7,324.7,250.7z"/>
	<path class="st1" d="M487.7,314.5c0.6-2.8,1-5.7,1.1-8.6c0.1-1.6,1-2.7,1.9-3.8c5.7-6.3,12.1-11.8,19.5-15.9
		c4.1-2.3,8.6-3.6,13.3-4.4c5-0.8,10-0.3,14.9-0.5c1.1,0,2.6,0.2,2.8,1.1c0.2,1.3-1.4,1.4-2.3,1.7c-6.6,1.9-13.2,3.8-19.9,5.5
		c-1.6,0.4-3.1,1-4.6,1.6c-5.1,2.4-10.3,4.6-14.2,8.9c-0.7,0.8-1.5,1.6-2,2.5c-1.1,2-2.5,3.9-3.4,6.1c-0.1,0.9-0.8,1.1-1.4,1.5
		C491.6,311.7,489.7,313.1,487.7,314.5z"/>
	<path class="st5" d="M531.4,310.5c0.2,4.5-2.6,7.7-6,10.4c-6,4.7-15.1,3.9-20.3-1.7c-1.8-1.9-2.3-4.2-2.6-6.7
		c-0.1-1.1,0.3-1.8,1.4-2c1.7-0.4,3.5-0.9,5.3-1.2c1.2-0.2,2.1,0,3,1.2c3.3,4,9.6,3,11.4-1.8c0.5-1.4,1.3-1.8,2.5-2
		c1-0.2,2-0.3,2.9-0.7c1.2-0.5,1.8-0.2,2.1,1.1C531.4,308,531.3,309.1,531.4,310.5z"/>
	<path class="st5" d="M370,305.3c0.5,0.2,0.9,0,1.2-0.4c0.3-0.4,0.4-0.9,0.8-1.1c2-1.4,4,0,5.9,0.4c1.6,0.4,1,1.9,0.7,3
		c-0.6,2.6-2.3,4.6-4.4,6c-3.5,2.3-7.3,3.6-11.5,3.5c-3.6-0.1-6.4-1.5-8.5-4.5c-1.9-2.7-3.1-5.7-3.6-9c-0.4-2.5,0-2.8,2.4-2.8
		c1.3,0,2.6-0.1,3.8,0.1c1.2,0.2,2.3,0.5,2.6,2.2c0.3,1.8,1.5,3.3,3,4.4c2.1,1.6,5.4,1.4,7.2-0.4C369.9,306.3,370.3,305.9,370,305.3
		L370,305.3z"/>
	<path class="st4" d="M518.6,304.8c-0.3,0.9,0.2,2.2-1.1,2.7c-1.4,0.6-3,1.3-4.6,0.9c-1-0.3-1-1.3-1.2-2.2c-0.1-1,0.4-1.2,1.2-1.4
		c1.3-0.3,2.6-0.7,3.9-1.1C518.5,303.2,518.6,303.2,518.6,304.8z"/>
	<path class="st4" d="M365.3,298.2c0.6,0,1.1,0.1,1.7,0.1c0.4,0.2,0.8,0.5,1.2,0.7c0,0.2,0,0.4-0.1,0.7c-0.1,0.4-0.1,0.9-0.2,1.3
		c-1.1,0.7-2.2,1.1-3.5,1.1c-2.8,0.1-2.8,0.1-3.2-2.6c-0.1-0.4-0.1-0.9-0.2-1.3c0.5-0.5,1.2-0.2,1.7-0.3
		C363.6,298.1,364.5,298.3,365.3,298.2z"/>
	<path class="st4" d="M370,305.3c-0.2,0-0.5,0-0.7-0.1c-0.3-0.2-0.6-0.4-0.4-0.8c0.1-0.1,0.2-0.3,0.3-0.3c0.4,0,0.7,0.2,0.7,0.6
		C370,304.8,370,305.1,370,305.3C370,305.3,370,305.3,370,305.3z"/>
	<path class="st4" d="M366.6,304.3c-0.1,0.2,0.1,0,0.4,0.1c0.3,0.1,0.4,0.3,0.4,0.6c0,0.3-0.2,0.5-0.5,0.4
		C366.6,305.2,366.3,305.2,366.6,304.3z"/>
	<path class="st1" d="M431.7,355c-0.6,0-0.9,0.4-1.2,0.9c-1.3,3.1-2.8,6.1-4.6,8.9c-0.1,0.2-0.1,0.3-0.3,0.5
		c-0.6,0.9-1.2,2.2-2.3,1.8c-1-0.3-0.8-1.6-1-2.6c-0.9-7-0.4-13.9-0.5-20.9c0-3.5,0.5-7,1-10.5c0-0.2,0.1-0.4,0.1-0.5
		c-0.3-3.6,0.7-7.2,0.6-10.8c-0.1-3.5,0.5-7,1-10.5c0.3-2,0.4-3.9,0.6-5.9c0.3-2.8,0.7-5.5,1.1-8.3c0.4-2.9-0.1-5.8-0.9-8.6
		c-1.2-4.2-2.4-8.3-3.6-12.5c-0.2-0.8-0.5-1.5,0-2.6c1.5,2.9,2.1,6.1,3.2,9.3c0.5-1.5,0.8-2.6,1-3.8c0.2-1,0.4-2.1,1.2-3
		c1.8-2.1,3.5-2.3,5.6-0.6c2.2,1.8,3.8,4.1,4.5,7c0.4,1.7,0.8,3.3,1.2,5c-1.2,0.6-0.6,1.7-0.7,2.6c0,4,0,8,0.1,12.1
		c-0.5,0.1-1,0.3-1,0.8c0,1.5-0.6,2.9-0.5,4.3c0,1.7-1.1,3.3-0.4,5.1c0.4,1,0.3,2,0.3,3c0.3,4.7-0.5,9.4-0.6,14.1
		c0,1.3-0.1,2.5-0.3,3.8c-0.2,1.5-0.8,3.2,0.6,4.6c-0.2,1.1-0.4,2.3-0.6,3.4C433.9,345.7,432.8,350.3,431.7,355z"/>
	<path class="st1" d="M422.5,376.8c1-0.1,1.7,0.4,2.2,1.3c0.5,1,1.2,0.9,2,0.2c1-1,2.2-1.6,3.7-1.4c1.3,0.1,1.7,0.8,0.9,1.7
		c-0.8,1-1.6,2-2.7,2.7c-3.2,2.1-3.2,5.2-2.8,8.5c0.4,3.5,1,7,1.6,10.4c0.2,1.1,0.3,2.4,1.5,3c0.3,2.5,0.9,5,1.9,7.4
		c-1,0.5-0.7,1.4-0.7,2.2c-2.9-1.3-5.5-3-8.6-3.9c-1.5-0.7-3.1-0.7-4.6,0c-1.3,0.2-2.4,0.6-3.1,1.7c-0.2,0.1-0.4,0.3-0.4,0.6
		c-0.1,0.5-0.1,1.1-0.2,1.6c-0.3-0.2-0.7-0.4-1-0.5c-0.1-1.3-0.4-2.5-0.8-3.7c-0.7-2.2-1.5-4.5-2.2-6.7c-0.5-1.7-0.9-3.5-0.7-5.4
		c0.7-6.3,3.3-11.6,8.3-15.6C418.6,379.4,420.6,378.1,422.5,376.8z"/>
	<path class="st1" d="M413.2,497.1c4.7,1.9,9.5,3.9,14.2,5.8c2.1,0.9,4.2,1.6,6.4,2c1.2,0.6,2.4,0.6,3.7,0.5c1.8,0.2,3.7,0.1,5.5,0
		c1.5,0.1,2.9,0.1,4.3-0.5c7-0.8,14-1.7,20.8-3.8c-0.1,1.7,0.3,3.2,0.9,4.7c1,2.7,1.9,5.5,0.7,8.4c-1.2,2.8-3.1,3.4-6.1,2.7
		c-5-1.3-9.5-3.9-14.4-5.5c-5-1.7-10.2-2-15.5-1.3c-5,0.6-9.9,2-14.8,3.3c-1.1,0.3-1.8,0.2-2.1-1.2c-0.8-2.7-1.7-5.3-2.8-7.9
		C413.1,502,412.9,499.6,413.2,497.1z"/>
	<path class="st1" d="M454,449.3c-0.1,0.1-0.2,0.3-0.4,0.4c-1.6,1.2-3,1.6-5,0.3c-2.4-1.6-5.3-2.3-8.3-2.5c1.4-0.7,1.4-2.2,1.5-3.3
		c0.2-2.1,0.4-4.2,0-6.2c-0.4-1.9-0.3-3.7,0.1-5.6c0.5-2,0.4-2-1.6-2.8c-3.8-1.5-6.3-4.2-7.4-8.2c-0.6-2.2-0.4-2.5,1.9-2.7
		c1.3-0.1,2.5-0.2,3.4-1.3c0.3,0.1,0.6,0.2,1,0.2c0.9,0.6,1.9,1.1,3,1c3-0.3,5.9,0.7,8.8,0.6c0.8,0,1.7,0,1.8,1.1
		c-1.3,0-2.6,0-3.8,0.1c-0.7,0-1.4-0.1-2.1-0.1c-0.8-0.5-1.7-0.5-2.5-0.3c-0.4,0.1-0.9,0.4-0.2,0.8c2.3,1.2,4.9,1.8,7.5,2.2
		c2.4,0.3,4.7,0.1,6.6-1.7c0.4-0.1,0.4-0.5,0.4-0.9c1.6-0.1,3.2-0.4,4.7,0.6c1.7,1.1,1.8,2.3,0.5,3.8c-1.5,1.8-3.7,2.1-5.6,3.1
		c-1.7,0.8-3.5,1.4-5.3,2.1c1.2,4.4,1.6,8.7,1.5,13.2C454.5,445.2,453.6,447.2,454,449.3z"/>
	<path class="st1" d="M472.5,372.5c0.8-0.5,0.3-1.1,0.1-1.6c-2-5-4-10.1-5.7-15.3c-2.2-6.8-3.9-13.7-4.8-20.8
		c-0.6-4.4-0.2-8.6,0.8-12.9c0.5-2.1,1.2-4.1,3-5.7c1.6,8.6,2.8,17.1,4.4,25.6c2.2,11.5,5,22.9,8,34.3c0.3,1,0.3,2,0.3,2.9
		C476.5,376.8,474.5,374.6,472.5,372.5z"/>
	<path class="st1" d="M469.4,400.3c-0.2-0.2-0.5-0.4-0.5-0.6c0.3-5.1,0.8-10.2,0.9-15.4c0-1,0.3-2,0.5-2.9c0.3-1.4,1.4-1.8,2.3-0.8
		c1,1.1,2,2.2,2.6,3.4c1,2,2.6,2.9,4.7,3.1c0.8,1.2,1.6,2.4,1.9,3.8c-0.4,0.3-0.6,0.7-0.6,1.1c-0.1,3.9-1.2,7.6-1.7,11.4
		c0,0.1,0,0.2,0,0.3c-0.3,1.5-1.4,3-2.2,2.8c-1.2-0.2-1.6-1.4-2-2.3c-0.2-0.3-0.2-0.7-0.4-1c-1.5,1.2-2.6,3.3-3,5.7
		c-0.9,0.4-1.8,0.8-2.7,1.3c-0.8-1.2-0.6-2.5-0.7-3.8c-0.4-0.8,0.2-1.4,0.4-2c0.4-1.3,1-2.6,1.2-3.9
		C470.4,399.7,469.8,400.2,469.4,400.3z"/>
	<path class="st6" d="M427.3,472.5c0.2,0,2.7-0.5,2.8-0.6c1.5,0.1,2.2,0.3,3.6-0.5c3-0.2,5.5,0.8,8.3,0c2.8-0.7,5.4-0.8,8.1,0.3
		c1.8,0.8,3.7,0.9,5.5,0c1.5-0.1,2.6-1.7,4-1.5c1.4,0.2,2.6,1.2,4,1.7c1.4,0.5,2.9,0.9,4.5,0.9c0.7,0.5,1.5,0.5,2.3,0.5
		c7.1,0.1,14.2,0.2,21.4,0c0.7,0,1.5,0.1,2.1-0.4c1.2,0,2.5-0.1,3.7-0.1c1,0,1.9,0,2.9,0.1c0.8,0.1,6-0.8,6.7,0
		c-4.2,3.3-7.8,9.9-12.1,13.1c-5.9,4.5-14.9,9.9-21.8,12.6c-4.6,1.8-11.4,3.5-16,5.4c-3.9,1.5-9.9,2-14.2,1.5
		c-2-0.3-5.6,0.2-7.6-0.4c-2.4,0-9.3-2.3-10.8-3.3c-12.6-4.6-18.2-7.3-28.9-15.7c-4.6-3.7-9.2-8.6-13.5-12.6c-1.3-1.2-2.3-3-3.6-4.2
		c0.1-0.1,1.9-0.1,1.8-0.2c0.3,0,0.7,0,1,0c0.8,0.7,1.8,0.6,2.8,0.5c6.9,1,13.8,2.1,20.7,2.8c1.2,0.7,2.5,0.6,3.9,0.5
		c2.5,0.2,5,0.7,7.6,0.6c2.7,0.9,4.4-0.2,7.1-0.2C424.8,473.2,426.1,473.2,427.3,472.5z"/>
	<path class="st7" d="M492.6,470.5c-0.5,0-1,0.1-1.5,0.1c-1.5-0.1-3.1-0.3-4.5,0.4c-0.5,0-1,0.1-1.5,0.1c-3.6,0-7.3,0-10.9,0
		c-0.5,0-1-0.1-1.5-0.1c-1.2-0.8-2.2,0.1-3.5,0.1c-1.9-0.4-2.4,0.1-4.3-0.3c-0.6-0.1-3.4-1.6-3.6-2c-1.3-2.3-2.9-0.9-4.4-0.4
		c-0.6,0.2-1,1.9-1.5,2.1c-1.8,0-3.6,0.1-5.4,0.1c-4.5-0.8-8.6-4.7-12.4-6.9c1.4,2.1,3.6,3.4,5.6,4.8c-1.3,1-2.3,1.2-4.4,1
		c-2.1,0.2-4.3,0.4-6.4,0.6c-1.7-0.1-3.4-0.3-5,0.5c-0.7,0-1.3,0.9-2,0.9c-5.5,0-6.1,0-11.5,0c-0.9,0-6.6-0.9-7.5-0.9
		c-1.8-0.8-3.7-0.5-5.6-0.5c-6.1-0.6-20.4-4-26.5-4.6c0.9-0.8,8.8-1.5,9.7-2.4c1.8,0,7.5-1.6,9.2-2c9-2.3,12.5-2.3,20.4-7.3
		c4.1-2.6,9.3-5.3,14-6.2c2.9,0,7.6-0.4,10.5-0.4c3.4,0.6,7.4,2,10.7,2.9c1.6,0.4,0.2,0.6,2.7,1.3c0.4-0.5,2-1.8,2.7-2
		c2.2,0,4.2-0.9,6.4-0.9c1.5,0.4,6.7,0.9,8.1,1.5c11.7,4.2,27.4,13.2,37.9,20.3C504.4,470.5,494.5,469.5,492.6,470.5z"/>
</g>
<g id="Hair">
	<path class="st8" d="M382.6,879.6c-0.5-3.4-1.2-8.9-2.1-15.8c-2.1-16.3-2.9-23.1-4.7-36.9c-1.3-10.1-2-15.2-2.6-19.5
		c-3.1-21.2-4.6-24.9-6.9-41.7c-2-14.3-2.9-21.5-2.6-28c0.4-7.9,1.4-9.6,5.8-33.2c2.3-12.3,3.4-18.5,4.2-25.3
		c1.1-9.2,2.1-18,1.6-29.5c-0.6-13.3-3.1-23.2-5.3-32.2c-2.6-10.6-5.4-18.1-9-28c-4.5-12.3-7.7-21-13.2-31.6
		c-6.9-13.4-13.8-22.5-19.5-30.1c-17.8-23.4-22-21.2-29-34.8c-8.3-16.2-8.7-31.9-9-41.7c-0.1-3.3-0.3-19.2,5.3-38.5
		c3.3-11.3,5.3-12.4,10-28c2.1-6.9,4.9-16.2,6.9-28.5c2.6-16.4,2.3-30,2.1-35.3c-0.7-18.2-3.6-20.6-1.6-32.7
		c1.1-6.7,2.7-10.2,2.5-17.8c-0.2-6-1.2-7.3-2.5-18c-1-8.6-1.6-12.9-1.1-17.4c1-8.3,4.3-14.3,7.4-19.5c2.8-4.8,5.6-8.5,17.4-21.1
		c7.6-8.1,15.2-16,22.2-23.2c15.1-15.6,15.9-16.5,17.2-19.3c2.9-6.3,1.7-8.2,6-28.7c2.9-13.8,4-15.7,4.7-16.9
		c4.7-7.3,11.9-10.4,22.7-14.8c5.3-2.2,13.2-5.3,24.3-6.9c21.3-2.9,38.2,2.4,50.1,6.3c8.2,2.7,21,7,34.8,16.9
		c12.6,9,24.6,27,48,62.8c11.4,17.4,14.3,22.6,16.9,30.1c1.2,3.3,6.8,20.2,5.3,43.3c-0.8,11.9-3.3,21.2-6.9,34.8
		c-5.3,20.2-8.4,23.4-7.9,34.3c0.4,7.3,2.3,13.6,6.3,26.4c4.8,15.2,6.9,16.6,7.8,24.5c0.8,7.3-0.4,12.2-4,26.5
		c-4.9,19.7-8.7,34.6-9.1,36c-4.8,18.6-6.1,25.5-11.5,45.1c-3.6,13.2-5,17.1-7.1,21.8c-3.7,8.2-7.9,14.5-15,25.3
		c-5.2,7.9-7.9,11.9-10.3,14.6c-9.3,10.5-15.1,11.4-15.8,17.4c-0.7,5.6,4.4,5.3,8.3,16.6c3.5,10.2,1.6,17,7.5,22.2
		c1.5,1.3,2.9,2,3.2,3.6c0.7,3.9-5.9,6.9-11.1,11.5c-13,11.3-15.1,30.1-16.4,41.4c-0.7,6.3-0.5,10.8-0.4,11.9
		c0.3,5.6,1.7,10.5,4.4,19.9c3.6,12.8,5.3,16,6.3,17.8c0.4,0.8,6.7,11.6,9.8,10.5c2.6-0.9-1-9.2,2.4-21.9c1-3.9,2.8-7.7,6.3-15.3
		c1.2-2.7,3.1-5.9,6.9-12.5c3.3-5.9,4.6-7.7,6.3-7.8c2.2-0.1,3.8,2.7,5.8,5.9c6.8,10.8-2-6.4,11.5,15.7
		c9.9,16.4,14.9,24.6,16.4,28.2c4.7,11.9,1.7,14,4.7,38.2c1.3,10.2,3.3,25.6,9.2,43.5c2.7,8.3,2.2,4.7,14.4,35
		c9,22.4,8.5,22.4,11.7,28.3c4.5,8.6,8.6,14.3,12.7,25.3c2,5.6,3.2,10.3,4,13.5h185.9c2-18.7-0.3-33-2.8-42.7
		c-4.3-17.1-9.6-21-15-40.7c-3.7-13.4-1.8-13.5-5.9-40.7c-4.2-27.7-6.4-41.6-13.1-56.2c-3.3-7.1-8.7-19-18.2-31.3
		c-2.1-2.7-5.1-6.3-9.1-12.3c-3-4.4-8.2-12.1-11.1-18.6c-6.4-14.6,0-21.9-2.8-38.4c-1.7-10.2-5.4-14.8-15-30.9
		c-7.2-12-20.4-34-28.9-53.4c-11-25.1-14.7-46.9-19-72.4c-3.8-22.3-4.2-36.3-4.4-40.7c-0.3-12.3,0.5-16.4,2-39.2
		c2.4-36.6,3.6-55.2,1.2-73.6c-0.9-7.2-2.9-19.9-7.5-35.2c-4.2-14-8.5-23.6-14.6-37.2c-5.6-12.5-11.4-25.4-21-41.1
		c-4.1-6.8-11.9-17.5-27.3-38.8c-15-20.6-22.5-31-26.9-36c-2.8-3.2-13.6-13.5-35.2-34c-16.5-15.7-19.5-18.5-26.1-21.4
		c-14.3-6.3-31.4-6.7-32.4-6.7c-11.6-0.2-14.8,2-21-0.8c-9-4.2-9.2-12.4-15.8-20.2C444.6,7.4,426.5,6.8,408.2,6.3
		c-9.5-0.3-32.9,0.3-57.4,13.5c-10.9,5.9-18.3,12.6-33.2,26.1c-9.9,9-20.2,18.4-31.3,33.2c-4.3,5.8-9.6,15-20.2,33.2
		c-2.4,4.2-5.4,9.4-7.5,17c-2.2,7.9-1.7,11.8-2.4,16.2c-2.3,13.8-14.4,15.9-35.2,37.2c-9.1,9.3-15.1,17.5-22.9,28.1
		c-9.1,12.3-13.6,18.4-18.2,27.7c-8,16.1-10.8,30.2-12.7,40.4c-2,10.5-3.6,19.2-3,31c0.8,17.2,5.2,21.3,3.4,34.8
		c-0.5,3.9-1.4,7.7-8.4,24c-7.2,16.7-10.8,25.1-16.9,36.4c-21.3,39.7-30.5,36.6-34.8,55.4c-4.5,19.7,5.9,21.2,7.1,55.8
		c0.9,25.9-4.3,46.2-8.3,61.7c-4.8,18.3-7.9,22.2-19,51c-23.8,61.7-30.5,97.8-32,106.8c-5.6,31.9-4.1,45.6-3.6,49.8
		c2.6,20.6,8.9,27.7,9.5,45.1c0.4,12.2-2,28.8-13.9,48.8H382.6z"/>
</g>
<g id="Lineart">
	<path class="st3" d="M687.7,344.6c-0.6,7-1.2,13.9-1.8,20.9c-0.1,1.3-0.2,2.5-0.3,3.8c-0.2,0.3-0.3,0.6,0,0.9
		c-0.2,2.4-0.3,4.9-0.5,7.3c-0.2,0.3-0.3,0.6,0,0.9c-0.9,13.7,3.6,73.2,5,79.9c0.9,4,1.7,8,2.8,11.9c1.4,4.8,2.7,9.7,4.3,14.4
		c1,3,1.8,6.1,3.2,9c1.3,2.6,2.1,5.5,3.2,8.2c0.9,2.1,1.9,4.2,2.8,6.3c0.4,1,1.2,1.3,2.2,1.2c1.4,0.3,2.9,0.6,4.3,0.5
		c0.2,0,0.4,0,0.6,0c1.2,0.3,2.5,0.6,3.8,0.5c0.2,0,0.3,0.1,0.5,0.2c1.2,0.8,2.5,0.6,3.8,0.5l0,0c1,0.8,2.2,0.6,3.3,0.5
		c0.2-0.1,0.3,0,0.5,0.1c0.8,0.7,1.8,0.6,2.8,0.5c2.8,0.5,5.5,1.1,8.3,1.6c8.4,1.5,16.6,3.5,24.4,6.8c2.3,1,4.5,2.1,6.8,2.9
		c1.2,0.4,2.4,1,3.4,2c0.8,0.7,2.1,0.8,3.1,1.4c5.7,3.2,11,7.1,15.8,11.5c11.6,10.5,20.6,23,28.6,36.4c1.9,3.3,4,6.5,5.5,10
		c0,4.1-0.1,8.2-0.1,12.3c-1.1-0.5-1.3-1.7-1.8-2.6c-7-11.8-14.6-23.2-23.2-33.9c-13.6-16.8-30.1-29.2-50.7-36.2
		c-12.4-4.2-25.1-7.1-37.8-10.5c-0.4-0.1-0.9-0.3-1.2,0.2c0,0.2,0,0.4,0.1,0.5c2.4,5,4.8,10.1,7.6,14.9c1.8,3.2,3.5,6.4,5.1,9.7
		c0.5,1.1,1.7,1.7,2,2.8c0.6,2.1,2,3.8,3,5.7c1.8,3.1,3.8,6.1,5.6,9.2c1.9,3.2,3.7,6.5,5.6,9.7c0.3,0.5,0.6,1.1,0.7,1.7
		c0.4,1.3,1,2.6,1.8,3.6c1.7,2.2,2.6,4.7,3.9,7.1c0.5,1,0.5,2.3,1.2,3.3c2,2.8,3,6,4.3,9c3.4,8.1,6,16.5,7.7,25.1
		c1.8,8.9,2.2,17.8,2,26.9c-0.1,2.8-0.2,5.6-0.3,8.4c0,0.8-0.2,1.8,0.7,2.2c3.4,1.5,5.1,4.8,7.5,7.3c3.6,3.8,5.9,8.6,8.9,12.9
		c1.8,2.6,3.1,5.5,4.7,8.2c2.8,4.7,4.9,9.6,7.3,14.5c2.4,4.9,4.2,10.2,6,15.4c4.3,12,7,24.4,9,36.9c1.3,8.4,2.2,16.9,3.1,25.4
		c0.8,8.9,2,17.8,4.2,26.6c0,0.5,0,0.9,0.1,1.4c1.7,7.5,4.7,14.6,7.5,21.8c1.3,3.5,3.4,6.5,5.5,9.6c0.2,5.5,0.3,10.9,0,16.4
		c-0.6-0.7-1.1-1.4-1.7-2.1c-5.1-6.4-9.7-13.1-13.4-20.4c-4.7-9.2-8-18.8-9.5-29.1c-0.9-6.4-1.4-12.8-1.9-19.2
		c-0.3-3.8-0.1-7.6-0.5-11.4c-0.7-6.7-0.8-13.4-1.6-20c-0.8-6.6-1.8-13.1-3.3-19.5c-2.5-10.8-6.2-21.2-10.8-31.3
		c-5.5-11.9-12.3-23-19.5-33.9c-0.7-1-1.1-2.3-2-3.1c-1.2,0.6-0.7,1.6-0.8,2.5c-0.3,2.2-0.4,4.5-0.7,6.7c-0.5,3.7-1,7.3-1.5,11
		c-0.5,3.6-0.9,7.2-1.4,10.7c-0.4,3-0.9,6.1-1.3,9.1c-0.7,5-1.4,10-2,15c-0.4,3.2-0.9,6.4-1.2,9.7c-0.3,3.6-1,7.1-1.3,10.8
		c-0.3,3.6-1.1,7.1-1.4,10.7c-0.3,4-0.8,7.9-1.3,11.9c-0.7,5.5-1.3,10.9-1.9,16.4c-0.7,6.1-1.5,12.2-2.7,18.2c-0.5,2.3-1,4.7-0.6,7
		c0.6,2.8,0.3,5.6,0.5,8.4c0.2,2.8,0.4,5.6,0.6,8.4c0.5,5.4,1.3,10.7,2.1,16.1c0.9,6.3,2.1,12.5,3.9,18.5c1.2,4.1,2.6,8.1,3.7,12.2
		c1.5,5.3,2.6,10.7,3.8,16.1c-12,0-24,0-36,0c0-0.5,0-0.9,0-1.4c-0.4-6.7-1.2-13.3-2.1-19.9c-1.1-7.8-2.5-15.5-4.3-23.2
		c-1.7-7.4-3.7-14.7-5.6-22.1c-2.6-10.4-5.2-20.9-6.7-31.6c-0.9-6.1-1.5-12.2-1.9-18.3c-0.3-5.6-0.5-11.2,0.4-16.8
		c0.8-4.9,1.1-9.9,1.8-14.8c0.8-5.7,1.8-11.4,2.6-17.1c1-7.2,2-14.3,2.9-21.5c0.8-6.1,1.5-12.2,2.1-18.3c0.3-2.4,0.3-4.9,0.6-7.3
		c0.6-4.4,0.8-8.8,0.9-13.3c0.2-10.9,0.3-21.8-0.5-32.6c-0.2-2.3-0.3-4.7-0.6-7c-0.8-6.1-1.5-12.2-2.5-18.3
		c-1.6-10-3.6-19.9-5.9-29.8c-3.2-13.8-7-27.6-10.8-41.2c-0.8-2.9-1.7-5.8-2.7-9.2c-0.7,3.2,0.2,5.8,0.3,8.4
		c0.4,12.9-1,25.8-0.6,38.6c0,0.7-0.1,1.5,0.1,2.2c1,4.9,0.7,9.9,0.8,14.9c0.3,10.5,0.5,21-0.2,31.6c-0.5,7.5-0.6,15-1.1,22.5
		c-0.4,5.7-0.7,11.4-1.1,17.1c-0.4,4.8-0.7,9.6-1.1,14.3c-0.4,5.2-0.8,10.5-1.1,15.7c-0.4,6-0.7,11.9-1.1,17.9
		c-0.3,4.6-0.4,9.2-0.5,13.8c-0.2,8.5-0.3,17,0.3,25.6c0.5,7.2,0.9,14.4,1.8,21.6c0.7,6,1.8,12,3.1,17.9
		c2.7,12.3,6.9,24.2,11.1,36.1c5,14.3,9.8,28.6,12.2,43.6c1.2,7.3,2.2,14.6,2.5,22.1c-4.5,0-9.1,0-13.6,0c0.3-2.7-0.3-5.3-0.6-7.8
		c-0.9-7.6-2-15.3-3.7-22.8c-1.3-5.6-2.4-11.2-4.7-16.4c-3.5-7.8-6.9-15.6-10.2-23.5c-3.1-7.5-6.8-14.9-9.7-22.5
		c-0.4-0.9-0.7-2-1.4-2.6c-2.7-2.2-3.2-5.3-3.9-8.5c-0.5-2.4-1.1-4.7-2.1-7c-5-11.4-9.4-23-12.5-35.1c-2.5-10-4.1-20.1-4.5-30.3
		c-0.5-12.3-0.2-24.7,1.5-36.9c0.8-6.2,1.5-12.4,2.6-18.6c1.6-8.8,3.1-17.7,5-26.4c1.3-6.1,2.5-12.2,3.6-18.4
		c1-5.5,1.9-11.1,2.9-16.6c1-5.4,1.7-10.9,2.5-16.3c0.5-3.6,1.1-7.2,1.2-10.8c0.2-7.8,0.4-15.6,0-23.4c-0.3-6.1-0.3-12.1-0.3-18.2
		c0-1.2,0.2-2.3,0.3-3.5c0.4-3.7,0.7-7.5-0.1-11.1c-2.5-11.7-5.9-23.2-7.7-35c-0.6-4-1.7-8-1.8-12.1c-0.1-3.5-0.7-6.8-1.9-10.1
		c-3.2-9.2-4.7-18.7-5.8-28.4c-0.1-0.8-0.2-1.6-0.5-2.4c-0.3-0.7,0.3-1.5-0.6-2.2c0,4.3-0.8,8.4-1,12.6c-0.3,5.2-0.9,10.5-1.3,15.7
		c-0.1,1.9-0.3,3.8-0.6,5.7c-0.5,4-1,8.1-1.5,12.1c-0.4,3.8-0.8,7.6-1.2,11.3c-0.6,5-1.4,10-2,15c-0.6,4.5-1.1,9-1.8,13.4
		c-0.8,5.5-1.7,10.9-2.5,16.3c-1,6.8-1.9,13.6-2.9,20.4c-1.2,8.2-2.5,16.4-3.7,24.7c-1,7.5-1.9,15.1-2.8,22.6
		c-0.9,7.3-1.8,14.5-2.6,21.8c-0.7,6-1.2,12.1-1.6,18.1c-0.5,6.8-0.8,13.6-1,20.3c-0.3,11.2-0.2,22.5,0.9,33.7
		c0.7,7.2,1.5,14.4,2.8,21.5c2.3,13.3,6.4,26,11.5,38.4c4.2,10.1,9.1,20,14.2,29.7c7.7,15,15.5,30,22.1,45.6
		c7,16.3,12.9,32.9,17.3,50.1c1.5,5.9,2.9,11.8,3.6,17.8c-7.4,0-14.9,0-22.3,0c-0.9-2.5-1.8-4.9-2.8-7.4c-4.3-11-8.8-21.9-14-32.5
		c-3.6-7.5-7.5-14.9-11.4-22.3c-1.4-2.6-2.7-5.1-4.1-7.7c-4.5-8.4-9.2-16.7-13.6-25.1c-7.6-14.7-14.8-29.5-20.7-45
		c-3.4-8.8-6.3-17.8-8.7-26.9c-2-7.5-3.4-15.1-4.6-22.8c-1-6.4-1.8-12.8-1.9-19.1c-0.3-13.8-0.6-27.6,0.9-41.3
		c0.5-4.5,0.8-9,1.1-13.5c0.4-6.2,1.3-12.4,1.8-18.6c0.2-2.3,0.2-4.7,0.9-7c0.3-0.8,0.1-1.8,0.1-2.7c0-0.9,1-1.7,0-2.8
		c-2.5,7.1-6,13.6-9.3,20.1c-0.3,0.7-0.5,1.4-0.5,2.1c0,2.8,0,5.6-0.5,8.4c-0.8,4.6-1.1,9.3-1.9,14c-1,5.9-1.7,11.8-1.9,17.8
		c-0.3,7.6-0.3,15.2,0.3,22.8c0.5,5.8,1.4,11.5,1.9,17.2c0.1,1.4,0.1,2.9,0.8,4.2c3.2,5.5,4.8,11.6,6,17.7c1.7,8.2,2.4,16.6,3.3,25
		c0.8,7.2,1.6,14.4,2.7,21.5c1.7,10.6,4.9,20.8,8.8,30.7c4.3,11,9.5,21.6,14.5,32.3c1.7,3.7,3.4,7.4,5,11.2
		c3.5,8.3,6.9,16.5,10.1,25c2.7,7.4,5.4,14.8,8.2,22.2c0.3,0.9,0.6,1.7,0.4,2.6c-1.8,0-3.6,0-5.4,0c0.3-1.3-0.5-2.3-1-3.3
		c-7.7-16.3-15.8-32.3-23.9-48.4c-5.2-10.3-10.4-20.6-14.7-31.3c-3.8-9.6-7.1-19.4-9.1-29.5c-2.7-13.2-4-26.6-5.3-39.9
		c-0.5-4.7-0.8-9.3-2-13.9c-0.1,1.7-0.1,3.5-0.1,5.2c-0.4,13.4-3.8,26-10.9,37.5c-3.6,5.9-7.8,11.4-11.9,16.9
		c-8.1,10.9-13.5,23-16.2,36.2c-2.1,10-3.2,20.1-3.9,30.2c-0.9,12.5-1.3,25-1.4,37.6c0,0.9-0.2,1.8,0.2,2.7c-1.8,0-3.6,0-5.4,0
		c-0.1-0.4-0.2-0.9-0.2-1.3c-0.7-14.7-0.9-29.4-0.3-44.1c0.4-9.1,1.3-18.2,3.1-27.2c2.2-10.8,6.1-20.9,12.1-30.2
		c3.9-6,8.5-11.5,12.8-17.2c7-9.3,11.8-19.5,14.1-30.9c2-9.8,2.7-19.8,4.1-29.7c0.1-1-0.2-2-0.6-2.9c-1.4-2.9-3.1-5.5-5.2-8
		c-2.2-2.6-4.4-5.1-6.5-7.7c-0.6-0.7-1.6-1.5-1.2-2.6c0.3-1.1-0.2-1.7-0.7-2.4c-0.8-1.1-1.7-2.2-2.5-3.2c-4.1-5.3-7.9-10.8-9.9-17.4
		c-0.1-0.4-0.3-0.6-1-0.7c-0.4,1.7-2,2.6-2.8,4.1c-4.4,5.1-8.4,10.5-10.8,16.8c-1.6,2.2-2.3,4.8-2.6,7.4c-1.9,5.7-2.3,11.6-2.3,17.5
		c-0.2,13,1.6,25.9,3,38.8c0.7,6.4,1.5,12.8,1.4,19.3c0,1.9-0.1,3.8-1.1,5.5c-0.4,0.4-1.9-2.2-1.6,0.5c-0.1,1.2-0.3,2.5-1.4,3.4
		c-1.2-1.1-1.6-2.6-1.8-4c-0.7-4.6-1.7-9-2.5-13.6c-2-12-3.8-24.1-6.8-36c-2.3-9.3-5.5-18.3-8.6-27.3c-2.7-7.7-5.7-15.2-7.1-23.3
		c-1.2-6.6-1.7-13.1-1-19.8c1.2-10.7,5.4-20.3,10.9-29.3c3.5-5.7,7.5-10.9,11.2-16.4c1.2-1.6,2.4-3.2,3.6-4.7c0.7-0.9,0.7-1.6,0-2.4
		c-1.4-1.6-2-3.6-2.5-5.6c-0.5-2.6-1.5-5-2.6-7.4c-3.4-7.4-7.2-14.7-10.8-22c-0.3-0.6-0.4-1.4-1.2-1.7c-2,1.5-4,3-6.1,4.6l0,0
		c-1.4,0.9-2.9,1.9-4.3,2.8c-8.5,5.3-17.4,9.6-26.4,14.1c-0.8,0.4-1.7,0.8-2.4,1.3c-6.1,4.3-13.1,6-20.3,7c-4.4,0-8.7,0-13.1,0
		c-5.5-0.5-10.7-1.9-15.9-3.6c-24.4-8-47.6-18.6-69.9-31.3c-0.5-0.3-0.9-0.8-1.8-0.5c1.6,2.8,3,5.6,4.3,8.5
		c7.3,17.1,13.5,34.5,18.6,52.3c4.9,17,7.3,34.4,7.1,52.2c-0.1,9-0.8,18-2.1,26.9c-0.3,1.8-0.9,3.7-0.6,5.4c0.3,1.8,2.4,2.6,3.4,4
		c0.6,0.9,1.4,1.7,2.1,2.5c3.7,4.7,7,9.7,10.1,14.9c11.6,19.2,22.1,39,32.2,59.1c8.9,17.7,17.1,35.7,26.3,53.3
		c8.4,16,15.3,32.7,21.5,49.7c0.3,0.9,1,1.8,0.7,2.9c-2.2,0-4.4,0-6.5,0c0.3-1.7-0.8-2.9-1.4-4.3c-13.6-30.9-28.6-61.2-43.2-91.7
		c-8.4-17.5-18-34.5-27.3-51.5c-5.5-10-11.2-20-17.2-29.7c-0.5-0.8-0.8-1.8-2-2.1c-0.4,2.1-0.8,4-1.3,6c-2.2,10.2-4.4,20.4-6.5,30.6
		c-0.6,3.1-1.4,6.2-1.3,9.4c0.1,4.4,0.4,8.7,0.8,13.1c0.7,7.5,1.6,15,2.4,22.5c0.7,7,1.5,13.8,4,20.5c8.7,24,12.5,48.8,12.1,74.3
		c0,1,0.2,2-0.2,3c-5.4,0-10.9,0-16.3,0c-0.2-0.9-0.5-1.8-0.5-2.7c-0.1-5.1-0.6-10.1-1.1-15.1c-0.4-3.9-0.7-7.7-1.2-11.6
		c-0.8-5.9-1.8-11.8-2.6-17.7c-0.6-5.1-1.3-10.2-2.4-15.2c-2.9-13.2-6.4-26.4-8.8-39.7c-0.9-4.8-1.8-9.6-2.4-14.4
		c-0.5-4.1-1-8.2-1.3-12.4c-0.3-4.8-0.8-9.6-0.9-14.3c-0.2-6.7,0-13.4-0.1-20.2c-0.2-11.1,0.3-22.1-0.4-33.2
		c-0.4-6.8-0.9-13.5-1.8-20.2c-0.5-4.2-1.3-8.4-2.8-12.4c-0.8-1.9-1.4-3.9-2.1-5.9c-3.1-8.5-6.1-17-9.5-25.5
		c-5.5-13.9-11.2-27.7-17.3-41.4c-4.8-11-9.9-21.8-15.1-32.6c-6.1-12.8-12.5-25.4-18.8-38.1c-3.8-7.6-7.5-15.1-10.7-23
		c-2.9-7.1-4.9-14.2-4.4-21.9c0.1-2.1,0-4.1,0-6.5c-1.9,1.1-3.1,2.6-4,4c-2.9,3.9-6.4,7.3-9.3,11.1c-1.2,1.6-3,2.6-4.5,4
		c-2.6,2.5-4.4,5.5-7.2,7.8c-2.2,1.8-4.3,3.6-6.2,5.7c-1.2,1.3-2.1,3.1-3.7,3.9c-2.8,1.4-4.5,4.1-6.9,6c-2.4,1.9-4.7,4.1-7.1,6.2
		c-8.2,6.9-16.9,13.2-25.7,19.4c-5.6,4-11.3,7.9-17,11.7c-1.6,1-2.2,2.2-2.1,4.1c0.1,2.3,0.3,4.5,0.5,6.8c0.4,5,0.1,9.9,0.6,14.9
		c0.3,3.4-0.1,6.9-0.3,10.3c-0.3,6.8-0.6,13.6-1.3,20.3c-0.4,3.7-0.9,7.3-1.3,11c-0.3,3.6-1,7.1-1.4,10.7c-0.6,4.7-1.1,9.5-1.8,14.2
		c-0.7,5.1-1.4,10.2-2.1,15.3c-0.5,3.4-0.9,6.8-1.2,10.2c-0.5,5.3-1.6,10.5-2,15.8c-0.4,4.9-1.1,9.7-1.3,14.6
		c-0.1,2.5-0.1,5.1-0.5,7.6c-0.8,4.4-0.4,8.8-0.9,13.3c-0.4,3.9-0.1,7.8-0.1,11.7c0,2.4-0.9,4.9-0.5,7.3c0.7,3.6,0.5,7.2,0.4,10.9
		c-0.1,4.2,0.6,8.3,0.7,12.5c0.1,2.1,0.3,4.2,0.8,6.4c0.2-4.4,0.8-8.8,1.2-13.2c0.6-5.3,1.4-10.6,2.5-15.8
		c3.1-14.1,7.6-27.8,12.6-41.3c5.2-13.9,10.4-27.9,15.6-41.8c6.1-16.4,11.6-33,15.5-50.1c2.5-10.7,4.4-21.4,5.6-32.3
		c0.2-1.6-0.1-3.6,1.9-5.3c0.3,2.4,0.7,4.4,0.8,6.4c0.1,7.6,0,15.2-0.9,22.8c-0.9,7.2-2,14.3-3.6,21.4c-2.7,11.7-6.1,23.3-9.9,34.7
		c-5.1,15.6-11,30.9-16.4,46.4c-3.1,9-6.1,18-8.7,27.2c-2.1,7.3-3.8,14.7-5,22.2c-0.8,4.7-1.6,9.5-1.7,14.3
		c-0.2,7.4-0.4,14.9,0.3,22.3c0.7,6.6,1.6,13.1,3.1,19.5c2.9,12.7,7.3,24.8,11.8,37c1.9,4.9,3.8,9.8,5,14.9c0.1,0.5,0.5,1.2,0.2,1.6
		c-1.5,1.5-0.3,2.6,0.3,3.8c4,7.7,8,15.4,12.3,23c1.6,2.8,2.9,5.8,4.4,8.7c-22,0-44,0-65.9,0c0.1-0.9-0.3-1.6-0.6-2.3
		c-2.5-5.1-4.8-10.3-7-15.6c-3.8-9.1-7-18.4-9.4-28c-2.2-9-3.8-18.2-4.9-27.4c-0.8-7.5-1-15-1-22.5c0-4.7,0-9.5,0-14.2
		c0-3.3,0.3-6.7,0.7-10c0.5-4.6,0.9-9.2,1.4-13.7c0.6-6.2,1.5-12.4,2.4-18.5c1-7.6,2.3-15.2,3.8-22.7c2.6-12.6,4.9-25.3,8.1-37.9
		c1.7-6.8,3.3-13.7,4.9-20.6c1.4-5.7,3.1-11.4,4.1-17.2c1.5-8.8,2.2-17.8,3-26.7c0.3-3.7,0.3-7.4,0.7-11.1
		c0.6-5.7,0.7-11.4,0.8-17.1c0.3-22.2,0.1-44.3,0.1-66.5c0-0.5,0-1.1,0-1.6c0-0.5,0.1-1.1-0.7-1.2c-0.6,0.7-0.8,1.6-1,2.5
		c-1.1,5-1.9,10.2-3.4,15.1c-1.9,6.3-2.9,12.7-3.5,19.2c-0.5,4.9-1.2,9.7-2.1,14.5c-0.6,3.4-1.3,6.7-2.1,10.1
		c-0.6,2.8-0.8,5.7-1.4,8.6c-0.5,2.7-1.7,5.1-2.3,7.8c-0.6,2.5-0.7,5.2-2.1,7.4c-0.2,0.3-0.4,0.7-0.3,1c0.4,1.3-0.3,2.3-0.6,3.4
		c-1.2,4.4-3.3,8.4-4.3,12.9c-1.1,4.5-3,8.8-4.7,13.2c-1.9,4.9-4.2,9.6-6.1,14.4c-1.6,4-3.5,7.9-5.1,11.9
		c-2.4,6.3-5.5,12.5-8.1,18.7c-4.2,10-7.9,20.1-10.6,30.6c-1.9,7.3-3,14.7-3.8,22.2c-0.8,6.6-0.7,13.3-0.3,19.9
		c0.3,5.4,1.1,10.8,1.8,16.2c1.2,8.5,2.8,17,4.3,25.4c1,5.9,2.2,11.7,3,17.7c0.6,4.3,1.2,8.6,1.7,12.9c0.6,5.6,1.3,11.2,1.4,16.8
		c0.2,10.9,0.4,21.8-0.4,32.7c-0.2,2.4,0,4.9-0.5,7.3c-0.2,1.1-0.3,2.4,0.1,3.5c1,3,0.9,6.1,0.9,9.2c-17.1,0-34.2,0-51.2,0
		c-0.1-0.9,0.2-1.7,0.4-2.6c0.6-3,1.7-5.8,1.7-8.9c0.4-1.6,0.9-3.1,1.2-4.7c2.6-13.4,3.7-27,3.4-40.6c-0.1-2.4-0.4-4.7-0.9-7
		c-1.4-5.7-3.1-11.3-4.3-17c-1.6-7.6-3.3-15.3-4.4-23c-2.1-14.7-2.1-29.3,1.2-43.9c2.5-11,6.4-21.6,10.9-31.9
		c5.5-12.7,10-25.8,12.8-39.4c2.5-12.4,6-24.5,10.6-36.2c6.1-15.6,12.4-31.2,16.8-47.4c2.8-10.3,5-20.6,6.1-31.2
		c0.1-0.9,0.3-1.9-0.2-2.9c-0.4,0.2-0.7,0.3-0.9,0.4c-5.9,4.2-11.8,8.6-17.8,12.7c-9.5,6.5-18.8,13.5-27.3,21.2
		c-6.8,6.1-13,12.8-18.8,19.9c-4.3,5.4-8.7,10.8-12.6,16.5c-4.1,6-8.5,11.8-12.4,17.9C9.5,636.6,6,642,2.8,647.5
		c-0.6,1.1-1.1,2.8-2.8,3.1c0-4.2,0-8.4,0-12.5c1.9-1.2,2.4-3.3,3.4-5c5.7-10.2,11.5-20.4,18-30.1c9.9-14.7,21.2-28.1,35.1-39.2
		c11.6-9.2,24.2-16.7,37.6-22.8c2.9-1.4,6-2.5,9-3.8c0.2-0.1,0.5-0.1,0.3-0.5c0.4-5.6,0-11.2-0.5-16.8c-0.9-8.8-2.3-17.6-3.7-26.4
		c0.2-0.3,0.2-0.6-0.1-0.9c-1-8.2-1.7-16.5-1.1-24.7c0.3-0.3,0.3-0.6,0.1-0.9c0.6-3.7,0.7-7.5,1.8-11c1.3-4.3,2.9-8.5,4.9-12.6
		c3.6-7.5,8.1-14.4,13-21.1c14.4-19.7,27.4-40.5,40.4-61.1c1.5-2.5,3.3-4.8,4.9-7.2c0.3-0.1,0.5-0.3,0.5-0.6l0,0
		c0.3-0.1,0.5-0.4,0.4-0.7c-0.3-4.7-0.6-9.4-0.9-14.1c0.2-0.3,0.2-0.6,0-0.9c-0.2-6.8-0.5-13.6-0.7-20.4c-0.3-12,0-24,1.2-35.9
		c1-9.6,3-19,5.9-28.3c1.7-5.6,3.9-11,6.5-16.1c4-7.9,8.6-15.5,13.7-22.8c8.5-12.2,17.7-23.9,27.8-34.9c5-5.5,10.2-10.7,15.4-16.1
		c3.4-3.5,6.7-7,10.1-10.6c2.4-2.5,4.4-5.3,6.4-8.1c1.2-1.7,1.7-3.8,2.5-5.7c0.6-1.6,1.6-3.1,2-4.9c0.3-1.7,1.3-3.3,1.9-4.9
		c0.7-1.7,1.1-3.6,2-5.1c1.4-2.3,1.7-5,3-7.3c1.7-3.1,2.8-6.5,4.4-9.6c1.6-3.2,3-6.6,4.6-9.9c16.5-33.1,40.4-58.9,73.4-76
		c6.3-3.3,12.8-6.4,19.4-8.9c7.6-2.9,15.5-5.3,23.5-6.9c1.1-0.2,2.1-0.3,3.2-0.4c0.6,0,11.7-1.8,13.1-2.2c0.4,0,0.8,0,1.1,0
		c4.9,0,9.9,0,14.8-0.1c0.9,0,1.8,0,2.7,0c0.2,0,9.9,1.8,10.9,1.7c0,0,5.1,1.1,7,1.7c4.9,1.5,9.6,3.3,14.1,5.8
		c3.8,2.1,7.4,4.6,10.4,7.7c1.5,1.6,3,3.1,3.6,5.3c0.4,1.3,1.5,2.2,2.3,3.2c1,1.3,3,3,4.5,4.2c0.8,0.7,1.1,2,1.1,3.2
		c0,1.1,0.7,1.3,1.4,0.9c1.1-0.5,2.3-0.5,3.4-0.5c1.5,0,24.5,1.2,25.8,1.6c4.2,0.5,8.1,1.7,12,3.2c2.9,1.1,5.8,2.2,8.6,3.6
		c2.7,1.3,5.4,2.8,8,4.4c4.9,3,9.7,6.4,14.1,10c2.6,2.1,5.2,4.3,7.8,6.4c1.8,1.4,3.5,3,5.3,4.4c2.5,2.1,5.3,4,7.3,6.7
		c1.1,1.4,2.8,2.3,4.1,3.5c3.2,3.2,6.3,6.5,9.4,9.8c4.3,4.5,8.4,9.2,12.2,14c7.7,9.7,15,19.7,22,30c4.4,6.4,9,12.6,13.4,19
		c5.1,7.4,10.3,14.9,15.2,22.4c5.1,7.7,9.7,15.7,14.3,23.8c3.7,6.5,6.9,13.2,9.7,20.1c3.5,8.4,6.9,16.8,9.3,25.7
		c1.5,5.6,2.9,11.2,4.6,16.8c0.2,0.7,7,44.8,6.7,57.3c-0.2,8.3-0.7,16.7-1.6,24.9C687.3,343.9,687.2,344.2,687.7,344.6z
		 M271.4,215.9c-0.1,0-0.1,0-0.2,0.1c0,0,0,0.1,0,0.2C271.3,216.1,271.3,216,271.4,215.9c0.1,0,0.1,0,0.2-0.1c0,0,0-0.1,0-0.1
		C271.6,215.8,271.5,215.9,271.4,215.9z M536.8,92.1c0,0.1,0,0.2,0.1,0.2c0,0,0.1,0,0.2,0C537,92.3,536.9,92.2,536.8,92.1
		c0-0.1,0-0.1-0.1-0.2c0,0-0.1,0-0.1,0C536.7,92,536.7,92.1,536.8,92.1z M184.2,519.7c-0.3,0.1-0.3,0.1-0.1,0.2
		C184.1,519.9,184.2,519.7,184.2,519.7c0-0.1,0.1-0.1,0.2-0.1c0,0,0-0.1,0-0.1C184.3,519.5,184.3,519.6,184.2,519.7z M559.8,311.4
		c2.9-0.3,5.7,0,8.6-0.2c0.1-0.3,0.3-0.7,0.3-1c0.4-7.2,2.1-14.1,3.9-21c1.1-4.3,2.4-8.6,3.6-12.9c0.8-2.9,1.2-5.9,2.4-8.8
		c0.7-1.7,0.2-2.2-1.8-3.6c-3.6-2.5-7.3-4.9-10.9-7.4c-5.1-3.4-10.5-4.8-16.4-3.7c-5.3,0.9-10.1,3.3-14.7,6
		c-3.6,2.1-7.1,4.3-10.8,6.1c-8.8,4.2-18,4.5-27.3,1.8c-0.3-0.1,1.6-2.6,2.4-3.8c3.9-5.5,9.1-9.5,15.1-12.6c3.5-1.8,7.2-3,10.9-4.2
		c1.6-0.5,10.6-2.6,13.4-3.3c1,0.1,10.2-1.1,10.4-1.2c1.8,0,11.7,1.9,13.2,2.3c4.2,1.3,7.7,3.9,10.8,7c1.9,2,3.6,4,5.4,6
		c0.6,1,1.1,2,2.3,2.6c1.4-5.2,2.2-10.3,2.9-15.4c1.8-12.8,1-25.3-3.6-37.5c-2.5-6.6-5.8-12.8-9.2-18.9c-6.7-12-13.6-24-20.9-35.7
		c-10-16-22.7-29.3-38.5-39.8c-12-7.9-24.9-13.9-39-17.1c-3.8-0.9-7.6-1.5-11.2-2.9c-0.4-0.6-0.9-0.7-1.5-0.3
		c-0.4,0-0.8,0.1-1.2,0.1c-0.4-0.4-0.8-0.3-1.1,0.1c-1.9,0.4-3.6,0.4-4.9-1.3c-0.7-0.9-1.5-0.7-2.4-0.5c-4,0.9-7.9,1.9-12,2.4
		c-15.9,2.1-30.7,7.2-44.4,15.5c-1.9,1.2-3.4,2.6-4.5,4.6c-4.6,7.6-6.4,16.1-8.5,24.6c-2.2,8.6-4.8,16.9-9.2,24.6
		c-6.6,11.6-16.4,20.1-26.3,28.7c-2.6,2.2-5,4.5-7.7,6.7c-2.5,2-4.5,4.6-6.6,7.2c-4.4,5.4-8.4,11-10.8,17.6
		c-0.2,0.6-0.3,1.3-0.7,1.8c-2.3,3-2.7,6.6-3.4,10.1c-0.7,3.5,0,7.1-0.3,10.6c0,0.5-0.4,1.3,0.3,1.7c1.4-0.5,1.9-1.8,3.1-2.6
		c3.9-2.5,8.2-4,12.6-5.4c1-0.3,1.5-0.7,3-1.1c3.9-1,7.8-1.9,11.7-2.4c2.5,0,4.9,0.1,7.4,0.1c1.8,0.3,3.7,0.5,5.5,0.9
		c8.2,1.9,16.2,4.5,24.1,7.4c5.3,2,10.1,4.8,14.3,8.8c3.9,3.7,7.5,7.7,10.5,12.1c1,1.5,1.2,3.1,0.3,4c-1.1,1.1-2.5,1.4-4,1
		c-0.8-0.2-1.5-0.7-2.3-0.8c-6-0.9-11.8-3-17.6-4.5c-10.3-2.6-20-6.3-28.8-12.3c-4.8-3.3-10.2-5.4-15.6-7.4
		c-1.5-0.6-3.1-0.6-4.7-0.1c-3.2,1-6.5,2-9.7,2.9c-1.2,0.1-1.3,0.7-0.7,1.6c0.2,0.7-0.3,1.4-0.4,2.1c-0.6,1-1.6,1.3-2.6,1.7
		c-1,0.3-1.4-0.5-1.5-1.2c-0.3-1.9-1.2-1.8-2.6-1.1c-0.2,0.1-0.5,0.1-0.8,0.2c-1.4,0.3-2,1-2,2.5c0,4.9,0.1,9.9,0.3,14.8
		c0,0.9-0.1,1.8-0.1,2.7c0,9.1,1.4,25.8,1.6,34.9c0,1.8,21.3-9.3,23-10.3c1.1-1,2.4-1.7,3.9-2.1c0.7-0.1,1.3-0.3,2-0.5
		c3.3-0.3,8.5-0.8,11.8-1.1c4.7,0.4,9.3,1.5,13.8,2.8c5.5,1.6,10.7,4,15.5,7.1c2.5,1.6,5,3.2,7.5,4.8c2.7,2.3,6,4.1,8.2,7.1
		c0.4,0.5,0.7,1,1.1,1.6c1,1.6,1,1.7-1,2.7c-1.8,0-3.6-0.1-5.3,0.5c-0.8-0.1-1.4,0.2-2.1,0.5c-4.8,2.3-9.6,4.3-14.6,6.1
		c-4.8,1.7-9.6,3-14.6,3.8c-2.6,0-5.3,0-7.9,0c-1.6,0-3.1-0.3-4.6-1c-1.9-0.9-3.9-1.9-5.9-2.6c-4.2-1.5-7.9-3.3-11-6.2
		c-2.7-2.5-5.8-4.5-9.1-6.1c-0.8-0.2-1.4-0.2-3.3-1.1c-1.3-0.6-6.8-3.4-7.1-3.1c0,0.8-0.1,5.2-0.1,6c0.1,9.5,0,19.1-0.4,28.6
		c-0.2,5.3-0.8,10.5-1.4,15.7c-0.6,4.6-1.6,9.2-2.8,13.7c-0.6,2-0.8,4-1.4,6c-0.4,1.2-1.2,2.1-1.5,3.4c-0.3,1.7-0.8,3.3-1.7,5
		c-0.8,1.5-1,3.4-1.7,5.1c-1.2,2.8-2.5,5.6-3.8,8.3c-0.5,1-0.8,2-1,3.1c-1.6,9.3-3.4,18.6-4.6,27.9c-1.3,10.3-2.1,20.6-1.3,31
		c0.4,4.7,1,9.4,2.4,13.9c3.1,10.5,8.5,19.8,15.5,28.2c5.6,6.8,11.9,13,18.1,19.2c5.2,5.2,10.2,10.6,14.3,16.8
		c1,1.5,2.2,2.5,3.9,3.2c13.6,6.2,27.2,12.5,40.9,18.6c13.6,6.1,27.2,12.2,41.8,15.6c0.8,0.8,1.9,0.6,2.9,0.5
		c0.3,0.1,0.8,0.2,1.1,0.2c1.3,0.7,2.8,0.4,4.2,0.4c2,0,3.9,0,5.9,0c1.5,0,3,0.4,4.4-0.4c0.5,0,1-0.1,1.5-0.1
		c0.9,0.1,1.9,0.3,2.7-0.3c0.3-0.1,0.6-0.2,0.9-0.2c1.1,0.1,2.1,0.3,3-0.5c1.4-0.4,2.8-0.6,4.1-1.3c12-7,24.1-13.8,36-20.9
		c11.8-7,22.5-15.2,31.5-25.7c14.7-17,25.5-36,31.7-57.7c1.9-6.6,3.7-13.3,5.5-19.9c2.9-10.5,6-21,8.4-31.7
		c2.2-9.4,3.6-18.9,5.4-28.3c1.3-6.5,2.8-13,2.2-19.7c0.1-0.2,0.3-0.3,0.3-0.5c-0.4-4.1-0.7-8.3-1.4-12.4c-0.9-4.9-1.9-9.7-4.4-14.1
		c-0.5-1-0.9-2-1.4-3c-2.2-5.2-4.5-10.4-6-15.8c-1.3-4.6-1.8-9.3-2.3-13.9c-0.2-0.3-6.5,2.7-9.6,3.7c-2,0.7-3.7,1.7-5.5,2.8
		c-3.8,2.2-7,5.3-10.9,7.4c-2.8,1.5-9.9,3.2-13,3.9c-1,0.2-2,0.3-3,0.3l-9.2,0c-4.6-0.5-9.1-1.6-13.5-3c-3.5-1.1-7-2.4-10.7-3.1
		c-2.3-0.9-4.6-0.4-6.9-0.5c-1.5,0-3.1-0.3-4.4-1.1c-1.6-1-1.8-3-0.2-3.6c2.5-1,4.1-3.1,6.1-4.7c1.9-1.4,3.9-2.8,5.8-4.2
		c0.5-0.4,4.3-3.1,5.7-4c3.4-2.2,6.9-4.3,10.6-6c3.9-1.8,7.9-3.5,12.3-3.6c3.3,0,6.6,0,9.9,0c1.4,0,2.7,0.4,3.9,0.9
		C537.7,298.4,559.4,311.4,559.8,311.4z M396.4,312.4c0.1,1.2-0.3,2.5,0.1,3.9c1.9-1,4.1-0.2,6.2-0.9c-1.8-1.9-4.1-2.4-6-3.4
		C396.1,311.8,396.4,312.2,396.4,312.4z M368,301c0.5-0.4,0.5-0.8,0.2-1.3c0-0.2,0-0.4,0.1-0.7c0-0.9-0.6-0.8-1.2-0.7
		c-0.6,0-1.1-0.1-1.7-0.1c-0.8-0.5-1.6-0.4-2.5-0.4c-0.6,0.1-1.2-0.3-1.7,0.3c0.1,0.5,0.2,0.9,0.2,1.3c0.4,2.7,0.4,2.7,3.2,2.6
		C365.8,302.1,366.9,301.6,368,301z M491.5,322.1c-0.8-1.8-1.2-3.9-2.6-5.5c-0.2-0.2-0.5-0.2-0.7-0.1c-1.3,0.9-2.7,1.7-3.9,2.6
		c-0.7,0.5-2,0.8-1.9,1.7c0.2,1.1,1.5,1.1,2.5,1.4c0.1,0,0.2,0,0.3,0.1c2,0.8,4,0.5,6,0.4C491.5,322.6,491.6,322.4,491.5,322.1z
		 M370,305.3c0-0.2,0-0.5,0-0.7c-0.1-0.4-0.4-0.6-0.7-0.6c-0.1,0-0.3,0.2-0.3,0.3c-0.2,0.4,0.1,0.7,0.4,0.8
		C369.5,305.3,369.8,305.3,370,305.3c0.3,0.6-0.1,1-0.5,1.4c-1.8,1.8-5.1,2-7.2,0.4c-1.5-1.1-2.7-2.6-3-4.4c-0.2-1.7-1.3-2-2.6-2.2
		c-1.2-0.2-2.5-0.1-3.8-0.1c-2.5,0-2.9,0.4-2.4,2.8c0.6,3.2,1.7,6.2,3.6,9c2.1,3,4.9,4.4,8.5,4.5c4.2,0.1,8.1-1.2,11.5-3.5
		c2.1-1.4,3.8-3.4,4.4-6c0.2-1.1,0.9-2.6-0.7-3c-1.9-0.5-3.8-1.9-5.9-0.4c-0.3,0.2-0.5,0.8-0.8,1.1
		C370.9,305.3,370.5,305.5,370,305.3z M526.9,328.8c3.8-0.4,7.5-1.4,11.2-2.6c5.8-1.9,9.2-7.3,8.6-12.5c-0.4-3.3-2-5.9-3.4-8.7
		c-0.2-0.3-3.8-1.8-5.3-2.2c-1.6-0.4-3.2-1.2-5-1c-0.1,1.1,0.3,1.9,0.6,2.7c1.2,3.3,0.9,6.6-0.3,9.9c-0.7,1.9-1.6,3.6-2.7,5.3
		c-3.5,5.4-8.3,7.7-14.7,6.9c-1.3,0-7-0.7-10-3.2c-5-2.7-7.9-6.7-7.8-12.6c-0.3-1.2-0.7-0.5-1.1-0.1c-1.8,1.3-3.8,2.2-5.5,3.7
		c0.9,1.3,2.4,4.4,2.5,4.6c0.4,1.3,0,2.6,0.2,3.9c0.2,0.6,8.4,1.9,11.9,3.2c2.4,0.9,4.7,1.9,7.2,2.6c3.4,1,6.9,0.6,10.4,0.4
		C525,329.1,525.6,329,526.9,328.8z M358,325.6c2.7,0.7,13.6-0.5,13.8-0.6c6.2-1.2,12-3.6,17.7-6.4c2.8-1.4,4.5-6,3.3-9
		c-0.1-0.2-0.3-0.5-0.5-0.6c-2.4-1.5-4.5-3.6-7.3-4.6l0-0.2l0,0.2c0,4.9-2.2,8.7-5.9,11.8c-3.4,2.8-7.3,4.6-11.7,5.2
		c-1.6,0-3.2,0-4.8,0c-1.3-0.3-2.8-0.2-3.9-0.8c-5.1-2.6-9.3-6.2-11.6-11.6c-1-2.5-0.6-9.8-0.3-10.4c-0.9-0.4-1.6,0-2.3,0.3
		c-2.4,1.1-4.8,2.4-7.2,3.6c-3.2,1.5-4.1,5.8-2.5,8.8C339.9,320.6,348.6,323.6,358,325.6z M349.8,124.3l0.1,0.1
		c-0.8,3.7-2.5,7-4.5,10.2c-1.5,2.4-2.6,4.9-3.9,7.3c-1.6,2.9-3.1,5.8-4.7,8.7c-2,3.6-4.2,7.2-6.6,10.7c-1.8,2.7-3.6,5.3-5.4,8
		c-2.2,3.4-4.7,6.7-7.3,9.7c-1.4,1.6-2.8,3.3-4,5c-3.3,4.4-6.8,8.7-10.3,12.9c-4.8,5.8-9.8,11.4-14.5,17.3
		c-6.1,7.6-10.9,16-14.8,24.9c-1.7,3.9-3.7,7.7-4.5,12.1c-1.4,8-2.6,15.9-2.5,24c0.1,4.9,0.3,9.8,0.8,14.7c0.6,4.9,1.4,9.8,2,14.8
		c0.6,4.6,1.2,9.1,1.9,13.7c0.8,5.5,1.7,11.1,1.8,16.7c0.3,8.7,0.5,17.4-0.3,26.1c-0.6,5.8-1.5,11.5-2.7,17.1
		c-1.3,6.5-3.6,12.7-5.6,19c-1.2,3.6-3,7-4.5,10.4c-3.6,8-7.9,15.5-12.7,22.8c-10.4,15.9-21.9,30.9-33.2,46.1
		c-10,13.6-19.8,27.3-29.5,41.1c-0.2,0.3-0.3,0.7,0.1,0.9c0.9-0.1,1.6-0.8,2.3-1.3c1.7-1.4,3.3-2.8,5.1-4.1
		c6.8-5.3,13.9-10.1,20.7-15.4c8.6-6.7,16.9-13.7,24.8-21.2c1.9-1.8,3.6-3.9,5.5-5.6c5.4-4.9,10.1-10.5,14.8-15.9
		c7.1-8.2,13.8-16.8,20-25.7c9-12.9,17.2-26.2,23.3-40.8c5.5-13.1,8.3-26.8,8.8-40.9c0.4-11.4,0.3-22.9-0.2-34.3
		c-0.5-9.6-0.6-19.2-1.1-28.8c-0.3-5.9-0.1-11.8-0.1-17.7c0-1.1,0-2.2,0.3-3.2c1.1-4.9,1.8-9.8,1.4-15c-0.5-6.3,0.2-12.5,1.6-18.6
		c1.9-8.6,5.1-16.6,10.1-23.9c5.2-7.6,11.9-13.9,18.8-19.9c5.6-4.8,11.2-9.5,16.3-14.9c3.8-4.1,7.2-8.7,9.8-13.7
		c3.4-6.5,5.2-13.5,6.6-20.6c1.4-6.7,2.6-13.3,4.9-19.8c3.3-9.2,9.1-16.4,16.5-22.6c4.4-3.7,9.2-6.8,14.2-9.6
		c7.2-4.1,14.7-7.4,22.8-9.4c1.4-0.3,2.7-0.6,4.5-1c-2.3-1.5-4.6-1.8-6.7-2.4c-5.9-1.9-11.9-2.3-18-1.1c-3,0.6-6.1,0.9-8.9,2.3
		c-4.4,2.3-8.9,4.5-13.1,7.2c-7.1,4.5-13.9,9.4-20.3,15c-5.6,4.9-10.7,10.3-15.3,16.2c-7.3,9.3-12.5,19.9-17.7,30.5
		c-0.3,0.5-0.8,1.1-0.1,1.7c0.5,0.1,0.6-0.3,0.8-0.6c3-4.9,6-9.7,9-14.6C347.4,126.9,348.2,125.3,349.8,124.3z M549.9,93.8
		c-1.4-0.3-2.4-1.2-3.4-2.1c-0.6-0.5-1.1-1.2-2-1.2c0-0.1,0-0.2-0.1-0.2c0,0-0.1,0-0.2,0c0.1,0.1,0.1,0.2,0.2,0.3
		c0,0.6,0.2,1.1,0.7,1.4c1.4,1.2,2.2,2.9,3.5,4.1c0.5,0.4,0.9,1,0.5,1.7c-0.4,0.6-1.1,0.5-1.8,0.3c-0.4-0.1-0.8-0.4-1.2-0.6
		c-1-0.6-2-1.3-3-1.9c-1.2-0.8-2.5-1.5-3.7-2.3c-0.4-0.3-1-0.7-1.4-0.1c-0.4,0.5,0,1,0.4,1.4c3.5,3.8,5.8,8.5,8.5,12.9
		c1,1.7,2.2,3.3,2.7,5.3c0.2,0.6,0,1.1-0.5,1.4c-0.7,0.4-1-0.2-1.2-0.7c-0.9-2.1-2.5-3.8-4.1-5.4c-1.6-1.6-3.5-2.9-5.1-4.5
		c-3.1-2.9-6.6-5.3-10.1-7.7c-4.4-3-9.1-5.2-13.8-7.6c-1.3-0.7-2.7-1.5-4.5-1.3c8.5,4.3,14.5,11.4,20.4,18.6
		c-3.9-1.7-7.6-3.7-11.6-5.1c1.9,2.2,3.9,4.2,5.8,6.2c3.4,3.6,7.1,7.1,9.7,11.3c0.7,1.2,1.6,2.2,2.6,3.1c4.5,4.4,9.2,8.8,13,13.9
		c8.1,10.8,14.9,22.3,21.2,34.2c1.9,3.7,4.2,7.2,5.5,11.2c0.6,2,2,3.6,3,5.4c2.8,5.1,4.8,10.6,6.8,16.1c1.6,4.5,2.9,9.2,4.2,13.8
		c1.3,4.5,2,9,2.4,13.6c0.6,7.4,0.1,14.9-1,22.2c-1.4,9-3.5,17.8-6,26.5c-2.3,8.1-4.9,16.1-6.6,24.4c-0.8,3.8-1.5,7.6-1.4,11.6
		c0.1,6.1,1.6,12,2.4,18c0.6,4.7,2.1,9,4.1,13.2c0.4,0.8,1,1.4,1.2,2.4c0.6,3.5,2,6.8,3,10.3c0.9,3.2,1.6,6.4,1.7,9.6
		c0.5,10.2,0.3,20.3-0.5,30.5c-0.6,6.7-1.4,13.3-2,20c-0.6,6.4-1.4,12.8-2.4,19.1c-1.4,8.9-2.9,17.9-4.7,26.7
		c-3.8,19.1-7.7,38.2-12.1,57.1c-3.6,15.6-7.3,31.2-14.4,45.7c-2.9,6-5.8,11.9-9.3,17.5c-5.6,9-12.3,17.3-18.4,26
		c-3.7,5.2-7.4,10.5-10.2,16.3c-1.8,3.9-3.4,7.8-4.5,11.9c-1.7,6.3-1.9,12.8-1.2,19.2c0.8,7.3,2.8,14.4,5.2,21.3
		c0.6,1.9,0.9,3.8,1.7,5.7c1.3,3.1,2.6,6.2,3.5,9.5c0.4,1.4,0.4,3,1.5,4.2c0.7-0.4,0.6-0.9,0.6-1.3c-0.1-3.7,0.5-7.4,1-11.1
		c1.6-11.3,6.5-21.2,13.6-30.1c3.7-4.7,7.7-9.3,11.7-13.8c5.5-6.3,10.8-12.7,15.7-19.4c7.6-10.6,13.9-21.9,19.3-33.7
		c4.2-9.2,7.6-18.8,10.3-28.6c2.6-9.3,4.5-18.6,5.8-28.2c1-7.3,1.9-14.7,2.7-22.1c0.9-8,2.2-15.9,3.5-23.9
		c1.3-8.5,1.9-17.1,3.1-25.6c0.4-2.7,0.8-5.4,1.2-8c0.1-0.4,0.5-1.2,0.6-1.1c1.3,1.3,1.3,0,1.4-0.7c0.4-3.2,1.1-6.4,1.7-9.6
		c1.4-8,2.6-16.1,4-24.1c1.5-8,2.6-16.1,3.6-24.1c0.8-6.2,1.5-12.4,1.8-18.6c0.2-2.5,0.1-5.1,0.5-7.6c0.8-4.4,0.7-8.9,0.8-13.3
		c0.4-13.5,0.4-27-0.8-40.5c-0.3-3.6-0.5-7.2-0.8-10.8c-0.7-7.4-1.6-14.7-2.6-22.1c-0.8-5.9-1.8-11.8-3-17.6
		c-1.6-8.5-4.2-16.7-6.8-24.9c-3.6-11.3-7.5-22.6-12.3-33.4c-4-8.9-7.9-17.9-11.3-27.1c-0.6-1.5-1.2-3-1.4-4.7
		c-0.1-0.4,0-0.7,0.4-0.9c0.4-0.2,0.8,0,0.9,0.3c1.2,3,4.1,4.5,6.1,6.8c0.4,0.4,0.8,0.8,1.1,1.2c5.6,6.9,10.4,14.4,14.8,22.1
		c3.1,5.5,6.1,11.1,9.6,16.4c5.5,8.3,10.6,16.9,15.1,25.8c2.5,5,4.9,10.1,7,15.3c1.7,4.1,3,8.3,4.7,12.4c1.2,2.9,1.9,6.1,2.8,9.1
		c2.7,9.3,5.4,18.6,8.1,27.9c2.6,8.8,5.4,17.5,8.7,26.1c2,5.3,4.1,10.6,6.2,16c0.2,0.6,0.3,1.5,1.3,1.6c0.5-0.8,0.2-1.6,0-2.3
		c-0.5-1.8-1-3.7-1.3-5.5c-0.7-3.8-1.2-7.7-2-11.5c-1.2-5.7-2.5-11.3-3.8-17c-0.6-2.9-1.5-5.8-1.8-8.8c-0.3-3.5-0.8-6.9-1.5-10.2
		c-1.4-6.6-2.4-13.2-3.4-19.8c-1.7-11.2-4.2-22.2-6.5-33.2c-0.9-4.2-1.9-8.3-3-12.4c-1.2-4.4-2-8.9-4-13c-3-6.3-6.6-12.3-10.1-18.3
		c-3.9-6.6-7.8-13.1-11.8-19.6c-4.8-7.8-9.9-15.4-15.2-22.8c-4.6-6.5-9.4-12.8-14.4-19.1c-3.6-4.5-7.2-8.9-10.8-13.2
		c-4.1-4.9-8.2-9.7-12.3-14.5c-1.8-2.1-3.5-4.1-5.5-6c-2.4-2.3-5-4.4-7.6-6.6c-2.1-1.8-4.3-3.6-6.5-5.4
		C550.9,92.6,550.1,92.2,549.9,93.8L549.9,93.8z M418,25.5c0-0.1-0.1-0.3-0.1-0.4c-1.6,0-3.3,0.3-4.8-0.1c-4.4-1-8.7-0.4-13,0.2
		c-8,1.2-15.7,3.3-23.1,6.7c-6.7,3.1-12.8,7.1-18.4,11.9c-2.8,2.4-5.1,5.2-7.6,7.7c-9.3,9.3-18.6,18.6-26.7,29
		c-3.1,4-6.6,7.8-9.1,12.2c-3.1,5.3-5.9,10.8-7.6,16.8c-1.3,4.6-3.6,8.7-6,12.7c-5,8.1-10.3,16-15.4,24c-3.2,5.1-6.4,10.1-9.7,15.1
		c-4,6.4-9.3,11.8-14.5,17.3c-3.8,4-7.8,7.9-11.9,11.6c-4.6,4.1-9.2,8.2-14,12.1c-7.4,5.9-15,11.7-23.1,16.7
		c-2.3,1.4-4.2,3.2-5.7,5.6c-4.2,7-8.7,13.8-12.4,21.1c-5.6,11.1-9.5,22.9-13.1,34.8c-4,13.2-6.1,26.8-7.4,40.5
		c-0.6,6.7-0.9,13.4-1,20.1c-0.1,10.9-1,21.8-0.7,32.7c0.1,2.8,0,5.6,0,8.5c0,1-0.1,2-0.3,3c-0.8,3.4-1.7,6.8-1.3,10.4
		c0.2,1.7,0.6,3.4,0.6,5.1c-0.2,6.8,0.3,13.6-0.5,20.4c-0.6,5.2-1.3,10.4-2.1,15.6c-0.8,5.1-2,10.2-2.8,15.3
		c-0.4,2.6-1.2,5.2-1.3,7.9c-0.3,6.8,0.4,13.6,0.6,20.4c0,0.4,0.2,0.9,0.2,1.3c0.3,3.7,1.3,7.3,1.4,11c0.1,2.6,0.3,5.2,0.6,7.8
		c0.5,4.3,1.2,8.6,1.6,12.9c0,0.4,0.2,0.7,0.8,0.6c0.4-1.7,0.6-3.5,0.7-5.2c0.4-5.5,0.9-11,1.1-16.5c0.2-3.8,1-7.6,0.7-11.4
		c0-0.3,0-0.5,0.1-0.8c0.7-3.4,0.6-6.8,0.9-10.2c0.2-2.7,0.5-5.4,0.7-8.1c0.4-4.7,1-9.3,1.5-14c0.2-2,0.4-4,0.6-5.9
		c0.4-3.6,1.2-7.1,1.5-10.7c0.4-4.8,1.1-9.5,1.8-14.2c0.9-6.1,2-12.1,2.5-18.2c0.4-5.5,0.7-11,1.1-16.5c0.3-4.1,0.7-8.1,1.3-12.1
		c0.8-5.2,1.7-10.3,2.7-15.5c2.5-12.7,5-25.3,8-37.9c2.4-10,4.6-20.1,8.2-29.8c3.7-10.2,8.6-19.7,14.3-28.9
		c4.5-7.2,10.6-13.3,14.5-20.9c0.5-1,1.2-2,1.8-3c5.2-7.9,11.4-14.9,18.2-21.5c2.4-2.3,4.8-4.4,7.5-6.2c2.4-1.6,4.8-3.2,7-5.1
		c4-3.3,7.8-6.8,11.8-10c5.7-4.6,11.5-9.1,16.5-14.5c2.3-2.4,4.9-4.6,7-7.2c4.3-5.2,8.4-10.6,12.2-16.3c1.3-1.9,2.7-3.9,4.7-5.2
		c1-0.7,1.5-1.5,1.9-2.5c2.1-5.3,4.6-10.4,7.2-15.5c1.9-3.9,4.2-7.6,6.4-11.4c5-8.1,10.7-15.7,17.3-22.6
		c5.3-5.6,11.2-10.6,17.4-15.2c9.9-7.3,20.5-13.4,31.7-18.3c1.8-0.8,3.7-1.2,5.8-2.9c-1.7,0-2.9-0.2-4,0c-3,0.7-6,0.3-8.9,0.4
		c-2.4,0.1-4.9,0.2-7.3,0.4c-2.7,0.2-5.4,0.9-8.1,0.7c-0.7-0.1-1.7,0.4-1.9-0.5c-0.3-0.9,0.7-1.3,1.2-1.9c0.2-0.2,0.5-0.3,0.7-0.4
		c7.2-4.4,14.9-7.3,23.1-9.2c3.2-0.7,6.5-0.8,9.7-1.3c4.7-0.8,9.3-1.1,14-1.3c3.4-0.2,6.8-0.8,10.3-0.7c1.1,0,2.3-0.5,3.7-0.7
		c-3.8-3-8-4.5-12.1-6.1c-7.3-2.8-15-3.1-22.7-3.3c-1.5,0-3,0.6-4.6,0.5c-2.5-0.1-5,0.5-7.5,0.9c-2.3,0.3-4.6,1.2-7,1
		c5.1-2.9,10.4-5.1,15.8-7.1C407,28.9,412.5,27.3,418,25.5z M174.2,525.8c1.8-3,4.4-5.6,4.8-9.3c0.1-0.6,0.4-1.2,0.6-1.8
		c2.1-4.6,4.1-9.3,6.4-13.8c12.6-25.8,26.3-51.2,37.7-77.6c3.8-8.9,7.5-17.9,10.6-27.1c4.2-12.2,7.7-24.5,10.2-37.1
		c1.2-6.1,2.3-12.2,3-18.4c0.4-3.4,0.8-6.8,1.2-10.2c0.6-4.8,0.9-9.5,1.4-14.3c0.4-4,0.4-8,1.2-11.9c0.4-1.9,0.2-4,1-5.9
		c1.5-3.6,1.7-4.4,1.6-8.3c0-0.3,0-0.5,0-0.8c0.3-5.3,0.9-10.6,1.5-15.9c0.9-7.8,1.8-15.6,3.3-23.3c1.8-8.9,4.3-17.6,8.4-25.7
		c1.2-2.3,2.3-4.6,3.5-6.9c-0.7-0.3-1,0-1.3,0.4c-2.1,2.6-4.2,5.2-6.3,7.8c-6.3,7.5-12,15.4-17.5,23.5c-5.2,7.7-10,15.6-14.4,23.7
		c-4.1,7.6-7.8,15.4-11.1,23.3c-4.1,9.9-7.6,20-10.5,30.3c-1.7,6.1-3.3,12.2-4.7,18.4c-1.9,8.6-3.7,17.3-5.2,26c-1,5.5-2,11-3,16.5
		c-1,6.1-1.8,12.3-2.9,18.5c-1.3,6.6-1.9,13.4-3.6,20c-1.1,4.3-1.2,8.7-2.1,13c-1.6,7.4-2.6,14.9-3.9,22.3c-1,5.7-2.1,11.3-3.1,17
		c-1.1,6-2.3,12-3.4,18c-1,5.7-1.9,11.4-3.1,17C173.8,517.3,173.7,521.5,174.2,525.8z M340.1,242.9c0.9,0.3,1.3,0.5,1.7,0.6
		c6.9,1.6,13.1,4.6,18.9,8.7c4.5,3.2,9.5,5.7,14.8,7.3c8.1,2.5,16.1,5.3,24.6,6.5c1.9,0.3,3.7,0.9,5.6,0.7c1-0.1,1.4-0.4,0.9-1.4
		c-0.2-0.3-0.3-0.7-0.6-0.9c-3.3-3.9-6.4-7.9-10.2-11.3c-3-2.7-6.3-4.9-10-6.5c-8.6-3.6-17.6-6.1-26.6-8.5c-0.9-0.2-1.8-0.4-2.7-0.3
		c-2.2,0.3-4.5,0.5-6.7,1.1c-1.6,0.4-3.3,0-4.7,1.1C343.8,241.2,342.3,242,340.1,242.9z M556.5,249.9c-0.5-0.6-1.3-0.9-2-1.1
		c-2.3-0.8-4.6-1.5-7-2.1c-4.4-1.2-8.8-1.8-13.4-0.8c-3.3,0.7-6.4,1.7-9.6,2.6c-9,2.6-16.5,7.5-23.2,13.7c-1,0.9-1.8,2-2.3,3.2
		c0.8,0.9,1.7,0.6,2.6,0.6c3.7,0,7.4,0.1,11.2,0c4.6,0,8.9-1.3,12.8-3.8c4.7-2.9,9.3-5.9,14.3-8.2c5-2.3,10.1-4.3,15.8-3.8
		C556,250.3,556.3,250.3,556.5,249.9z M531.4,310.5c-0.1-1.4,0-2.5-0.3-3.6c-0.3-1.3-0.9-1.6-2.1-1.1c-0.9,0.4-1.9,0.5-2.9,0.7
		c-1.1,0.2-1.9,0.6-2.5,2c-1.9,4.8-8.2,5.8-11.4,1.8c-0.9-1.1-1.9-1.4-3-1.2c-1.8,0.3-3.5,0.8-5.3,1.2c-1,0.3-1.5,0.9-1.4,2
		c0.3,2.5,0.8,4.8,2.6,6.7c5.2,5.6,14.3,6.4,20.3,1.7C528.8,318.2,531.6,315,531.4,310.5z M518.6,304.8c0-1.5-0.1-1.6-1.7-1.1
		c-1.3,0.4-2.6,0.8-3.9,1.1c-0.8,0.2-1.3,0.4-1.2,1.4c0.1,0.9,0.1,2,1.2,2.2c1.6,0.4,3.1-0.3,4.6-0.9
		C518.8,307,518.3,305.7,518.6,304.8z M492.9,322.3c0.7-1.4,0.1-2.7-0.4-3.9c-0.7-2.2-1.8-3-2.9-2.8
		C490.3,317.6,492.2,319.9,492.9,322.3z M394.9,310.5c-0.9,1.2-1,3.9-0.2,6.3C395.3,314.5,395.1,312.6,394.9,310.5z M520.1,307.6
		c-0.4,0.1-0.7,0.3-0.7,0.7c0,0.4,0.2,0.7,0.6,0.7c0.5,0,0.8-0.3,0.8-0.8C520.8,307.8,520.5,307.6,520.1,307.6z M366.6,304.3
		c-0.3,0.9,0,0.9,0.2,1c0.3,0.1,0.5-0.1,0.5-0.4c0-0.3-0.1-0.5-0.4-0.6C366.6,304.3,366.5,304.6,366.6,304.3z M335.1,147
		c-0.1-0.1-0.1-0.3-0.2-0.4c-0.1,0.1-0.2,0.3-0.2,0.4c0,0.1,0,0.2,0.1,0.2C334.9,147.3,335,147.3,335.1,147z"/>
	<g id="Layer_8">
		<g>
			<path class="st3" d="M510.9,472.2c-0.9,0.1-1.7-0.1-2.5,0c-2.4,0.3-4.8-0.1-7.2,0c-8.1,0-16,2-24.1,1.5
				c-4.9-0.6-10.8,1.8-15.2-1.6c-1-0.7-1.7-1.7-2.4-2.3c-0.1,0,0.3,0.2,0.7,0c0.2-0.1,0.4-0.3,0.4-0.3c0,0-0.2,0.3-0.2,0.3
				c-3.1,5.1-10.3,4.6-14.9,1.7c-2.6-1.5-5.5-3.3-8-4.8c0,0-0.1,0-0.1,0s0,0,0,0c0.3,0.2,0.9,0.3,1.3,0.3c0,0,2.3-1.3,2.3-1.3
				c0.4-5.4-0.8-2.8-0.5-3.6l-0.1-0.1l-0.1,0c0,0,0.3,0.2,0.4,0.2c2.2,1.6,4.4,2.9,6,5.2c1.5,2.2,0.4,5-2,5.5
				c-0.4,0.1-0.7,0.2-1,0.2c0,0-10.1,0.6-10.1,0.6c-6.8-0.1-13.1,2-20,1.3c-6.8-0.6-13.1-1.8-19.8-2.6c-7.3-1-14.7-2.2-21.9-4.1
				c0,0,3-3.1,3-3.1c0,0,0.3,0.9,0.3,0.9c0,0,1.1,4,1.1,4l-4.2-0.9c0,0-2.3-0.5-2.3-0.5l-0.7-0.2c-0.3-0.1-0.6-0.1-1.2-0.4
				c-1.7-0.9-2-3.2-0.6-4.5c1.2-1,3.1-1.2,4.3-1.5c7.2-1.7,14.5-2.9,21.7-4.3c3.9-0.8,7.9-1.2,11.7-2.3c3.6-1.5,6.9-4,10.5-5.8
				c7.4-4.2,16.4-5.8,24.8-3.8c1.8,0.5,5.7,1.2,7.3,1.9c1.1,0.3,2.5,2,3.6,1.7c1.9-1.7,4.5-2.6,6.9-3.1c16-2.3,28.1,10,40.9,17.3
				c2.7,1.9,5.8,3,8.6,4.9c0,0.1,0.5,0.2,0.8,0.3c0.6,0.2,1.3,0.3,1.9,0.4c0.9-0.1,1.7,1.1,1.3,1.8c-0.1,0.1-0.1,0.2-0.2,0.3
				C511.3,471.8,511.3,472.1,510.9,472.2L510.9,472.2z M510.7,471.2c-0.3,0.1-0.3,0.2-0.4,0.2c-0.1,0-0.3,0-0.3-0.1
				c0-0.1-0.1-0.1,0.1,0.1c0.1,0,0.1,0.1,0.2,0.1c-1.3,0-2.7-0.1-3.9-0.7c-2-1.1-4.5-1.8-6.7-2.8c-2.2-1-4.5-2.1-6.7-3.2
				c-10-4.9-19.1-12-30-14.6c-3.4-0.7-7.3-0.5-10.2,1.4c-0.2,0.1-0.5,0.3-0.8,0.4c-1.6,0.5-3.1-0.5-4.3-1.4c-2.2-1.4-5.3-1.5-7.8-2
				c-6.3-0.7-12.6,0.3-18.4,2.7c-5.3,2.2-9.8,5.9-15,8.4c-6.6,2.4-15,3.9-21.8,5.4c-4.7,0.9-9.6,1.9-14.2,2.9c-0.1,0-0.2,0.1,0,0
				c0.5-0.4,0.8-0.6,1.1-1.8c0.1-0.7-0.2-1.5-0.7-1.9c-0.3-0.2-0.3-0.3-0.4-0.3c-0.2-0.1-0.1,0,0,0l0.5,0.1c0,0,2.5,0.6,2.5,0.6
				s-3,3.1-3,3.1c0,0-0.3-0.9-0.3-0.9c0,0-1.2-4.1-1.2-4.1c8.4,2.3,16.9,3.7,25.5,4.8c6.4,0.8,13.1,2,19.5,2.4
				c4.8,0.4,9.5-0.7,14.4-1.2c5-0.3,9.8-0.5,14.7-0.9c0.1,0,0.2,0,0.2,0c0,0-0.2,0-0.7,0.5c-0.4,0.4-0.7,1.3-0.5,1.8
				c0.1,0.3,0.1,0.4,0.1,0.4c-1.2-1.4-3.1-2.6-4.7-3.6c-0.2-0.1-0.4-0.3-0.5-0.4c0.3-0.8-0.9,1.8-0.5-3.6l0.1-1.4
				c1,0.1,2.9-0.1,3.7,0.5c0.2,0.1,0.4,0.3,0.6,0.4c1.6,1.1,3.8,2.7,5.4,3.8c1.6,1.1,3.7,2.5,5.5,3.1c1.8,0.4,4.2,0.2,5.3-1.5
				c0.4-0.6,0.9-1.3,1.8-1.6c2.8-1,4.2,1.8,5.6,3.1c2,1.8,5.3,1.2,8,1.3c2.4-0.1,4.9,0.2,7.3,0.5c3.9,0.2,7.9,0,11.9-0.3
				C497.9,470,504.4,470.5,510.7,471.2L510.7,471.2z"/>
		</g>
	</g>
	<g id="Layer_9">
		<g>
			<path class="st3" d="M507.8,472.2c0.1,1.3-0.9,2.1-1.7,2.9c-0.1,0.1-0.3,0.3-0.1,0.1c0,0-1.4,2.1-1.4,2.1
				c-6.8,9.7-17.2,16.6-27.8,21.3c-12.1,5.6-25.4,9.3-38.9,8.6c-10.2-0.3-19.6-4.8-28.6-9.2c-9.4-4.5-18.3-10.4-25.8-17.8
				c-1.9-1.9-4.1-4.3-5.9-6.3c-1.1-1.1-2.4-2.6-3.3-3.6c-0.2-0.2-0.2-0.2-0.4-0.3c-0.2-0.1-0.6-0.2-1-0.3c0,0-2.3-0.6-2.3-0.6
				l-1.1-0.3c-0.4-1.3-1.1-3.9-1.5-5.2c10.3,2.9,22.1,4.4,32.9,5.8c6.5,0.9,13,2.1,19.5,1c6.8-1.3,14.7-1.1,21.3-1.8
				c-0.3,0.1-0.7,0.7-0.7,1c0,0.4,0.1,0.5,0,0.5c0,0,0-0.1-0.1-0.2c-1.2-1.4-2.8-2.4-4.4-3.5c0,0,0.6-0.9,0.6-0.9c0,0,0,0,0,0
				c0,0,0,0,0,0s0,0,0,0s0,0,0,0l-0.1-0.1c-0.4-0.3-0.8-0.5-0.9-1c0-0.4,0.3-0.7,0.4-1c0.3,0,0.7,0,0.9,0.2c0.1,0.1,0.4,0.2,0.5,0.3
				c0.9,0.5,2.5,1.6,3.4,2.2c3.5,2.1,7.6,5.7,11.9,4.4c1.4-0.4,2.4-1.1,3.1-2.3c0.1-0.2,0.2-0.4,0.5-0.6c1.7-1.5,3.4,0.7,4.3,1.8
				c3.2,3.5,8.4,1.5,12.6,1.8c9.3,0.8,18.4-1.8,27.7-1.5c0,0,1.2,0,1.2,0s0.6,0,0.6,0l0.1,0c0,0,0,0,0,0c0,0,0.1,0,0.1,0
				c0.9-0.1,2-0.3,3,0.1c0.5,0.2,1.3,0.9,1.3,1.6c0,0,0,0.2,0,0.2s0,0.1,0,0.1S507.8,472.2,507.8,472.2L507.8,472.2z M503.9,472.6
				l0-0.8c0,0.6,0.4,1.4,1,1.6c0.4,0.1,0.3,0.1,0,0.1c-0.4,0-1.1,0.1-1.7,0.1c0,0-0.2,0-0.2,0s-0.1,0-0.1,0s-0.6,0-0.6,0
				c-8-0.8-16,0.4-24.1,0.1c-3.1-0.2-6.1-0.6-9.2-0.4c-2.3,0-5,0.3-7.2-1c-1.4-0.7-2.4-2.3-3.5-3.1c-0.3-0.2-0.4-0.2-0.5-0.1
				c-2.2,4.1-7.8,4.6-11.6,2.5c-2.4-1.1-5.7-3.5-7.9-4.9c-0.5-0.3-1.3-0.9-1.8-1.1c0,0-0.1,0,0,0c0.1,0.1,0.2,0.1,0.3,0.1l0.8-0.4
				c0.2-0.3,0.1-0.9-0.2-1.2c0.2,0.1,0.4,0.2,0.5,0.4c0,0.1,0.6-0.9,0.6-0.9c2.4,1.6,9.3,5.9,4.8,9c-1,0.5-1.7,0.5-2.6,0.5
				c-5,0.3-10,0.5-15,0.9c-5,0.7-10.4,1.6-15.4,1c-3.4-0.3-6.8-0.8-10.1-1.3c-9.8-1.4-20.4-2.6-30-5.1c0,0,2.4-2.4,2.4-2.4
				s0.3,0.9,0.3,0.9l-1.4-1.4c1.3,0.4,2.4,0.6,3.8,1.1c1.5,0.6,2.4,2,3.4,3c0.6,0.7,1.4,1.5,2.1,2.2c4.1,4.7,8.6,9.3,13.5,13.1
				c5.1,3.9,10.7,7.3,16.5,10.2c5.8,2.8,11.7,5.9,17.8,7.6c12.5,3.4,25.8,1.2,37.8-3.1c14.1-5.4,28.3-13,36.4-26.2
				c0.7-0.9,0.9-0.9,1.5-1.7C504,471.9,503.9,472.2,503.9,472.6L503.9,472.6z"/>
		</g>
	</g>
	<path class="st3" d="M422.5,376.8c-1.9,1.4-3.9,2.6-5.7,4.1c-5,4-7.6,9.3-8.3,15.6c-0.2,1.8,0.1,3.6,0.7,5.4
		c0.7,2.3,1.4,4.5,2.2,6.7c0.4,1.2,0.7,2.4,0.8,3.7c-0.8,1.1-1.5,0.5-2.2-0.2c-0.5-0.6-1-1.3-1.3-2c-2.1-4.7-4.6-9.2-3.8-14.7
		c0.2-1.7,0.8-3.2,1.4-4.8c1.7-3.9,4.5-7,7.7-9.7c2.2-1.8,4.5-3.6,7.2-4.9C422.2,375.5,422.4,375.9,422.5,376.8z"/>
	<path class="st3" d="M481.9,390.9c-0.3-1.4-1.1-2.7-1.9-3.8c-1.5-3.4-3.8-6.3-6.1-9.2c-1-1.3-2-2.6-2.9-3.9c-0.5-0.7-1-1.5-0.7-2.5
		c1-0.2,1.5,0.7,2.2,0.9c2,2.2,4,4.3,6.1,6.5c1.8,2.9,3.8,5.8,5.2,8.9c1.8,3.9,3,7.9,2.9,12.3c0,1.3-0.9,2.5-0.6,3.9
		c-0.3,0.2-0.4,0.4-0.3,0.7c0,1.6-0.4,2.9-1.4,4.2c-0.2,0-0.4,0-0.6,0c0.1-0.9,0-1.8,0.2-2.7C485.4,400.8,483.6,395.9,481.9,390.9z"
		/>
	<path class="st3" d="M437.6,302.1c0-4-0.1-8-0.1-12.1c0-0.9-0.5-2,0.7-2.6c1.8,11.2,1.4,22.4,1.1,33.7c-0.3,11.4-2.9,22.4-6.7,33.1
		c-0.1,0.3-0.2,1-0.9,0.8c1.1-4.6,2.3-9.2,3.4-13.9c0.3-1.1,0.4-2.3,0.6-3.4c0.3-2,0.7-4.1,1-6.1c0.2-0.2,0.3-0.5,0.2-0.8
		C437.7,321.2,437.8,311.7,437.6,302.1z"/>
	<path class="st3" d="M413.1,412.8c0.1-0.5,0.1-1.1,0.2-1.6c0.3-0.1,0.4-0.3,0.4-0.6c0.8-1.1,1.9-1.5,3.1-1.7c1.5,0,3.1,0,4.6,0
		c3.1,0.8,5.7,2.6,8.6,3.9c0.5,0.7,1.6,0.8,1.7,2c-0.7,0.4-1.6,0.1-2.3,0.2c-4.5,0-9,0-13.5,0c-1.2,0-2-0.4-2.3-1.7
		c0-0.3-0.1-0.5-0.3-0.6L413.1,412.8z"/>
	<path class="st3" d="M469.3,410.2c0.9-0.4,1.8-0.8,2.7-1.3c0.4-0.1,0.7-0.1,1.1-0.2c1.3,0,2.5,0,3.8,0.1c0.9,0.2,1.7,0.3,2.5,0.8
		c2,1.1,2.1,3.1,0.1,4.4c-1,0.6-2.1,1-3.3,1c-2.3,0-4.7,0-7,0c-0.4,0-0.9,0-1.3,0c-1.1-0.7-2.4-0.3-3.6-0.7c0-0.3,0-0.6,0-1
		c0,0-0.1,0-0.1,0C466.2,412.7,467.7,411.3,469.3,410.2z"/>
	<path class="st9" d="M487.1,267.1c0.3-3.4,2.2-6.1,4.3-8.6c2.8-3.4,6.3-5.9,10-8.2c2.2-1.4,4.4-2.8,6.5-4.2
		c0.2,0.3,0.4,0.6,0.6,0.8c-1.6,1.2-3.2,2.4-4.8,3.6c-6,4.3-11.1,9.3-14.9,15.7c-0.3,0.5-0.7,1-1.1,1.6
		C487.5,267.5,487.3,267.3,487.1,267.1z"/>
	<path class="st9" d="M513.3,247.7c-7.2,6.2-14.6,11.4-20.2,19.3c0.2-2.6,1.2-4.2,2.3-5.7c1.6-2.1,3.5-3.9,5.5-5.6
		c3.5-2.9,7.4-5.2,11-8C512.2,247.6,512.5,247.7,513.3,247.7z"/>
	<path class="st9" d="M412.2,269.5c-3.1-8.4-7.7-15-13.6-20.9C405.1,251.4,412.9,263.1,412.2,269.5z"/>
	<path class="st3" d="M439.3,417.8c-0.3-0.1-0.6-0.2-1-0.2c-2.9-2-5.6-4-7.6-7c-1-2.3-1.6-4.8-1.9-7.4c0.1-1.1,0.3-2.1,1.4-3
		c0.7,1,0.5,2,0.6,2.9c0.3,4.1,1.9,7.6,5,10.4c1.1,1,2.2,2.1,3.3,3.2C439.5,417,439.8,417.3,439.3,417.8z"/>
	<path class="st9" d="M417.4,255.8c2.8,3.9,3.8,13.9,1.7,16.8C418,270.3,416.8,258.4,417.4,255.8z"/>
	<path class="st3" d="M469.4,400.3c0.3-0.1,1-0.6,0.8,0.2c-0.3,1.3-0.8,2.6-1.2,3.9c-0.2,0.7-0.8,1.2-0.4,2
		c-1.6,1.7-2.3,4.1-3.9,5.8c-0.3,0.3-0.7,0.6-0.4,1.1c0,0,0.1,0,0.1,0c-0.9-0.3-1.2,0.6-1.7,0.9c-1,0.7-1.9,1.6-3.8,1.9
		c2.4-2.9,5.1-4.7,6.5-7.6C466.7,405.8,468.4,403.2,469.4,400.3z"/>
	<path class="st9" d="M425.4,257.7c-0.6,4.7-0.8,9.4-2,14.2c-0.8-0.7-0.9-1.3-1-1.9c-0.3-3.2,1.1-6.2,1.2-9.4
		C423.7,259.8,424.3,258.5,425.4,257.7z"/>
	<path class="st9" d="M491.7,253.9c-3.3,4.5-6.1,9.3-7.6,15.2C482.9,264.9,486.2,258.3,491.7,253.9z"/>
	<path class="st9" d="M441.5,376.2c-0.8,0.2-1.6,0.2-2.5-0.2c3.1-1.1,6.2-1.6,9.5-1.9c2.2,0,4.4,0,6.6,0c0.3,0,0.6,0,0.8,0.2
		c0.6,0.3,1.7,0.6,1.5,1.3c-0.5,1.3-1-0.2-1.7-0.2c-2.4,0-4.7-0.1-7.1,0.2c-1.2,0.1-2.3,0.2-3.5,0.3
		C443.9,375.7,442.6,375.4,441.5,376.2z"/>
	<path class="st9" d="M415.7,268c-2.2-3.5-3-7.3-3.5-11.3C414,260.2,416,263.8,415.7,268z"/>
	<path class="st9" d="M480.4,255.3c1.7,3.2,1.9,11.6,0.4,14C480.6,264.4,480.1,259.9,480.4,255.3z"/>
	<path class="st9" d="M331.4,338.2c-1,0-1.5-0.7-1.5-1.6c-0.1-0.9,0.9-1.9,1.6-1.8c1,0.1,1.2,1,1.3,1.8
		C332.9,337.5,332.4,338.2,331.4,338.2z"/>
	<path class="st3" d="M449,420.5c2,0.9,4.1,0.3,6.1,0.5c1,0.1,2.2-0.4,3.1,0.3c-1.9,1.8-4.2,2-6.6,1.7c-2.6-0.4-5.1-1-7.5-2.2
		c0.8-0.8,1.8-0.2,2.7-0.5C447.6,420.4,448.3,420.5,449,420.5z"/>
</g>
</svg>
