<?xml version="1.0" encoding="utf-8"?>
<!-- Generator: Adobe Illustrator 27.5.0, SVG Export Plug-In . SVG Version: 6.00 Build 0)  -->
<svg version="1.1" id="Layer_1" xmlns="http://www.w3.org/2000/svg" xmlns:xlink="http://www.w3.org/1999/xlink" x="0px" y="0px"
	 viewBox="0 0 100 100" style="enable-background:new 0 0 100 100;" xml:space="preserve">
<style type="text/css">
	.st0{fill:#D1D3D4;}
	.st1{fill:#404242;}
</style>
<g>
	<path class="st0" d="M37.6,95.6c-8.1,0-14.6-6.5-14.6-14.5s6.5-14.5,14.5-14.5v-2C29.5,64.5,23,58,23,50s6.5-14.5,14.5-14.5v-2
		C29.5,33.5,23,27,23,19S29.5,4.5,37.5,4.5h31.3c8,0,14.4,6.5,14.4,14.4c0,8-6.6,14.5-14.6,14.5H52.1V81
		C52.1,89.1,45.6,95.6,37.6,95.6z"/>
	<path class="st0" d="M68.8,5.5c7.4,0,13.4,6,13.4,13.4s-6.1,13.5-13.6,13.5H53.1h-2v2V81c0,7.5-6.1,13.6-13.5,13.6
		c-7.5,0-13.6-6.1-13.6-13.5s6.1-13.5,13.5-13.5v-4C30.1,63.5,24,57.4,24,50s6.1-13.5,13.5-13.5v-4C30.1,32.5,24,26.4,24,19
		S30.1,5.5,37.5,5.5h31.1H68.8 M68.8,3.5c-0.1,0-0.1,0-0.2,0H37.5C29,3.5,22,10.4,22,19c0,8.5,6.9,15.5,15.5,15.5
		C29,34.5,22,41.4,22,50s7,15.5,15.5,15.6C29,65.6,22,72.5,22,81.1s7.1,15.5,15.6,15.5s15.5-7,15.5-15.6V34.4h15.5
		c8.6,0,15.6-6.9,15.6-15.5C84.2,10.4,77.3,3.5,68.8,3.5L68.8,3.5z"/>
</g>
<g>
	<circle class="st0" cx="68.7" cy="50" r="14.5"/>
	<path class="st0" d="M68.7,36.5c7.4,0,13.5,6.1,13.5,13.5s-6.1,13.5-13.5,13.5S55.2,57.4,55.2,50S61.3,36.5,68.7,36.5 M68.7,34.5
		c-8.5,0-15.5,7-15.5,15.5s7,15.5,15.5,15.5S84.2,58.6,84.2,50S77.2,34.5,68.7,34.5L68.7,34.5z"/>
</g>
<rect x="131.7" y="13.5" class="st1" width="100" height="47"/>
<rect x="131.7" y="66.5" class="st0" width="100" height="47"/>
</svg>
