<?xml version="1.0" encoding="utf-8"?>
<!-- Generator: Adobe Illustrator 27.5.0, SVG Export Plug-In . SVG Version: 6.00 Build 0)  -->
<svg version="1.1" id="Layer_1" xmlns="http://www.w3.org/2000/svg" xmlns:xlink="http://www.w3.org/1999/xlink" x="0px" y="0px"
	 viewBox="0 0 100 100" style="enable-background:new 0 0 100 100;" xml:space="preserve">
<style type="text/css">
	.st0{fill:#E2D4FF;stroke:#484157;stroke-width:2;stroke-miterlimit:10;}
</style>
<path class="st0" d="M84.2,18.9c0,8.6-7,15.5-15.6,15.5H53.1v46.6c0,8.6-7,15.6-15.5,15.6S22,89.7,22,81.1c0-8.6,7-15.5,15.5-15.5
	C29,65.5,22,58.6,22,50s7-15.5,15.5-15.5c-8.6,0-15.5-7-15.5-15.5c0-8.6,7-15.5,15.5-15.5h31.1C77.2,3.4,84.2,10.3,84.2,18.9z"/>
<path class="st0" d="M84.2,50c0,8.6-7,15.5-15.5,15.5s-15.5-7-15.5-15.5s7-15.5,15.5-15.5S84.2,41.4,84.2,50z"/>
</svg>
