<?xml version="1.0" encoding="utf-8"?>
<!-- Generator: Adobe Illustrator 27.5.0, SVG Export Plug-In . SVG Version: 6.00 Build 0)  -->
<svg version="1.1" id="Layer_1" xmlns="http://www.w3.org/2000/svg" xmlns:xlink="http://www.w3.org/1999/xlink" x="0px" y="0px"
	 viewBox="0 0 100 100" style="enable-background:new 0 0 100 100;" xml:space="preserve">
<style type="text/css">
	.st0{fill:#404242;}
	.st1{fill:#D1D3D4;}
</style>
<path class="st0" d="M50,97.1c-1.6,0-3.1-0.6-4.2-1.7L4.7,54.2c-2.3-2.3-2.3-6.1,0-8.3L45.8,4.7C46.9,3.7,48.4,3,50,3
	s3.1,0.6,4.2,1.7l41.2,41.2c2.3,2.3,2.3,6.1,0,8.3L54.2,95.3C53.1,96.5,51.6,97.1,50,97.1z"/>
<path class="st0" d="M50,4c1.3,0,2.6,0.5,3.5,1.4l41.2,41.2c1,1,1.4,2.1,1.4,3.5c0,1.3-0.5,2.6-1.4,3.5l-41.2,41
	c-1,1-2.1,1.4-3.5,1.4c-1.3,0-2.6-0.5-3.5-1.4L5.3,53.5c-1.9-1.9-1.9-5,0-6.9L46.5,5.4C47.4,4.4,48.7,4,50,4 M50,1.9
	c-1.7,0-3.5,0.6-4.8,2L4,45.1c-2.7,2.7-2.7,7,0,9.7L45.2,96c1.4,1.4,3.1,2,4.8,2s3.5-0.6,4.8-2L96,54.9c2.7-2.7,2.7-7,0-9.7L54.8,4
	C53.5,2.7,51.7,1.9,50,1.9L50,1.9z"/>
<g>
	<path class="st1" d="M50,76.8c-3.5,0-6.3-2.9-6.3-6.3c0-2.7,1.6-5,4.1-5.9l0.6-0.2V36.6l-0.6-0.2c-2.5-1-4.1-3.3-4.1-5.9
		c0-1,0.2-1.8,0.6-2.7l0.3-0.6L34,16.7l2.8-2.8l10.8,10.8l0.5-0.2c0.6-0.2,1.3-0.3,1.9-0.3c3.5,0,6.3,2.9,6.3,6.3
		c0,0.6-0.1,1.3-0.3,1.9l-0.2,0.5l11.8,11.8l0.5-0.2c0.6-0.2,1.3-0.3,1.9-0.3c3.5,0,6.3,2.9,6.3,6.3c0,3.5-2.9,6.3-6.3,6.3
		s-6.3-2.9-6.3-6.3c0-1,0.2-1.8,0.5-2.6l0.3-0.6L52.3,35v29.5l0.5,0.3c2.1,1.1,3.4,3.2,3.4,5.7C56.3,73.9,53.5,76.8,50,76.8z"/>
	<path class="st1" d="M36.7,15.2l9.7,9.7l0.9,0.9l1.1-0.3c0.5-0.3,1.1-0.3,1.6-0.3c3,0,5.3,2.3,5.3,5.3c0,0.5-0.1,1.1-0.2,1.6
		l-0.3,1.1l0.9,0.9l11.1,11.1l0.9,0.9l1.2-0.3c0.5-0.2,1.1-0.2,1.6-0.2c3,0,5.3,2.3,5.3,5.3s-2.3,5.3-5.3,5.3s-5.6-2.5-5.6-5.5
		c0-0.7,0.1-1.5,0.4-2.2l0.5-1.2l-1.1-1.1L54.6,36l-3.3-3.4v4.7v26.6v1.2l1.1,0.5c1.8,1,2.9,2.8,2.9,4.8c0,3-2.3,5.3-5.3,5.3
		s-5.3-2.3-5.3-5.3c0-2.2,1.4-4.3,3.4-5l1.3-0.4v-1.4V37.3v-1.4l-1.3-0.4c-2-0.9-3.4-2.9-3.4-5c0-0.7,0.2-1.6,0.5-2.2l0.5-1.3l-1-1
		l-9.4-9.4L36.7,15.2 M36.7,12.4l-4.2,4.2l10.8,10.8c-0.4,1-0.6,2-0.6,3.1c0,3.1,1.9,5.8,4.7,6.8v26.3c-2.8,1.1-4.7,3.7-4.7,6.8
		c0,4.1,3.3,7.3,7.3,7.3c4.1,0,7.3-3.3,7.3-7.3c0-2.9-1.6-5.3-3.9-6.5V37.3l10.2,10.2c-0.4,1-0.6,1.9-0.6,3c0,4.1,3.3,7.3,7.3,7.3
		c3.9,0,7.3-3.3,7.3-7.3s-3.1-7.3-7.1-7.3c-0.7,0-1.5,0.1-2.2,0.3l-11.1-11c0.2-0.6,0.3-1.4,0.3-2.1c0-4.1-3.3-7.3-7.3-7.3
		c-0.7,0-1.5,0.1-2.1,0.3L36.7,12.4L36.7,12.4z"/>
</g>
<rect x="114.6" y="-7.9" class="st0" width="100" height="47"/>
<rect x="114.6" y="45.1" class="st1" width="100" height="47"/>
</svg>
