<?xml version="1.0" encoding="utf-8"?>
<!-- Generator: Adobe Illustrator 27.5.0, SVG Export Plug-In . SVG Version: 6.00 Build 0)  -->
<svg version="1.1" id="Layer_1" xmlns="http://www.w3.org/2000/svg" xmlns:xlink="http://www.w3.org/1999/xlink" x="0px" y="0px"
	 viewBox="0 0 100 100" style="enable-background:new 0 0 100 100;" xml:space="preserve">
<style type="text/css">
	.st0{fill:#7B67D1;stroke:#484157;stroke-width:2;stroke-miterlimit:10;}
</style>
<path class="st0" d="M50,4.5C23.5,4.5,2.1,25.9,2.1,52.4c0,20.7,13.2,39,32.8,45.5c2.3,0.4,3.3-1.1,3.3-2.2s-0.1-4.9-0.1-8.9
	c-12,2.2-15.1-3-16.1-5.6c-1.1-2.7-2.8-4.9-4.9-6.8c-1.7-0.9-4-3.1-0.1-3.2c3.1,0.3,5.9,2.1,7.3,4.9c2.8,4.9,8.9,6.7,13.9,3.9l0,0
	c0.2-2.4,1.3-4.7,3.1-6.4c-10.6-1.2-21.8-5.3-21.8-23.6c-0.1-4.8,1.7-9.4,4.9-12.9c-1.5-4.2-1.3-8.7,0.4-12.7c0,0,4-1.3,13.2,4.9
	c7.9-2.1,16.1-2.1,24,0c9.2-6.2,13.2-4.9,13.2-4.9c1.8,4,1.9,8.5,0.4,12.7c3.2,3.5,5,8.1,4.9,12.9c0.1,18.4-11.1,22.5-21.7,23.7
	c2.3,2.3,3.5,5.5,3.2,8.8c0,6.4-0.1,11.6-0.1,13.2c0,1.3,0.9,2.8,3.3,2.2c25.1-8.4,38.5-35.7,30.1-60.7C88.9,17.7,70.6,4.5,50,4.5z"
	/>
</svg>
