<?xml version="1.0" encoding="utf-8"?>
<!-- Generator: Adobe Illustrator 27.5.0, SVG Export Plug-In . SVG Version: 6.00 Build 0)  -->
<svg version="1.1" id="Layer_1" xmlns="http://www.w3.org/2000/svg" xmlns:xlink="http://www.w3.org/1999/xlink" x="0px" y="0px"
	 viewBox="0 0 94.4 93" style="enable-background:new 0 0 94.4 93;" xml:space="preserve">
<style type="text/css">
	.st0{fill:#7B67D1;stroke:#484157;stroke-width:3;stroke-miterlimit:10;}
</style>
<path class="st0" d="M47.4,2.5c-24.9,0-45,20.1-45,45c0,19.4,12.4,36.6,30.8,42.7c2.2,0.4,3.1-1,3.1-2.1s-0.1-4.6-0.1-8.4
	c-11.3,2.1-14.2-2.8-15.1-5.3c-1-2.5-2.6-4.6-4.6-6.4c-1.6-0.8-3.8-2.9-0.1-3c2.9,0.3,5.5,2,6.9,4.6c2.6,4.6,8.4,6.3,13.1,3.7l0,0
	c0.2-2.3,1.2-4.4,2.9-6c-10-1.1-20.5-5-20.5-22.2c-0.1-4.5,1.6-8.8,4.6-12.1c-1.4-3.9-1.2-8.2,0.4-11.9c0,0,3.8-1.2,12.4,4.6
	c7.4-2,15.1-2,22.5,0c8.6-5.8,12.4-4.6,12.4-4.6c1.7,3.8,1.8,8,0.4,11.9c3,3.3,4.7,7.6,4.6,12.1c0.1,17.3-10.4,21.1-20.4,22.3
	c2.2,2.2,3.3,5.2,3,8.3c0,6-0.1,10.9-0.1,12.4c0,1.2,0.8,2.6,3.1,2.1c23.6-7.9,36.2-33.5,28.3-57C83.9,14.9,66.7,2.5,47.4,2.5z"/>
</svg>
