<?xml version="1.0" encoding="utf-8"?>
<!-- Generator: Adobe Illustrator 27.2.0, SVG Export Plug-In . SVG Version: 6.00 Build 0)  -->
<svg version="1.1" id="Layer_1" xmlns="http://www.w3.org/2000/svg" xmlns:xlink="http://www.w3.org/1999/xlink" x="0px" y="0px"
	 viewBox="0 0 100 100" style="enable-background:new 0 0 100 100;" xml:space="preserve">
<style type="text/css">
	.st0{fill:#FFFFFF;}
</style>
<path class="st0" d="M49.8,6C25.2,6,5.1,26.1,5.1,50.7c0,19.2,12.5,36.2,30.4,42.5c2.2,0.4,3.1-0.9,3.1-2.2c0-0.9,0-4.5,0-8.5
	c-11.2,2.2-14.3-2.7-15.2-5.4c-0.9-2.2-2.7-4.5-4.5-6.3c-1.3-0.9-3.6-2.7,0-3.1c2.7,0.4,5.4,2.2,6.7,4.5c2.7,4.5,8.5,6.3,13,3.6l0,0
	c0-2.2,1.3-4.5,2.7-5.8C31.4,69,20.7,65,20.7,48c0-4.5,1.8-8.9,4.5-12.1c-0.4-3.1-0.4-7.6,1.3-11.2c0,0,3.6-1.3,12.5,4.5
	c7.2-2.2,15.2-2.2,22.3,0c8.5-5.8,12.5-4.5,12.5-4.5c1.8,3.6,1.8,8,0.4,12.1c3.1,3.1,4.5,7.6,4.5,12.1c0,17-10.3,21-20.6,21.9
	c2.2,2.2,3.1,5.4,3.1,8.5c0,5.8,0,10.7,0,12.5c0,1.3,0.9,2.7,3.1,2.2c23.2-8,36.2-33.1,28.2-56.8C86,18.5,69,6,49.8,6z"/>
</svg>
