<?xml version="1.0" encoding="utf-8"?>
<!-- Generator: Adobe Illustrator 27.5.0, SVG Export Plug-In . SVG Version: 6.00 Build 0)  -->
<svg version="1.1" id="Layer_1" xmlns="http://www.w3.org/2000/svg" xmlns:xlink="http://www.w3.org/1999/xlink" x="0px" y="0px"
	 viewBox="0 0 100 100" style="enable-background:new 0 0 100 100;" xml:space="preserve">
<style type="text/css">
	.st0{fill:#404242;}
	.st1{fill:#D1D3D4;}
</style>
<path class="st0" d="M18.3,85.3l-7-79.5h77.2l-7,79.5L49.9,94L18.3,85.3z M28.8,72.9L50,79l21.2-5.7l2.9-32.5H37.8l-0.7-8.4h37.7
	l1.7-12H24.1L27,52.3h35l-1.2,11.3l-10.4,2.9L40,63.6l-0.9-8.3H27.2L28.8,72.9z"/>
<path class="st0" d="M87.4,6.8l-6.9,77.8L49.9,93l-30.6-8.5L12.4,6.8H87.4 M26.1,53.3h1.8h33l-1,9.6l-9.5,2.7l-9.5-2.7l-0.8-6.8
	L40,54.3h-1.8h-9.9h-2.2l0.2,2.2l1.4,15.8l0.1,1.4l1.3,0.4L49.4,80l0.5,0.2l0.5-0.1l20.3-5.4l1.3-0.4l0.1-1.4L75,42.1l0.2-2.2H73
	H38.7l-0.6-6.4h35.7h1.7l0.2-1.7l1.4-10l0.3-2.3h-2.3H25.2H23l0.2,2.2l2.7,29.8L26.1,53.3 M89.6,4.8H10.2l7.2,81.3l32.5,9l32.5-9
	L89.6,4.8L89.6,4.8z M27.9,51.3l-2.7-29.8h50.1l-1.4,10H36l0.9,10.4H73l-2.7,30.7L50,78l-20.3-5.9l-1.4-15.8h9.9l0.9,8.1l11.3,3.2
	l11.3-3.2l1.4-13.1L27.9,51.3L27.9,51.3z"/>
<rect x="155" class="st0" width="100" height="47"/>
<rect x="155" y="53" class="st1" width="100" height="47"/>
</svg>
