<?xml version="1.0" encoding="utf-8"?>
<!-- Generator: Adobe Illustrator 27.5.0, SVG Export Plug-In . SVG Version: 6.00 Build 0)  -->
<svg version="1.1" id="Layer_1" xmlns="http://www.w3.org/2000/svg" xmlns:xlink="http://www.w3.org/1999/xlink" x="0px" y="0px"
	 viewBox="0 0 100 100" style="enable-background:new 0 0 100 100;" xml:space="preserve">
<style type="text/css">
	.st0{display:none;fill:#F7DF1E;}
	.st1{fill:#D1D3D4;}
	.st2{fill:#404242;}
</style>
<path class="st0" d="M-1200-1200h2500v2500h-2500V-1200z"/>
<path class="st1" d="M1.5,72.3l11.3-6.8c2.2,3.9,4.2,7.1,8.9,7.1c4.5,0,7.4-1.8,7.4-8.7V16.8h13.8v47.3c0,14.3-8.4,20.9-20.7,20.9
	C11.1,84.9,4.7,79.2,1.5,72.3 M50.4,70.8l11.3-6.5c3,4.8,6.8,8.4,13.6,8.4c5.7,0,9.4-2.9,9.4-6.8c0-4.7-3.8-6.4-10.1-9.2l-3.5-1.5
	c-10-4.2-16.6-9.6-16.6-20.9c0-10.4,7.9-18.3,20.3-18.3c8.8,0,15.1,3.1,19.7,11.1L83.7,34c-2.4-4.3-4.9-5.9-8.9-5.9
	c-4.1,0-6.6,2.6-6.6,5.9c0,4.2,2.6,5.8,8.5,8.4l3.5,1.5c11.8,5,18.4,10.2,18.4,21.8c0,12.5-9.8,19.3-22.9,19.3
	C62.8,84.9,54.5,78.8,50.4,70.8"/>
<rect x="119.1" y="4.5" class="st2" width="100" height="47"/>
<rect x="119.1" y="57.5" class="st1" width="100" height="47"/>
</svg>
