<?xml version="1.0" encoding="utf-8"?>
<!-- Generator: Adobe Illustrator 27.5.0, SVG Export Plug-In . SVG Version: 6.00 Build 0)  -->
<svg version="1.1" xmlns="http://www.w3.org/2000/svg" xmlns:xlink="http://www.w3.org/1999/xlink" x="0px" y="0px"
	 viewBox="0 0 1920 1080" style="enable-background:new 0 0 1920 1080;" xml:space="preserve">
<style type="text/css">
	.st0{fill:#D0C5FF;}
	.st1{fill:#D0C5FF;stroke:#000000;stroke-width:7;stroke-linecap:round;stroke-linejoin:round;stroke-miterlimit:10;}
</style>
<g id="circle">
	<g id="inner-circle">
		<g>
			<path class="st0" d="M432.5,1076.6c8.2-186.1,116.5-365.1,278-456.4s370.8-90.8,531,2.7s264.7,268.9,262,455.2"/>
			<g>
				<path d="M436.5,1074.4c4.8-105.9,41.8-209.6,103.2-295.8c62.4-87.5,149.5-155.8,251.1-191.7c106.2-37.5,224.2-40.7,332.3-9.4
					c104,30.1,196.4,93.4,263.6,178.1c64.5,81.4,105.1,181.9,111.9,285.9c0.8,12.9,1.1,25.8,1,38.7c-0.1,4.5,7.8-1.1,7.9-4.3
					c0.7-53.1-7.1-106.1-23-156.8c-15.7-50.2-39.2-97.8-69-141.2c-30.1-43.7-66.7-83-108.2-116c-43.3-34.4-91.9-61.9-143.9-80.9
					c-53.7-19.6-110.4-30.3-167.5-32.3c-57.5-2-115.2,4.9-170.5,20.6c-54,15.3-105.3,39.2-151.7,70.8
					c-44.1,30-83.5,66.9-117.2,108.2c-33.7,41.4-61.5,87.6-82.7,136.6c-21.2,49.1-35.5,101.3-41.9,154.4
					c-1.6,13.1-2.6,26.2-3.2,39.4C428.4,1083.2,436.3,1077.6,436.5,1074.4L436.5,1074.4z"/>
			</g>
		</g>
		<line class="st1" x1="432.5" y1="1080.5" x2="1503.5" y2="1078"/>
	</g>
</g>
<g id="months">
	<g id="sep">
		<path class="st0" d="M147.4,1077.6c21-1.6,88.5-0.2,88.5-0.2c62.3,0,81.8-1.4,141.2-1.4c2,0,10.7,0.5,12-1c1-1.1-1-21.6-1-23.1
			c-2.7-42.9,0.7-59.7,10-101.7c-21.4-3.9-36.8-8.3-58.2-14.1c-56.3-15.3-43.7-12.3-103.8-28.6c-2.3-0.6-65.1-17.8-65.1-17.8
			c-8.9,32.7-15,65.3-17.5,92.1c-2.3,25.2-3.8,26.7-6.6,95.9"/>
		<g>
			<path d="M145.2,1081.5c21.1-1.6,42.5-0.9,63.7-0.6c20.1,0.2,40.2,0.4,60.3,0.2c28.2-0.3,56.5-1,84.7-1.2c7.7,0,15.4-0.1,23,0
				c5,0.1,10.7,0.4,14.3-3.7c2.6-3,2.1-7,1.9-10.7c-0.2-4.9-0.7-9.7-1.1-14.6c-1.3-16.1-1.5-32.3,0-48.4c1.7-18.1,5.8-35.9,9.8-53.6
				c0.2-0.8,0.5-2.4-0.8-2.6c-38.5-7-76.2-19-113.9-29.5c-26.8-7.5-53.7-14.8-80.5-22.1c-10.9-3-21.8-5.9-32.7-8.9
				c-2.7-0.7-6.1,2.8-6.7,5.1c-12.3,45.5-18.9,92.1-21.8,139.1c-1,16.6-1.7,33.3-2.4,49.9c-0.2,4.4,7.8-1.1,7.9-4.3
				c1.6-41,3.6-82.2,10-122.8c3.4-21.7,8.1-43.2,13.9-64.4c-2.2,1.7-4.5,3.4-6.7,5.1c48.5,13.3,96.9,26.7,145.4,40
				c27,7.4,54,15.5,81.7,20.5c-0.3-0.9-0.5-1.8-0.8-2.6c-3.4,15-6.8,30.1-9,45.3c-2,14.2-2.4,28.4-2,42.7c0.4,10.8,1.6,21.5,2,32.2
				c0,0.9,0,1.9,0.1,2.8c0,0.3-0.1,0.9,0,1.2c0,0.1,0,0.2,0,0.2c-0.2,2.2,1.1,0.8,4-4.3c-1.4-0.6-5.9,0.4-7.6,0.4
				c-7.3-0.1-14.6,0-21.9,0c-47.2,0.3-94.4,1.6-141.5,1c-22.8-0.3-46-1.2-68.8,0.5C146.4,1073.9,140.8,1081.9,145.2,1081.5
				L145.2,1081.5z"/>
		</g>
	</g>
	<g id="oct">
		<path class="st0" d="M177.2,878.4c20.7,3.9,86.8,22,86.8,22c59.6,18.1,69.2,19.8,124.2,36.5c1.9,0.6,14.5,2.7,14.5,2.7
			s5-14.2,5.5-15.6c12.8-42,24-69.5,46.4-108.2c-19.6-9.3-33.4-17.5-52.6-28.7c-50.4-29.4-39-23.2-92.8-54.5
			c-2.1-1.2-58.3-34-58.3-34c-17.1,29.2-31.4,59.1-40.8,84.5c-8.8,23.7-12.4,29.5-33,95.7"/>
		<g>
			<path d="M174.2,882.3c27.4,5.2,54.4,13.2,81.3,20.5c30.1,8.2,60,17.5,90.1,26.2c18,5.2,35.6,11.4,54.1,14.4
				c2.9,0.5,5.8-2.7,6.7-5.1c6.3-17.8,11.6-36,18.2-53.7c9-24,20.5-46.9,33.3-69.1c0.7-1.2,1.1-2.9-0.4-3.6
				c-35.4-16.8-68.7-38.1-102.4-58.1c-23.9-14.1-47.9-28.1-71.8-42.1c-9.6-5.6-19.2-11.2-28.8-16.8c-2.6-1.5-5.7,1.8-6.8,3.8
				c-24.2,41.7-42.8,86.2-58.3,131.9c-5.5,16.3-10.7,32.8-15.9,49.3c-0.6,2,0.6,2.9,2.5,2.5c2.1-0.5,4.4-3,5-5
				c12.9-41.3,26.2-82.9,44-122.4c8.7-19.4,18.6-38.3,29.3-56.7c-2.3,1.3-4.6,2.5-6.8,3.8c43.8,25.6,87.4,51.3,131.1,76.9
				c24,14.1,47.9,28.8,73.1,40.7c-0.1-1.2-0.2-2.4-0.4-3.6c-12.9,22.4-24.5,45.4-33.6,69.6c-6.9,18.2-12.2,36.9-18.7,55.2
				c2.2-1.7,4.5-3.4,6.7-5.1c-16.2-2.7-31.7-7.9-47.5-12.5c-15.8-4.6-31.7-9.1-47.5-13.7c-27.7-8-55.3-16.3-83.2-23.6
				c-15.6-4.1-31.3-8.4-47.2-11.4C176.8,873.9,170.8,881.7,174.2,882.3L174.2,882.3z"/>
		</g>
	</g>
	<g id="nov">
		<path class="st0" d="M256,679.6c19,9,78.3,43.4,78.3,43.4c53,32.6,58.3,35.1,107.2,65.3c1.7,1,20,11.1,20,11.1l10.3-14.8
			c0,0,39.4-63.2,68.3-95c-16.6-14-27.8-25.5-43.5-41.2c-41.2-41.2-31.9-32.4-75.9-76.4c-1.7-1.7-47.7-47.7-47.7-47.7
			c-23.9,23.9-45.4,49.2-60.9,71.3c-14.5,20.7-19.5,25.4-56.3,84.1"/>
		<g>
			<path d="M253,683.5c25.8,12.3,50.5,27.3,75.3,41.6c29.3,16.9,58,35.1,86.9,52.7c14.4,8.8,28.7,17.3,43.4,25.5
				c1.7,1,4.8-2,5.6-3.1c17.7-25.5,34-52,52.4-77.1c8-10.9,16.2-21.7,25.3-31.7c0.9-0.9,3.4-4,1.8-5.3
				c-29.9-25.2-56.7-54.3-84.2-82.1c-19.5-19.8-39.3-39.5-58.9-59.2c-8-8-15.9-16-23.9-24c-1.5-1.5-4.4,0.8-5.3,1.8
				c-34.4,34.5-63.9,73.1-90.7,113.7c-9.5,14.4-18.8,29.1-28,43.7c-1,1.5-0.9,3.5,1.2,3.7c2.2,0.2,4.5-2.6,5.5-4.2
				c22.8-36.4,46.3-73,73.3-106.5c13.2-16.4,27.4-32,42.3-46.9c-1.8,0.6-3.5,1.2-5.3,1.8c35.8,35.9,71.5,71.9,107.2,107.8
				c19.5,19.6,38.7,39.7,59.8,57.5c0.6-1.8,1.2-3.5,1.8-5.3c-26.7,29.4-48.4,63.4-69.7,96.8c-0.2,0.3,1-1.4-0.2,0.3
				c-1.1,1.6-2.2,3.2-3.3,4.8c-2.1,3-4.2,6-6.2,9c1.9-1,3.7-2.1,5.6-3.1c-54.6-30.1-106.5-65-160.8-95.6
				c-14.8-8.3-29.5-16.9-44.8-24.2C256,674.3,249.5,681.8,253,683.5L253,683.5z"/>
		</g>
	</g>
	<g id="dec">
		<path class="st0" d="M388.2,515.4c15.9,13.7,64,62.6,64,62.6c42.4,45.6,48.8,48,88,90.1c1.4,1.5,11.1,11.6,11.1,11.6
			s9.3-7.9,10.4-8.8c35.6-31.4,61.5-47.3,97.8-70.2c-12.3-17.9-20-31.9-31-51.2c-28.8-50.7-22.1-39.7-52.8-93.8
			c-1.2-2.1-33.3-58.7-33.3-58.7c-29.4,16.7-56.8,35.4-77.7,52.6c-19.5,16.1-25.5,19.3-76.6,66.1"/>
		<g>
			<path d="M384.7,518.9c21.2,18.3,40.5,38.9,60.2,58.8c10.6,10.7,20.7,21.9,31.3,32.6c11.2,11.4,22.8,22.4,34,33.7
				c12.7,12.8,25,26.1,37.5,39.2c1.1,1.1,3.4-0.1,4.3-0.9c15.3-12.9,30.3-26.1,46.3-38c19.6-14.5,40.3-27.4,60.9-40.4
				c1.8-1.2,5.5-4.3,3.8-6.8c-22-32.1-40-67-59-101c-13.6-24.3-27.4-48.5-41.1-72.7c-5.6-9.8-11.1-19.6-16.7-29.5
				c-0.8-1.4-2.4-1.1-3.6-0.4c-42.3,24.1-81,53.5-117.6,85.4c-13.1,11.4-25.9,23.1-38.7,34.8c-1.1,1-3.2,3.9-1.8,5.3
				c1.5,1.5,4.3-0.8,5.3-1.8c31.7-29,64-58,98.9-83.1c17.1-12.3,35-23.6,53.3-34c-1.2-0.1-2.4-0.2-3.6-0.4
				c25.2,44.5,50.2,89,75.3,133.5c13.5,23.9,26.6,48.2,42.1,70.8c1.3-2.3,2.5-4.6,3.8-6.8c-20.9,13.1-41.8,26.2-61.7,40.8
				c-16.5,12.2-31.9,25.7-47.6,39c1.4-0.3,2.9-0.6,4.3-0.9c-22-23-44.3-45.6-66.8-68.1c-20.6-20.6-40.4-42-61.1-62.6
				c-11.5-11.4-22.9-23-35.1-33.6C389.1,509.5,382.1,516.7,384.7,518.9L384.7,518.9z"/>
		</g>
	</g>
	<g id="jan">
		<path class="st0" d="M556.9,381c11.4,17.7,43.4,78.3,43.4,78.3c27.6,55.8,40.9,75.3,66.5,126.8c0.9,1.8,2.3,3.5,4.2,4
			c1.4,0.3,3,0.1,4.3-0.7c36.5-22.6,75.9-37.7,117.3-49.3c-6.7-20.6-10.1-36.3-15.1-58c-13.1-56.8-9.9-44.3-23.8-105
			c-0.5-2.3-15.1-65.8-15.1-65.8c-33,7.6-64.6,17.7-89.5,28.2c-23.3,9.9-30,11.2-92.3,41.5"/>
		<g>
			<path d="M553.4,384.5c10,15.7,18.7,32.3,27.5,48.7c7.2,13.3,14.3,26.6,21.1,40.1c11.9,23.5,24.6,46.6,37.1,69.8
				c6.4,11.8,12.6,23.7,18.7,35.7c2.5,5,5.1,14.9,11.8,15.3c3.3,0.2,5.9-1.6,8.6-3.3c3.6-2.2,7.2-4.3,10.9-6.4
				c32.2-18,66.9-30.7,102.3-40.6c2.2-0.6,6-4.1,5.1-6.7c-12-37.3-19.3-76.1-27.8-114.3c-6.1-27.2-12.4-54.3-18.6-81.4
				c-2.5-11-5.1-22-7.6-33c-0.3-1.3-1.7-1-2.6-0.8c-47,10.9-92.1,28-136,47.9c-15.7,7.2-31.3,14.6-46.8,22.2
				c-3.3,1.6-6.4,9.5-0.5,6.6c38.9-18.9,78.4-37.6,119.3-51.7c20.1-6.9,40.7-12.7,61.4-17.5c-0.9-0.3-1.8-0.5-2.6-0.8
				c11.3,49,22.4,98,33.5,147c6.2,27.3,11.9,54.9,20.5,81.7c1.7-2.2,3.4-4.5,5.1-6.7c-30.3,8.5-60.1,19.1-88.4,33.1
				c-7.2,3.6-14.4,7.4-21.4,11.5c-2.9,1.7-7.9,6-11.1,4.6c-3.2-1.4-5.1-8.1-6.7-11.2c-6-11.9-12.2-23.7-18.5-35.5
				c-19.3-35.8-37.7-72-57-107.7c-9.8-18.1-19.3-36.5-30.3-53.8C558.8,374.9,551.4,381.4,553.4,384.5L553.4,384.5z"/>
		</g>
	</g>
	<g id="feb">
		<path class="st0" d="M758.5,300.2c7.1,19.8,24.7,86.1,24.7,86.1c14.4,60.6,20,68.1,33.2,124c0.5,1.9,5.4,18.4,7.2,19.3
			c1.3,0.7,2.5-0.4,3.3-0.7c30.1-9.1,78.8-17.7,125.4-20.7c-1.9-21.6-1.7-37.7-1.7-59.9c0-58.3,0.4-45.4,0.4-107.6
			c0-2.4,0.1-67.5,0.1-67.5c-33.8,0-66.9,2.7-93.5,7.4c-24.9,4.4-31.7,4.2-99.3,19.7"/>
		<g>
			<path d="M754.6,303.2c12.9,36.5,21.4,74.7,31.2,112.1c6,23.2,13.3,46,19.5,69.1c3.2,12.1,5.6,24.4,9.5,36.3
				c1.1,3.2,2.2,9.8,5,12.1c1.8,1.5,3.6,0.7,5.5,0.1c3.1-1,6.2-1.9,9.3-2.7c37.6-10.1,76.8-15.4,115.6-18c3-0.2,6.3-3.9,6-6.9
				c-3.3-39-1.6-78.5-1.4-117.6c0.2-27.7,0.1-55.5,0.2-83.2c0-11.1,0-22.2,0-33.3c0-1.2-0.6-1.8-1.8-1.8
				c-48.3,0.1-96,6.5-143.2,16.2c-16.9,3.4-33.7,7.2-50.4,11.1c-3.1,0.7-8,8.8-2.5,7.5c42.2-9.7,84.9-19,128.1-23.6
				c21.2-2.2,42.5-3.2,63.8-3.3c-0.6-0.6-1.2-1.2-1.8-1.8c0,50.7-0.3,101.4-0.4,152c-0.1,27.9-0.7,55.9,1.7,83.7c2-2.3,4-4.6,6-6.9
				c-34.4,2.3-68.8,7-102.4,14.7c-6.8,1.5-13.5,3.2-20.2,5.1c-1.8,0.5-4.3,2-5.4,1.2c-1.3-0.9-2-4.9-2.5-6.3
				c-4-11.2-6.3-22.9-9.3-34.4c-5.9-22.6-13-44.9-19.1-67.5c-4.8-18-9.1-36.2-14-54.2c-6-21.9-11.6-44.2-19.2-65.6
				C761.1,293.8,753.5,300,754.6,303.2L754.6,303.2z"/>
		</g>
	</g>
	<g id="mar">
		<path class="st0" d="M968.2,271c1.6,21,1.2,89.5,1.2,89.5c-2,62.2,0.4,85.7-1.5,143.2c-0.1,2,0.4,4.2,1.8,5.5
			c1.1,1,2.6,1.6,4.1,1.5c42.9-2.7,84.7,2.7,126.7,12.1c3.9-21.4,8.3-36.8,14.1-58.2c15.3-56.3,12.3-43.7,28.7-103.8
			c0.6-2.3,17.8-65.1,17.8-65.1c-32.7-8.9-65.2-15-92.1-17.5c-25.2-2.3-31.7-4.3-100.9-7.1"/>
		<g>
			<path d="M964.3,273.1c1.3,18,1.1,36.3,1.2,54.3c0.1,14,0.2,28-0.2,42c-0.8,26.4-0.6,52.8-0.5,79.2c0.1,13,0,26.1-0.3,39.1
				c-0.1,3.4-0.1,6.7-0.2,10.1c-0.1,3.5-0.8,7.6,0,11.1c1.7,7.9,11.3,5.4,17.2,5.2c39.1-1.4,78,4,116.2,12.5c3.1,0.7,6.4-3.3,6.9-6
				c7-38.4,19-76.1,29.6-113.7c7.5-26.7,14.7-53.5,22-80.3c2.9-10.7,5.9-21.4,8.8-32.2c0.3-0.9,0.4-2.3-0.8-2.6
				c-46.7-12.6-94.5-19-142.7-22.1c-17-1.1-34.1-1.9-51.2-2.5c-3.1-0.1-8.9,7.7-4.3,7.9c42.9,1.7,86.3,3.9,128.8,10.7
				c21.4,3.4,42.6,8.1,63.6,13.8c-0.3-0.9-0.5-1.8-0.8-2.6c-13.4,48.9-26.9,97.7-40.4,146.6c-7.4,27-15.4,53.8-20.4,81.4
				c2.3-2,4.6-4,6.9-6c-32.3-7.2-65.2-12.2-98.4-12.8c-8.4-0.2-16.8,0-25.2,0.4c-2,0.1-4.9,0.7-6.6-0.8c-1.9-1.7-1.4-4.6-1.3-6.8
				c0.1-3.8,0.2-7.5,0.3-11.3c0.3-12.8,0.4-25.7,0.4-38.5c-0.1-39.7,0.8-79.4,0.7-119.2c0-20.3,0.3-40.8-1.2-61
				C971.8,264.2,964,270,964.3,273.1L964.3,273.1z"/>
		</g>
	</g>
	<g id="apr">
		<path class="st0" d="M1182.5,301.2c-3.9,20.7-22.1,86.8-22.1,86.8c-18.1,59.6-21.8,82.9-38.6,137.9c-0.6,1.9-0.7,4.1,0.3,5.8
			c0.8,1.2,2.1,2.2,3.6,2.5c42.1,8.5,81.1,24.6,119.2,44.5c9.3-19.6,17.6-33.4,28.8-52.5c29.4-50.4,23.2-39,54.6-92.8
			c1.2-2.1,34.1-58.2,34.1-58.2c-29.2-17.1-59.1-31.4-84.5-40.8c-23.7-8.8-29.5-12.4-95.6-33.1"/>
		<g>
			<path d="M1178.6,303.3c-3.5,18.2-8.6,36.2-13.3,54.1c-3.8,14.3-7.7,28.6-11.9,42.7c-7.5,25.3-14.1,50.9-20.9,76.4
				c-3.4,12.9-7,25.8-10.8,38.7c-1.5,5.2-6.4,14.3-3.1,19.6c1.8,2.8,4.9,3.2,7.9,3.9c4.2,0.9,8.3,1.9,12.5,2.9
				c36,9.1,70.3,23.7,103.1,40.9c2.1,1.1,5.6-2.7,6.3-4.1c16.8-35.4,38.1-68.7,58.1-102.3c14.2-23.9,28.2-48,42.3-72
				c5.7-9.7,11.4-19.5,17.1-29.2c0.4-0.6,1.2-2.7,0.2-3.3c-41.6-24.2-85.9-42.8-131.4-58.3c-16.3-5.6-32.8-10.8-49.3-15.9
				c-3.2-1-9.4,6.7-5.9,7.8c41.1,12.8,82.4,26.2,121.8,43.8c19.8,8.8,39,18.8,57.7,29.7c0.1-1.1,0.1-2.2,0.2-3.3
				c-25.4,43.4-50.9,86.7-76.4,130c-14.2,24.2-29,48.2-41,73.5c2.1-1.4,4.2-2.8,6.3-4.1c-28.5-14.9-58.1-27.9-89-37
				c-7.6-2.2-15.3-4.2-23-6c-3.9-0.9-10.2-0.8-10.4-5.8c-0.1-3.9,2.3-8.7,3.4-12.4c3.7-12.5,7.2-25,10.5-37.5
				c10.5-39.2,21.9-78.2,32.3-117.4c5.3-19.8,10.9-39.6,14.7-59.7c0.4-2.3-2.5-1.7-3.7-1.2C1180.7,298.9,1179,301,1178.6,303.3
				L1178.6,303.3z"/>
		</g>
	</g>
	<g id="may">
		<path class="st0" d="M1376.2,382.3c-9,19-43.4,78.3-43.4,78.3c-32.6,53-42.1,74.6-72.3,123.6c-1,1.7-1.8,3.8-1.1,5.7
			c0.5,1.4,1.5,2.6,2.8,3.3c38.5,18.9,72.2,44.4,104,73.3c14-16.6,25.5-27.8,41.2-43.5c41.2-41.2,32.4-31.9,76.4-75.9
			c1.7-1.7,47.7-47.7,47.7-47.7c-23.9-23.9-49.2-45.4-71.3-60.9c-20.7-14.5-25.4-19.5-84.1-56.3"/>
		<g>
			<path d="M1372.9,382.5c-8.1,17-17.7,33.4-27,49.8c-7.4,13.1-15,26.2-22.8,39.1c-13.9,22.9-26.9,46.3-40.2,69.6
				c-6.9,12-13.8,24-21,35.8c-2.8,4.7-9.2,11.8-5.5,17.6c1.7,2.6,5,3.6,7.7,5c3.6,1.9,7.3,3.8,10.8,5.8
				c31.9,17.7,60.9,40.3,87.8,64.8c1.9,1.7,5.2-1.6,6.2-2.8c24.9-29.6,53.7-56,81.3-83.2c19.8-19.5,39.5-39.3,59.2-58.9
				c8-8,16-15.9,24-23.9c1-1,3.2-3.8,1.8-5.3c-33.9-33.8-71.9-62.9-111.8-89.3c-14.4-9.5-29-18.7-43.6-27.9c-3.1-2-9.7,5.4-7.1,7.1
				c36.8,23,73.7,46.7,107.6,74c16.7,13.5,32.7,28,47.9,43.2c0.6-1.8,1.2-3.5,1.8-5.3c-36.2,36.1-72.5,72.1-108.7,108.1
				c-19.6,19.5-39.6,38.7-57.5,59.9c2.1-0.9,4.1-1.8,6.2-2.8c-22.8-20.8-47-40.1-73.3-56.4c-6.4-3.9-12.9-7.7-19.5-11.3
				c-3.4-1.8-6.8-3.5-10.1-5.3c-2.7-1.4-4.2-3-2.9-6.1c0.8-2.1,2.6-4.2,3.7-6.1c7-11.5,13.9-23.2,20.6-34.9
				c12.6-22,24.8-44.2,37.8-65.9c8-13.4,16-26.8,23.8-40.4c10.2-18,20.9-35.9,29.8-54.6C1382.4,376.1,1374.5,379.2,1372.9,382.5
				L1372.9,382.5z"/>
		</g>
	</g>
	<g id="jun">
		<path class="st0" d="M1545.7,512.8c-14,15.7-63.8,62.8-63.8,62.8c-46.3,41.6-61.6,58.1-61.6,58.1l-25,23.8
			c0,0-19.1,18.7-18.6,19.3c21.4,24.9,56.7,69,79,105.7c18.1-12,32.3-19.5,51.8-30.1c51.2-27.9,40.1-21.4,94.7-51.2
			c2.1-1.1,59.3-32.2,59.3-32.2c-16.2-29.7-34.4-57.5-51.2-78.6c-15.7-19.8-18.8-25.8-64.8-77.8"/>
		<g>
			<path d="M1543.9,511c-16.9,18.9-35.8,36.2-54.2,53.7c-18.8,18-38.4,35.1-57.2,53.2c-8.9,8.6-17.6,17.4-26.6,25.9
				c-5.3,5.1-10.7,10.1-15.9,15.2c-4.1,4-8.2,8.1-12.2,12.3c-2.6,2.8-6.7,6.1-4.1,9.9c5.3,7.7,12.3,14.6,18.2,21.8
				c7,8.7,14,17.5,20.7,26.4c13.9,18.3,27.4,37,39.3,56.7c0.8,1.4,3.6-0.4,4.3-0.9c32.3-21.3,67.5-38.6,101.6-56.8
				c24.5-13.1,49-26.5,73.4-39.8c9.9-5.4,19.8-10.8,29.7-16.2c1.4-0.7,5.3-4.1,4.1-6.3c-23.1-42.2-51.4-81.1-82.3-117.9
				c-11.1-13.2-22.5-26.2-33.9-39.1c-2.2-2.5-9.4,4.4-7.1,7.1c28.6,32.3,57.1,65.2,81.7,100.7c12.3,17.7,23.5,36.2,33.9,55.1
				c1.4-2.1,2.8-4.2,4.1-6.3c-44.9,24.4-89.9,48.6-134.8,73c-24.3,13.2-48.9,25.9-72,41.2c1.4-0.3,2.9-0.6,4.3-0.9
				c-20.1-33.1-44-63.9-68.7-93.6c-2.4-2.8-4.7-5.7-7.1-8.5c-1.3-1.5-3-4.7-3.5-0.3c0,0.4,0.3,0-0.2,0.2c0.4-0.2,0.8-0.9,1.1-1.2
				c3.8-4.1,7.8-8,11.8-11.9c4.9-4.8,9.9-9.6,14.9-14.3c8.7-8.3,17.2-16.7,25.8-25.1c18.3-17.9,37.7-34.7,56.2-52.3
				c19.6-18.7,39.9-37.2,58-57.4c1-1.1,3.3-3.8,1.8-5.3C1547.8,507.8,1544.9,510,1543.9,511L1543.9,511z"/>
		</g>
	</g>
	<g id="jul">
		<path class="st0" d="M1675.3,691.5c-17.6,11.5-78,44-78,44c-55.6,28.1-75,41.5-126.3,67.4c-1.8,0.9-3.5,2.3-3.9,4.2
			c-0.3,1.4-0.1,3,0.7,4.3c22.9,36.3,38.3,75.6,50.2,116.9c20.6-6.9,36.2-10.4,57.9-15.5c56.7-13.5,44.3-10.2,104.8-24.6
			c2.3-0.6,65.6-15.6,65.6-15.6c-7.9-32.9-18.2-64.4-28.9-89.2c-10-23.2-11.4-29.9-42.2-92"/>
		<g>
			<path d="M1675.6,688.2c-15.8,10.2-32.6,19.1-49.1,28.2c-13.5,7.4-27,14.7-40.7,21.8c-23.8,12.2-47,25.3-70.5,38.2
				c-12.2,6.7-24.5,13.2-36.9,19.6c-5.7,2.9-13.2,5.6-15.1,12.4c-0.9,3.1,0.3,5.5,1.9,8.1c2.4,3.9,4.8,7.8,7.1,11.8
				c18.4,32.3,31.5,67.3,41.8,103c0.3,1.2,1.7,1.1,2.6,0.8c37.2-12.3,76-19.9,114.1-28.7c27.1-6.3,54.2-12.8,81.3-19.2
				c11-2.6,22-5.2,32.9-7.8c2.4-0.6,5.8-4.1,5.1-6.7c-11.2-46.7-28.5-91.6-48.7-135.1c-7.2-15.5-14.7-30.8-22.3-46.1
				c-1.7-3.5-9.2,3-7.8,5.9c19.2,38.8,38.3,78.2,52.8,119.1c7.2,20.4,13.2,41.1,18.3,62.1c1.7-2.2,3.4-4.5,5.1-6.7
				c-48.9,11.6-97.8,23.1-146.8,34.6c-27.3,6.4-54.8,12.3-81.5,21.1c0.9,0.3,1.8,0.5,2.6,0.8c-8.7-30.2-19.4-59.9-33.7-87.9
				c-3.5-6.9-7.2-13.7-11.1-20.3c-0.9-1.6-1.8-3.1-2.8-4.7c-0.8-1.3-3.1-3.9-3.1-5.4c0-1.8,2-2.1,3.7-3c1.8-0.9,3.6-1.8,5.4-2.8
				c11.8-6.1,23.5-12.3,35.1-18.7c35.3-19.4,71-37.9,106.2-57.2c18-9.9,36.2-19.5,53.4-30.6c1.7-1.1,4.4-3.2,4.2-5.5
				C1679.1,687.2,1677.1,687.2,1675.6,688.2L1675.6,688.2z"/>
		</g>
	</g>
	<g id="aug">
		<path class="st0" d="M1748.2,889.4c-19.8,7.1-86.1,24.7-86.1,24.7c-60.6,14.4-82.6,23-138.5,36.2c-1.9,0.5-3.9,1.4-4.8,3.2
			c-0.7,1.3-0.8,2.9-0.3,4.3c13.9,40.7,20.7,75.4,22.7,118.4c22.2,0,54.9,0.3,75.9,0.3c58,0,28.4-0.6,90.6-0.6
			c2.4,0,66.5,0.1,66.5,0.1c0-33.8-1.7-60.9-6.4-87.5c-4.4-24.9-4.2-31.7-19.7-99.3"/>
		<g>
			<path d="M1749.4,885.6c-17.6,6.2-35.8,10.9-53.8,15.9c-14.4,4-28.9,7.9-43.4,11.5c-26.1,6.4-51.9,13.7-77.8,20.8
				c-13,3.6-26.1,7-39.2,10.2c-6.2,1.5-13.5,2.1-17.9,7.2c-5.3,6.1-1.6,12.6,0.6,19.3c11.2,35.1,17.6,71.1,19.4,107.8
				c0.1,1.2,0.5,1.8,1.8,1.8c65.4,0,130.7-0.3,196.1-0.3c12.3,0,24.6,0,36.9,0c2.5,0,6.1-3.6,6.1-6.1c0-31.6-2.2-62.6-7.4-93.7
				c-2.4-14.4-4.7-28.9-7.7-43.2c-3.4-16.9-7.2-33.7-11.1-50.6c-0.8-3.4-8.5,2.5-7.8,5.9c9.5,41.4,19,83.4,23.4,125.7
				c2.1,20,2.6,40.2,2.6,60.3c2-2,4.1-4.1,6.1-6.1c-50.6,0-101.2,0.5-151.8,0.6c-27.1,0-54.1-0.3-81.2-0.3c0.6,0.6,1.2,1.2,1.8,1.8
				c-1.5-30.6-5.8-60.8-13.9-90.4c-2.1-7.6-4.4-15.1-6.8-22.5c-0.5-1.6-0.9-3.9-1.8-5.3c-1.1-1.7-1.8-1.4,0.6-2
				c3.9-1,7.9-1.9,11.9-2.9c12.5-3.1,25-6.4,37.4-9.8c38.5-10.6,77.3-20.2,115.8-30.8c19.6-5.4,39.4-10.5,58.6-17.2
				c2-0.7,4.5-2.8,5-5C1752.3,886.3,1751.5,884.9,1749.4,885.6L1749.4,885.6z"/>
		</g>
	</g>
</g>
</svg>