<?xml version="1.0" encoding="utf-8"?>
<!-- Generator: Adobe Illustrator 27.2.0, SVG Export Plug-In . SVG Version: 6.00 Build 0)  -->
<svg version="1.1" id="Layer_1" xmlns="http://www.w3.org/2000/svg" xmlns:xlink="http://www.w3.org/1999/xlink" x="0px" y="0px"
	 viewBox="0 0 100 100" style="enable-background:new 0 0 100 100;" xml:space="preserve">
<style type="text/css">
	.st0{fill:#FFFFFF;}
</style>
<path class="st0" d="M88.1,5H11.9C8.3,5,5.3,7.8,5.3,11.4c0,0,0,0,0,0v77.1c0,3.6,3,6.5,6.6,6.4c0,0,0,0,0,0h76.2
	c3.6,0.1,6.6-2.8,6.6-6.4c0,0,0,0,0,0V11.4C94.7,7.8,91.7,5,88.1,5C88.1,5,88.1,5,88.1,5z M32.4,80.3H18.9V39.8h13.5V80.3z
	 M25.7,34.2L25.7,34.2c-3.9,0-7-3.1-7-7s3.1-7,7-7c3.9-0.4,7.4,2.3,7.8,6.2c0.4,3.9-2.3,7.4-6.2,7.8C26.7,34.2,26.2,34.2,25.7,34.2z
	 M81.1,80.3H67.6V58.6c0-5.4-1.9-9-6.8-9c-3.1,0-5.9,2-6.9,4.9c-0.4,1.1-0.5,2.2-0.4,3.3v22.5H39.9c0,0,0-36.8,0-40.5h13.5v5.7
	c2.5-4.3,7.2-6.9,12.2-6.7c9,0,15.5,5.8,15.5,18.3V80.3z"/>
</svg>
