<?xml version="1.0" encoding="utf-8"?>
<!-- Generator: Adobe Illustrator 27.5.0, SVG Export Plug-In . SVG Version: 6.00 Build 0)  -->
<svg version="1.1" id="Layer_1" xmlns="http://www.w3.org/2000/svg" xmlns:xlink="http://www.w3.org/1999/xlink" x="0px" y="0px"
	 viewBox="0 0 100 100" style="enable-background:new 0 0 100 100;" xml:space="preserve">
<style type="text/css">
	.st0{fill:#404242;}
	.st1{fill:#D1D3D4;}
</style>
<path class="st0" d="M88.9,4.3H11c-3.8,0-6.7,2.8-6.8,6.5l0,0v78.4c0,3.7,3,6.6,6.8,6.5l0,0h78c3.7,0.1,6.7-2.8,6.8-6.5l0,0V10.8
	C95.7,7.2,92.6,4.3,88.9,4.3L88.9,4.3z M32,80.9H18.1V39.7H32V80.9z M25,34L25,34c-4,0-7.2-3.2-7.2-7.1s3.3-7.1,7.2-7.1
	c4-0.4,7.5,2.3,8,6.3s-2.4,7.5-6.4,7.9C26.2,34,25.6,34,25,34z M81.8,80.9H67.9V58.8c0-5.5-1.9-9.1-7-9.1c-3.2,0-6,2-7.1,5
	c-0.4,1.1-0.5,2.2-0.5,3.4V81H39.6c0,0,0-37.4,0-41.2h13.8v5.8c2.5-4.4,7.3-7,12.5-6.8c9.3,0,15.9,5.9,15.9,18.6
	C81.8,57.4,81.8,80.9,81.8,80.9z"/>
<rect x="124.6" y="4.3" class="st0" width="100" height="47"/>
<rect x="124.6" y="57.3" class="st1" width="100" height="47"/>
</svg>
