<?xml version="1.0" encoding="utf-8"?>
<!-- Generator: Adobe Illustrator 27.5.0, SVG Export Plug-In . SVG Version: 6.00 Build 0)  -->
<svg version="1.1" id="Layer_1" xmlns="http://www.w3.org/2000/svg" xmlns:xlink="http://www.w3.org/1999/xlink" x="0px" y="0px"
	 viewBox="0 0 100 100" style="enable-background:new 0 0 100 100;" xml:space="preserve">
<style type="text/css">
	.st0{fill:#7B67D1;stroke:#484157;stroke-width:3;stroke-miterlimit:10;}
</style>
<path class="st0" d="M88.3,5H11.7C8,5,5.1,7.8,5,11.4l0,0v77.1c0,3.6,3,6.5,6.7,6.4l0,0h76.7c3.6,0.1,6.6-2.8,6.7-6.4l0,0V11.4
	C95,7.8,92,5,88.3,5L88.3,5z M32.3,80.3H18.7V39.8h13.6C32.3,39.8,32.3,80.3,32.3,80.3z M25.5,34.2L25.5,34.2c-3.9,0-7.1-3.1-7.1-7
	s3.2-7,7.1-7c3.9-0.4,7.4,2.3,7.9,6.2s-2.4,7.4-6.3,7.8C26.6,34.2,26,34.2,25.5,34.2z M81.3,80.3H67.7V58.6c0-5.4-1.9-9-6.9-9
	c-3.1,0-5.9,2-7,4.9c-0.4,1.1-0.5,2.2-0.5,3.3v22.5H39.8c0,0,0-36.8,0-40.5h13.6v5.7c2.5-4.3,7.2-6.9,12.3-6.7
	c9.1,0,15.6,5.8,15.6,18.3V80.3z"/>
</svg>
