<?xml version="1.0" encoding="utf-8"?>
<!-- Generator: Adobe Illustrator 27.5.0, SVG Export Plug-In . SVG Version: 6.00 Build 0)  -->
<svg version="1.1" id="Layer_1" xmlns="http://www.w3.org/2000/svg" xmlns:xlink="http://www.w3.org/1999/xlink" x="0px" y="0px"
	 viewBox="0 0 100 100" style="enable-background:new 0 0 100 100;" xml:space="preserve">
<style type="text/css">
	.st0{fill:#07BDB7;}
	.st1{fill:#484157;}
</style>
<g>
	<g>
		<path class="st0" d="M39.4,74.5V62.3l23.3-13.4V33.1l-24.3,14l-24.3-14V60l-9.6-5.6v-38L38.4,36l33.9-19.6v38L48,68.4l13.6,7.9
			l24.3-14V48.8l9.6-5.6v24.6L61.6,87.4L39.4,74.5z M85.9,22l9.6-5.6v11.1l-9.6,5.6V22z"/>
	</g>
	<g>
		<path class="st1" d="M94.5,18.1V27l-7.7,4.4v-8.8L94.5,18.1 M5.5,18.1l31.9,18.4l1,0.6l1-0.6l31.9-18.4v35.7L49,66.7l-3,1.7l3,1.7
			l11.6,6.7l1,0.6l1-0.6l23.3-13.4l1-0.6v-1.1V49.4l7.7-4.4v22.3l-32.9,19L40.4,74V62.8L62.6,50l1-0.6v-1.1V34.8v-3.4l-3,1.7
			L38.4,46L16.1,33.1l-3-1.7v3.4v23.4l-7.7-4.4V18.1 M96.5,14.7L96.5,14.7l-11.6,6.7v13.4l11.6-6.7V14.7L96.5,14.7z M73.3,14.7
			L38.4,34.8L3.5,14.7V55l11.6,6.7V34.8l23.3,13.4l23.3-13.4v13.4L38.4,61.7v13.4l23.3,13.4l34.9-20.1V41.5l-11.6,6.7v13.4
			L61.6,75.1L50,68.4L73.3,55V14.7L73.3,14.7z"/>
	</g>
</g>
</svg>
