<?xml version="1.0" encoding="utf-8"?>
<!-- Generator: Adobe Illustrator 27.5.0, SVG Export Plug-In . SVG Version: 6.00 Build 0)  -->
<svg version="1.1" id="Layer_1" xmlns="http://www.w3.org/2000/svg" xmlns:xlink="http://www.w3.org/1999/xlink" x="0px" y="0px"
	 viewBox="0 0 100 100" style="enable-background:new 0 0 100 100;" xml:space="preserve">
<g>
	<path d="M46.2,5.4c-0.2,0-0.8,0.1-1.4,0.1c-12.7,1.1-24.5,8-32,18.5c-4.2,5.8-6.9,12.5-7.9,19.5C4.6,46,4.5,46.7,4.5,50
		s0,4,0.4,6.5c2.4,16.7,14.3,30.8,30.5,36c2.9,0.9,5.9,1.6,9.4,2c1.4,0.1,7.2,0.1,8.5,0c6-0.7,11.1-2.1,16.1-4.7
		c0.8-0.4,0.9-0.5,0.8-0.6c-0.1-0.1-3.3-4.4-7.3-9.7l-7.1-9.6l-8.9-13.2c-4.9-7.3-9-13.2-9-13.2c0,0-0.1,5.9-0.1,13
		c0,12.6,0,13.1-0.2,13.4c-0.2,0.4-0.4,0.6-0.8,0.8c-0.3,0.1-0.5,0.2-1.8,0.2h-1.5l-0.4-0.3c-0.3-0.2-0.5-0.4-0.6-0.6l-0.2-0.4
		l0-17.5l0-17.5l0.3-0.3c0.1-0.2,0.4-0.4,0.6-0.5c0.4-0.2,0.5-0.2,2-0.2c1.8,0,2.1,0.1,2.5,0.6c0.1,0.1,5,7.4,10.8,16.2
		S62.3,71,66.2,76.9l7.1,10.7l0.4-0.2c3.2-2.1,6.5-5,9.2-8c5.6-6.5,9.3-14.4,10.5-22.8c0.4-2.4,0.4-3.2,0.4-6.5s0-4-0.4-6.5
		C90.9,26.8,79,12.7,62.8,7.5c-2.9-0.9-5.9-1.6-9.3-1.9C52.7,5.5,46.9,5.4,46.2,5.4L46.2,5.4z M64.4,32.4c0.4,0.2,0.8,0.6,0.9,1
		c0.1,0.2,0.1,5.1,0.1,16l0,15.7l-2.8-4.2l-2.8-4.2V45.2c0-7.4,0-11.5,0.1-11.7c0.1-0.5,0.4-0.9,0.9-1.1c0.4-0.2,0.5-0.2,1.9-0.2
		C63.9,32.2,64.1,32.2,64.4,32.4z"/>
</g>
</svg>
