<?xml version="1.0" encoding="utf-8"?>
<!-- Generator: Adobe Illustrator 27.5.0, SVG Export Plug-In . SVG Version: 6.00 Build 0)  -->
<svg version="1.1" id="Layer_1" xmlns="http://www.w3.org/2000/svg" xmlns:xlink="http://www.w3.org/1999/xlink" x="0px" y="0px"
	 viewBox="0 0 100 100" style="enable-background:new 0 0 100 100;" xml:space="preserve">
<style type="text/css">
	.st0{fill:#07BDB7;stroke:#484157;stroke-width:0.75;stroke-miterlimit:10;}
	.st1{fill:#07BDB7;stroke:#484157;stroke-miterlimit:10;}
	.st2{fill:#07BDB7;stroke:#484157;stroke-width:0.8813;stroke-miterlimit:10;}
	.st3{fill:#109189;}
	.st4{fill:#484157;}
	.st5{fill:#19A59C;}
	.st6{fill-rule:evenodd;clip-rule:evenodd;fill:#07BDB7;}
	.st7{fill-rule:evenodd;clip-rule:evenodd;fill:url(#SVGID_1_);}
</style>
<path class="st0" d="M49.5,80.6c-0.3,0-0.7-0.1-0.9-0.2l-3-1.8c-0.5-0.2-0.2-0.3-0.1-0.4c0.6-0.2,0.7-0.2,1.4-0.6c0.1,0,0.2,0,0.2,0
	l2.3,1.4c0.1,0,0.2,0,0.3,0l9-5.2c0.1,0,0.1-0.1,0.1-0.2V63.1c0-0.1,0-0.2-0.1-0.2l-9-5.2c-0.1,0-0.2,0-0.3,0l-9,5.2
	c-0.1,0-0.1,0.2-0.1,0.2v10.4c0,0.1,0,0.2,0.1,0.2l2.5,1.4c1.3,0.7,2.2-0.1,2.2-0.9V64c0-0.1,0.1-0.3,0.3-0.3h1.2
	c0.1,0,0.3,0.1,0.3,0.3v10.3c0,1.8-1,2.8-2.7,2.8c-0.5,0-0.9,0-2.1-0.6l-2.4-1.4c-0.6-0.3-0.9-1-0.9-1.7V63.1c0-0.7,0.4-1.3,0.9-1.7
	l9-5.2c0.6-0.3,1.3-0.3,1.9,0l9,5.2c0.6,0.3,0.9,1,0.9,1.7v10.4c0,0.7-0.4,1.3-0.9,1.7l-9,5.2C50.1,80.5,49.8,80.6,49.5,80.6
	L49.5,80.6z M52.2,73.5c-4,0-4.8-1.8-4.8-3.3c0-0.1,0.1-0.3,0.3-0.3h1.2c0.1,0,0.2,0.1,0.2,0.2c0.2,1.2,0.7,1.8,3.1,1.8
	c1.9,0,2.7-0.4,2.7-1.4c0-0.6-0.2-1-3.2-1.3c-2.5-0.2-4-0.8-4-2.8c0-1.8,1.5-2.9,4.1-2.9c2.9,0,4.3,1,4.5,3.2c0,0.1,0,0.1-0.1,0.2
	c0,0-0.1,0.1-0.2,0.1H55c-0.1,0-0.2-0.1-0.2-0.2c-0.3-1.2-1-1.7-2.8-1.7c-2.1,0-2.3,0.7-2.3,1.3c0,0.7,0.3,0.9,3.1,1.2
	c2.8,0.4,4.1,0.9,4.1,2.8C56.7,72.3,55.1,73.5,52.2,73.5z"/>
<path class="st1" d="M21.5,39.9c0-0.4-0.2-0.8-0.6-1l-9.6-5.5c-0.2-0.1-0.3-0.1-0.5-0.2h-0.1c-0.2,0-0.4,0.1-0.5,0.2l-9.6,5.5
	c-0.4,0.2-0.6,0.6-0.6,1l0,14.8c0,0.2,0.1,0.4,0.3,0.5c0.2,0.1,0.4,0.1,0.6,0l5.7-3.3c0.4-0.2,0.6-0.6,0.6-1V44c0-0.4,0.2-0.8,0.6-1
	l2.4-1.4c0.2-0.1,0.4-0.2,0.6-0.2c0.2,0,0.4,0,0.6,0.2l2.4,1.4c0.4,0.2,0.6,0.6,0.6,1v6.9c0,0.4,0.2,0.8,0.6,1l5.7,3.3
	c0.2,0.1,0.4,0.1,0.6,0c0.2-0.1,0.3-0.3,0.3-0.5L21.5,39.9L21.5,39.9z M67.5,19.5c-0.2-0.1-0.4-0.1-0.6,0c-0.2,0.1-0.3,0.3-0.3,0.5
	v14.7c0,0.1-0.1,0.3-0.2,0.4c-0.1,0.1-0.3,0.1-0.4,0l-2.4-1.4c-0.4-0.2-0.8-0.2-1.2,0l-9.6,5.5c-0.4,0.2-0.6,0.6-0.6,1v11.1
	c0,0.4,0.2,0.8,0.6,1l9.6,5.5c0.4,0.2,0.8,0.2,1.2,0l9.6-5.5c0.4-0.2,0.6-0.6,0.6-1V23.7c0-0.4-0.2-0.8-0.6-1L67.5,19.5L67.5,19.5z
	 M66.7,47.6c0,0.1,0,0.2-0.1,0.2l-3.3,1.9c-0.1,0-0.2,0-0.3,0l-3.3-1.9c-0.1,0-0.1-0.2-0.1-0.2v-3.8c0-0.1,0-0.2,0.1-0.2l3.3-1.9
	c0.1,0,0.2,0,0.3,0l3.3,1.9c0.1,0,0.1,0.2,0.1,0.2V47.6L66.7,47.6z M99.4,43.7c0.4-0.2,0.6-0.6,0.6-1V40c0-0.4-0.2-0.8-0.6-1
	l-9.5-5.5c-0.4-0.2-0.8-0.2-1.2,0L79.2,39c-0.4,0.2-0.6,0.6-0.6,1v11.1c0,0.4,0.2,0.8,0.6,1l9.5,5.4c0.4,0.2,0.8,0.2,1.1,0l5.8-3.2
	c0.2-0.1,0.3-0.3,0.3-0.5s-0.1-0.4-0.3-0.5L86,47.8c-0.2-0.1-0.3-0.3-0.3-0.5v-3.5c0-0.2,0.1-0.4,0.3-0.5l3-1.7
	c0.2-0.1,0.4-0.1,0.6,0l3,1.7c0.2,0.1,0.3,0.3,0.3,0.5v2.7c0,0.2,0.1,0.4,0.3,0.5c0.2,0.1,0.4,0.1,0.6,0L99.4,43.7L99.4,43.7z"/>
<path class="st2" d="M89.2,43.2c0.1,0,0.2,0,0.2,0l1.8,1.1c0.1,0,0.1,0.1,0.1,0.2v2.1c0,0.1,0,0.2-0.1,0.2l-1.8,1.1
	c-0.1,0-0.2,0-0.2,0l-1.8-1.1c-0.1,0-0.1-0.1-0.1-0.2v-2.1c0-0.1,0-0.2,0.1-0.2L89.2,43.2z"/>
<g>
	<g id="a_00000139274101427150121780000006386296658706758551_">
		<path class="st3" d="M36.9,58.1c-0.3,0-0.6-0.1-0.8-0.2l-9.5-5.5c-0.5-0.3-0.8-0.8-0.8-1.4V40c0-0.6,0.3-1.1,0.8-1.4l9.5-5.5
			c0.2-0.1,0.5-0.2,0.8-0.2c0.3,0,0.6,0.1,0.8,0.2l9.5,5.5c0.5,0.3,0.8,0.8,0.8,1.4v11c0,0.6-0.3,1.1-0.8,1.4l-9.5,5.5
			C37.5,58,37.2,58.1,36.9,58.1z"/>
		<path class="st4" d="M36.9,33.4c0.2,0,0.4,0.1,0.6,0.2L47,39c0.3,0.2,0.6,0.6,0.6,1v11c0,0.4-0.2,0.8-0.6,1l-9.5,5.5
			c-0.2,0.1-0.4,0.2-0.6,0.2s-0.4-0.1-0.6-0.2L26.8,52c-0.3-0.2-0.6-0.6-0.6-1V40c0-0.4,0.2-0.8,0.6-1l9.5-5.5
			C36.5,33.4,36.7,33.4,36.9,33.4 M36.9,32.5c-0.4,0-0.7,0.1-1,0.3l-9.5,5.5c-0.6,0.3-1,1-1,1.8v11c0,0.7,0.4,1.4,1,1.8l9.5,5.5
			c0.3,0.2,0.7,0.3,1,0.3c0.4,0,0.7-0.1,1-0.3l9.5-5.5c0.6-0.3,1-1,1-1.8V40c0-0.7-0.4-1.4-1-1.8l-9.5-5.5
			C37.6,32.6,37.3,32.5,36.9,32.5L36.9,32.5z"/>
	</g>
</g>
<path class="st5" d="M47.1,39l-9.6-5.5c-0.1,0-0.2-0.1-0.3-0.1L26.5,51.7c0.1,0.1,0.2,0.2,0.3,0.3l9.6,5.5c0.3,0.2,0.6,0.2,0.9,0.1
	l10.1-18.4C47.3,39.1,47.2,39.1,47.1,39L47.1,39z"/>
<path class="st6" d="M47,52c0.3-0.2,0.5-0.4,0.6-0.7L37.1,33.4c-0.3,0-0.6,0-0.8,0.1L26.8,39L37,57.7c0.1,0,0.3-0.1,0.4-0.1L47,52
	L47,52z"/>
<linearGradient id="SVGID_1_" gradientUnits="userSpaceOnUse" x1="-1062.0361" y1="653.2694" x2="-1058.1335" y2="653.2694" gradientTransform="matrix(1.6941 0 0 -3.9497 1828.0406 2650.2322)">
	<stop  offset="9.192000e-02" style="stop-color:#6CC04A"/>
	<stop  offset="0.2864" style="stop-color:#66B848"/>
	<stop  offset="0.5968" style="stop-color:#54A044"/>
	<stop  offset="0.8624" style="stop-color:#41873F"/>
</linearGradient>
<path class="st7" d="M35.5,70.1L35.4,70L35.5,70.1L35.5,70.1L35.5,70.1z"/>
</svg>
