<?xml version="1.0" encoding="utf-8"?>
<!-- Generator: Adobe Illustrator 27.5.0, SVG Export Plug-In . SVG Version: 6.00 Build 0)  -->
<svg version="1.1" id="Layer_1" xmlns="http://www.w3.org/2000/svg" xmlns:xlink="http://www.w3.org/1999/xlink" x="0px" y="0px"
	 viewBox="0 0 2500 1533" style="enable-background:new 0 0 2500 1533;" xml:space="preserve">
<style type="text/css">
	.st0{fill:#07BDB7;stroke:#484157;stroke-width:22;stroke-miterlimit:10;}
	.st1{fill:#109189;}
	.st2{fill:#484157;}
	.st3{fill:none;}
	.st4{fill:#19A59C;}
	.st5{fill-rule:evenodd;clip-rule:evenodd;fill:url(#SVGID_1_);}
	.st6{fill-rule:evenodd;clip-rule:evenodd;fill:#07BDB7;}
	.st7{fill-rule:evenodd;clip-rule:evenodd;fill:url(#SVGID_00000135650107554715049870000016854506976078481593_);}
</style>
<path class="st0" d="M1235.9,1528.6c-8.5,0-16.4-2.3-23.7-6.2l-75-44.6c-11.3-6.2-5.6-8.5-2.3-9.6c15.2-5.1,18.1-6.2,33.9-15.2
	c1.7-1.1,4-0.6,5.6,0.6l57.6,34.4c2.3,1.1,5.1,1.1,6.8,0l225.1-130.3c2.3-1.1,3.4-3.4,3.4-6.2v-260.1c0-2.8-1.1-5.1-3.4-6.2
	l-225.1-129.8c-2.3-1.1-5.1-1.1-6.8,0l-225.1,129.8c-2.3,1.1-3.4,3.9-3.4,6.2v260.1c0,2.3,1.1,5.1,3.4,6.2l61.5,35.5
	c33.3,16.9,54.2-2.8,54.2-22.6v-256.7c0-3.4,2.8-6.8,6.8-6.8h28.8c3.4,0,6.8,2.8,6.8,6.8v256.7c0,44.6-24.3,70.5-66.6,70.5
	c-13,0-23.1,0-51.9-14.1l-59.2-33.9c-14.7-8.5-23.7-24.3-23.7-41.2v-260.1c0-16.9,9-32.7,23.7-41.2l225.1-130.3
	c14.1-7.9,33.3-7.9,47.4,0l225.1,130.3c14.7,8.5,23.7,24.3,23.7,41.2V1352c0,16.9-9,32.7-23.7,41.2l-225.1,130.3
	C1252.3,1526.9,1243.8,1528.6,1235.9,1528.6L1235.9,1528.6z M1305.3,1349.7c-98.7,0-119.1-45.1-119.1-83.5c0-3.4,2.8-6.8,6.8-6.8
	h29.3c3.4,0,6.2,2.3,6.2,5.6c4.5,29.9,17.5,44.6,77.3,44.6c47.4,0,67.7-10.7,67.7-36.1c0-14.7-5.6-25.4-79.6-32.7
	c-61.5-6.2-99.9-19.7-99.9-68.8c0-45.7,38.4-72.8,102.7-72.8c72.2,0,107.8,24.8,112.3,79c0,1.7-0.6,3.4-1.7,5.1
	c-1.1,1.1-2.8,2.3-4.5,2.3h-29.3c-2.8,0-5.6-2.3-6.2-5.1c-6.8-31-24.3-41.2-70.5-41.2c-51.9,0-58.1,18.1-58.1,31.6
	c0,16.4,7.3,21.4,77.3,30.5c69.4,9,102.1,22,102.1,70.5C1417.6,1321.5,1377,1349.7,1305.3,1349.7z"/>
<path class="st0" d="M537.3,511.2c0-10.2-5.6-19.8-14.7-24.8L283.4,348.7c-4-2.3-8.5-3.4-13-4h-2.3c-4.5,0-9,1.7-13,4L16,486.4
	c-9,5.1-14.7,14.7-14.7,24.8l0.6,370.2c0,5.1,2.8,10.2,7.3,12.4c4.5,2.8,10.2,2.8,14.1,0l142.2-81.3c9-5.1,14.7-14.7,14.7-24.8
	V614.5c0-10.2,5.6-19.7,14.7-24.8l60.4-35c4.5-2.8,9.6-4,14.7-4s10.2,1.1,14.1,4l60.4,35c9,5.1,14.7,14.7,14.7,24.8v173.2
	c0,10.2,5.6,19.7,14.7,24.8l142.2,81.3c4.5,2.8,10.2,2.8,14.7,0c4.5-2.3,7.3-7.3,7.3-12.4L537.3,511.2L537.3,511.2z M1687.3,1.7
	c-4.5-2.3-10.2-2.3-14.1,0c-4.5,2.8-7.3,7.3-7.3,12.4v366.8c0,3.4-1.7,6.8-5.1,9c-3.4,1.7-6.8,1.7-10.2,0l-59.8-34.4
	c-8.9-5.1-19.9-5.1-28.8,0l-239.2,138.2c-9,5.1-14.7,14.7-14.7,24.8v275.9c0,10.2,5.6,19.8,14.7,24.8L1562,957.5
	c8.9,5.1,19.9,5.1,28.8,0l239.2-138.2c9-5.1,14.7-14.7,14.7-24.8V106.6c0-10.7-5.6-20.3-14.7-25.4L1687.3,1.7L1687.3,1.7z
	 M1665.3,703.6c0,2.8-1.1,5.1-3.4,6.2l-81.8,47.4c-2.3,1.1-5,1.1-7.3,0l-81.8-47.4c-2.3-1.1-3.4-3.9-3.4-6.2v-94.8
	c0-2.8,1.1-5.1,3.4-6.2l81.8-47.4c2.3-1.1,5-1.1,7.3,0l81.8,47.4c2.3,1.1,3.4,3.9,3.4,6.2V703.6L1665.3,703.6z M2483.5,606.6
	c9-5.1,14.1-14.7,14.1-24.8v-67.1c0-10.2-5.6-19.7-14.1-24.8l-237.6-137.7c-8.9-5.1-19.9-5.1-28.8,0l-239.2,138.2
	c-9,5.1-14.7,14.7-14.7,24.8v275.9c0,10.2,5.6,19.7,14.7,24.8l237.6,135.4c9,5.1,19.7,5.1,28.2,0l143.9-80.1
	c4.5-2.3,7.3-7.3,7.3-12.4c0-5.1-2.8-10.2-7.3-12.4l-240.4-138.2c-4.5-2.8-7.3-7.3-7.3-12.4v-86.3c0-5.1,2.8-10.2,7.3-12.4l75-42.9
	c4.5-2.8,10.2-2.8,14.7,0l75,42.9c4.5,2.8,7.3,7.3,7.3,12.4v67.7c0,5.1,2.8,10.2,7.3,12.4c4.5,2.8,10.2,2.8,14.7,0L2483.5,606.6
	L2483.5,606.6z"/>
<path class="st0" d="M2227.9,593.6c1.7-1.1,3.9-1.1,5.6,0l45.7,26.5c1.7,1.1,2.8,2.8,2.8,5.1v53c0,2.3-1.1,3.9-2.8,5.1l-45.7,26.5
	c-1.7,1.1-3.9,1.1-5.6,0l-45.7-26.5c-1.7-1.1-2.8-2.8-2.8-5.1v-53c0-2.3,1.1-4,2.8-5.1L2227.9,593.6z"/>
<g>
	<g id="a_00000139274101427150121780000006386296658706758551_">
		<path class="st1" d="M923,966.7c-6.9,0-13.8-1.8-19.8-5.2L665.4,824.2c-12-7.2-19.5-20.3-19.5-34.3V515.2
			c0-14.4,7.5-27.5,19.7-34.4l237.5-137.1c6.1-3.5,12.9-5.3,19.9-5.3c6.9,0,13.8,1.8,19.8,5.2l237.8,137.2
			c12,7.2,19.4,20.3,19.4,34.3V790c0,14.4-7.5,27.5-19.7,34.4L942.9,961.4C936.8,964.9,930,966.7,923,966.7z"/>
		<path class="st2" d="M923,349.4c5,0,9.9,1.3,14.4,3.8L1175,490.3c8.5,5.1,14.1,14.7,14.1,24.8V790c0,10.2-5.1,19.7-14.1,24.8
			L937.4,951.9c-4.5,2.5-9.4,3.8-14.4,3.8s-9.9-1.3-14.4-3.8L671.1,814.8c-8.5-5.1-14.1-14.7-14.1-24.8V515.2
			c0-10.2,5.1-19.7,14.1-24.8l237.6-137.1C913.1,350.7,918,349.4,923,349.4 M923,327.4c-8.8,0-17.6,2.3-25.3,6.7l-0.1,0l-0.1,0
			L660.2,471.2c-15.6,8.8-25.2,25.6-25.2,43.9V790c0,17.8,9.5,34.5,24.8,43.7l0.2,0.1l0.2,0.1L897.6,971l0.1,0l0.1,0
			c7.7,4.4,16.4,6.7,25.3,6.7s17.6-2.3,25.3-6.7l0.1,0l0.1,0l237.5-137.1c15.6-8.8,25.2-25.6,25.2-43.9V515.2
			c0-17.8-9.5-34.5-24.8-43.7l-0.2-0.1l-0.2-0.1L948.4,334.2l-0.1,0l-0.1,0C940.6,329.7,931.9,327.4,923,327.4L923,327.4z"/>
	</g>
</g>
<path class="st3" d="M523.2,843.8L285.1,980.9c-9,5.1-15.2,14.7-15.2,24.8v274.8c0,6.8,2.8,13,7.3,18.1l267.5-458.2
	C537.9,839.3,530,839.8,523.2,843.8L523.2,843.8z M546.4,1445.3c2.3-0.6,4.5-1.7,6.8-2.8l238.1-137.1c9-5.1,14.7-14.7,14.7-24.8
	v-274.8c0-7.3-3.4-14.7-8.5-19.7L546.4,1445.3L546.4,1445.3z"/>
<path class="st4" d="M1176.6,489.5L938,352.4c-2.3-1.2-4.8-2.1-7.3-2.8L663.2,807.7c2.2,2.7,4.9,5,7.9,6.8l238.7,137.1
	c6.8,3.9,14.7,5.1,22,2.8l251.1-459.3C1181.2,492.9,1178.9,491.2,1176.6,489.5L1176.6,489.5z"/>
<path class="st3" d="M880,1245V970.2c0-10.2-6.2-19.7-15.2-24.8L626,808.3c-2.8-1.7-5.8-2.9-9-3.4l261.2,446.3
	C879.4,1249.6,879.9,1247.3,880,1245L880,1245z M359.1,945.4c-9,5.1-15.2,14.7-15.2,24.8V1245c0,10.2,6.8,19.7,15.2,24.8L597.8,1407
	c5.6,3.4,11.8,4.5,18.6,3.4L360.8,944.8L359.1,945.4L359.1,945.4z"/>
<linearGradient id="SVGID_1_" gradientUnits="userSpaceOnUse" x1="112.6801" y1="1171.8724" x2="210.0971" y2="1171.8724" gradientTransform="matrix(4.5111 0 0 -1.6941 -120.8831 2744.2104)">
	<stop  offset="9.192000e-02" style="stop-color:#6CC04A"/>
	<stop  offset="0.2864" style="stop-color:#66B848"/>
	<stop  offset="0.5968" style="stop-color:#54A044"/>
	<stop  offset="0.8624" style="stop-color:#41873F"/>
</linearGradient>
<path class="st5" d="M589.9,758.1l-3.4,1.7h4.5L589.9,758.1z"/>
<path class="st6" d="M1175,814.8c6.8-3.9,11.8-10.7,14.1-18.1L927.2,349.8c-6.8-1.1-14.1-0.6-20.3,3.4l-237,136.6l255.6,466.1
	c3.7-0.6,7.3-1.7,10.7-3.4L1175,814.8L1175,814.8z"/>
<linearGradient id="SVGID_00000055695983166921527260000010323481543439615629_" gradientUnits="userSpaceOnUse" x1="-161.7782" y1="1248.7548" x2="-64.3612" y2="1248.7548" gradientTransform="matrix(1.6941 0 0 -3.9497 995.1062 6196.6655)">
	<stop  offset="9.192000e-02" style="stop-color:#6CC04A"/>
	<stop  offset="0.2864" style="stop-color:#66B848"/>
	<stop  offset="0.5968" style="stop-color:#54A044"/>
	<stop  offset="0.8624" style="stop-color:#41873F"/>
</linearGradient>
<path style="fill-rule:evenodd;clip-rule:evenodd;fill:url(#SVGID_00000055695983166921527260000010323481543439615629_);" d="
	M887.3,1265.4l-1.7-2.8v3.9L887.3,1265.4L887.3,1265.4z"/>
</svg>
