<?xml version="1.0" encoding="utf-8"?>
<!-- Generator: Adobe Illustrator 27.5.0, SVG Export Plug-In . SVG Version: 6.00 Build 0)  -->
<svg version="1.1" id="Layer_1" xmlns="http://www.w3.org/2000/svg" xmlns:xlink="http://www.w3.org/1999/xlink" x="0px" y="0px"
	 viewBox="0 0 100 100" style="enable-background:new 0 0 100 100;" xml:space="preserve">
<style type="text/css">
	.st0{fill:#D1D3D4;}
	.st1{fill:#404242;}
</style>
<g>
	<circle class="st0" cx="50" cy="50.7" r="9.1"/>
	<path class="st0" d="M84.5,35.7c-1.8-0.6-3.6-1.3-5.5-1.8c0.5-1.9,0.8-3.8,1.2-5.7c1.7-10.5-0.2-18-5.3-20.8
		c-1.5-0.8-3.2-1.3-5.2-1.3c-5.5,0-12.6,4.1-19.8,11.1C42.8,10.3,35.7,6.2,30.1,6.2c-1.9,0-3.6,0.4-5.2,1.3
		c-5.2,2.9-6.9,10.4-5.3,20.8c0.3,1.8,0.7,3.8,1.2,5.7c-1.9,0.5-3.8,1.2-5.5,1.8C5.5,39.5,0,44.8,0,50.7s5.5,11.2,15.4,15.1
		c1.8,0.6,3.6,1.3,5.5,1.8c-0.5,1.9-0.8,3.8-1.2,5.7c-1.7,10.5,0.2,18,5.3,20.8c1.5,0.8,3.2,1.3,5.2,1.3c5.7,0,12.7-4.1,19.9-11.1
		c7.2,6.9,14.3,11.1,19.9,11.1c1.9,0,3.6-0.4,5.2-1.3c5.2-2.9,6.9-10.4,5.3-20.8c-0.3-1.8-0.7-3.8-1.2-5.7c1.9-0.5,3.8-1.2,5.5-1.8
		c10-3.8,15.4-9.1,15.4-15.1S94.5,39.5,84.5,35.7z M72.7,11.4c3.3,1.9,4.4,7.8,3.1,16.2c-0.2,1.7-0.6,3.5-1.2,5.3
		c-4.1-0.9-8.5-1.6-13.2-2c-2.7-3.8-5.5-7.3-8.3-10.4c5.9-5.8,11.9-9.8,16.7-9.8C70.9,10.7,71.9,10.9,72.7,11.4z M63.8,58.7
		c-1.5,2.5-3.2,5.2-4.8,7.7c-2.9,0.2-5.9,0.3-8.9,0.3c-3.2,0-6.1-0.1-8.9-0.3c-1.8-2.5-3.4-5.2-4.7-7.7c-1.5-2.6-2.9-5.4-4.2-8
		c1.3-2.6,2.7-5.4,4.2-8c1.5-2.5,3.2-5.2,4.8-7.7c2.9-0.2,5.9-0.3,8.9-0.3c3.2,0,6.1,0.1,8.9,0.3c1.8,2.5,3.4,5.2,4.7,7.7
		c1.5,2.6,2.9,5.4,4.2,8C66.6,53.3,65.4,56.1,63.8,58.7z M70.4,56.1c1.2,2.8,2.1,5.5,3.1,8.2c-2.7,0.6-5.6,1.2-8.6,1.5
		c0.9-1.5,2-3.2,2.8-4.7C68.6,59.3,69.6,57.6,70.4,56.1z M50,77.7c-1.9-2.1-3.8-4.3-5.5-6.6c1.8,0.1,3.7,0.2,5.5,0.2
		s3.7-0.1,5.5-0.2C53.8,73.4,51.9,75.6,50,77.7z M35.2,65.7c-3.1-0.4-5.9-0.8-8.6-1.5c0.8-2.6,1.8-5.5,3.1-8.2
		c0.8,1.6,1.8,3.3,2.7,4.8C33.3,62.6,34.2,64.2,35.2,65.7z M29.6,45.4c-1.2-2.8-2.1-5.5-3.1-8.2c2.7-0.6,5.6-1.2,8.6-1.5
		c-0.9,1.5-2,3.2-2.8,4.7C31.4,42.2,30.4,43.8,29.6,45.4z M50,23.7c1.9,2.1,3.8,4.3,5.5,6.6c-1.8-0.1-3.7-0.2-5.5-0.2
		s-3.7,0.1-5.5,0.2C46.2,28.1,48.1,25.8,50,23.7z M67.7,40.5l-2.8-4.7c3.1,0.4,5.9,0.8,8.6,1.5c-0.8,2.6-1.8,5.5-3.1,8.2
		C69.6,43.8,68.6,42.2,67.7,40.5z M24.2,27.6c-1.4-8.4-0.2-14.3,3.1-16.2c0.8-0.5,1.8-0.7,2.8-0.7c4.7,0,10.7,3.9,16.7,9.8
		c-2.8,3.1-5.6,6.5-8.3,10.4c-4.6,0.4-9.1,1.2-13.2,2C24.8,31,24.5,29.3,24.2,27.6z M4.5,50.7c0-3.8,4.5-7.8,12.5-10.7
		c1.6-0.6,3.4-1.2,5.2-1.7c1.3,4,2.8,8.2,4.7,12.4c-1.9,4.2-3.6,8.4-4.7,12.3C11.2,59.9,4.5,55.2,4.5,50.7z M27.3,90.1
		c-3.3-1.9-4.4-7.8-3.1-16.2c0.2-1.7,0.6-3.5,1.2-5.3c4.1,0.9,8.5,1.6,13.2,2c2.7,3.8,5.5,7.3,8.3,10.4c-5.9,5.8-11.9,9.8-16.7,9.8
		C29.1,90.8,28.1,90.6,27.3,90.1z M75.8,73.8c1.4,8.4,0.2,14.3-3.1,16.2c-0.8,0.5-1.8,0.7-2.8,0.7c-4.7,0-10.7-3.9-16.7-9.8
		c2.8-3.1,5.6-6.5,8.3-10.4c4.6-0.4,9.1-1.2,13.2-2C75.2,70.5,75.5,72.2,75.8,73.8z M82.9,61.4c-1.6,0.6-3.4,1.2-5.2,1.7
		c-1.3-4-2.8-8.2-4.7-12.4c1.9-4.2,3.6-8.4,4.7-12.3c11.1,3.2,17.7,8,17.7,12.4C95.5,54.5,90.8,58.5,82.9,61.4z"/>
</g>
<rect x="110.6" y="4.2" class="st1" width="100" height="47"/>
<rect x="110.6" y="57.2" class="st0" width="100" height="47"/>
</svg>
