<?xml version="1.0" encoding="utf-8"?>
<!-- Generator: Adobe Illustrator 27.5.0, SVG Export Plug-In . SVG Version: 6.00 Build 0)  -->
<svg version="1.1" id="Layer_1" xmlns="http://www.w3.org/2000/svg" xmlns:xlink="http://www.w3.org/1999/xlink" x="0px" y="0px"
	 viewBox="0 0 100 100" style="enable-background:new 0 0 100 100;" xml:space="preserve">
<style type="text/css">
	.st0{fill:#07BDB7;stroke:#484157;stroke-width:2;stroke-miterlimit:10;}
</style>
<g>
	<circle class="st0" cx="50" cy="51.8" r="8.6"/>
	<path class="st0" d="M82.8,37.6c-1.7-0.6-3.4-1.2-5.2-1.7c0.5-1.8,0.8-3.6,1.1-5.4c1.6-10-0.2-17.1-5-19.8c-1.4-0.8-3-1.2-4.9-1.2
		C63.6,9.5,56.8,13.4,50,20C43.2,13.4,36.4,9.5,31.1,9.5c-1.8,0-3.4,0.4-4.9,1.2c-4.9,2.8-6.6,9.9-5,19.8c0.3,1.7,0.7,3.6,1.1,5.4
		c-1.8,0.5-3.6,1.1-5.2,1.7C7.7,41.2,2.5,46.2,2.5,51.8s5.2,10.6,14.6,14.3c1.7,0.6,3.4,1.2,5.2,1.7c-0.5,1.8-0.8,3.6-1.1,5.4
		c-1.6,10,0.2,17.1,5,19.8c1.4,0.8,3,1.2,4.9,1.2c5.4,0,12.1-3.9,18.9-10.5c6.8,6.6,13.6,10.5,18.9,10.5c1.8,0,3.4-0.4,4.9-1.2
		c4.9-2.8,6.6-9.9,5-19.8c-0.3-1.7-0.7-3.6-1.1-5.4c1.8-0.5,3.6-1.1,5.2-1.7c9.5-3.6,14.6-8.6,14.6-14.3S92.3,41.2,82.8,37.6z
		 M71.6,14.5c3.1,1.8,4.2,7.4,2.9,15.4c-0.2,1.6-0.6,3.3-1.1,5c-3.9-0.9-8.1-1.5-12.5-1.9c-2.6-3.6-5.2-6.9-7.9-9.9
		c5.6-5.5,11.3-9.3,15.9-9.3C69.9,13.8,70.8,14,71.6,14.5z M63.1,59.4c-1.4,2.4-3,4.9-4.6,7.3C55.7,66.9,52.9,67,50,67
		c-3,0-5.8-0.1-8.5-0.3c-1.7-2.4-3.2-4.9-4.5-7.3c-1.4-2.5-2.8-5.1-4-7.6c1.2-2.5,2.6-5.1,4-7.6c1.4-2.4,3-4.9,4.6-7.3
		c2.8-0.2,5.6-0.3,8.5-0.3c3,0,5.8,0.1,8.5,0.3c1.7,2.4,3.2,4.9,4.5,7.3c1.4,2.5,2.8,5.1,4,7.6C65.8,54.3,64.6,56.9,63.1,59.4z
		 M69.4,56.9c1.1,2.7,2,5.2,2.9,7.8c-2.6,0.6-5.3,1.1-8.2,1.4c0.9-1.4,1.9-3,2.7-4.5C67.7,60,68.6,58.4,69.4,56.9z M50,77.5
		c-1.8-2-3.6-4.1-5.2-6.3c1.7,0.1,3.5,0.2,5.2,0.2s3.5-0.1,5.2-0.2C53.6,73.4,51.8,75.5,50,77.5z M35.9,66.1
		c-2.9-0.4-5.6-0.8-8.2-1.4c0.8-2.5,1.7-5.2,2.9-7.8c0.8,1.5,1.7,3.1,2.6,4.6C34.1,63.1,35,64.6,35.9,66.1z M30.6,46.8
		c-1.1-2.7-2-5.2-2.9-7.8c2.6-0.6,5.3-1.1,8.2-1.4c-0.9,1.4-1.9,3-2.7,4.5C32.3,43.7,31.4,45.3,30.6,46.8z M50,26.2
		c1.8,2,3.6,4.1,5.2,6.3c-1.7-0.1-3.5-0.2-5.2-0.2c-1.7,0-3.5,0.1-5.2,0.2C46.4,30.3,48.2,28.2,50,26.2z M66.8,42.1l-2.7-4.5
		c2.9,0.4,5.6,0.8,8.2,1.4c-0.8,2.5-1.7,5.2-2.9,7.8C68.6,45.3,67.7,43.7,66.8,42.1z M25.5,29.9c-1.3-8-0.2-13.6,2.9-15.4
		c0.8-0.5,1.7-0.7,2.7-0.7c4.5,0,10.2,3.7,15.9,9.3c-2.7,2.9-5.3,6.2-7.9,9.9c-4.4,0.4-8.6,1.1-12.5,1.9
		C26.1,33.1,25.8,31.5,25.5,29.9z M6.8,51.8c0-3.6,4.3-7.4,11.9-10.2c1.5-0.6,3.2-1.1,4.9-1.6c1.2,3.8,2.7,7.8,4.5,11.8
		c-1.8,4-3.4,8-4.5,11.7C13.1,60.6,6.8,56.1,6.8,51.8z M28.4,89.2c-3.1-1.8-4.2-7.4-2.9-15.4c0.2-1.6,0.6-3.3,1.1-5
		c3.9,0.9,8.1,1.5,12.5,1.9c2.6,3.6,5.2,6.9,7.9,9.9c-5.6,5.5-11.3,9.3-15.9,9.3C30.1,89.9,29.2,89.7,28.4,89.2z M74.5,73.8
		c1.3,8,0.2,13.6-2.9,15.4c-0.8,0.5-1.7,0.7-2.7,0.7c-4.5,0-10.2-3.7-15.9-9.3c2.7-2.9,5.3-6.2,7.9-9.9c4.4-0.4,8.6-1.1,12.5-1.9
		C73.9,70.6,74.2,72.2,74.5,73.8z M81.3,62c-1.5,0.6-3.2,1.1-4.9,1.6c-1.2-3.8-2.7-7.8-4.5-11.8c1.8-4,3.4-8,4.5-11.7
		c10.5,3,16.8,7.6,16.8,11.8C93.2,55.4,88.8,59.2,81.3,62z"/>
</g>
</svg>
