<?xml version="1.0" encoding="utf-8"?>
<!-- Generator: Adobe Illustrator 27.5.0, SVG Export Plug-In . SVG Version: 6.00 Build 0)  -->
<svg version="1.1" xmlns="http://www.w3.org/2000/svg" xmlns:xlink="http://www.w3.org/1999/xlink" x="0px" y="0px"
	 viewBox="0 0 402.6 802.2" style="enable-background:new 0 0 402.6 802.2;" xml:space="preserve">
<style type="text/css">
	.st0{opacity:0.4;fill:#FFFFFF;}
	.st1{opacity:0.15;fill:#FFFFFF;}
	.st2{fill:none;stroke:#797774;stroke-width:3;stroke-linecap:round;stroke-miterlimit:10;}
	.st3{fill:none;stroke:#777774;stroke-width:7;stroke-linecap:round;stroke-miterlimit:10;}
	.st4{fill:none;}
	.st5{fill:#FFFC3F;stroke:#5E5D5A;stroke-width:3;stroke-linecap:round;stroke-miterlimit:10;}
	.st6{display:none;}
	.st7{display:inline;fill:none;}
	.st8{display:inline;fill:#07BDB7;}
	.st9{font-family:'ArialMT';}
	.st10{font-size:20px;}
	.st11{font-family:'Raleway';}
	.st12{font-family:'Raleway';}
	.st13{font-size:18px;}
</style>
<g id="Layer_3">
	<path class="st0" d="M374.1,181.8H249.9c-4.4,0-8-3.6-8-8V83c0-4.4,3.6-8,8-8h124.2c4.4,0,8,3.6,8,8v90.7
		C382.1,178.2,378.6,181.8,374.1,181.8z"/>
	<path class="st0" d="M374.2,308.9H250c-4.4,0-8-3.6-8-8v-90.7c0-4.4,3.6-8,8-8h124.2c4.4,0,8,3.6,8,8v90.7
		C382.2,305.3,378.7,308.9,374.2,308.9z"/>
	<path class="st0" d="M374.2,444.2H250c-4.4,0-8-3.6-8-8v-90.7c0-4.4,3.6-8,8-8h124.2c4.4,0,8,3.6,8,8v90.7
		C382.2,440.6,378.7,444.2,374.2,444.2z"/>
	<path class="st1" d="M374,572.1H249.8c-4.4,0-8-3.6-8-8v-90.7c0-4.4,3.6-8,8-8H374c4.4,0,8,3.6,8,8v90.7
		C382,568.5,378.5,572.1,374,572.1z"/>
	<path class="st0" d="M374.2,695.8H250c-4.4,0-8-3.6-8-8v-90.7c0-4.4,3.6-8,8-8h124.2c4.4,0,8,3.6,8,8v90.7
		C382.2,692.2,378.7,695.8,374.2,695.8z"/>
	<path class="st0" d="M145.6,761.8H21.4c-4.4,0-8-3.6-8-8V663c0-4.4,3.6-8,8-8h124.2c4.4,0,8,3.6,8,8v90.7
		C153.6,758.1,150.1,761.8,145.6,761.8z"/>
	<path class="st0" d="M146.3,633.3H22.1c-4.4,0-8-3.6-8-8v-90.7c0-4.4,3.6-8,8-8h124.2c4.4,0,8,3.6,8,8v90.7
		C154.3,629.7,150.8,633.3,146.3,633.3z"/>
	<path class="st0" d="M146.3,504.9H22.1c-4.4,0-8-3.6-8-8v-90.7c0-4.4,3.6-8,8-8h124.2c4.4,0,8,3.6,8,8v90.7
		C154.3,501.2,150.8,504.9,146.3,504.9z"/>
	<path class="st0" d="M147.6,374.9H23.4c-4.4,0-8-3.6-8-8v-90.7c0-4.4,3.6-8,8-8h124.2c4.4,0,8,3.6,8,8v90.7
		C155.6,371.3,152.1,374.9,147.6,374.9z"/>
	<path class="st0" d="M147.6,248.5H23.4c-4.4,0-8-3.6-8-8v-90.7c0-4.4,3.6-8,8-8h124.2c4.4,0,8,3.6,8,8v90.7
		C155.6,244.9,152.1,248.5,147.6,248.5z"/>
</g>
<g id="Layer_2">
	<path class="st2" d="M374,181.8H249.8c-4.4,0-8-3.6-8-8V83c0-4.4,3.6-8,8-8H374c4.4,0,8,3.6,8,8v90.7
		C382,178.2,378.5,181.8,374,181.8z"/>
	<path class="st2" d="M146.3,375.9H22.1c-4.4,0-8-3.6-8-8v-90.7c0-4.4,3.6-8,8-8h124.2c4.4,0,8,3.6,8,8v90.7
		C154.3,372.2,150.7,375.9,146.3,375.9z"/>
	<path class="st2" d="M146.3,248.2H22.1c-4.4,0-8-3.6-8-8v-90.7c0-4.4,3.6-8,8-8h124.2c4.4,0,8,3.6,8,8v90.7
		C154.3,244.6,150.7,248.2,146.3,248.2z"/>
	<path class="st2" d="M374,695.3H249.8c-4.4,0-8-3.6-8-8v-90.7c0-4.4,3.6-8,8-8H374c4.4,0,8,3.6,8,8v90.7
		C382,691.7,378.5,695.3,374,695.3z"/>
	<path class="st2" d="M374,308.9H249.8c-4.4,0-8-3.6-8-8v-90.7c0-4.4,3.6-8,8-8H374c4.4,0,8,3.6,8,8v90.7
		C382,305.3,378.5,308.9,374,308.9z"/>
	<path class="st2" d="M146.3,504.9H22.1c-4.4,0-8-3.6-8-8v-90.7c0-4.4,3.6-8,8-8h124.2c4.4,0,8,3.6,8,8v90.7
		C154.3,501.2,150.7,504.9,146.3,504.9z"/>
	<path class="st2" d="M374,444.2H249.8c-4.4,0-8-3.6-8-8v-90.7c0-4.4,3.6-8,8-8H374c4.4,0,8,3.6,8,8v90.7
		C382,440.8,378.5,444.2,374,444.2z"/>
	<path class="st2" d="M146.3,633.3H22.1c-4.4,0-8-3.6-8-8v-90.7c0-4.4,3.6-8,8-8h124.2c4.4,0,8,3.6,8,8v90.7
		C154.3,629.8,150.7,633.3,146.3,633.3z"/>
	<path class="st2" d="M374,572.2H249.8c-4.4,0-8-3.6-8-8v-90.7c0-4.4,3.6-8,8-8H374c4.4,0,8,3.6,8,8v90.7
		C382,568.6,378.5,572.2,374,572.2z"/>
	<path class="st2" d="M146.4,762.8H22.1c-4.4,0-8-3.6-8-8v-90.7c0-4.4,3.6-8,8-8h124.2c4.4,0,8,3.6,8,8v90.7
		C154.4,759.2,150.8,762.8,146.4,762.8z"/>
</g>
<g id="Layer_1">
	<g id="Vertical_Line">
		<path class="st3" d="M197,739.3c0,0,0-480.7,0-640.9"/>
	</g>
	<line class="st2" x1="197.7" y1="128.3" x2="239.4" y2="127.9"/>
	<line class="st2" x1="156.9" y1="195.1" x2="191.3" y2="194.9"/>
	<line class="st2" x1="198.2" y1="258.8" x2="239.1" y2="258.5"/>
	<line class="st2" x1="156.9" y1="322.5" x2="191.3" y2="322.3"/>
	<line class="st2" x1="197.5" y1="390.9" x2="239.5" y2="390.9"/>
	<line class="st2" x1="156.9" y1="451.5" x2="198" y2="451.5"/>
	<line class="st2" x1="194.6" y1="518.8" x2="239.3" y2="518.8"/>
	<line class="st2" x1="156.8" y1="581.8" x2="196.5" y2="581.8"/>
	<line class="st2" x1="198.6" y1="646.7" x2="239.6" y2="646.1"/>
	<line class="st2" x1="156.8" y1="710.1" x2="193.8" y2="709.5"/>
	<line class="st4" x1="47" y1="196.4" x2="47" y2="196.4"/>
	<g id="Circles">
		<circle class="st5" cx="197" cy="128.4" r="7.2"/>
		<circle class="st5" cx="197" cy="195" r="7.2"/>
		<circle class="st5" cx="197" cy="258.8" r="7.2"/>
		<circle class="st5" cx="197" cy="322.3" r="7.2"/>
		<circle class="st5" cx="197" cy="390.9" r="7.2"/>
		<circle class="st5" cx="197" cy="451.5" r="7.2"/>
		<circle class="st5" cx="197" cy="518.8" r="7.2"/>
		<circle class="st5" cx="197" cy="581.8" r="7.2"/>
		<circle class="st5" cx="197" cy="646.7" r="7.2"/>
		<circle class="st5" cx="197" cy="709.4" r="7.2"/>
	</g>
	<g class="st6">
		<rect x="59.9" y="147.7" class="st7" width="38" height="17.5"/>
		<text transform="matrix(1 0 0 1 59.8698 161.9081)" class="st8 st9 st10">CSS</text>
	</g>
	<rect x="55.9" y="286.2" class="st4" width="90.7" height="18.2"/>
	<g>
		<circle class="st5" cx="242" cy="128.4" r="4.3"/>
		<circle class="st5" cx="242" cy="258.8" r="4.3"/>
		<circle class="st5" cx="242" cy="390.9" r="4.3"/>
		<circle class="st5" cx="242" cy="518.8" r="4.3"/>
		<circle class="st5" cx="242" cy="646.7" r="4.3"/>
	</g>
	<g>
		<circle class="st5" cx="154.8" cy="194.9" r="4.3"/>
		<circle class="st5" cx="154.8" cy="322.2" r="4.3"/>
		<circle class="st5" cx="154.8" cy="451.4" r="4.3"/>
		<circle class="st5" cx="154.8" cy="581.7" r="4.3"/>
		<circle class="st5" cx="154.8" cy="709.3" r="4.3"/>
	</g>
</g>
<g id="Layer_4">
	<rect x="242" y="85.1" class="st4" width="140.2" height="18.5"/>
	<text transform="matrix(1 0 0 1 291.1259 99.655)" class="st11 st10">Test</text>
	<rect x="247.9" y="109.3" class="st4" width="128.2" height="65.9"/>
	<text transform="matrix(1 0 0 1 247.912 122.4587)"><tspan x="0" y="0" class="st12 st13">test fdfsgr</tspan><tspan x="0" y="21.6" class="st12 st13">testdfds d</tspan><tspan x="0" y="43.2" class="st12 st13">testfdsa a</tspan></text>
</g>
</svg>
