<?xml version="1.0" encoding="utf-8"?>
<!-- Generator: Adobe Illustrator 27.5.0, SVG Export Plug-In . SVG Version: 6.00 Build 0)  -->
<svg version="1.1" xmlns="http://www.w3.org/2000/svg" xmlns:xlink="http://www.w3.org/1999/xlink" x="0px" y="0px"
	 viewBox="0 0 378.6 802.2" style="enable-background:new 0 0 378.6 802.2;" xml:space="preserve">
<style type="text/css">
	.st0{fill:none;stroke:#777774;stroke-width:7;stroke-linecap:round;stroke-miterlimit:10;}
	.st1{fill:none;stroke:#797774;stroke-width:5;stroke-linecap:round;stroke-miterlimit:10;}
	.st2{fill:none;}
	.st3{fill:#A1A1A1;stroke:#5E5D5A;stroke-width:3;stroke-linecap:round;stroke-miterlimit:10;}
	.st4{opacity:0.3;fill:#BDBDBD;}
	.st5{fill:#07BDB7;}
	.st6{font-family:'MyriadPro-Regular';}
	.st7{font-size:20px;}
</style>
<g id="Vertical_Line">
	<path class="st0" d="M191.5,739.3c0,0,0-480.7,0-640.9"/>
</g>
<g id="Horizontal_Lines">
	<line class="st1" x1="192.2" y1="128.4" x2="342.2" y2="127.8"/>
	<line class="st1" x1="35.8" y1="195.1" x2="185.8" y2="194.9"/>
	<line class="st1" x1="192.7" y1="258.8" x2="342.7" y2="258.5"/>
	<line class="st1" x1="35.8" y1="322.5" x2="185.8" y2="322.3"/>
	<line class="st1" x1="192" y1="390.9" x2="343" y2="390.9"/>
	<line class="st1" x1="35.8" y1="451.5" x2="192.5" y2="451.5"/>
	<line class="st1" x1="189.1" y1="518.8" x2="343" y2="518.8"/>
	<line class="st1" x1="35.8" y1="581.8" x2="191" y2="581.8"/>
	<line class="st1" x1="193.1" y1="646.7" x2="343" y2="646.1"/>
	<line class="st1" x1="35.8" y1="710.1" x2="188.3" y2="709.5"/>
	<line class="st2" x1="41.5" y1="196.4" x2="41.5" y2="196.4"/>
</g>
<g id="Circles">
	<circle class="st3" cx="191.5" cy="128.4" r="7.2"/>
	<circle class="st3" cx="191.5" cy="195" r="7.2"/>
	<circle class="st3" cx="191.5" cy="258.8" r="7.2"/>
	<circle class="st3" cx="191.5" cy="322.3" r="7.2"/>
	<circle class="st3" cx="191.5" cy="390.9" r="7.2"/>
	<circle class="st3" cx="191.5" cy="451.5" r="7.2"/>
	<circle class="st3" cx="191.5" cy="518.8" r="7.2"/>
	<circle class="st3" cx="191.5" cy="581.8" r="7.2"/>
	<circle class="st3" cx="191.5" cy="646.7" r="7.2"/>
	<circle class="st3" cx="191.5" cy="709.4" r="7.2"/>
</g>
<g id="Layer_5">
	<path class="st4" d="M334.4,247.9H210.2c-4.4,0-8-3.6-8-8v-90.7c0-4.4,3.6-8,8-8h124.2c4.4,0,8,3.6,8,8v90.7
		C342.4,244.3,338.9,247.9,334.4,247.9z"/>
	<path class="st4" d="M172.1,312.7H47.9c-4.4,0-8-3.6-8-8V214c0-4.4,3.6-8,8-8h124.2c4.4,0,8,3.6,8,8v90.7
		C180.1,309.1,176.5,312.7,172.1,312.7z"/>
	<path class="st4" d="M165.3,184H41.1c-4.4,0-8-3.6-8-8V85.3c0-4.4,3.6-8,8-8h124.2c4.4,0,8,3.6,8,8V176
		C173.3,180.4,169.7,184,165.3,184z"/>
	<path class="st4" d="M334.4,762.5H210.2c-4.4,0-8-3.6-8-8v-90.7c0-4.4,3.6-8,8-8h124.2c4.4,0,8,3.6,8,8v90.7
		C342.4,758.9,338.9,762.5,334.4,762.5z"/>
	<path class="st4" d="M334.4,378.2H210.2c-4.4,0-8-3.6-8-8v-90.7c0-4.4,3.6-8,8-8h124.2c4.4,0,8,3.6,8,8v90.7
		C342.4,374.6,338.9,378.2,334.4,378.2z"/>
	<path class="st4" d="M169.6,440.4H45.4c-4.4,0-8-3.6-8-8v-90.7c0-4.4,3.6-8,8-8h124.2c4.4,0,8,3.6,8,8v90.7
		C177.6,436.8,174,440.4,169.6,440.4z"/>
	<path class="st4" d="M334.4,509.5H210.2c-4.4,0-8-3.6-8-8v-90.7c0-4.4,3.6-8,8-8h124.2c4.4,0,8,3.6,8,8v90.7
		C342.4,506,338.9,509.5,334.4,509.5z"/>
	<path class="st4" d="M172.1,570H47.9c-4.4,0-8-3.6-8-8v-90.7c0-4.4,3.6-8,8-8h124.2c4.4,0,8,3.6,8,8V562
		C180.1,566.5,176.5,570,172.1,570z"/>
	<path class="st4" d="M334.4,633.3H210.2c-4.4,0-8-3.6-8-8v-90.7c0-4.4,3.6-8,8-8h124.2c4.4,0,8,3.6,8,8v90.7
		C342.4,629.7,338.9,633.3,334.4,633.3z"/>
	<path class="st4" d="M175.8,698.1H51.5c-4.4,0-8-3.6-8-8v-90.7c0-4.4,3.6-8,8-8h124.2c4.4,0,8,3.6,8,8v90.7
		C183.8,694.5,180.2,698.1,175.8,698.1z"/>
</g>
<g id="Layer_4">
	<g>
		<rect x="41.5" y="108.8" class="st2" width="57.8" height="24.6"/>
		<text transform="matrix(1 0 0 1 41.4917 123.0313)" class="st5 st6 st7">HTML</text>
	</g>
	<g>
		<rect x="223.7" y="200.7" class="st2" width="38" height="17.5"/>
		<text transform="matrix(1 0 0 1 223.6929 214.9239)" class="st5 st6 st7">CSS</text>
	</g>
	<rect x="50.4" y="286.2" class="st2" width="90.7" height="18.2"/>
	<text transform="matrix(1 0 0 1 50.4046 300.4073)" class="st5 st6 st7">JavaScript</text>
	<g>
		<rect x="209.7" y="358" class="st2" width="131.8" height="21"/>
		<text transform="matrix(1 0 0 1 209.6703 372.1914)" class="st5 st6 st7">Version Control</text>
	</g>
	<g>
		<rect x="18.2" y="419.8" class="st2" width="155.1" height="18.4"/>
		<text transform="matrix(1 0 0 1 18.2377 434.0372)" class="st5 st6 st7">Package Manager</text>
	</g>
	<g>
		<rect x="213.9" y="463.3" class="st2" width="156.7" height="20.6"/>
		<text transform="matrix(1 0 0 1 213.9479 477.4971)" class="st5 st6 st7">CSS Preprocessors</text>
	</g>
	<g>
		<rect x="63.6" y="539.3" class="st2" width="95.7" height="18.2"/>
		<text transform="matrix(1 0 0 1 63.5559 553.5041)" class="st5 st6 st7">Build Tools</text>
	</g>
	<g>
		<rect x="209.7" y="609.2" class="st2" width="135.5" height="23.7"/>
		<text transform="matrix(1 0 0 1 209.6702 623.408)" class="st5 st6 st7">CSS Framework</text>
	</g>
	<g>
		<rect x="19.8" y="621" class="st2" width="173.3" height="41.9"/>
		<text transform="matrix(1 0 0 1 19.8012 635.2418)" class="st5 st6 st7">JS Framework</text>
	</g>
</g>
</svg>
