<?xml version="1.0" encoding="utf-8"?>
<!-- Generator: Adobe Illustrator 27.5.0, SVG Export Plug-In . SVG Version: 6.00 Build 0)  -->
<svg version="1.1" id="Layer_1" xmlns="http://www.w3.org/2000/svg" xmlns:xlink="http://www.w3.org/1999/xlink" x="0px" y="0px"
	 viewBox="0 0 100 100" style="enable-background:new 0 0 100 100;" xml:space="preserve">
<style type="text/css">
	.st0{fill:#D1D3D4;}
	.st1{fill:#404242;}
</style>
<g>
	<polygon class="st0" points="74.8,47.6 74.8,60.4 70.7,60.4 70.7,45.6 	"/>
	<path class="st0" d="M16.5,58l3.1,2.7l13-6.8l-1.3-3.2L16.5,58z M70.7,49.8l10.5-5.4l-1.8-3.1l-8.7,4.3V49.8z"/>
	<path class="st0" d="M41.2,46.6v13.8h-4V40.7L41.2,46.6z M16.5,58l3.1,2.7l6-14.9l-1.9-5.1L16.5,58z"/>
	<path class="st0" d="M23.6,40.7h4.1l7.5,19.7H31L23.6,40.7z M41.8,40.7l8.7,13.4v6.2L37.3,40.7H41.8z M57.9,40.7H62v19.7h-4.1V40.7
		z M70.7,44.3h-6.3v-3.6h14.7l2.1,3.6h-6.4H70.7z"/>
	<polyline class="st0" points="93.3,52.9 93.3,60.4 89.2,60.4 89.2,52.9 	"/>
	<polygon class="st0" points="96.1,40.7 89.2,52.9 93.3,52.9 100.4,40.7 	"/>
	<polygon class="st0" points="89.2,52.9 82.1,40.7 86.6,40.7 91.4,49.1 	"/>
	<path class="st0" d="M1.2,43c0,2.7,1.7,4.4,5.1,5.2l3.6,0.8c3.2,0.7,5.2,2.6,5.2,5.6c0,1.3-0.4,2.5-1.2,3.6c0-3-1.5-4.6-5.2-5.6
		l-3.5-0.8c-2.8-0.6-5-2.1-5-5.4C0.1,45.2,0.5,44,1.2,43"/>
	<polygon class="st0" points="50.5,53.2 50.5,40.7 54.4,40.7 54.4,60.4 50.5,60.4 	"/>
	<path class="st0" d="M11.6,53.9c1.5,1,2.2,2.3,2.2,4.3c-1.3,1.6-3.5,2.5-6.1,2.5c-4.4,0-7.5-2.2-8.2-5.9h4.2c0.5,1.7,2,2.5,3.9,2.5
		C10,57.3,11.6,56.1,11.6,53.9 M1.2,43c1.2-1.6,3.4-2.6,5.9-2.6c4.5,0,7.1,2.4,7.7,5.7h-4.1c-0.5-1.3-1.6-2.3-3.6-2.3
		c-2.2,0-3.7,1.3-3.8,3.3C1.9,46.2,1.1,44.7,1.2,43z"/>
</g>
<rect x="-127.9" y="-17.5" class="st1" width="100" height="47"/>
<rect x="-127.9" y="35.5" class="st0" width="100" height="47"/>
</svg>
