<?xml version="1.0" encoding="utf-8"?>
<!-- Generator: Adobe Illustrator 27.5.0, SVG Export Plug-In . SVG Version: 6.00 Build 0)  -->
<svg version="1.1" id="Layer_1" xmlns="http://www.w3.org/2000/svg" xmlns:xlink="http://www.w3.org/1999/xlink" x="0px" y="0px"
	 viewBox="0 0 100 100" style="enable-background:new 0 0 100 100;" xml:space="preserve">
<style type="text/css">
	.st0{fill-rule:evenodd;clip-rule:evenodd;fill:#D1D3D4;}
	.st1{fill:#404242;}
	.st2{fill:#D1D3D4;}
</style>
<path class="st0" d="M3.2,43c0,0.5,0.1,2.1,0.1,2.4c0.6,2.2,1.8,4.1,3.2,5.8c2.1,2.4,4.6,4.4,7.1,6.3c2.2,1.6,4.5,3.2,6.8,4.8
	c0.4,0.3,0.7,0.6,1.2,0.9c-0.4,0.2-0.7,0.4-1,0.5c-3,1.5-5.8,3.2-8.4,5.2c-1.6,1.2-3.1,2.5-4.2,4.2c-1.7,2.7-2.4,5.7-1.1,8.8
	c0.4,0.9,1,1.7,1.8,2.3c0.3,0.2,0.6,0.4,0.9,0.4c0.8,0.2,1.6,0.3,2.4,0.5h2.3c2.5-0.2,4.8-1.1,6.9-2.5c3.2-2.2,5.4-5.2,6.3-9
	c0.7-2.8,0.7-5.6-0.1-8.3c-0.1-0.3-0.2-0.5-0.3-0.8s-0.2-0.5-0.3-0.8l5.1-3l0.1,0.1c-0.1,0.3-0.2,0.6-0.3,0.9
	c-0.6,2.2-1,4.5-0.9,6.8c0.2,2.5,0.8,4.8,2.3,6.8c1.2,1.7,4,1.7,5.2,0.1c0.4-0.6,0.9-1.2,1.2-1.9c0.8-1.7,1.6-3.5,2.4-5.2L42,68
	c-0.1,0.8-0.1,1.6-0.2,2.3c0,1.1,0,2.3,0.4,3.3c0.3,0.9,0.9,1.6,2,1.7c0.7,0.1,1.3-0.2,1.8-0.7c0.8-0.7,1.5-1.5,2-2.4
	c1.4-2.6,2.9-5.2,4.2-7.9c1.4-2.9,2.6-5.9,3.9-8.8l0.2-0.5c0.3,1.2,0.5,2.4,0.9,3.5c0.5,1.3,1,2.6,1.6,3.8c0.3,0.6,0.3,1-0.1,1.4
	c-1.7,2-3.3,4.1-5,6.1c-0.4,0.5-0.7,0.9-1,1.4c-0.2,0.3-0.3,0.7-0.4,1c-0.1,0.7,0.3,1.3,1,1.5c0.7,0.1,1.4,0.2,2,0.1
	c2.3-0.2,4.4-1,6.3-2.4c2.4-1.8,3.2-4.2,2.6-7.1c-0.2-0.8-0.4-1.5-0.7-2.3c-0.1-0.3-0.1-0.6,0.1-0.9c1.9-2.7,3.6-5.7,5.1-8.7
	c0.1-0.1,0.1-0.2,0.2-0.4c0.5,2.6,1.2,5.1,2.6,7.3c-0.7,0.7-1.4,1.3-2,1.9c-1.3,1.4-2.5,3-3.1,4.9c-0.3,0.8-0.5,1.7-0.3,2.5
	c0.2,1.4,1.3,2.3,2.6,1.9c2.9-0.7,5.4-2,7.2-4.4c1.2-1.6,1.3-3.4,0.8-5.3c-0.1-0.5-0.3-1-0.5-1.6c0.7-0.2,1.4-0.5,2.1-0.6
	c3.7-0.8,7.4-0.7,11,0.6c2.1,0.8,3.8,2.1,4.8,4.2c1.2,2.5,0.5,4.9-1.8,6.5c-0.2,0.1-0.5,0.3-0.7,0.5c-0.1,0.1-0.2,0.3-0.2,0.5
	c0,0.1,0.3,0.2,0.4,0.2c0.8,0,1.4-0.4,2-0.8c1.5-1.1,2.6-2.5,2.9-4.3v-0.1l-0.1-1.2c0-0.1,0-0.1,0-0.2c-0.3-2.7-1.8-4.8-3.9-6.5
	c-2.5-1.9-5.3-2.7-8.4-2.8c-2.5-0.1-4.9,0.3-7.3,1.1c-0.7,0.2-1.3,0.5-2,0.8c-0.1-0.2-0.2-0.3-0.3-0.5c-0.7-1.4-1.5-2.8-1.7-4.4
	c-0.1-1.2-0.3-2.3,0-3.4c0.3-1.1,0.6-2.2,0.9-3.3c0.2-0.6,0-0.9-0.5-1.1c-0.2-0.1-0.4-0.2-0.6-0.2c-1.3-0.2-2.6-0.1-3.9,0.3
	c-0.4,0.1-0.8,0.4-0.9,0.9c-0.1,0.3-0.2,0.6-0.3,0.8c-0.3,1.2-0.6,2.4-1.1,3.5c-1.3,2.8-2.9,5.5-4.4,8.1c-0.2,0.3-0.3,0.6-0.6,0.9
	c-0.6-1.2-1.1-2.2-1.3-3.4c-0.2-1.4-0.4-2.7,0-4.1c0.3-1,0.6-2,0.9-3c0.1-0.5,0.1-0.7-0.4-1c-0.2-0.1-0.5-0.2-0.7-0.3
	c-1.4-0.2-2.7-0.1-4,0.3c-0.4,0.1-0.6,0.4-0.7,0.8c-0.4,1.2-0.7,2.5-1.2,3.7c-2.1,4.8-4.2,9.5-6.3,14.2c-0.4,1-1,1.9-1.5,2.9
	c-0.1,0.2-0.3,0.5-0.5,0.7c-0.1-0.2-0.2-0.3-0.2-0.4c0-0.6-0.1-1.2,0-1.8c0.4-1.8,0.8-3.5,1.2-5.3c0.4-1.5,0.8-2.9,1.1-4.3
	c0.1-0.5,0.1-0.9-0.2-1.3c-0.6-0.7-1.8-0.8-2.5-0.3L45,56.3l0.1-0.5c0.2-1.1,0.2-2.2-0.1-3.3c-0.4-1.4-1.3-2.1-2.8-2.1
	c-0.7,0-1.3,0.1-2,0.4c-2.6,1-4.5,2.8-6.2,4.9c-0.2,0.2-0.4,0.4-0.6,0.5c-2.2,1.2-4.3,2.4-6.5,3.6L25,61.3c-0.6-0.6-1.2-1.3-1.9-1.8
	c-2-1.7-4.1-3.3-6.2-4.9c-1.8-1.5-3.6-3-4.9-4.9c-1-1.4-1.7-3-1.7-4.8c-0.1-2.3,0.6-4.3,1.7-6.3c1.5-2.5,3.5-4.4,5.7-6.2
	c2.3-1.9,4.9-3.5,7.5-5c3.7-2.1,7.4-3.9,11.5-5.1s8.3-1.9,12.7-1.4c1.7,0.2,3.4,0.6,4.9,1.4c1.2,0.6,2.1,1.5,2.6,2.8
	c0.4,1.3,0.4,2.6,0.1,3.9c-0.6,2.6-2.1,4.8-3.9,6.8c-3,3.2-6.6,5.4-10.7,6.8c-2.4,0.8-4.8,1.3-7.3,1.6c-2,0.2-4,0-6-0.7
	c-1.3-0.5-2.4-1.2-3.3-2.2c-0.2-0.2-0.4-0.4-0.7-0.2c-0.3,0.2-0.3,0.5-0.2,0.7c0.2,0.5,0.3,1,0.6,1.4c0.6,1.1,1.6,1.8,2.6,2.5
	c2,1.3,4.2,1.7,6.5,1.8c3.5,0.2,6.9-0.4,10.2-1.3c4.8-1.3,8.9-3.7,12.3-7.4c2.8-3.1,4.8-6.6,5.2-10.8c0.2-2.1,0-4.1-1-5.9
	c-1-2-2.7-3.5-4.7-4.6c-2.9-1.5-6-2.4-9.2-2.4H44c-3.9,0-7.7,1.1-11.3,2.4c-2.8,1-5.5,2.2-8.1,3.5c-5.7,2.9-11.1,6.3-15.5,11.1
	c-2.2,2.4-4,5-5.1,8.1C3.7,41.1,3.4,42.1,3.2,43 M23.9,69.7c-0.2,3.3-1.8,6-4.2,8.2c-1.4,1.2-3,2.1-4.8,2.4c-0.7,0.1-1.4,0.1-2-0.1
	c-0.9-0.4-1.1-1.2-1.2-2.1c0-1.4,0.5-2.7,1.1-3.9c0.9-1.6,2.2-2.8,3.5-3.9c2.2-1.8,4.5-3.3,6.9-4.7l0.2-0.1
	C23.9,67,24,68.4,23.9,69.7z M42.8,55.3c-0.2,1.1-0.4,2.1-0.7,3.2c-1.1,3.6-2.5,7-3.9,10.4c-0.3,0.6-0.7,1.2-1,1.8
	c-0.1,0.1-0.1,0.2-0.2,0.2c-0.4,0.4-0.8,0.4-1.1-0.2s-0.4-1.3-0.5-2c-0.1-0.5-0.1-0.9-0.1-1.4c0-3.4,1.1-6.4,2.8-9.3
	c0.7-1.2,1.5-2.3,2.7-3c0.4-0.2,0.8-0.4,1.2-0.5C42.5,54.3,42.9,54.6,42.8,55.3z M55.6,71.6l4.6-5.4C60.4,68.2,57,72.2,55.6,71.6z
	 M70.3,68c-0.3,0.2-0.7,0.3-1,0.5s-0.4,0-0.4-0.3c0-0.2,0-0.4,0.1-0.5c0.6-2.2,1.8-4.1,3.5-5.6l0.1-0.1C73.4,64.3,72.4,66.8,70.3,68
	z"/>
<rect x="117.6" y="0.1" class="st1" width="100" height="47"/>
<rect x="117.6" y="53.1" class="st2" width="100" height="47"/>
</svg>
