<?xml version="1.0" encoding="utf-8"?>
<!-- Generator: Adobe Illustrator 19.2.1, SVG Export Plug-In . SVG Version: 6.00 Build 0)  -->
<svg version="1.1" id="layer" xmlns="http://www.w3.org/2000/svg" xmlns:xlink="http://www.w3.org/1999/xlink" x="0px" y="0px"
	 viewBox="0 0 652 652" style="enable-background:new 0 0 652 652;" xml:space="preserve">
<style type="text/css">
	.st0{fill-rule:evenodd;clip-rule:evenodd;fill:#8898AA;}
</style>
<path class="st0" d="M125.6,355.2c0,30.2-23.2,47.4-57.6,47.4c-14.3,0-29.4-2.8-44.8-9.5v-40c13.9,7.6,31.1,13.4,44.8,13.4
	c9.2,0,15.4-2.5,15.4-10.2c0-20-62.9-12.5-62.9-58.9c0-29.7,22.9-47.4,56.4-47.4c13.7,0,27.4,2.1,41.1,7.7v39.5
	c-12.6-6.9-28.6-10.8-41.2-10.8c-8.7,0-14.5,2.5-14.5,9.1C62.3,314.2,125.6,305.3,125.6,355.2z M174.9,348.1
	c0,24.7,26.1,17,31.4,14.9V397c-5.5,3.1-15.5,5.6-29,5.6c-24.6,0-43-18.3-43-43.1l0.2-134.1l40.4-8.7l0,36h31.4v35.7h-31.4V348.1z
	 M260.8,300v99.6h-41.4V252.7h37.1l1.3,12.4c10.1-18,30.9-14.4,36.4-12.4v38.5C289,289.5,271.2,286.9,260.8,300z M304.2,204.9
	l41.5-8.9v34.2l-41.5,8.9V204.9z M304.2,252.7h41.5v146.9h-41.5V252.7z M422.4,287.1c-9.5,0-15.5,3.5-19.8,8.3l0.2,62.3
	c4,4.4,9.8,8,19.5,8c15.3,0,25.6-16.9,25.6-39.4C448,304.2,437.5,287.1,422.4,287.1z M432,402.6c-14.5,0-23.3-6.2-29.3-10.6
	l-0.1,47.1l-41.4,8.9l0-195.3H399l0.9,10.4c6.1-5.4,16.2-13.1,32.4-13.1c29.1,0,56.4,26.5,56.4,75.3
	C488.7,378.5,461.6,402.6,432,402.6z M560.3,284.1c-10.3,0-21.8,7.4-21.8,26.3h42.8C581.3,291.5,570.5,284.1,560.3,284.1z
	 M619.9,341.3h-81c1.9,19.6,16.1,25.9,32.2,25.9c16.4,0,29.7-3.7,40.7-9.7v33.8c-11.2,7.2-26.1,11.3-45.9,11.3
	c-40.3,0-68.6-25.6-68.6-76.1c0-42.7,24-76.6,63.3-76.6c39.3,0,59.8,33.4,59.8,76.3C620.4,330.3,620.1,339.1,619.9,341.3z"/>
</svg>
