<?xml version="1.0" encoding="utf-8"?>
<!-- Generator: Adobe Illustrator 27.5.0, SVG Export Plug-In . SVG Version: 6.00 Build 0)  -->
<svg version="1.1" id="Layer_1" xmlns="http://www.w3.org/2000/svg" xmlns:xlink="http://www.w3.org/1999/xlink" x="0px" y="0px"
	 viewBox="0 0 100 100" style="enable-background:new 0 0 100 100;" xml:space="preserve">
<style type="text/css">
	.st0{fill:#07BDB7;}
	.st1{fill:#484157;}
</style>
<g>
	<path class="st0" d="M50,77.5c-11.4,0-16.6-5.3-21.1-9.9c-2.9-2.9-5.6-5.7-9.5-6.7c-1.3-0.3-2.7-0.5-3.9-0.5
		c-3.8,0-7.3,1.5-10.6,4.5C8.5,55.6,15.5,51,26.2,51c11.4,0,16.6,5.3,21.1,9.9c2.9,2.9,5.6,5.7,9.5,6.7c1.3,0.3,2.7,0.5,3.9,0.5
		c3.8,0,7.4-1.5,10.5-4.4C67.7,73,60.6,77.5,50,77.5z M73.8,49c-11.4,0-16.6-5.3-21.1-9.9c-2.9-2.9-5.6-5.7-9.5-6.7
		c-1.4-0.3-2.7-0.5-4-0.5c-3.8,0-7.3,1.5-10.5,4.4C32.3,27,39.4,22.5,50,22.5c11.4,0,16.6,5.3,21.1,9.9c2.9,2.9,5.6,5.7,9.5,6.7
		c1.3,0.3,2.7,0.5,3.9,0.5c3.8,0,7.4-1.5,10.5-4.4C91.5,44.5,84.4,49,73.8,49z"/>
	<path class="st1" d="M50,23.5c11,0,15.8,4.9,20.4,9.6c3,3,5.8,5.9,10,6.9c1.4,0.4,2.8,0.5,4.2,0.5c2.8,0,5.4-0.7,7.8-2.2
		c-3.8,6.4-10,9.6-18.6,9.6c-11,0-15.8-4.9-20.4-9.6c-3-3-5.8-5.9-10-6.9c-1.4-0.4-2.9-0.5-4.2-0.5c-2.8,0-5.4,0.7-7.8,2.2
		C35.2,26.6,41.3,23.5,50,23.5 M26.2,52c11,0,15.8,4.9,20.4,9.6c3,3,5.8,5.9,10,6.9c1.4,0.4,2.8,0.5,4.2,0.5c2.8,0,5.4-0.7,7.8-2.2
		c-3.8,6.4-10,9.6-18.6,9.6c-11,0-15.8-4.9-20.4-9.6c-3-3-5.8-5.9-10-6.9c-1.4-0.4-2.8-0.5-4.2-0.5c-2.8,0-5.4,0.7-7.9,2.2
		C11.3,55.2,17.5,52,26.2,52 M50,21.5c-12.6,0-20.5,6.3-23.7,19c3.8-5,8-7.6,12.9-7.6c1.2,0,2.5,0.2,3.7,0.5
		C52.4,35.8,54.8,50,73.8,50c12.6,0,20.5-6.3,23.7-19c-3.8,5-8.1,7.6-12.9,7.6c-1.2,0-2.4-0.2-3.7-0.5C71.4,35.7,69,21.5,50,21.5
		L50,21.5z M26.2,50C13.6,50,5.7,56.3,2.5,69c3.8-5,8.1-7.6,12.9-7.6c1.2,0,2.4,0.2,3.7,0.5C28.6,64.3,31,78.5,50,78.5
		c12.6,0,20.5-6.3,23.7-19c-3.8,5-8.1,7.6-12.9,7.6c-1.2,0-2.4-0.2-3.7-0.5C47.6,64.2,45.2,50,26.2,50L26.2,50z"/>
</g>
</svg>
