<?xml version="1.0" encoding="utf-8"?>
<!-- Generator: Adobe Illustrator 27.5.0, SVG Export Plug-In . SVG Version: 6.00 Build 0)  -->
<svg version="1.1" id="Layer_1" xmlns="http://www.w3.org/2000/svg" xmlns:xlink="http://www.w3.org/1999/xlink" x="0px" y="0px"
	 viewBox="0 0 100 100" style="enable-background:new 0 0 100 100;" xml:space="preserve">
<style type="text/css">
	.st0{fill:#4FB796;stroke:#484157;stroke-width:1.8989;stroke-miterlimit:10;}
</style>
<path class="st0" d="M26.3,40.5c3.2-12.7,11.1-19,23.7-19c19,0,21.4,14.2,30.9,16.6c6.3,1.6,11.9-0.8,16.6-7.1
	c-3.2,12.7-11.1,19-23.7,19c-19,0-21.4-14.2-30.9-16.6C36.5,31.8,31,34.2,26.3,40.5z M2.5,69c3.2-12.7,11.1-19,23.7-19
	c19,0,21.4,14.2,30.9,16.6c6.3,1.6,11.9-0.8,16.6-7.1c-3.2,12.7-11.1,19-23.7,19c-19,0-21.4-14.2-30.9-16.6
	C12.8,60.3,7.3,62.7,2.5,69z"/>
</svg>
