<?xml version="1.0" encoding="utf-8"?>
<!-- Generator: Adobe Illustrator 27.5.0, SVG Export Plug-In . SVG Version: 6.00 Build 0)  -->
<svg version="1.1" id="Layer_1" xmlns="http://www.w3.org/2000/svg" xmlns:xlink="http://www.w3.org/1999/xlink" x="0px" y="0px"
	 viewBox="0 0 100 100" style="enable-background:new 0 0 100 100;" xml:space="preserve">
<style type="text/css">
	.st0{fill:#07BDB7;}
	.st1{fill:#484157;}
	.st2{fill:#07FFEF;}
</style>
<g>
	<path class="st0" d="M50.4,95.5c-0.5,0-0.9-0.3-1.2-0.7l-44.5-78c-0.4-0.6-0.1-1.1,0-1.4C5,15,5.5,14.7,5.9,14.7c0.1,0,0.2,0,0.3,0
		l43.7,7.8h1l42.8-7.8c0.1,0,0.2,0,0.3,0c0.5,0,1,0.3,1.2,0.7c0.2,0.4,0.2,0.9,0,1.4l-43.6,78C51.4,95.2,50.9,95.5,50.4,95.5z"/>
	<path class="st1" d="M94,15.7c0.2,0,0.3,0.1,0.4,0.2c0.1,0.1,0.1,0.3,0,0.4l-43.6,78c-0.1,0.1-0.2,0.2-0.3,0.2s-0.2-0.1-0.3-0.2
		l-44.5-78c-0.1-0.1-0.1-0.2,0-0.3c0,0,0.1-0.2,0.3-0.2c0,0,0.1,0,0.1,0l43.6,7.8l0.2,0H50h0.8H51l0.2,0l42.7-7.8
		C93.9,15.7,94,15.7,94,15.7 M94,13.8c-0.2,0-0.3,0-0.5,0l-42.7,7.8c-0.2,0-0.5,0-0.8,0L6.4,13.8c-0.2,0-0.3,0-0.5,0
		c-1.8,0-2.9,2-2,3.5l44.5,78c0.4,0.8,1.2,1.2,2,1.2s1.6-0.4,2-1.2l43.6-78C97,15.7,95.8,13.8,94,13.8L94,13.8z"/>
</g>
<g>
	<path class="st2" d="M50.2,80.2c-0.1,0-0.2,0-0.2-0.1c0,0,0,0,0-0.1l4.2-20.5c0.1-0.7,0-1.3-0.4-1.9c-0.4-0.5-1-0.8-1.7-0.8
		c-0.2,0-0.5,0-0.7,0.1l-5.5,1.7c-0.1,0-0.2,0-0.2-0.1c0,0,0-0.1,0-0.1l2.7-13.1c0.1-0.6,0-1.3-0.4-1.8c-0.4-0.5-1-0.8-1.7-0.8
		c-0.2,0-0.3,0-0.5,0.1l-8.9,2.1h-0.1c-0.1,0-0.2-0.1-0.2-0.3l2-33.4c0-0.1,0.2-0.3,0.2-0.3L71,4.6l0.1,0c0,0,0.1,0.2,0,0.3l-6,20.9
		c-0.2,0.8,0,1.5,0.4,2c0.4,0.5,1,0.8,1.7,0.8c0.2,0,0.3,0,0.5-0.1l9.2-1.8c0,0,0,0,0.1,0c0.1,0,0.1,0,0.1,0.1c0,0,0.1,0.1,0,0.3
		L50.8,79.5l-0.5,0.6C50.3,80.2,50.3,80.2,50.2,80.2z"/>
	<g>
		<path class="st1" d="M69.9,5.8l-5.7,19.7l0,0.1l0,0.1c-0.2,1,0,2,0.6,2.8c0.6,0.7,1.5,1.2,2.4,1.2c0.2,0,0.5,0,0.7-0.1l7.6-1.5
			L52,74.9l3.1-15.1c0.2-1,0-2-0.6-2.7c-0.6-0.7-1.5-1.2-2.4-1.2c-0.3,0-0.7,0.1-1,0.2l-4.2,1.3l2.4-11.8c0.2-1,0-1.9-0.6-2.7
			c-0.6-0.7-1.5-1.2-2.5-1.2c-0.3,0-0.5,0-0.7,0.1l-7.9,1.8l1.9-31.9L69.9,5.8 M71.1,3.6c-0.1,0-0.2,0-0.3,0L38.6,9.9
			c-0.5,0.1-0.9,0.6-1,1.1l-2,33.5c0,0.7,0.5,1.2,1.1,1.3c0.1,0,0.2,0,0.3,0l9-2.1c0.1,0,0.2,0,0.3,0c0.7,0,1.3,0.6,1.1,1.4
			l-2.7,13.1c-0.2,0.8,0.4,1.4,1.2,1.4c0.1,0,0.2,0,0.3,0l5.5-1.7c0.1,0,0.3-0.1,0.4-0.1c0.7,0,1.3,0.7,1.1,1.5L49,79.8
			c-0.2,0.9,0.5,1.4,1.2,1.4c0.4,0,0.8-0.2,1-0.5l0.5-0.7L78,27.5c0.4-0.8-0.2-1.7-1-1.7c-0.1,0-0.2,0-0.3,0l-9.2,1.8
			c-0.1,0-0.2,0-0.3,0c-0.8,0-1.3-0.7-1.1-1.5l6-20.9C72.4,4.3,71.8,3.6,71.1,3.6L71.1,3.6z"/>
	</g>
</g>
</svg>
