<?xml version="1.0" encoding="utf-8"?>
<!-- Generator: Adobe Illustrator 27.5.0, SVG Export Plug-In . SVG Version: 6.00 Build 0)  -->
<svg version="1.1" id="Layer_1" xmlns="http://www.w3.org/2000/svg" xmlns:xlink="http://www.w3.org/1999/xlink" x="0px" y="0px"
	 viewBox="0 0 100 100" style="enable-background:new 0 0 100 100;" xml:space="preserve">
<style type="text/css">
	.st0{fill:#AD85FF;stroke:#000000;stroke-miterlimit:10;}
	.st1{fill:#E2D4FF;stroke:#000000;stroke-miterlimit:10;}
</style>
<path class="st0" d="M96.1,17.3l-43.6,78c-0.9,1.6-3.2,1.6-4.1,0l-44.5-78c-1-1.7,0.5-3.9,2.5-3.5L50,21.6c0.3,0,0.6,0,0.8,0
	l42.7-7.8C95.6,13.4,97.1,15.5,96.1,17.3z"/>
<path class="st1" d="M70.8,3.6L38.6,9.9c-0.5,0.1-0.9,0.6-1,1.1l-2,33.5c0,0.7,0.5,1.2,1.1,1.3c0.1,0,0.2,0,0.3,0l9-2.1
	c0.8-0.2,1.6,0.5,1.4,1.4l-2.7,13.1c-0.2,0.9,0.6,1.6,1.5,1.4l5.5-1.7c0.9-0.3,1.7,0.5,1.5,1.4l-4.2,20.5c-0.3,1.3,1.4,2,2.2,0.9
	l0.5-0.7l26.3-52.5c0.4-0.9-0.3-1.9-1.3-1.7l-9.2,1.8c-0.9,0.2-1.6-0.6-1.4-1.5l6-20.9C72.4,4.2,71.7,3.4,70.8,3.6L70.8,3.6z"/>
</svg>
